<?plantuml 1.2026.2?><svg xmlns="http://www.w3.org/2000/svg" xmlns:xlink="http://www.w3.org/1999/xlink" contentStyleType="text/css" data-diagram-type="CLASS" height="303px" preserveAspectRatio="none" style="width:643px;height:303px;background:#FFFFFF;" version="1.1" viewBox="0 0 643 303" width="643px" zoomAndPan="magnify"><defs/><g><!--class Pedido--><g class="entity" data-qualified-name="Pedido" data-source-line="3" id="ent0002"><rect fill="#F1F1F1" height="105.2038" rx="2.5" ry="2.5" style="stroke:#181818;stroke-width:0.5;" width="106.7376" x="21.13" y="16.54"/><ellipse cx="50.5785" cy="32.54" fill="#A9DCDF" rx="11" ry="11" style="stroke:#181818;stroke-width:1;"/><path d="M45.7504,38.29 L49.0941,26.1025 L52.2347,26.1025 L55.6097,38.29 L53.141,38.29 L52.4066,35.2744 L48.891,35.2744 L48.141,38.29 L45.7504,38.29 Z M50.1566,30.2431 L49.4066,33.2431 L51.9222,33.2431 L51.2035,30.2431 Q51.0629,29.665 50.9379,29.1181 Q50.8129,28.5556 50.6722,27.9775 Q50.5629,28.5556 50.4222,29.1181 Q50.2816,29.665 50.1566,30.2431 Z " fill="#000000"/><text fill="#000000" font-family="sans-serif" font-size="14" font-style="italic" lengthAdjust="spacing" textLength="42.6299" x="67.7893" y="37.972">Pedido</text><line style="stroke:#181818;stroke-width:0.5;" x1="22.13" x2="126.8676" y1="48.54" y2="48.54"/><text fill="#000000" font-family="sans-serif" font-size="14" lengthAdjust="spacing" textLength="63.5178" x="27.13" y="67.5059">-id: String</text><text fill="#000000" font-family="sans-serif" font-size="14" lengthAdjust="spacing" textLength="94.7376" x="27.13" y="86.5739">-cliente: String</text><text fill="#000000" font-family="sans-serif" font-size="14" lengthAdjust="spacing" textLength="87.7937" x="27.13" y="105.6418">-total: double</text><line style="stroke:#181818;stroke-width:0.5;" x1="22.13" x2="126.8676" y1="113.7438" y2="113.7438"/></g><!--class PedidoFisico--><g class="entity" data-qualified-name="PedidoFisico" data-source-line="9" id="ent0003"><rect fill="#F1F1F1" height="86.1358" rx="2.5" ry="2.5" style="stroke:#181818;stroke-width:0.5;" width="158.9994" x="7" y="210.27"/><ellipse cx="42.2256" cy="226.27" fill="#ADD1B2" rx="11" ry="11" style="stroke:#181818;stroke-width:1;"/><path d="M41.6943,233.1919 Q39.9443,233.1919 38.8037,232.4575 Q37.6787,231.7075 37.1162,230.3638 Q36.5693,229.0044 36.5693,227.2075 Q36.5693,225.1763 37.2256,223.7231 Q37.8818,222.27 39.1631,221.4888 Q40.4443,220.7075 42.3193,220.7075 Q43.21,220.7075 43.8818,220.895 Q44.5537,221.0669 45.2412,221.4106 L44.4287,223.4263 Q43.8037,223.1138 43.2568,222.9888 Q42.7256,222.8638 42.2412,222.8638 Q41.0693,222.8638 40.3662,223.395 Q39.6631,223.9263 39.3662,224.8794 Q39.0693,225.8325 39.0693,227.0981 Q39.0693,229.1138 39.7881,230.0825 Q40.5068,231.0356 42.1006,231.0356 Q42.6943,231.0356 43.3193,230.8794 Q43.9443,230.7231 44.7725,230.3481 L44.7725,232.5669 Q44.0381,232.8794 43.2412,233.0356 Q42.46,233.1919 41.6943,233.1919 Z " fill="#000000"/><text fill="#000000" font-family="sans-serif" font-size="14" lengthAdjust="spacing" textLength="82.0537" x="60.7201" y="231.702">PedidoFisico</text><line style="stroke:#181818;stroke-width:0.5;" x1="8" x2="164.9994" y1="242.27" y2="242.27"/><text fill="#000000" font-family="sans-serif" font-size="14" lengthAdjust="spacing" textLength="146.9994" x="13" y="261.2359">-direccionEnvio: String</text><text fill="#000000" font-family="sans-serif" font-size="14" lengthAdjust="spacing" textLength="89.4317" x="13" y="280.3039">-peso: double</text><line style="stroke:#181818;stroke-width:0.5;" x1="8" x2="164.9994" y1="288.4058" y2="288.4058"/></g><!--class PedidoDigital--><g class="entity" data-qualified-name="PedidoDigital" data-source-line="14" id="ent0004"><rect fill="#F1F1F1" height="67.0679" rx="2.5" ry="2.5" style="stroke:#181818;stroke-width:0.5;" width="120.2417" x="413.38" y="219.81"/><ellipse cx="428.38" cy="235.81" fill="#ADD1B2" rx="11" ry="11" style="stroke:#181818;stroke-width:1;"/><path d="M427.8488,242.7319 Q426.0988,242.7319 424.9581,241.9975 Q423.8331,241.2475 423.2706,239.9038 Q422.7238,238.5444 422.7238,236.7475 Q422.7238,234.7163 423.38,233.2631 Q424.0363,231.81 425.3175,231.0288 Q426.5988,230.2475 428.4738,230.2475 Q429.3644,230.2475 430.0363,230.435 Q430.7081,230.6069 431.3956,230.9506 L430.5831,232.9663 Q429.9581,232.6538 429.4113,232.5288 Q428.88,232.4038 428.3956,232.4038 Q427.2238,232.4038 426.5206,232.935 Q425.8175,233.4663 425.5206,234.4194 Q425.2238,235.3725 425.2238,236.6381 Q425.2238,238.6538 425.9425,239.6225 Q426.6613,240.5756 428.255,240.5756 Q428.8488,240.5756 429.4738,240.4194 Q430.0988,240.2631 430.9269,239.8881 L430.9269,242.1069 Q430.1925,242.4194 429.3956,242.5756 Q428.6144,242.7319 427.8488,242.7319 Z " fill="#000000"/><text fill="#000000" font-family="sans-serif" font-size="14" lengthAdjust="spacing" textLength="88.2417" x="442.38" y="241.242">PedidoDigital</text><line style="stroke:#181818;stroke-width:0.5;" x1="414.38" x2="532.6217" y1="251.81" y2="251.81"/><text fill="#000000" font-family="sans-serif" font-size="14" lengthAdjust="spacing" textLength="87.3597" x="419.38" y="270.7759">-email: String</text><line style="stroke:#181818;stroke-width:0.5;" x1="414.38" x2="532.6217" y1="278.8779" y2="278.8779"/></g><!--class PedidoSuscripcion--><g class="entity" data-qualified-name="PedidoSuscripcion" data-source-line="18" id="ent0005"><rect fill="#F1F1F1" height="67.0679" rx="2.5" ry="2.5" style="stroke:#181818;stroke-width:0.5;" width="152.8895" x="217.05" y="219.81"/><ellipse cx="232.05" cy="235.81" fill="#ADD1B2" rx="11" ry="11" style="stroke:#181818;stroke-width:1;"/><path d="M231.5188,242.7319 Q229.7688,242.7319 228.6281,241.9975 Q227.5031,241.2475 226.9406,239.9038 Q226.3938,238.5444 226.3938,236.7475 Q226.3938,234.7163 227.05,233.2631 Q227.7063,231.81 228.9875,231.0288 Q230.2688,230.2475 232.1438,230.2475 Q233.0344,230.2475 233.7063,230.435 Q234.3781,230.6069 235.0656,230.9506 L234.2531,232.9663 Q233.6281,232.6538 233.0813,232.5288 Q232.55,232.4038 232.0656,232.4038 Q230.8938,232.4038 230.1906,232.935 Q229.4875,233.4663 229.1906,234.4194 Q228.8938,235.3725 228.8938,236.6381 Q228.8938,238.6538 229.6125,239.6225 Q230.3313,240.5756 231.925,240.5756 Q232.5188,240.5756 233.1438,240.4194 Q233.7688,240.2631 234.5969,239.8881 L234.5969,242.1069 Q233.8625,242.4194 233.0656,242.5756 Q232.2844,242.7319 231.5188,242.7319 Z " fill="#000000"/><text fill="#000000" font-family="sans-serif" font-size="14" lengthAdjust="spacing" textLength="120.8895" x="246.05" y="241.242">PedidoSuscripcion</text><line style="stroke:#181818;stroke-width:0.5;" x1="218.05" x2="368.9395" y1="251.81" y2="251.81"/><text fill="#000000" font-family="sans-serif" font-size="14" lengthAdjust="spacing" textLength="129.4715" x="223.05" y="270.7759">-duracionMeses: int</text><line style="stroke:#181818;stroke-width:0.5;" x1="218.05" x2="368.9395" y1="278.8779" y2="278.8779"/></g><!--class ProcesadorEnvios--><g class="entity" data-qualified-name="ProcesadorEnvios" data-source-line="22" id="ent0006"><rect fill="#F1F1F1" height="124.2717" rx="2.5" ry="2.5" style="stroke:#181818;stroke-width:0.5;" width="474.0124" x="162.49" y="7"/><ellipse cx="336.6984" cy="23" fill="#ADD1B2" rx="11" ry="11" style="stroke:#181818;stroke-width:1;"/><path d="M336.1672,29.9219 Q334.4172,29.9219 333.2766,29.1875 Q332.1516,28.4375 331.5891,27.0938 Q331.0422,25.7344 331.0422,23.9375 Q331.0422,21.9063 331.6984,20.4531 Q332.3547,19 333.6359,18.2188 Q334.9172,17.4375 336.7922,17.4375 Q337.6828,17.4375 338.3547,17.625 Q339.0266,17.7969 339.7141,18.1406 L338.9016,20.1563 Q338.2766,19.8438 337.7297,19.7188 Q337.1984,19.5938 336.7141,19.5938 Q335.5422,19.5938 334.8391,20.125 Q334.1359,20.6563 333.8391,21.6094 Q333.5422,22.5625 333.5422,23.8281 Q333.5422,25.8438 334.2609,26.8125 Q334.9797,27.7656 336.5734,27.7656 Q337.1672,27.7656 337.7922,27.6094 Q338.4172,27.4531 339.2453,27.0781 L339.2453,29.2969 Q338.5109,29.6094 337.7141,29.7656 Q336.9328,29.9219 336.1672,29.9219 Z " fill="#000000"/><text fill="#000000" font-family="sans-serif" font-size="14" lengthAdjust="spacing" textLength="117.0956" x="357.1984" y="28.432">ProcesadorEnvios</text><line style="stroke:#181818;stroke-width:0.5;" x1="163.49" x2="635.5024" y1="39" y2="39"/><line style="stroke:#181818;stroke-width:0.5;" x1="163.49" x2="635.5024" y1="47" y2="47"/><text fill="#000000" font-family="sans-serif" font-size="14" lengthAdjust="spacing" textLength="173.0954" x="168.49" y="65.9659">+procesar(pedido: Pedido)</text><text fill="#000000" font-family="sans-serif" font-size="14" lengthAdjust="spacing" textLength="314.3829" x="168.49" y="85.0339">-procesarEnvioFisico(pedidoFisico: PedidoFisico)</text><text fill="#000000" font-family="sans-serif" font-size="14" lengthAdjust="spacing" textLength="332.9469" x="168.49" y="104.1018">-procesarEnvioDigital(pedidoDigital: PedidoDigital)</text><text fill="#000000" font-family="sans-serif" font-size="14" lengthAdjust="spacing" textLength="462.0124" x="168.49" y="123.1697">-procesarActivacionSuscripcion(pedidoSuscripcion: PedidoSuscripcion)</text></g><!--reverse link Pedido to PedidoFisico--><g class="link" data-entity-1="ent0002" data-entity-2="ent0003" data-link-type="extension" data-source-line="29" id="lnk7"><path codeLine="29" d="M74.3753,140.0288 C74.5853,158.4388 75.02,161.3 76.5,180.27 C77.26,189.97 78.46,200.35 79.78,210.13" fill="none" id="Pedido-backto-PedidoFisico" style="stroke:#181818;stroke-width:1;"/><polygon fill="none" points="74.17,122.03,68.3757,140.0973,80.3749,139.9604,74.17,122.03" style="stroke:#181818;stroke-width:1;"/></g><!--reverse link Pedido to PedidoDigital--><g class="link" data-entity-1="ent0002" data-entity-2="ent0004" data-link-type="extension" data-source-line="30" id="lnk8"><path codeLine="30" d="M142.817,131.5104 C148.127,135.2804 138.94,128.33 144.5,131.27 C190.79,155.82 208.61,145.28 258.5,161.27 C287.7,170.63 359.36,198.08 387.5,210.27 C395.89,213.91 404.64,217.92 413.22,221.99" fill="none" id="Pedido-backto-PedidoDigital" style="stroke:#181818;stroke-width:1;"/><polygon fill="none" points="128.14,121.09,139.3436,136.4028,146.2905,126.6181,128.14,121.09" style="stroke:#181818;stroke-width:1;"/></g><!--reverse link Pedido to PedidoSuscripcion--><g class="link" data-entity-1="ent0002" data-entity-2="ent0005" data-link-type="extension" data-source-line="31" id="lnk9"><path codeLine="31" d="M90.8831,139.3078 C97.3431,159.5478 101.95,164.47 117.5,180.27 C121.44,184.28 171.04,204.44 216.58,222.42" fill="none" id="Pedido-backto-PedidoSuscripcion" style="stroke:#181818;stroke-width:1;"/><polygon fill="none" points="85.41,122.16,85.1671,141.1321,96.599,137.4834,85.41,122.16" style="stroke:#181818;stroke-width:1;"/></g><!--link ProcesadorEnvios to PedidoFisico--><g class="link" data-entity-1="ent0006" data-entity-2="ent0003" data-link-type="dependency" data-source-line="33" id="lnk10"><path codeLine="33" d="M263.92,131.76 C245.68,141.13 227.44,151.09 210.5,161.27 C186.35,175.8 165.8379,190.1939 144.4279,206.3639" fill="none" id="ProcesadorEnvios-to-PedidoFisico" style="stroke:#181818;stroke-width:1;stroke-dasharray:7,7;"/><polygon fill="#181818" points="139.64,209.98,149.2326,207.7478,143.6299,206.9666,144.4111,201.3639,139.64,209.98" style="stroke:#181818;stroke-width:1;"/><text fill="#000000" font-family="sans-serif" font-size="13" lengthAdjust="spacing" textLength="102.1931" x="211.5" y="176.167">instanceof + cast</text></g><!--link ProcesadorEnvios to PedidoDigital--><g class="link" data-entity-1="ent0006" data-entity-2="ent0004" data-link-type="dependency" data-source-line="34" id="lnk11"><path codeLine="34" d="M430.44,131.41 C435.04,141.3 439.55,151.5 443.5,161.27 C451.17,180.26 456.621,196.2898 462.051,213.7798" fill="none" id="ProcesadorEnvios-to-PedidoDigital" style="stroke:#181818;stroke-width:1;stroke-dasharray:7,7;"/><polygon fill="#181818" points="463.83,219.51,464.9816,209.7287,462.3475,214.7348,457.3414,212.1007,463.83,219.51" style="stroke:#181818;stroke-width:1;"/><text fill="#000000" font-family="sans-serif" font-size="13" lengthAdjust="spacing" textLength="102.1931" x="451.06" y="176.167">instanceof + cast</text></g><!--link ProcesadorEnvios to PedidoSuscripcion--><g class="link" data-entity-1="ent0006" data-entity-2="ent0005" data-link-type="dependency" data-source-line="35" id="lnk12"><path codeLine="35" d="M350.39,131.76 C343.65,141.38 337.12,151.41 331.5,161.27 C320.98,179.73 313.8603,196.0609 307.1303,213.7809" fill="none" id="ProcesadorEnvios-to-PedidoSuscripcion" style="stroke:#181818;stroke-width:1;stroke-dasharray:7,7;"/><polygon fill="#181818" points="305,219.39,311.9349,212.3966,306.7753,214.7158,304.4561,209.5562,305,219.39" style="stroke:#181818;stroke-width:1;"/><text fill="#000000" font-family="sans-serif" font-size="13" lengthAdjust="spacing" textLength="102.1931" x="332.5" y="176.167">instanceof + cast</text></g><?plantuml-src bP7FQiCm3CRlVWeVLqRApcOC2jjWXy4WJ-38MX5BxM0fFUpFkyz9tDR9ii5yiwJV9tqIlv7lRBG73Qrbteb4Qdh19mY-fdVKDqhPXYLQaAb4lw0Z5_I7qkbLcfpHTQByFWUW9VI2YwW4iQtHBlHDY-fBgLBiaPZW8kae8W05_-2F51P27NBuJUUUzfJQd8NmOAazyulYkcU8r0rzBftxP3G5df6HZIOl1HK385iNuZWMP-XQTrCYNdMZhidwczF0EJrIazDSENtCR0chLFQLiVmpSzDBS0T2nz5COJGh517pSnkRmNE-ykrdLStcMqda0LOoXMXINEvlkxsRttzOE8lrWE4rxHKior_KwTh_nCgxhw7V?></g></svg>