<?plantuml 1.2026.2?><svg xmlns="http://www.w3.org/2000/svg" xmlns:xlink="http://www.w3.org/1999/xlink" contentStyleType="text/css" data-diagram-type="CLASS" height="303px" preserveAspectRatio="none" style="width:555px;height:303px;background:#FFFFFF;" version="1.1" viewBox="0 0 555 303" width="555px" zoomAndPan="magnify"><defs/><g><!--class Pedido--><g class="entity" data-qualified-name="Pedido" data-source-line="3" id="ent0002"><rect fill="#F1F1F1" height="105.2038" rx="2.5" ry="2.5" style="stroke:#181818;stroke-width:0.5;" width="106.7376" x="27.13" y="16.54"/><ellipse cx="56.5785" cy="32.54" fill="#A9DCDF" rx="11" ry="11" style="stroke:#181818;stroke-width:1;"/><path d="M51.7504,38.29 L55.0941,26.1025 L58.2347,26.1025 L61.6097,38.29 L59.141,38.29 L58.4066,35.2744 L54.891,35.2744 L54.141,38.29 L51.7504,38.29 Z M56.1566,30.2431 L55.4066,33.2431 L57.9222,33.2431 L57.2035,30.2431 Q57.0629,29.665 56.9379,29.1181 Q56.8129,28.5556 56.6722,27.9775 Q56.5629,28.5556 56.4222,29.1181 Q56.2816,29.665 56.1566,30.2431 Z " fill="#000000"/><text fill="#000000" font-family="sans-serif" font-size="14" font-style="italic" lengthAdjust="spacing" textLength="42.6299" x="73.7893" y="37.972">Pedido</text><line style="stroke:#181818;stroke-width:0.5;" x1="28.13" x2="132.8676" y1="48.54" y2="48.54"/><text fill="#000000" font-family="sans-serif" font-size="14" lengthAdjust="spacing" textLength="63.5178" x="33.13" y="67.5059">-id: String</text><text fill="#000000" font-family="sans-serif" font-size="14" lengthAdjust="spacing" textLength="94.7376" x="33.13" y="86.5739">-cliente: String</text><text fill="#000000" font-family="sans-serif" font-size="14" lengthAdjust="spacing" textLength="87.7937" x="33.13" y="105.6418">-total: double</text><line style="stroke:#181818;stroke-width:0.5;" x1="28.13" x2="132.8676" y1="113.7438" y2="113.7438"/></g><!--class PedidoFisico--><g class="entity" data-qualified-name="PedidoFisico" data-source-line="9" id="ent0003"><rect fill="#F1F1F1" height="86.1358" rx="2.5" ry="2.5" style="stroke:#181818;stroke-width:0.5;" width="158.9994" x="7" y="210.27"/><ellipse cx="42.2256" cy="226.27" fill="#ADD1B2" rx="11" ry="11" style="stroke:#181818;stroke-width:1;"/><path d="M41.6943,233.1919 Q39.9443,233.1919 38.8037,232.4575 Q37.6787,231.7075 37.1162,230.3638 Q36.5693,229.0044 36.5693,227.2075 Q36.5693,225.1763 37.2256,223.7231 Q37.8818,222.27 39.1631,221.4888 Q40.4443,220.7075 42.3193,220.7075 Q43.21,220.7075 43.8818,220.895 Q44.5537,221.0669 45.2412,221.4106 L44.4287,223.4263 Q43.8037,223.1138 43.2568,222.9888 Q42.7256,222.8638 42.2412,222.8638 Q41.0693,222.8638 40.3662,223.395 Q39.6631,223.9263 39.3662,224.8794 Q39.0693,225.8325 39.0693,227.0981 Q39.0693,229.1138 39.7881,230.0825 Q40.5068,231.0356 42.1006,231.0356 Q42.6943,231.0356 43.3193,230.8794 Q43.9443,230.7231 44.7725,230.3481 L44.7725,232.5669 Q44.0381,232.8794 43.2412,233.0356 Q42.46,233.1919 41.6943,233.1919 Z " fill="#000000"/><text fill="#000000" font-family="sans-serif" font-size="14" lengthAdjust="spacing" textLength="82.0537" x="60.7201" y="231.702">PedidoFisico</text><line style="stroke:#181818;stroke-width:0.5;" x1="8" x2="164.9994" y1="242.27" y2="242.27"/><text fill="#000000" font-family="sans-serif" font-size="14" lengthAdjust="spacing" textLength="146.9994" x="13" y="261.2359">-direccionEnvio: String</text><text fill="#000000" font-family="sans-serif" font-size="14" lengthAdjust="spacing" textLength="89.4317" x="13" y="280.3039">-peso: double</text><line style="stroke:#181818;stroke-width:0.5;" x1="8" x2="164.9994" y1="288.4058" y2="288.4058"/></g><!--class PedidoDigital--><g class="entity" data-qualified-name="PedidoDigital" data-source-line="14" id="ent0004"><rect fill="#F1F1F1" height="67.0679" rx="2.5" ry="2.5" style="stroke:#181818;stroke-width:0.5;" width="120.2417" x="413.38" y="219.81"/><ellipse cx="428.38" cy="235.81" fill="#ADD1B2" rx="11" ry="11" style="stroke:#181818;stroke-width:1;"/><path d="M427.8488,242.7319 Q426.0988,242.7319 424.9581,241.9975 Q423.8331,241.2475 423.2706,239.9038 Q422.7238,238.5444 422.7238,236.7475 Q422.7238,234.7163 423.38,233.2631 Q424.0363,231.81 425.3175,231.0288 Q426.5988,230.2475 428.4738,230.2475 Q429.3644,230.2475 430.0363,230.435 Q430.7081,230.6069 431.3956,230.9506 L430.5831,232.9663 Q429.9581,232.6538 429.4113,232.5288 Q428.88,232.4038 428.3956,232.4038 Q427.2238,232.4038 426.5206,232.935 Q425.8175,233.4663 425.5206,234.4194 Q425.2238,235.3725 425.2238,236.6381 Q425.2238,238.6538 425.9425,239.6225 Q426.6613,240.5756 428.255,240.5756 Q428.8488,240.5756 429.4738,240.4194 Q430.0988,240.2631 430.9269,239.8881 L430.9269,242.1069 Q430.1925,242.4194 429.3956,242.5756 Q428.6144,242.7319 427.8488,242.7319 Z " fill="#000000"/><text fill="#000000" font-family="sans-serif" font-size="14" lengthAdjust="spacing" textLength="88.2417" x="442.38" y="241.242">PedidoDigital</text><line style="stroke:#181818;stroke-width:0.5;" x1="414.38" x2="532.6217" y1="251.81" y2="251.81"/><text fill="#000000" font-family="sans-serif" font-size="14" lengthAdjust="spacing" textLength="87.3597" x="419.38" y="270.7759">-email: String</text><line style="stroke:#181818;stroke-width:0.5;" x1="414.38" x2="532.6217" y1="278.8779" y2="278.8779"/></g><!--class PedidoSuscripcion--><g class="entity" data-qualified-name="PedidoSuscripcion" data-source-line="18" id="ent0005"><rect fill="#F1F1F1" height="67.0679" rx="2.5" ry="2.5" style="stroke:#181818;stroke-width:0.5;" width="152.8895" x="217.05" y="219.81"/><ellipse cx="232.05" cy="235.81" fill="#ADD1B2" rx="11" ry="11" style="stroke:#181818;stroke-width:1;"/><path d="M231.5188,242.7319 Q229.7688,242.7319 228.6281,241.9975 Q227.5031,241.2475 226.9406,239.9038 Q226.3938,238.5444 226.3938,236.7475 Q226.3938,234.7163 227.05,233.2631 Q227.7063,231.81 228.9875,231.0288 Q230.2688,230.2475 232.1438,230.2475 Q233.0344,230.2475 233.7063,230.435 Q234.3781,230.6069 235.0656,230.9506 L234.2531,232.9663 Q233.6281,232.6538 233.0813,232.5288 Q232.55,232.4038 232.0656,232.4038 Q230.8938,232.4038 230.1906,232.935 Q229.4875,233.4663 229.1906,234.4194 Q228.8938,235.3725 228.8938,236.6381 Q228.8938,238.6538 229.6125,239.6225 Q230.3313,240.5756 231.925,240.5756 Q232.5188,240.5756 233.1438,240.4194 Q233.7688,240.2631 234.5969,239.8881 L234.5969,242.1069 Q233.8625,242.4194 233.0656,242.5756 Q232.2844,242.7319 231.5188,242.7319 Z " fill="#000000"/><text fill="#000000" font-family="sans-serif" font-size="14" lengthAdjust="spacing" textLength="120.8895" x="246.05" y="241.242">PedidoSuscripcion</text><line style="stroke:#181818;stroke-width:0.5;" x1="218.05" x2="368.9395" y1="251.81" y2="251.81"/><text fill="#000000" font-family="sans-serif" font-size="14" lengthAdjust="spacing" textLength="129.4715" x="223.05" y="270.7759">-duracionMeses: int</text><line style="stroke:#181818;stroke-width:0.5;" x1="218.05" x2="368.9395" y1="278.8779" y2="278.8779"/></g><!--class ProcesadorEnvios--><g class="entity" data-qualified-name="ProcesadorEnvios" data-source-line="22" id="ent0006"><rect fill="#F1F1F1" height="124.2717" rx="2.5" ry="2.5" style="stroke:#181818;stroke-width:0.5;" width="368.2987" x="169.35" y="7"/><ellipse cx="290.7016" cy="23" fill="#ADD1B2" rx="11" ry="11" style="stroke:#181818;stroke-width:1;"/><path d="M290.1703,29.9219 Q288.4203,29.9219 287.2797,29.1875 Q286.1547,28.4375 285.5922,27.0938 Q285.0453,25.7344 285.0453,23.9375 Q285.0453,21.9063 285.7016,20.4531 Q286.3578,19 287.6391,18.2188 Q288.9203,17.4375 290.7953,17.4375 Q291.686,17.4375 292.3578,17.625 Q293.0297,17.7969 293.7172,18.1406 L292.9047,20.1563 Q292.2797,19.8438 291.7328,19.7188 Q291.2016,19.5938 290.7172,19.5938 Q289.5453,19.5938 288.8422,20.125 Q288.1391,20.6563 287.8422,21.6094 Q287.5453,22.5625 287.5453,23.8281 Q287.5453,25.8438 288.2641,26.8125 Q288.9828,27.7656 290.5766,27.7656 Q291.1703,27.7656 291.7953,27.6094 Q292.4203,27.4531 293.2485,27.0781 L293.2485,29.2969 Q292.5141,29.6094 291.7172,29.7656 Q290.936,29.9219 290.1703,29.9219 Z " fill="#000000"/><text fill="#000000" font-family="sans-serif" font-size="14" lengthAdjust="spacing" textLength="117.0956" x="311.2016" y="28.432">ProcesadorEnvios</text><line style="stroke:#181818;stroke-width:0.5;" x1="170.35" x2="536.6487" y1="39" y2="39"/><line style="stroke:#181818;stroke-width:0.5;" x1="170.35" x2="536.6487" y1="47" y2="47"/><text fill="#000000" font-family="sans-serif" font-size="14" lengthAdjust="spacing" textLength="173.0954" x="175.35" y="65.9659">+procesar(pedido: Pedido)</text><text fill="#000000" font-family="sans-serif" font-size="14" lengthAdjust="spacing" textLength="245.6151" x="175.35" y="85.0339">-procesarEnvioFisico(pf: PedidoFisico)</text><text fill="#000000" font-family="sans-serif" font-size="14" lengthAdjust="spacing" textLength="261.785" x="175.35" y="104.1018">-procesarEnvioDigital(pd: PedidoDigital)</text><text fill="#000000" font-family="sans-serif" font-size="14" lengthAdjust="spacing" textLength="356.2987" x="175.35" y="123.1697">-procesarActivacionSuscripcion(ps: PedidoSuscripcion)</text></g><!--reverse link Pedido to PedidoFisico--><g class="link" data-entity-1="ent0002" data-entity-2="ent0003" data-link-type="extension" data-source-line="29" id="lnk7"><path codeLine="29" d="M75.5208,139.98 C74.6508,158.4 75.19,161.28 76.5,180.27 C77.17,189.98 78.34,200.36 79.65,210.14" fill="none" id="Pedido-backto-PedidoFisico" style="stroke:#181818;stroke-width:1;"/><polygon fill="none" points="76.37,122,69.5275,139.6969,81.5141,140.263,76.37,122" style="stroke:#181818;stroke-width:1;"/></g><!--reverse link Pedido to PedidoDigital--><g class="link" data-entity-1="ent0002" data-entity-2="ent0004" data-link-type="extension" data-source-line="30" id="lnk8"><path codeLine="30" d="M148.8413,130.8426 C154.4713,134.8526 145.62,128.12 151.5,131.27 C195.03,154.61 211.59,145.82 258.5,161.27 C273.06,166.07 373.43,204.18 387.5,210.27 C395.89,213.91 404.64,217.92 413.22,221.99" fill="none" id="Pedido-backto-PedidoDigital" style="stroke:#181818;stroke-width:1;"/><polygon fill="none" points="134.18,120.4,145.3604,135.7297,152.3221,125.9555,134.18,120.4" style="stroke:#181818;stroke-width:1;"/></g><!--reverse link Pedido to PedidoSuscripcion--><g class="link" data-entity-1="ent0002" data-entity-2="ent0005" data-link-type="extension" data-source-line="31" id="lnk9"><path codeLine="31" d="M92.946,139.476 C98.276,159.706 102.6,164.38 117.5,180.27 C121.35,184.38 171.13,204.6 216.77,222.58" fill="none" id="Pedido-backto-PedidoSuscripcion" style="stroke:#181818;stroke-width:1;"/><polygon fill="none" points="88.36,122.07,87.144,141.0047,98.748,137.9473,88.36,122.07" style="stroke:#181818;stroke-width:1;"/></g><!--link ProcesadorEnvios to PedidoFisico--><g class="link" data-entity-1="ent0006" data-entity-2="ent0003" data-link-type="dependency" data-source-line="33" id="lnk10"><path codeLine="33" d="M251.48,131.66 C236.25,141.34 220.85,151.41 206.5,161.27 C184.3,176.53 165.2973,190.5938 144.8173,206.3338" fill="none" id="ProcesadorEnvios-to-PedidoFisico" style="stroke:#181818;stroke-width:1;stroke-dasharray:7,7;"/><polygon fill="#181818" points="140.06,209.99,149.6334,207.6772,144.0244,206.9431,144.7585,201.3341,140.06,209.99" style="stroke:#181818;stroke-width:1;"/><text fill="#000000" font-family="sans-serif" font-size="13" lengthAdjust="spacing" textLength="102.1931" x="207.5" y="176.167">instanceof + cast</text></g><!--link ProcesadorEnvios to PedidoDigital--><g class="link" data-entity-1="ent0006" data-entity-2="ent0004" data-link-type="dependency" data-source-line="34" id="lnk11"><path codeLine="34" d="M411.89,131.64 C419.64,141.2 427.11,151.24 433.5,161.27 C445.1,179.48 452.711,196.0336 459.721,213.9236" fill="none" id="ProcesadorEnvios-to-PedidoDigital" style="stroke:#181818;stroke-width:1;stroke-dasharray:7,7;"/><polygon fill="#181818" points="461.91,219.51,462.3508,209.671,460.0858,214.8546,454.9022,212.5897,461.91,219.51" style="stroke:#181818;stroke-width:1;"/><text fill="#000000" font-family="sans-serif" font-size="13" lengthAdjust="spacing" textLength="102.1931" x="445.29" y="176.167">instanceof + cast</text></g><!--link ProcesadorEnvios to PedidoSuscripcion--><g class="link" data-entity-1="ent0006" data-entity-2="ent0005" data-link-type="dependency" data-source-line="35" id="lnk12"><path codeLine="35" d="M333.27,131.57 C323.57,161.01 314.2271,189.4012 306.1771,213.8412" fill="none" id="ProcesadorEnvios-to-PedidoSuscripcion" style="stroke:#181818;stroke-width:1;stroke-dasharray:7,7;"/><polygon fill="#181818" points="304.3,219.54,310.9148,212.2431,305.8642,214.791,303.3164,209.7404,304.3,219.54" style="stroke:#181818;stroke-width:1;"/><text fill="#000000" font-family="sans-serif" font-size="13" lengthAdjust="spacing" textLength="102.1931" x="322.7" y="176.167">instanceof + cast</text></g><?plantuml-src bP7FQiCm3CRlUGeVKqRApcOC2jjWXy4WJ-38QX5BRMCfFUpFkyz9t3R9ii5qbFJzf4_YDtB1H7DKq1hcdKYafXDy1kzgUaTrMnIcOOa6P6nHhsZ9UlLHg1IL8gjLdLJka1FG4Zh1HLQyc5OhwxkcnUAhAAQm9sA2Az9IH03oxj6To2z00Td_ndcW0wKn5n0U3RKN_QAvxXWYXNxETNANZAR42pAoLkHaeeeUa8trSLYBi-X6XR4Gop1mTUPlpWldyg0QdPPXhsVMLtkpcp9OFVUtxDw1q6dOU-Af3An_EjtqVl87xpwhQhR5IY5FNAbCe8culCrsUp__RNzC5kC0_JxT30pBNwhp9_yfc_vqJVeD?></g></svg>