<?plantuml 1.2026.2?><svg xmlns="http://www.w3.org/2000/svg" xmlns:xlink="http://www.w3.org/1999/xlink" contentStyleType="text/css" data-diagram-type="CLASS" height="449px" preserveAspectRatio="none" style="width:1128px;height:449px;background:#FFFFFF;" version="1.1" viewBox="0 0 1128 449" width="1128px" zoomAndPan="magnify"><defs/><g><!--class EvaluadorBecas--><g class="entity" data-qualified-name="EvaluadorBecas" data-source-line="3" id="ent0002"><rect fill="#F1F1F1" height="105.2038" rx="2.5" ry="2.5" style="stroke:#181818;stroke-width:0.5;" width="299.4609" x="174" y="172.2"/><ellipse cx="270.1586" cy="188.2" fill="#B4A7E5" rx="11" ry="11" style="stroke:#181818;stroke-width:1;"/><path d="M266.1899,194.7 L266.1899,192.9969 L268.5493,192.7313 L268.5493,184.5281 L266.1899,184.2625 L266.1899,182.5594 L273.3305,182.5594 L273.3305,184.2625 L270.9086,184.5281 L270.9086,192.7313 L273.3305,192.9969 L273.3305,194.7 L266.1899,194.7 Z " fill="#000000"/><text fill="#000000" font-family="sans-serif" font-size="14" font-style="italic" lengthAdjust="spacing" textLength="98.6436" x="290.6586" y="193.632">EvaluadorBecas</text><line style="stroke:#181818;stroke-width:0.5;" x1="175" x2="472.4609" y1="204.2" y2="204.2"/><line style="stroke:#181818;stroke-width:0.5;" x1="175" x2="472.4609" y1="212.2" y2="212.2"/><text fill="#000000" font-family="sans-serif" font-size="14" lengthAdjust="spacing" textLength="174.3133" x="180" y="231.1659">+evaluar(alumno: Alumno)</text><text fill="#000000" font-family="sans-serif" font-size="14" lengthAdjust="spacing" textLength="287.4609" x="180" y="250.2339">+evaluar(alumnoErasmus: AlumnoErasmus)</text><text fill="#000000" font-family="sans-serif" font-size="14" lengthAdjust="spacing" textLength="260.245" x="180" y="269.3018">+evaluar(alumnoVirtual: AlumnoVirtual)</text></g><!--class Alumno--><g class="entity" data-qualified-name="Alumno" data-source-line="9" id="ent0003"><rect fill="#F1F1F1" height="105.2038" rx="2.5" ry="2.5" style="stroke:#181818;stroke-width:0.5;" width="288.6389" x="508.41" y="7"/><ellipse cx="622.7686" cy="23" fill="#ADD1B2" rx="11" ry="11" style="stroke:#181818;stroke-width:1;"/><path d="M622.2373,29.9219 Q620.4873,29.9219 619.3467,29.1875 Q618.2217,28.4375 617.6592,27.0938 Q617.1123,25.7344 617.1123,23.9375 Q617.1123,21.9063 617.7686,20.4531 Q618.4248,19 619.7061,18.2188 Q620.9873,17.4375 622.8623,17.4375 Q623.7529,17.4375 624.4248,17.625 Q625.0967,17.7969 625.7842,18.1406 L624.9717,20.1563 Q624.3467,19.8438 623.7998,19.7188 Q623.2686,19.5938 622.7842,19.5938 Q621.6123,19.5938 620.9092,20.125 Q620.2061,20.6563 619.9092,21.6094 Q619.6123,22.5625 619.6123,23.8281 Q619.6123,25.8438 620.3311,26.8125 Q621.0498,27.7656 622.6436,27.7656 Q623.2373,27.7656 623.8623,27.6094 Q624.4873,27.4531 625.3154,27.0781 L625.3154,29.2969 Q624.5811,29.6094 623.7842,29.7656 Q623.0029,29.9219 622.2373,29.9219 Z " fill="#000000"/><text fill="#000000" font-family="sans-serif" font-size="14" lengthAdjust="spacing" textLength="51.4218" x="643.2686" y="28.432">Alumno</text><line style="stroke:#181818;stroke-width:0.5;" x1="509.41" x2="796.0489" y1="39" y2="39"/><text fill="#000000" font-family="sans-serif" font-size="14" lengthAdjust="spacing" textLength="63.5178" x="514.41" y="57.9659">-id: String</text><text fill="#000000" font-family="sans-serif" font-size="14" lengthAdjust="spacing" textLength="103.7956" x="514.41" y="77.0339">-nombre: String</text><line style="stroke:#181818;stroke-width:0.5;" x1="509.41" x2="796.0489" y1="85.1358" y2="85.1358"/><text fill="#000000" font-family="sans-serif" font-size="14" lengthAdjust="spacing" textLength="276.6389" x="514.41" y="104.1018">+solicitarBeca(evaluador: EvaluadorBecas)</text></g><!--class AlumnoErasmus--><g class="entity" data-qualified-name="AlumnoErasmus" data-source-line="15" id="ent0004"><rect fill="#F1F1F1" height="86.1358" rx="2.5" ry="2.5" style="stroke:#181818;stroke-width:0.5;" width="288.6389" x="508.41" y="181.74"/><ellipse cx="594.4817" cy="197.74" fill="#ADD1B2" rx="11" ry="11" style="stroke:#181818;stroke-width:1;"/><path d="M593.9504,204.6619 Q592.2004,204.6619 591.0598,203.9275 Q589.9348,203.1775 589.3723,201.8338 Q588.8254,200.4744 588.8254,198.6775 Q588.8254,196.6463 589.4817,195.1931 Q590.1379,193.74 591.4192,192.9588 Q592.7004,192.1775 594.5754,192.1775 Q595.4661,192.1775 596.1379,192.365 Q596.8098,192.5369 597.4973,192.8806 L596.6848,194.8963 Q596.0598,194.5838 595.5129,194.4588 Q594.9817,194.3338 594.4973,194.3338 Q593.3254,194.3338 592.6223,194.865 Q591.9192,195.3963 591.6223,196.3494 Q591.3254,197.3025 591.3254,198.5681 Q591.3254,200.5838 592.0442,201.5525 Q592.7629,202.5056 594.3567,202.5056 Q594.9504,202.5056 595.5754,202.3494 Q596.2004,202.1931 597.0286,201.8181 L597.0286,204.0369 Q596.2942,204.3494 595.4973,204.5056 Q594.7161,204.6619 593.9504,204.6619 Z " fill="#000000"/><text fill="#000000" font-family="sans-serif" font-size="14" lengthAdjust="spacing" textLength="107.9956" x="614.9817" y="203.172">AlumnoErasmus</text><line style="stroke:#181818;stroke-width:0.5;" x1="509.41" x2="796.0489" y1="213.74" y2="213.74"/><text fill="#000000" font-family="sans-serif" font-size="14" lengthAdjust="spacing" textLength="123.5635" x="514.41" y="232.7059">-paisOrigen: String</text><line style="stroke:#181818;stroke-width:0.5;" x1="509.41" x2="796.0489" y1="240.8079" y2="240.8079"/><text fill="#000000" font-family="sans-serif" font-size="14" lengthAdjust="spacing" textLength="276.6389" x="514.41" y="259.7739">+solicitarBeca(evaluador: EvaluadorBecas)</text></g><!--class AlumnoVirtual--><g class="entity" data-qualified-name="AlumnoVirtual" data-source-line="20" id="ent0005"><rect fill="#F1F1F1" height="86.1358" rx="2.5" ry="2.5" style="stroke:#181818;stroke-width:0.5;" width="288.6389" x="832.41" y="181.74"/><ellipse cx="925.2857" cy="197.74" fill="#ADD1B2" rx="11" ry="11" style="stroke:#181818;stroke-width:1;"/><path d="M924.7544,204.6619 Q923.0044,204.6619 921.8638,203.9275 Q920.7388,203.1775 920.1763,201.8338 Q919.6294,200.4744 919.6294,198.6775 Q919.6294,196.6463 920.2857,195.1931 Q920.9419,193.74 922.2232,192.9588 Q923.5044,192.1775 925.3794,192.1775 Q926.27,192.1775 926.9419,192.365 Q927.6138,192.5369 928.3013,192.8806 L927.4888,194.8963 Q926.8638,194.5838 926.3169,194.4588 Q925.7857,194.3338 925.3013,194.3338 Q924.1294,194.3338 923.4263,194.865 Q922.7232,195.3963 922.4263,196.3494 Q922.1294,197.3025 922.1294,198.5681 Q922.1294,200.5838 922.8482,201.5525 Q923.5669,202.5056 925.1607,202.5056 Q925.7544,202.5056 926.3794,202.3494 Q927.0044,202.1931 927.8325,201.8181 L927.8325,204.0369 Q927.0982,204.3494 926.3013,204.5056 Q925.52,204.6619 924.7544,204.6619 Z " fill="#000000"/><text fill="#000000" font-family="sans-serif" font-size="14" lengthAdjust="spacing" textLength="94.3876" x="945.7857" y="203.172">AlumnoVirtual</text><line style="stroke:#181818;stroke-width:0.5;" x1="833.41" x2="1120.0489" y1="213.74" y2="213.74"/><text fill="#000000" font-family="sans-serif" font-size="14" lengthAdjust="spacing" textLength="270.6749" x="838.41" y="232.7059">-requiereExamenesPresenciales: boolean</text><line style="stroke:#181818;stroke-width:0.5;" x1="833.41" x2="1120.0489" y1="240.8079" y2="240.8079"/><text fill="#000000" font-family="sans-serif" font-size="14" lengthAdjust="spacing" textLength="276.6389" x="838.41" y="259.7739">+solicitarBeca(evaluador: EvaluadorBecas)</text></g><!--class EvaluadorAcademico--><g class="entity" data-qualified-name="EvaluadorAcademico" data-source-line="25" id="ent0006"><rect fill="#F1F1F1" height="105.2038" rx="2.5" ry="2.5" style="stroke:#181818;stroke-width:0.5;" width="299.4609" x="7" y="337.41"/><ellipse cx="83.6567" cy="353.41" fill="#ADD1B2" rx="11" ry="11" style="stroke:#181818;stroke-width:1;"/><path d="M83.1255,360.3319 Q81.3755,360.3319 80.2348,359.5975 Q79.1098,358.8475 78.5473,357.5038 Q78.0005,356.1444 78.0005,354.3475 Q78.0005,352.3163 78.6567,350.8631 Q79.313,349.41 80.5942,348.6288 Q81.8755,347.8475 83.7505,347.8475 Q84.6411,347.8475 85.313,348.035 Q85.9848,348.2069 86.6723,348.5506 L85.8598,350.5663 Q85.2348,350.2538 84.688,350.1288 Q84.1567,350.0038 83.6723,350.0038 Q82.5005,350.0038 81.7973,350.535 Q81.0942,351.0663 80.7973,352.0194 Q80.5005,352.9725 80.5005,354.2381 Q80.5005,356.2538 81.2192,357.2225 Q81.938,358.1756 83.5317,358.1756 Q84.1255,358.1756 84.7505,358.0194 Q85.3755,357.8631 86.2036,357.4881 L86.2036,359.7069 Q85.4692,360.0194 84.6723,360.1756 Q83.8911,360.3319 83.1255,360.3319 Z " fill="#000000"/><text fill="#000000" font-family="sans-serif" font-size="14" lengthAdjust="spacing" textLength="137.6475" x="104.1567" y="358.842">EvaluadorAcademico</text><line style="stroke:#181818;stroke-width:0.5;" x1="8" x2="305.4609" y1="369.41" y2="369.41"/><line style="stroke:#181818;stroke-width:0.5;" x1="8" x2="305.4609" y1="377.41" y2="377.41"/><text fill="#000000" font-family="sans-serif" font-size="14" lengthAdjust="spacing" textLength="174.3133" x="13" y="396.3759">+evaluar(alumno: Alumno)</text><text fill="#000000" font-family="sans-serif" font-size="14" lengthAdjust="spacing" textLength="287.4609" x="13" y="415.4439">+evaluar(alumnoErasmus: AlumnoErasmus)</text><text fill="#000000" font-family="sans-serif" font-size="14" lengthAdjust="spacing" textLength="260.245" x="13" y="434.5118">+evaluar(alumnoVirtual: AlumnoVirtual)</text></g><!--class EvaluadorSocioeconomico--><g class="entity" data-qualified-name="EvaluadorSocioeconomico" data-source-line="31" id="ent0007"><rect fill="#F1F1F1" height="105.2038" rx="2.5" ry="2.5" style="stroke:#181818;stroke-width:0.5;" width="299.4609" x="341" y="337.41"/><ellipse cx="400.0868" cy="353.41" fill="#ADD1B2" rx="11" ry="11" style="stroke:#181818;stroke-width:1;"/><path d="M399.5555,360.3319 Q397.8055,360.3319 396.6649,359.5975 Q395.5399,358.8475 394.9774,357.5038 Q394.4305,356.1444 394.4305,354.3475 Q394.4305,352.3163 395.0868,350.8631 Q395.743,349.41 397.0243,348.6288 Q398.3055,347.8475 400.1805,347.8475 Q401.0712,347.8475 401.743,348.035 Q402.4149,348.2069 403.1024,348.5506 L402.2899,350.5663 Q401.6649,350.2538 401.118,350.1288 Q400.5868,350.0038 400.1024,350.0038 Q398.9305,350.0038 398.2274,350.535 Q397.5243,351.0663 397.2274,352.0194 Q396.9305,352.9725 396.9305,354.2381 Q396.9305,356.2538 397.6493,357.2225 Q398.368,358.1756 399.9618,358.1756 Q400.5555,358.1756 401.1805,358.0194 Q401.8055,357.8631 402.6337,357.4881 L402.6337,359.7069 Q401.8993,360.0194 401.1024,360.1756 Q400.3212,360.3319 399.5555,360.3319 Z " fill="#000000"/><text fill="#000000" font-family="sans-serif" font-size="14" lengthAdjust="spacing" textLength="172.7873" x="420.5868" y="358.842">EvaluadorSocioeconomico</text><line style="stroke:#181818;stroke-width:0.5;" x1="342" x2="639.4609" y1="369.41" y2="369.41"/><line style="stroke:#181818;stroke-width:0.5;" x1="342" x2="639.4609" y1="377.41" y2="377.41"/><text fill="#000000" font-family="sans-serif" font-size="14" lengthAdjust="spacing" textLength="174.3133" x="347" y="396.3759">+evaluar(alumno: Alumno)</text><text fill="#000000" font-family="sans-serif" font-size="14" lengthAdjust="spacing" textLength="287.4609" x="347" y="415.4439">+evaluar(alumnoErasmus: AlumnoErasmus)</text><text fill="#000000" font-family="sans-serif" font-size="14" lengthAdjust="spacing" textLength="260.245" x="347" y="434.5118">+evaluar(alumnoVirtual: AlumnoVirtual)</text></g><!--reverse link Alumno to AlumnoErasmus--><g class="link" data-entity-1="ent0003" data-entity-2="ent0004" data-link-type="extension" data-source-line="37" id="lnk8"><path codeLine="37" d="M652.73,130.69 C652.73,152.89 652.73,160.46 652.73,181.47" fill="none" id="Alumno-backto-AlumnoErasmus" style="stroke:#181818;stroke-width:1;"/><polygon fill="none" points="652.73,112.69,646.73,130.69,658.73,130.69,652.73,112.69" style="stroke:#181818;stroke-width:1;"/></g><!--reverse link Alumno to AlumnoVirtual--><g class="link" data-entity-1="ent0003" data-entity-2="ent0005" data-link-type="extension" data-source-line="38" id="lnk9"><path codeLine="38" d="M772.2162,120.7866 C816.1962,142.9366 850.77,160.35 892.43,181.34" fill="none" id="Alumno-backto-AlumnoVirtual" style="stroke:#181818;stroke-width:1;"/><polygon fill="none" points="756.14,112.69,769.5174,126.1453,774.9151,115.4279,756.14,112.69" style="stroke:#181818;stroke-width:1;"/></g><!--reverse link EvaluadorBecas to EvaluadorAcademico--><g class="link" data-entity-1="ent0002" data-entity-2="ent0006" data-link-type="extension" data-source-line="40" id="lnk11"><path codeLine="40" d="M257.5568,290.4709 C238.1768,309.4109 229.17,318.22 209.81,337.14" fill="none" id="EvaluadorBecas-backto-EvaluadorAcademico" style="stroke:#181818;stroke-width:1;stroke-dasharray:7,7;"/><polygon fill="none" points="270.43,277.89,253.3631,286.1799,261.7504,294.762,270.43,277.89" style="stroke:#181818;stroke-width:1;"/></g><!--reverse link EvaluadorBecas to EvaluadorSocioeconomico--><g class="link" data-entity-1="ent0002" data-entity-2="ent0007" data-link-type="extension" data-source-line="41" id="lnk13"><path codeLine="41" d="M389.9032,290.4709 C409.2832,309.4109 418.29,318.22 437.65,337.14" fill="none" id="EvaluadorBecas-backto-EvaluadorSocioeconomico" style="stroke:#181818;stroke-width:1;stroke-dasharray:7,7;"/><polygon fill="none" points="377.03,277.89,385.7096,294.762,394.0969,286.1799,377.03,277.89" style="stroke:#181818;stroke-width:1;"/></g><!--link Alumno to EvaluadorBecas--><g class="link" data-entity-1="ent0003" data-entity-2="ent0002" data-link-type="dependency" data-source-line="43" id="lnk14"><path codeLine="43" d="M547.73,112.69 C509.65,131.58 472.0253,150.2442 433.9553,169.1242" fill="none" id="Alumno-to-EvaluadorBecas" style="stroke:#181818;stroke-width:1;stroke-dasharray:7,7;"/><polygon fill="#181818" points="428.58,171.79,438.4201,171.3749,433.0594,169.5685,434.8658,164.2078,428.58,171.79" style="stroke:#181818;stroke-width:1;"/></g><?plantuml-src nLB1QiCm3BtxAtniAGaxXp7888UTDWZihZXQ4REjJhR7sBf_NmXEeArt6OFwO2FfsUyzoU6L_044d3OMGcXZ51fIn0V3lgTFr3TAaOyeBs1GT-zW4umizsWWw2-bfxNJEATbC-tESwFR-TmMgvr0S2aie1oMiSyaCO5Ti3dSgc-bPhKvdtLKciP6zvC1lyy9psuGF4dkT61BXYBC9ZQuM6hEt5tGPAahsm4eF0hjqVyJGVQt4WY-9KB1xWCSUWnFWW6z8R0uzMzWjWZ-pvnheJKmeYF3rv_dggbdGupJ7-Hh2yjVxFPOLQSl5IhvdbA5tjQfFjwTJKFzvhS8NWZh-gBq0m00?></g></svg>