<?plantuml 1.2026.2?><svg xmlns="http://www.w3.org/2000/svg" xmlns:xlink="http://www.w3.org/1999/xlink" contentStyleType="text/css" data-diagram-type="CLASS" height="877px" preserveAspectRatio="none" style="width:1721px;height:877px;background:#FFFFFF;" version="1.1" viewBox="0 0 1721 877" width="1721px" zoomAndPan="magnify"><defs/><g><!--cluster Dominio--><g class="cluster" data-qualified-name="Dominio" data-source-line="2" id="ent0002"><path d="M891.5,355.54 L951.3698,355.54 A3.75,3.75 0 0 1 953.8698,358.04 L960.8698,380.6079 L1498.5,380.6079 A2.5,2.5 0 0 1 1501,383.1079 L1501,868.13 A2.5,2.5 0 0 1 1498.5,870.63 L891.5,870.63 A2.5,2.5 0 0 1 889,868.13 L889,358.04 A2.5,2.5 0 0 1 891.5,355.54" fill="none" style="stroke:#000000;stroke-width:1.5;"/><line style="stroke:#000000;stroke-width:1.5;" x1="889" x2="960.8698" y1="380.6079" y2="380.6079"/><text fill="#000000" font-family="sans-serif" font-size="14" font-weight="bold" lengthAdjust="spacing" textLength="58.8698" x="893" y="372.5059">Dominio</text></g><!--cluster L?gica--><g class="cluster" data-qualified-name="L.gica" data-source-line="36" id="ent0006"><path d="M8.5,153.27 L54.7198,153.27 A3.75,3.75 0 0 1 57.2198,155.77 L64.2198,178.3379 L862.5,178.3379 A2.5,2.5 0 0 1 865,180.8379 L865,559.92 A2.5,2.5 0 0 1 862.5,562.42 L8.5,562.42 A2.5,2.5 0 0 1 6,559.92 L6,155.77 A2.5,2.5 0 0 1 8.5,153.27" fill="none" style="stroke:#000000;stroke-width:1.5;"/><line style="stroke:#000000;stroke-width:1.5;" x1="6" x2="64.2198" y1="178.3379" y2="178.3379"/><text fill="#000000" font-family="sans-serif" font-size="14" font-weight="bold" lengthAdjust="spacing" textLength="45.2198" x="10" y="170.2359">L&#243;gica</text></g><!--cluster Infraestructura--><g class="cluster" data-qualified-name="Infraestructura" data-source-line="62" id="ent0011"><path d="M891.5,153.27 L1000.9716,153.27 A3.75,3.75 0 0 1 1003.4716,155.77 L1010.4716,178.3379 L1711.5,178.3379 A2.5,2.5 0 0 1 1714,180.8379 L1714,329.04 A2.5,2.5 0 0 1 1711.5,331.54 L891.5,331.54 A2.5,2.5 0 0 1 889,329.04 L889,155.77 A2.5,2.5 0 0 1 891.5,153.27" fill="none" style="stroke:#000000;stroke-width:1.5;"/><line style="stroke:#000000;stroke-width:1.5;" x1="889" x2="1010.4716" y1="178.3379" y2="178.3379"/><text fill="#000000" font-family="sans-serif" font-size="14" font-weight="bold" lengthAdjust="spacing" textLength="108.4716" x="893" y="170.2359">Infraestructura</text></g><!--class Libro--><g class="entity" data-qualified-name="Dominio.Libro" data-source-line="3" id="ent0003"><rect fill="#F1F1F1" height="200.5433" rx="2.5" ry="2.5" style="stroke:#181818;stroke-width:0.5;" width="288.597" x="904.7" y="654.09"/><ellipse cx="1027.8436" cy="670.09" fill="#ADD1B2" rx="11" ry="11" style="stroke:#181818;stroke-width:1;"/><path d="M1027.3123,677.0119 Q1025.5623,677.0119 1024.4217,676.2775 Q1023.2967,675.5275 1022.7342,674.1838 Q1022.1873,672.8244 1022.1873,671.0275 Q1022.1873,668.9963 1022.8436,667.5431 Q1023.4998,666.09 1024.7811,665.3088 Q1026.0623,664.5275 1027.9373,664.5275 Q1028.8279,664.5275 1029.4998,664.715 Q1030.1717,664.8869 1030.8592,665.2306 L1030.0467,667.2463 Q1029.4217,666.9338 1028.8748,666.8088 Q1028.3436,666.6838 1027.8592,666.6838 Q1026.6873,666.6838 1025.9842,667.215 Q1025.2811,667.7463 1024.9842,668.6994 Q1024.6873,669.6525 1024.6873,670.9181 Q1024.6873,672.9338 1025.4061,673.9025 Q1026.1248,674.8556 1027.7186,674.8556 Q1028.3123,674.8556 1028.9373,674.6994 Q1029.5623,674.5431 1030.3904,674.1681 L1030.3904,676.3869 Q1029.6561,676.6994 1028.8592,676.8556 Q1028.0779,677.0119 1027.3123,677.0119 Z " fill="#000000"/><text fill="#000000" font-family="sans-serif" font-size="14" lengthAdjust="spacing" textLength="33.8099" x="1048.3436" y="675.522">Libro</text><line style="stroke:#181818;stroke-width:0.5;" x1="905.7" x2="1192.297" y1="686.09" y2="686.09"/><g data-visibility-modifier="PRIVATE_FIELD"><rect fill="none" height="6" style="stroke:#C82930;stroke-width:1;" width="6" x="912.7" y="698.124"/></g><text fill="#000000" font-family="sans-serif" font-size="14" lengthAdjust="spacing" textLength="74.3677" x="924.7" y="705.0559">isbn: String</text><g data-visibility-modifier="PRIVATE_FIELD"><rect fill="none" height="6" style="stroke:#C82930;stroke-width:1;" width="6" x="912.7" y="717.1919"/></g><text fill="#000000" font-family="sans-serif" font-size="14" lengthAdjust="spacing" textLength="81.2417" x="924.7" y="724.1239">titulo: String</text><g data-visibility-modifier="PRIVATE_FIELD"><rect fill="none" height="6" style="stroke:#C82930;stroke-width:1;" width="6" x="912.7" y="736.2598"/></g><text fill="#000000" font-family="sans-serif" font-size="14" lengthAdjust="spacing" textLength="82.5997" x="924.7" y="743.1918">autor: String</text><g data-visibility-modifier="PRIVATE_FIELD"><rect fill="none" height="6" style="stroke:#C82930;stroke-width:1;" width="6" x="912.7" y="755.3277"/></g><text fill="#000000" font-family="sans-serif" font-size="14" lengthAdjust="spacing" textLength="129.3455" x="924.7" y="762.2597">disponible: boolean</text><line style="stroke:#181818;stroke-width:0.5;" x1="905.7" x2="1192.297" y1="770.3617" y2="770.3617"/><g data-visibility-modifier="PUBLIC_METHOD"><ellipse cx="915.7" cy="785.3956" fill="#84BE84" rx="3" ry="3" style="stroke:#038048;stroke-width:1;"/></g><text fill="#000000" font-family="sans-serif" font-size="14" lengthAdjust="spacing" textLength="149.6734" x="924.7" y="789.3276">isDisponible(): boolean</text><g data-visibility-modifier="PUBLIC_METHOD"><ellipse cx="915.7" cy="804.4635" fill="#84BE84" rx="3" ry="3" style="stroke:#038048;stroke-width:1;"/></g><text fill="#000000" font-family="sans-serif" font-size="14" lengthAdjust="spacing" textLength="262.597" x="924.7" y="808.3955">setDisponible(disponible: boolean): void</text><g data-visibility-modifier="PUBLIC_METHOD"><ellipse cx="915.7" cy="823.5315" fill="#84BE84" rx="3" ry="3" style="stroke:#038048;stroke-width:1;"/></g><text fill="#000000" font-family="sans-serif" font-size="14" lengthAdjust="spacing" textLength="105.4616" x="924.7" y="827.4634">getIsbn(): String</text><g data-visibility-modifier="PUBLIC_METHOD"><ellipse cx="915.7" cy="842.5994" fill="#84BE84" rx="3" ry="3" style="stroke:#038048;stroke-width:1;"/></g><text fill="#000000" font-family="sans-serif" font-size="14" lengthAdjust="spacing" textLength="113.9316" x="924.7" y="846.5314">getTitulo(): String</text></g><!--class Usuario--><g class="entity" data-qualified-name="Dominio.Usuario" data-source-line="14" id="ent0004"><rect fill="#F1F1F1" height="181.4754" rx="2.5" ry="2.5" style="stroke:#181818;stroke-width:0.5;" width="256.8311" x="1228.58" y="663.62"/><ellipse cx="1327.0907" cy="679.62" fill="#ADD1B2" rx="11" ry="11" style="stroke:#181818;stroke-width:1;"/><path d="M1326.5594,686.5419 Q1324.8094,686.5419 1323.6688,685.8075 Q1322.5438,685.0575 1321.9813,683.7138 Q1321.4344,682.3544 1321.4344,680.5575 Q1321.4344,678.5263 1322.0907,677.0731 Q1322.7469,675.62 1324.0282,674.8388 Q1325.3094,674.0575 1327.1844,674.0575 Q1328.075,674.0575 1328.7469,674.245 Q1329.4188,674.4169 1330.1063,674.7606 L1329.2938,676.7763 Q1328.6688,676.4638 1328.1219,676.3388 Q1327.5907,676.2138 1327.1063,676.2138 Q1325.9344,676.2138 1325.2313,676.745 Q1324.5282,677.2763 1324.2313,678.2294 Q1323.9344,679.1825 1323.9344,680.4481 Q1323.9344,682.4638 1324.6532,683.4325 Q1325.3719,684.3856 1326.9657,684.3856 Q1327.5594,684.3856 1328.1844,684.2294 Q1328.8094,684.0731 1329.6375,683.6981 L1329.6375,685.9169 Q1328.9032,686.2294 1328.1063,686.3856 Q1327.325,686.5419 1326.5594,686.5419 Z " fill="#000000"/><text fill="#000000" font-family="sans-serif" font-size="14" lengthAdjust="spacing" textLength="51.3098" x="1347.5907" y="685.052">Usuario</text><line style="stroke:#181818;stroke-width:0.5;" x1="1229.58" x2="1484.4111" y1="695.62" y2="695.62"/><g data-visibility-modifier="PRIVATE_FIELD"><rect fill="none" height="6" style="stroke:#C82930;stroke-width:1;" width="6" x="1236.58" y="707.654"/></g><text fill="#000000" font-family="sans-serif" font-size="14" lengthAdjust="spacing" textLength="36.9319" x="1248.58" y="714.5859">id: int</text><g data-visibility-modifier="PRIVATE_FIELD"><rect fill="none" height="6" style="stroke:#C82930;stroke-width:1;" width="6" x="1236.58" y="726.7219"/></g><text fill="#000000" font-family="sans-serif" font-size="14" lengthAdjust="spacing" textLength="99.2876" x="1248.58" y="733.6539">nombre: String</text><g data-visibility-modifier="PRIVATE_FIELD"><rect fill="none" height="6" style="stroke:#C82930;stroke-width:1;" width="6" x="1236.58" y="745.7898"/></g><text fill="#000000" font-family="sans-serif" font-size="14" lengthAdjust="spacing" textLength="82.8517" x="1248.58" y="752.7218">email: String</text><g data-visibility-modifier="PRIVATE_FIELD"><rect fill="none" height="6" style="stroke:#C82930;stroke-width:1;" width="6" x="1236.58" y="764.8577"/></g><text fill="#000000" font-family="sans-serif" font-size="14" lengthAdjust="spacing" textLength="138.5435" x="1248.58" y="771.7897">multas: List&lt;Double&gt;</text><line style="stroke:#181818;stroke-width:0.5;" x1="1229.58" x2="1484.4111" y1="779.8917" y2="779.8917"/><g data-visibility-modifier="PUBLIC_METHOD"><ellipse cx="1239.58" cy="794.9256" fill="#84BE84" rx="3" ry="3" style="stroke:#038048;stroke-width:1;"/></g><text fill="#000000" font-family="sans-serif" font-size="14" lengthAdjust="spacing" textLength="68.0257" x="1248.58" y="798.8576">getId(): int</text><g data-visibility-modifier="PUBLIC_METHOD"><ellipse cx="1239.58" cy="813.9935" fill="#84BE84" rx="3" ry="3" style="stroke:#038048;stroke-width:1;"/></g><text fill="#000000" font-family="sans-serif" font-size="14" lengthAdjust="spacing" textLength="112.6996" x="1248.58" y="817.9255">getEmail(): String</text><g data-visibility-modifier="PUBLIC_METHOD"><ellipse cx="1239.58" cy="833.0615" fill="#84BE84" rx="3" ry="3" style="stroke:#038048;stroke-width:1;"/></g><text fill="#000000" font-family="sans-serif" font-size="14" lengthAdjust="spacing" textLength="230.8311" x="1248.58" y="836.9934">agregarMulta(monto: double): void</text></g><!--class Prestamo--><g class="entity" data-qualified-name="Dominio.Prestamo" data-source-line="24" id="ent0005"><rect fill="#F1F1F1" height="200.5433" rx="2.5" ry="2.5" style="stroke:#181818;stroke-width:0.5;" width="175.2254" x="961.39" y="393.54"/><ellipse cx="1013.0918" cy="409.54" fill="#ADD1B2" rx="11" ry="11" style="stroke:#181818;stroke-width:1;"/><path d="M1012.5606,416.4619 Q1010.8106,416.4619 1009.6699,415.7275 Q1008.5449,414.9775 1007.9824,413.6338 Q1007.4356,412.2744 1007.4356,410.4775 Q1007.4356,408.4463 1008.0918,406.9931 Q1008.7481,405.54 1010.0293,404.7588 Q1011.3106,403.9775 1013.1856,403.9775 Q1014.0762,403.9775 1014.7481,404.165 Q1015.4199,404.3369 1016.1074,404.6806 L1015.2949,406.6963 Q1014.6699,406.3838 1014.1231,406.2588 Q1013.5918,406.1338 1013.1074,406.1338 Q1011.9356,406.1338 1011.2324,406.665 Q1010.5293,407.1963 1010.2324,408.1494 Q1009.9356,409.1025 1009.9356,410.3681 Q1009.9356,412.3838 1010.6543,413.3525 Q1011.3731,414.3056 1012.9668,414.3056 Q1013.5606,414.3056 1014.1856,414.1494 Q1014.8106,413.9931 1015.6387,413.6181 L1015.6387,415.8369 Q1014.9043,416.1494 1014.1074,416.3056 Q1013.3262,416.4619 1012.5606,416.4619 Z " fill="#000000"/><text fill="#000000" font-family="sans-serif" font-size="14" lengthAdjust="spacing" textLength="63.3218" x="1033.5918" y="414.972">Prestamo</text><line style="stroke:#181818;stroke-width:0.5;" x1="962.39" x2="1135.6154" y1="425.54" y2="425.54"/><g data-visibility-modifier="PRIVATE_FIELD"><rect fill="none" height="6" style="stroke:#C82930;stroke-width:1;" width="6" x="969.39" y="437.574"/></g><text fill="#000000" font-family="sans-serif" font-size="14" lengthAdjust="spacing" textLength="71.2877" x="981.39" y="444.5059">libro: Libro</text><g data-visibility-modifier="PRIVATE_FIELD"><rect fill="none" height="6" style="stroke:#C82930;stroke-width:1;" width="6" x="969.39" y="456.6419"/></g><text fill="#000000" font-family="sans-serif" font-size="14" lengthAdjust="spacing" textLength="108.4296" x="981.39" y="463.5739">usuario: Usuario</text><g data-visibility-modifier="PRIVATE_FIELD"><rect fill="none" height="6" style="stroke:#C82930;stroke-width:1;" width="6" x="969.39" y="475.7098"/></g><text fill="#000000" font-family="sans-serif" font-size="14" lengthAdjust="spacing" textLength="137.6755" x="981.39" y="482.6418">fechaPrestamo: Date</text><g data-visibility-modifier="PRIVATE_FIELD"><rect fill="none" height="6" style="stroke:#C82930;stroke-width:1;" width="6" x="969.39" y="494.7777"/></g><text fill="#000000" font-family="sans-serif" font-size="14" lengthAdjust="spacing" textLength="147.7694" x="981.39" y="501.7097">fechaDevolucion: Date</text><line style="stroke:#181818;stroke-width:0.5;" x1="962.39" x2="1135.6154" y1="509.8117" y2="509.8117"/><g data-visibility-modifier="PUBLIC_METHOD"><ellipse cx="972.39" cy="524.8456" fill="#84BE84" rx="3" ry="3" style="stroke:#038048;stroke-width:1;"/></g><text fill="#000000" font-family="sans-serif" font-size="14" lengthAdjust="spacing" textLength="149.2254" x="981.39" y="528.7776">estaVencido(): boolean</text><g data-visibility-modifier="PUBLIC_METHOD"><ellipse cx="972.39" cy="543.9135" fill="#84BE84" rx="3" ry="3" style="stroke:#038048;stroke-width:1;"/></g><text fill="#000000" font-family="sans-serif" font-size="14" lengthAdjust="spacing" textLength="133.5315" x="981.39" y="547.8455">getDiasRetraso(): int</text><g data-visibility-modifier="PUBLIC_METHOD"><ellipse cx="972.39" cy="562.9815" fill="#84BE84" rx="3" ry="3" style="stroke:#038048;stroke-width:1;"/></g><text fill="#000000" font-family="sans-serif" font-size="14" lengthAdjust="spacing" textLength="104.9716" x="981.39" y="566.9134">getLibro(): Libro</text><g data-visibility-modifier="PUBLIC_METHOD"><ellipse cx="972.39" cy="582.0494" fill="#84BE84" rx="3" ry="3" style="stroke:#038048;stroke-width:1;"/></g><text fill="#000000" font-family="sans-serif" font-size="14" lengthAdjust="spacing" textLength="139.9715" x="981.39" y="585.9814">getUsuario(): Usuario</text></g><!--class GestorInventario--><g class="entity" data-qualified-name="L.gica.GestorInventario" data-source-line="37" id="ent0007"><rect fill="#F1F1F1" height="105.2038" rx="2.5" ry="2.5" style="stroke:#181818;stroke-width:0.5;" width="249.1872" x="22.41" y="441.21"/><ellipse cx="86.7888" cy="457.21" fill="#ADD1B2" rx="11" ry="11" style="stroke:#181818;stroke-width:1;"/><path d="M86.2575,464.1319 Q84.5075,464.1319 83.3669,463.3975 Q82.2419,462.6475 81.6794,461.3038 Q81.1325,459.9444 81.1325,458.1475 Q81.1325,456.1163 81.7888,454.6631 Q82.445,453.21 83.7263,452.4288 Q85.0075,451.6475 86.8825,451.6475 Q87.7732,451.6475 88.445,451.835 Q89.1169,452.0069 89.8044,452.3506 L88.9919,454.3663 Q88.3669,454.0538 87.82,453.9288 Q87.2888,453.8038 86.8044,453.8038 Q85.6325,453.8038 84.9294,454.335 Q84.2263,454.8663 83.9294,455.8194 Q83.6325,456.7725 83.6325,458.0381 Q83.6325,460.0538 84.3513,461.0225 Q85.07,461.9756 86.6638,461.9756 Q87.2575,461.9756 87.8825,461.8194 Q88.5075,461.6631 89.3357,461.2881 L89.3357,463.5069 Q88.6013,463.8194 87.8044,463.9756 Q87.0232,464.1319 86.2575,464.1319 Z " fill="#000000"/><text fill="#000000" font-family="sans-serif" font-size="14" lengthAdjust="spacing" textLength="111.9296" x="107.2888" y="462.642">GestorInventario</text><line style="stroke:#181818;stroke-width:0.5;" x1="23.41" x2="270.5972" y1="473.21" y2="473.21"/><g data-visibility-modifier="PRIVATE_FIELD"><rect fill="none" height="6" style="stroke:#C82930;stroke-width:1;" width="6" x="30.41" y="485.244"/></g><text fill="#000000" font-family="sans-serif" font-size="14" lengthAdjust="spacing" textLength="116.7176" x="42.41" y="492.1759">libros: List&lt;Libro&gt;</text><line style="stroke:#181818;stroke-width:0.5;" x1="23.41" x2="270.5972" y1="500.2779" y2="500.2779"/><g data-visibility-modifier="PUBLIC_METHOD"><ellipse cx="33.41" cy="515.3119" fill="#84BE84" rx="3" ry="3" style="stroke:#038048;stroke-width:1;"/></g><text fill="#000000" font-family="sans-serif" font-size="14" lengthAdjust="spacing" textLength="167.2714" x="42.41" y="519.2439">agregar(libro: Libro): void</text><g data-visibility-modifier="PUBLIC_METHOD"><ellipse cx="33.41" cy="534.3798" fill="#84BE84" rx="3" ry="3" style="stroke:#038048;stroke-width:1;"/></g><text fill="#000000" font-family="sans-serif" font-size="14" lengthAdjust="spacing" textLength="223.1872" x="42.41" y="538.3118">buscarPorISBN(isbn: String): Libro</text></g><!--class GestorUsuarios--><g class="entity" data-qualified-name="L.gica.GestorUsuarios" data-source-line="43" id="ent0008"><rect fill="#F1F1F1" height="105.2038" rx="2.5" ry="2.5" style="stroke:#181818;stroke-width:0.5;" width="235.1032" x="306.45" y="441.21"/><ellipse cx="368.6938" cy="457.21" fill="#ADD1B2" rx="11" ry="11" style="stroke:#181818;stroke-width:1;"/><path d="M368.1625,464.1319 Q366.4125,464.1319 365.2719,463.3975 Q364.1469,462.6475 363.5844,461.3038 Q363.0375,459.9444 363.0375,458.1475 Q363.0375,456.1163 363.6938,454.6631 Q364.35,453.21 365.6313,452.4288 Q366.9125,451.6475 368.7875,451.6475 Q369.6782,451.6475 370.35,451.835 Q371.0219,452.0069 371.7094,452.3506 L370.8969,454.3663 Q370.2719,454.0538 369.725,453.9288 Q369.1938,453.8038 368.7094,453.8038 Q367.5375,453.8038 366.8344,454.335 Q366.1313,454.8663 365.8344,455.8194 Q365.5375,456.7725 365.5375,458.0381 Q365.5375,460.0538 366.2563,461.0225 Q366.975,461.9756 368.5688,461.9756 Q369.1625,461.9756 369.7875,461.8194 Q370.4125,461.6631 371.2407,461.2881 L371.2407,463.5069 Q370.5063,463.8194 369.7094,463.9756 Q368.9282,464.1319 368.1625,464.1319 Z " fill="#000000"/><text fill="#000000" font-family="sans-serif" font-size="14" lengthAdjust="spacing" textLength="102.1156" x="389.1938" y="462.642">GestorUsuarios</text><line style="stroke:#181818;stroke-width:0.5;" x1="307.45" x2="540.5532" y1="473.21" y2="473.21"/><g data-visibility-modifier="PRIVATE_FIELD"><rect fill="none" height="6" style="stroke:#C82930;stroke-width:1;" width="6" x="314.45" y="485.244"/></g><text fill="#000000" font-family="sans-serif" font-size="14" lengthAdjust="spacing" textLength="153.8594" x="326.45" y="492.1759">usuarios: List&lt;Usuario&gt;</text><line style="stroke:#181818;stroke-width:0.5;" x1="307.45" x2="540.5532" y1="500.2779" y2="500.2779"/><g data-visibility-modifier="PUBLIC_METHOD"><ellipse cx="317.45" cy="515.3119" fill="#84BE84" rx="3" ry="3" style="stroke:#038048;stroke-width:1;"/></g><text fill="#000000" font-family="sans-serif" font-size="14" lengthAdjust="spacing" textLength="209.1032" x="326.45" y="519.2439">registrar(usuario: Usuario): void</text><g data-visibility-modifier="PUBLIC_METHOD"><ellipse cx="317.45" cy="534.3798" fill="#84BE84" rx="3" ry="3" style="stroke:#038048;stroke-width:1;"/></g><text fill="#000000" font-family="sans-serif" font-size="14" lengthAdjust="spacing" textLength="184.4353" x="326.45" y="538.3118">buscarPorId(id: int): Usuario</text></g><!--class CalculadorMultas--><g class="entity" data-qualified-name="L.gica.CalculadorMultas" data-source-line="49" id="ent0009"><rect fill="#F1F1F1" height="86.1358" rx="2.5" ry="2.5" style="stroke:#181818;stroke-width:0.5;" width="272.6231" x="576.69" y="450.75"/><ellipse cx="651.4568" cy="466.75" fill="#ADD1B2" rx="11" ry="11" style="stroke:#181818;stroke-width:1;"/><path d="M650.9255,473.6719 Q649.1755,473.6719 648.0349,472.9375 Q646.9099,472.1875 646.3474,470.8438 Q645.8005,469.4844 645.8005,467.6875 Q645.8005,465.6563 646.4568,464.2031 Q647.113,462.75 648.3943,461.9688 Q649.6755,461.1875 651.5505,461.1875 Q652.4411,461.1875 653.113,461.375 Q653.7849,461.5469 654.4724,461.8906 L653.6599,463.9063 Q653.0349,463.5938 652.488,463.4688 Q651.9568,463.3438 651.4724,463.3438 Q650.3005,463.3438 649.5974,463.875 Q648.8943,464.4063 648.5974,465.3594 Q648.3005,466.3125 648.3005,467.5781 Q648.3005,469.5938 649.0193,470.5625 Q649.738,471.5156 651.3318,471.5156 Q651.9255,471.5156 652.5505,471.3594 Q653.1755,471.2031 654.0036,470.8281 L654.0036,473.0469 Q653.2693,473.3594 652.4724,473.5156 Q651.6911,473.6719 650.9255,473.6719 Z " fill="#000000"/><text fill="#000000" font-family="sans-serif" font-size="14" lengthAdjust="spacing" textLength="114.5896" x="671.9568" y="472.182">CalculadorMultas</text><line style="stroke:#181818;stroke-width:0.5;" x1="577.69" x2="848.3131" y1="482.75" y2="482.75"/><g data-visibility-modifier="PRIVATE_FIELD"><rect fill="none" height="6" style="stroke:#C82930;stroke-width:1;" width="6" x="584.69" y="494.784"/></g><text fill="#000000" font-family="sans-serif" font-size="14" lengthAdjust="spacing" textLength="164.6954" x="596.69" y="501.7159">MULTA_POR_DIA: double</text><line style="stroke:#181818;stroke-width:0.5;" x1="577.69" x2="848.3131" y1="509.8179" y2="509.8179"/><g data-visibility-modifier="PUBLIC_METHOD"><ellipse cx="587.69" cy="524.8519" fill="#84BE84" rx="3" ry="3" style="stroke:#038048;stroke-width:1;"/></g><text fill="#000000" font-family="sans-serif" font-size="14" lengthAdjust="spacing" textLength="246.6231" x="596.69" y="528.7839">calcular(prestamo: Prestamo): double</text></g><!--class ServicioPrestamos--><g class="entity" data-qualified-name="L.gica.ServicioPrestamos" data-source-line="54" id="ent0010"><rect fill="#F1F1F1" height="124.2717" rx="2.5" ry="2.5" style="stroke:#181818;stroke-width:0.5;" width="322.7989" x="513.6" y="191.27"/><ellipse cx="610.2907" cy="207.27" fill="#ADD1B2" rx="11" ry="11" style="stroke:#181818;stroke-width:1;"/><path d="M609.7594,214.1919 Q608.0094,214.1919 606.8688,213.4575 Q605.7438,212.7075 605.1813,211.3637 Q604.6344,210.0044 604.6344,208.2075 Q604.6344,206.1762 605.2907,204.7231 Q605.9469,203.27 607.2282,202.4887 Q608.5094,201.7075 610.3844,201.7075 Q611.275,201.7075 611.9469,201.895 Q612.6188,202.0669 613.3063,202.4106 L612.4938,204.4262 Q611.8688,204.1137 611.3219,203.9887 Q610.7907,203.8637 610.3063,203.8637 Q609.1344,203.8637 608.4313,204.395 Q607.7282,204.9262 607.4313,205.8794 Q607.1344,206.8325 607.1344,208.0981 Q607.1344,210.1137 607.8532,211.0825 Q608.5719,212.0356 610.1657,212.0356 Q610.7594,212.0356 611.3844,211.8794 Q612.0094,211.7231 612.8375,211.3481 L612.8375,213.5669 Q612.1032,213.8794 611.3063,214.0356 Q610.525,214.1919 609.7594,214.1919 Z " fill="#000000"/><text fill="#000000" font-family="sans-serif" font-size="14" lengthAdjust="spacing" textLength="120.9176" x="630.7907" y="212.702">ServicioPrestamos</text><line style="stroke:#181818;stroke-width:0.5;" x1="514.6" x2="835.3989" y1="223.27" y2="223.27"/><g data-visibility-modifier="PRIVATE_FIELD"><rect fill="none" height="6" style="stroke:#C82930;stroke-width:1;" width="6" x="521.6" y="235.304"/></g><text fill="#000000" font-family="sans-serif" font-size="14" lengthAdjust="spacing" textLength="226.2252" x="533.6" y="242.2359">prestamosActivos: List&lt;Prestamo&gt;</text><line style="stroke:#181818;stroke-width:0.5;" x1="514.6" x2="835.3989" y1="250.3379" y2="250.3379"/><g data-visibility-modifier="PUBLIC_METHOD"><ellipse cx="524.6" cy="265.3719" fill="#84BE84" rx="3" ry="3" style="stroke:#038048;stroke-width:1;"/></g><text fill="#000000" font-family="sans-serif" font-size="14" lengthAdjust="spacing" textLength="296.7989" x="533.6" y="269.3039">prestar(isbn: String, idUsuario: int): Prestamo</text><g data-visibility-modifier="PUBLIC_METHOD"><ellipse cx="524.6" cy="284.4398" fill="#84BE84" rx="3" ry="3" style="stroke:#038048;stroke-width:1;"/></g><text fill="#000000" font-family="sans-serif" font-size="14" lengthAdjust="spacing" textLength="209.9712" x="533.6" y="288.3718">devolver(isbn: String): Prestamo</text><g data-visibility-modifier="PUBLIC_METHOD"><ellipse cx="524.6" cy="303.5077" fill="#84BE84" rx="3" ry="3" style="stroke:#038048;stroke-width:1;"/></g><text fill="#000000" font-family="sans-serif" font-size="14" lengthAdjust="spacing" textLength="284.493" x="533.6" y="307.4397">calcularMulta(prestamo: Prestamo): double</text></g><!--class BaseDatos--><g class="entity" data-qualified-name="Infraestructura.BaseDatos" data-source-line="63" id="ent0012"><rect fill="#F1F1F1" height="124.2717" rx="2.5" ry="2.5" style="stroke:#181818;stroke-width:0.5;" width="324.171" x="904.91" y="191.27"/><ellipse cx="1027.8156" cy="207.27" fill="#ADD1B2" rx="11" ry="11" style="stroke:#181818;stroke-width:1;"/><path d="M1027.2844,214.1919 Q1025.5344,214.1919 1024.3937,213.4575 Q1023.2687,212.7075 1022.7062,211.3637 Q1022.1594,210.0044 1022.1594,208.2075 Q1022.1594,206.1762 1022.8156,204.7231 Q1023.4719,203.27 1024.7531,202.4887 Q1026.0344,201.7075 1027.9094,201.7075 Q1028.8,201.7075 1029.4719,201.895 Q1030.1437,202.0669 1030.8312,202.4106 L1030.0187,204.4262 Q1029.3937,204.1137 1028.8469,203.9887 Q1028.3156,203.8637 1027.8312,203.8637 Q1026.6594,203.8637 1025.9562,204.395 Q1025.2531,204.9262 1024.9562,205.8794 Q1024.6594,206.8325 1024.6594,208.0981 Q1024.6594,210.1137 1025.3781,211.0825 Q1026.0969,212.0356 1027.6906,212.0356 Q1028.2844,212.0356 1028.9094,211.8794 Q1029.5344,211.7231 1030.3625,211.3481 L1030.3625,213.5669 Q1029.6281,213.8794 1028.8312,214.0356 Q1028.05,214.1919 1027.2844,214.1919 Z " fill="#000000"/><text fill="#000000" font-family="sans-serif" font-size="14" lengthAdjust="spacing" textLength="69.8597" x="1048.3156" y="212.702">BaseDatos</text><line style="stroke:#181818;stroke-width:0.5;" x1="905.91" x2="1228.081" y1="223.27" y2="223.27"/><line style="stroke:#181818;stroke-width:0.5;" x1="905.91" x2="1228.081" y1="231.27" y2="231.27"/><g data-visibility-modifier="PUBLIC_METHOD"><ellipse cx="915.91" cy="246.304" fill="#84BE84" rx="3" ry="3" style="stroke:#038048;stroke-width:1;"/></g><text fill="#000000" font-family="sans-serif" font-size="14" lengthAdjust="spacing" textLength="201.8372" x="924.91" y="250.2359">guardarLibro(libro: Libro): void</text><g data-visibility-modifier="PUBLIC_METHOD"><ellipse cx="915.91" cy="265.3719" fill="#84BE84" rx="3" ry="3" style="stroke:#038048;stroke-width:1;"/></g><text fill="#000000" font-family="sans-serif" font-size="14" lengthAdjust="spacing" textLength="256.4791" x="924.91" y="269.3039">guardarUsuario(usuario: Usuario): void</text><g data-visibility-modifier="PUBLIC_METHOD"><ellipse cx="915.91" cy="284.4398" fill="#84BE84" rx="3" ry="3" style="stroke:#038048;stroke-width:1;"/></g><text fill="#000000" font-family="sans-serif" font-size="14" lengthAdjust="spacing" textLength="298.171" x="924.91" y="288.3718">registrarPrestamo(prestamo: Prestamo): void</text><g data-visibility-modifier="PUBLIC_METHOD"><ellipse cx="915.91" cy="303.5077" fill="#84BE84" rx="3" ry="3" style="stroke:#038048;stroke-width:1;"/></g><text fill="#000000" font-family="sans-serif" font-size="14" lengthAdjust="spacing" textLength="280.909" x="924.91" y="307.4397">cerrarPrestamo(prestamo: Prestamo): void</text></g><!--class ServicioEmail--><g class="entity" data-qualified-name="Infraestructura.ServicioEmail" data-source-line="70" id="ent0013"><rect fill="#F1F1F1" height="105.2038" rx="2.5" ry="2.5" style="stroke:#181818;stroke-width:0.5;" width="433.8885" x="1264.06" y="200.81"/><ellipse cx="1433.3334" cy="216.81" fill="#ADD1B2" rx="11" ry="11" style="stroke:#181818;stroke-width:1;"/><path d="M1432.8022,223.7319 Q1431.0522,223.7319 1429.9115,222.9975 Q1428.7865,222.2475 1428.224,220.9037 Q1427.6772,219.5444 1427.6772,217.7475 Q1427.6772,215.7162 1428.3334,214.2631 Q1428.9897,212.81 1430.2709,212.0287 Q1431.5522,211.2475 1433.4272,211.2475 Q1434.3178,211.2475 1434.9897,211.435 Q1435.6615,211.6069 1436.349,211.9506 L1435.5365,213.9662 Q1434.9115,213.6537 1434.3647,213.5287 Q1433.8334,213.4037 1433.349,213.4037 Q1432.1772,213.4037 1431.474,213.935 Q1430.7709,214.4662 1430.474,215.4194 Q1430.1772,216.3725 1430.1772,217.6381 Q1430.1772,219.6537 1430.8959,220.6225 Q1431.6147,221.5756 1433.2084,221.5756 Q1433.8022,221.5756 1434.4272,221.4194 Q1435.0522,221.2631 1435.8803,220.8881 L1435.8803,223.1069 Q1435.1459,223.4194 1434.349,223.5756 Q1433.5678,223.7319 1432.8022,223.7319 Z " fill="#000000"/><text fill="#000000" font-family="sans-serif" font-size="14" lengthAdjust="spacing" textLength="86.8417" x="1453.8334" y="222.242">ServicioEmail</text><line style="stroke:#181818;stroke-width:0.5;" x1="1265.06" x2="1696.9485" y1="232.81" y2="232.81"/><line style="stroke:#181818;stroke-width:0.5;" x1="1265.06" x2="1696.9485" y1="240.81" y2="240.81"/><g data-visibility-modifier="PUBLIC_METHOD"><ellipse cx="1275.06" cy="255.844" fill="#84BE84" rx="3" ry="3" style="stroke:#038048;stroke-width:1;"/></g><text fill="#000000" font-family="sans-serif" font-size="14" lengthAdjust="spacing" textLength="240.351" x="1284.06" y="259.7759">enviarBienvenida(email: String): void</text><g data-visibility-modifier="PUBLIC_METHOD"><ellipse cx="1275.06" cy="274.9119" fill="#84BE84" rx="3" ry="3" style="stroke:#038048;stroke-width:1;"/></g><text fill="#000000" font-family="sans-serif" font-size="14" lengthAdjust="spacing" textLength="407.8885" x="1284.06" y="278.8439">enviarConfirmacionPrestamo(email: String, titulo: String): void</text><g data-visibility-modifier="PUBLIC_METHOD"><ellipse cx="1275.06" cy="293.9798" fill="#84BE84" rx="3" ry="3" style="stroke:#038048;stroke-width:1;"/></g><text fill="#000000" font-family="sans-serif" font-size="14" lengthAdjust="spacing" textLength="323.2588" x="1284.06" y="297.9118">notificarMulta(email: String, monto: double): void</text></g><!--class Biblioteca--><g class="entity" data-qualified-name="Biblioteca" data-source-line="77" id="ent0014"><rect fill="#F1F1F1" height="124.2717" rx="2.5" ry="2.5" style="stroke:#181818;stroke-width:0.5;" width="321.0909" x="514.45" y="7"/><ellipse cx="638.4756" cy="23" fill="#ADD1B2" rx="11" ry="11" style="stroke:#181818;stroke-width:1;"/><path d="M637.9443,29.9219 Q636.1943,29.9219 635.0537,29.1875 Q633.9287,28.4375 633.3662,27.0938 Q632.8193,25.7344 632.8193,23.9375 Q632.8193,21.9063 633.4756,20.4531 Q634.1318,19 635.4131,18.2188 Q636.6943,17.4375 638.5693,17.4375 Q639.4599,17.4375 640.1318,17.625 Q640.8037,17.7969 641.4912,18.1406 L640.6787,20.1563 Q640.0537,19.8438 639.5068,19.7188 Q638.9756,19.5938 638.4912,19.5938 Q637.3193,19.5938 636.6162,20.125 Q635.9131,20.6563 635.6162,21.6094 Q635.3193,22.5625 635.3193,23.8281 Q635.3193,25.8438 636.0381,26.8125 Q636.7568,27.7656 638.3506,27.7656 Q638.9443,27.7656 639.5693,27.6094 Q640.1943,27.4531 641.0224,27.0781 L641.0224,29.2969 Q640.2881,29.6094 639.4912,29.7656 Q638.7099,29.9219 637.9443,29.9219 Z " fill="#000000"/><text fill="#000000" font-family="sans-serif" font-size="14" lengthAdjust="spacing" textLength="64.5397" x="658.9756" y="28.432">Biblioteca</text><line style="stroke:#181818;stroke-width:0.5;" x1="515.45" x2="834.5409" y1="39" y2="39"/><line style="stroke:#181818;stroke-width:0.5;" x1="515.45" x2="834.5409" y1="47" y2="47"/><g data-visibility-modifier="PUBLIC_METHOD"><ellipse cx="525.45" cy="62.034" fill="#84BE84" rx="3" ry="3" style="stroke:#038048;stroke-width:1;"/></g><text fill="#000000" font-family="sans-serif" font-size="14" lengthAdjust="spacing" textLength="201.0813" x="534.45" y="65.9659">agregarLibro(libro: Libro): void</text><g data-visibility-modifier="PUBLIC_METHOD"><ellipse cx="525.45" cy="81.1019" fill="#84BE84" rx="3" ry="3" style="stroke:#038048;stroke-width:1;"/></g><text fill="#000000" font-family="sans-serif" font-size="14" lengthAdjust="spacing" textLength="260.413" x="534.45" y="85.0339">registrarUsuario(usuario: Usuario): void</text><g data-visibility-modifier="PUBLIC_METHOD"><ellipse cx="525.45" cy="100.1698" fill="#84BE84" rx="3" ry="3" style="stroke:#038048;stroke-width:1;"/></g><text fill="#000000" font-family="sans-serif" font-size="14" lengthAdjust="spacing" textLength="295.0909" x="534.45" y="104.1018">prestarLibro(isbn: String, idUsuario: int): void</text><g data-visibility-modifier="PUBLIC_METHOD"><ellipse cx="525.45" cy="119.2377" fill="#84BE84" rx="3" ry="3" style="stroke:#038048;stroke-width:1;"/></g><text fill="#000000" font-family="sans-serif" font-size="14" lengthAdjust="spacing" textLength="208.2632" x="534.45" y="123.1697">devolverLibro(isbn: String): void</text></g><!--link Prestamo to Libro--><g class="link" data-entity-1="ent0005" data-entity-2="ent0003" data-link-type="dependency" data-source-line="84" id="lnk15"><path codeLine="84" d="M1049,594.4 C1049,613.89 1049,628.33 1049,647.82" fill="none" id="Prestamo-to-Libro" style="stroke:#181818;stroke-width:1;"/><polygon fill="#181818" points="1049,653.82,1053,644.82,1049,648.82,1045,644.82,1049,653.82" style="stroke:#181818;stroke-width:1;"/></g><!--link Prestamo to Usuario--><g class="link" data-entity-1="ent0005" data-entity-2="ent0004" data-link-type="dependency" data-source-line="85" id="lnk16"><path codeLine="85" d="M1136.85,568.56 C1171.96,598.03 1208.1543,628.4126 1245.0043,659.3426" fill="none" id="Prestamo-to-Usuario" style="stroke:#181818;stroke-width:1;"/><polygon fill="#181818" points="1249.6,663.2,1245.278,654.3501,1245.7702,659.9855,1240.1348,660.4777,1249.6,663.2" style="stroke:#181818;stroke-width:1;"/></g><!--link GestorInventario to Libro--><g class="link" data-entity-1="ent0007" data-entity-2="ent0003" data-link-type="dependency" data-source-line="87" id="lnk17"><path codeLine="87" d="M209.82,546.91 C233.41,564.2 261.26,582.08 289,594.09 C492.22,682.01 741.5585,722.0018 898.4585,739.8518" fill="none" id="GestorInventario-to-Libro" style="stroke:#181818;stroke-width:1;"/><polygon fill="#181818" points="904.42,740.53,895.9298,735.5383,899.452,739.9648,895.0255,743.487,904.42,740.53" style="stroke:#181818;stroke-width:1;"/></g><!--link GestorUsuarios to Usuario--><g class="link" data-entity-1="ent0008" data-entity-2="ent0004" data-link-type="dependency" data-source-line="88" id="lnk18"><path codeLine="88" d="M480.35,546.89 C503.13,564.95 530.71,583.35 559,594.09 C831.05,697.39 937.09,555.82 1211,654.09 C1218.36,656.73 1220.2792,657.2479 1227.5292,660.6879" fill="none" id="GestorUsuarios-to-Usuario" style="stroke:#181818;stroke-width:1;"/><polygon fill="#181818" points="1232.95,663.26,1226.5336,655.7881,1228.4327,661.1166,1223.1042,663.0158,1232.95,663.26" style="stroke:#181818;stroke-width:1;"/></g><!--link ServicioPrestamos to GestorInventario--><g class="link" data-entity-1="ent0010" data-entity-2="ent0007" data-link-type="dependency" data-source-line="89" id="lnk19"><path codeLine="89" d="M513.53,272.74 C441.34,286 357.33,308.71 289,347.54 C248.07,370.81 215.0185,404.6737 189.1185,436.2037" fill="none" id="ServicioPrestamos-to-GestorInventario" style="stroke:#181818;stroke-width:1;"/><polygon fill="#181818" points="185.31,440.84,194.1136,436.4245,188.4837,436.9764,187.9318,431.3465,185.31,440.84" style="stroke:#181818;stroke-width:1;"/></g><!--link ServicioPrestamos to GestorUsuarios--><g class="link" data-entity-1="ent0010" data-entity-2="ent0008" data-link-type="dependency" data-source-line="90" id="lnk20"><path codeLine="90" d="M595.08,316.03 C582.75,326.27 570.35,336.99 559,347.54 C527.36,376.97 498.2976,407.9857 472.8076,436.5157" fill="none" id="ServicioPrestamos-to-GestorUsuarios" style="stroke:#181818;stroke-width:1;"/><polygon fill="#181818" points="468.81,440.99,477.7892,436.9436,472.1413,437.2614,471.8235,431.6135,468.81,440.99" style="stroke:#181818;stroke-width:1;"/></g><!--link ServicioPrestamos to CalculadorMultas--><g class="link" data-entity-1="ent0010" data-entity-2="ent0009" data-link-type="dependency" data-source-line="91" id="lnk21"><path codeLine="91" d="M684.79,315.8 C691.52,358.02 699.336,407.0747 705.296,444.4847" fill="none" id="ServicioPrestamos-to-CalculadorMultas" style="stroke:#181818;stroke-width:1;"/><polygon fill="#181818" points="706.24,450.41,708.7742,440.8928,705.4533,445.4723,700.8738,442.1514,706.24,450.41" style="stroke:#181818;stroke-width:1;"/></g><!--link ServicioPrestamos to Prestamo--><g class="link" data-entity-1="ent0010" data-entity-2="ent0005" data-link-type="dependency" data-source-line="92" id="lnk22"><path codeLine="92" d="M809.58,315.92 C828.54,325.86 847.51,336.53 865,347.54 C897.72,368.15 926.8093,389.7162 956.3493,413.4062" fill="none" id="ServicioPrestamos-to-Prestamo" style="stroke:#181818;stroke-width:1;"/><polygon fill="#181818" points="961.03,417.16,956.5114,408.4089,957.1294,414.0319,951.5064,414.6498,961.03,417.16" style="stroke:#181818;stroke-width:1;"/></g><!--link Biblioteca to GestorInventario--><g class="link" data-entity-1="ent0014" data-entity-2="ent0007" data-link-type="dependency" data-source-line="94" id="lnk23"><path codeLine="94" d="M514.2,100.1 C480.29,110.92 446.04,125.54 417,145.27 C302.61,223 217.8788,359.2803 176.3588,435.5503" fill="none" id="Biblioteca-to-GestorInventario" style="stroke:#181818;stroke-width:1;"/><polygon fill="#181818" points="173.49,440.82,181.3063,434.8279,175.8806,436.4285,174.28,431.0029,173.49,440.82" style="stroke:#181818;stroke-width:1;"/></g><!--link Biblioteca to GestorUsuarios--><g class="link" data-entity-1="ent0014" data-entity-2="ent0008" data-link-type="dependency" data-source-line="95" id="lnk24"><path codeLine="95" d="M514.26,127.05 C507.61,132.58 501.46,138.64 496,145.27 C425.79,230.54 418.438,360.7922 420.438,434.8222" fill="none" id="Biblioteca-to-GestorUsuarios" style="stroke:#181818;stroke-width:1;"/><polygon fill="#181818" points="420.6,440.82,424.3555,431.7153,420.465,435.8218,416.3584,431.9313,420.6,440.82" style="stroke:#181818;stroke-width:1;"/></g><!--link Biblioteca to ServicioPrestamos--><g class="link" data-entity-1="ent0014" data-entity-2="ent0010" data-link-type="dependency" data-source-line="96" id="lnk25"><path codeLine="96" d="M675,131.59 C675,150.71 675,165.79 675,184.91" fill="none" id="Biblioteca-to-ServicioPrestamos" style="stroke:#181818;stroke-width:1;"/><polygon fill="#181818" points="675,190.91,679,181.91,675,185.91,671,181.91,675,190.91" style="stroke:#181818;stroke-width:1;"/></g><!--link Biblioteca to BaseDatos--><g class="link" data-entity-1="ent0014" data-entity-2="ent0012" data-link-type="dependency" data-source-line="97" id="lnk26"><path codeLine="97" d="M834.43,131.67 C844.83,136.15 855.1,140.7 865,145.27 C895.01,159.11 921.5567,172.4738 950.8867,187.9938" fill="none" id="Biblioteca-to-BaseDatos" style="stroke:#181818;stroke-width:1;"/><polygon fill="#181818" points="956.19,190.8,950.1059,183.0551,951.7706,188.4615,946.3642,190.1262,956.19,190.8" style="stroke:#181818;stroke-width:1;"/></g><!--link Biblioteca to ServicioEmail--><g class="link" data-entity-1="ent0014" data-entity-2="ent0013" data-link-type="dependency" data-source-line="98" id="lnk27"><path codeLine="98" d="M836.03,78.42 C952.1,87.48 1111.52,106.32 1247,145.27 C1293.81,158.73 1337.7788,177.5165 1379.0488,197.6765" fill="none" id="Biblioteca-to-ServicioEmail" style="stroke:#181818;stroke-width:1;"/><polygon fill="#181818" points="1384.44,200.31,1378.109,192.7656,1379.9474,198.1154,1374.5976,199.9538,1384.44,200.31" style="stroke:#181818;stroke-width:1;"/></g><?plantuml-src ZLLBRjim4Dtx549M2XnVG2WCs75H671Q8uwx3SOKhGugaGP9QLFaL3r2BrPI4YL-P3jQpezlvhqPNO3yXe8c3njU8KF-aFoP9VeZ9KYPxF0aU6yntmBbYMN9GGbanMXLgEgIntQe5HUnEKTvuGnF9SsI4-Sb1JOuvoWtWpjzd0YGL3aH4xLqKiCn7pCAghOQjwaMG36kjnPyuFoOELCuoXe4-dF8imIP6WsCLoT1urvf1LZ6vgek5SXC3rYgBnjUQ_nB7t1k4BbF6EjNKssg3oW4BK2ycB9fnPdIREHjMNSQNbTxGQM2ockhD7nd7UsZjUxwp-mWHi-PabzW2sN91XGDd1lQyB8co5dWdfkadvGHpFaapuNX6UGhLG8advf62zCuVBp6rICrJXVqnqoFu68bl_ltjq02lkI_QLnSR5b3cGfPRyTZMMiVNKOKfEuC8ocUQab0xFK3X_NtrDqchmsFg0vHtuPqyVJ4M4HzY8D98z8EeL657Dv0bgUzkgFXEQ2UeIHr2JdlDEV1UZdktbRl-n-lxvljokfmV8bqgIAz3CAn4dhqehq73rGqg7LaGxqNRIMv8WgROI0srfb85ocyqJybc1_jVBg-RUQOc1iXDrI4fCMHjhzk6UytwKfooyu2T9YeYQf58CqrIAfto6jzNcZSEOXk5svghu-qgt5N4ODuBF3fNlmaGiNdCoO9Rc-Sso5b3O9O8pKxYJcatasD47JXpvoTKLHWBi-0najyIlpVLbI8SOLdVHzw8eFa6qTMjzKJflzBo1KbqFTZZyHjjiR9VuOhA-ckvXrTZrbMpt6Q3TDj3F-8nMBPdoVFPC_3BBgQOq9mljoqUAUDDwnrCypMlH8KdgahOSCIpnpA9h5C-WSGWJTwB0mODlfQPhiCi_y0?></g></svg>