<?plantuml 1.2026.2?><svg xmlns="http://www.w3.org/2000/svg" xmlns:xlink="http://www.w3.org/1999/xlink" contentStyleType="text/css" data-diagram-type="CLASS" height="303px" preserveAspectRatio="none" style="width:1586px;height:303px;background:#FFFFFF;" version="1.1" viewBox="0 0 1586 303" width="1586px" zoomAndPan="magnify"><defs/><g><!--class VisitantePedido--><g class="entity" data-qualified-name="VisitantePedido" data-source-line="3" id="ent0002"><rect fill="#F1F1F1" height="105.2038" rx="2.5" ry="2.5" style="stroke:#181818;stroke-width:0.5;" width="317.4509" x="392" y="191.28"/><ellipse cx="498.4906" cy="207.28" fill="#B4A7E5" rx="11" ry="11" style="stroke:#181818;stroke-width:1;"/><path d="M494.5219,213.78 L494.5219,212.0769 L496.8813,211.8113 L496.8813,203.6081 L494.5219,203.3425 L494.5219,201.6394 L501.6625,201.6394 L501.6625,203.3425 L499.2406,203.6081 L499.2406,211.8113 L501.6625,212.0769 L501.6625,213.78 L494.5219,213.78 Z " fill="#000000"/><text fill="#000000" font-family="sans-serif" font-size="14" font-style="italic" lengthAdjust="spacing" textLength="95.9696" x="518.9906" y="212.712">VisitantePedido</text><line style="stroke:#181818;stroke-width:0.5;" x1="393" x2="708.4509" y1="223.28" y2="223.28"/><line style="stroke:#181818;stroke-width:0.5;" x1="393" x2="708.4509" y1="231.28" y2="231.28"/><text fill="#000000" font-family="sans-serif" font-size="14" lengthAdjust="spacing" textLength="227.7791" x="398" y="250.2459">+visitar(pedidoFisico: PedidoFisico)</text><text fill="#000000" font-family="sans-serif" font-size="14" lengthAdjust="spacing" textLength="240.1551" x="398" y="269.3139">+visitar(pedidoDigital: PedidoDigital)</text><text fill="#000000" font-family="sans-serif" font-size="14" lengthAdjust="spacing" textLength="305.4509" x="398" y="288.3818">+visitar(pedidoSuscripcion: PedidoSuscripcion)</text></g><!--class Pedido--><g class="entity" data-qualified-name="Pedido" data-source-line="9" id="ent0003"><rect fill="#F1F1F1" height="124.2717" rx="2.5" ry="2.5" style="stroke:#181818;stroke-width:0.5;" width="231.0291" x="1063.21" y="7"/><ellipse cx="1153.1596" cy="23" fill="#A9DCDF" rx="11" ry="11" style="stroke:#181818;stroke-width:1;"/><path d="M1148.3315,28.75 L1151.6753,16.5625 L1154.8159,16.5625 L1158.1909,28.75 L1155.7221,28.75 L1154.9878,25.7344 L1151.4721,25.7344 L1150.7221,28.75 L1148.3315,28.75 Z M1152.7378,20.7031 L1151.9878,23.7031 L1154.5034,23.7031 L1153.7846,20.7031 Q1153.644,20.125 1153.519,19.5781 Q1153.394,19.0156 1153.2534,18.4375 Q1153.144,19.0156 1153.0034,19.5781 Q1152.8628,20.125 1152.7378,20.7031 Z " fill="#000000"/><text fill="#000000" font-family="sans-serif" font-size="14" font-style="italic" lengthAdjust="spacing" textLength="42.6299" x="1173.6596" y="28.432">Pedido</text><line style="stroke:#181818;stroke-width:0.5;" x1="1064.21" x2="1293.2391" y1="39" y2="39"/><text fill="#000000" font-family="sans-serif" font-size="14" lengthAdjust="spacing" textLength="63.5178" x="1069.21" y="57.9659">-id: String</text><text fill="#000000" font-family="sans-serif" font-size="14" lengthAdjust="spacing" textLength="94.7376" x="1069.21" y="77.0339">-cliente: String</text><text fill="#000000" font-family="sans-serif" font-size="14" lengthAdjust="spacing" textLength="87.7937" x="1069.21" y="96.1018">-total: double</text><line style="stroke:#181818;stroke-width:0.5;" x1="1064.21" x2="1293.2391" y1="104.2038" y2="104.2038"/><text fill="#000000" font-family="sans-serif" font-size="14" font-style="italic" lengthAdjust="spacing" textLength="219.0291" x="1069.21" y="123.1697">+aceptar(visitante: VisitantePedido)</text></g><!--class PedidoFisico--><g class="entity" data-qualified-name="PedidoFisico" data-source-line="16" id="ent0004"><rect fill="#F1F1F1" height="105.2038" rx="2.5" ry="2.5" style="stroke:#181818;stroke-width:0.5;" width="243.6291" x="777.91" y="191.28"/><ellipse cx="854.4477" cy="207.28" fill="#ADD1B2" rx="11" ry="11" style="stroke:#181818;stroke-width:1;"/><path d="M853.9165,214.2019 Q852.1665,214.2019 851.0258,213.4675 Q849.9008,212.7175 849.3383,211.3738 Q848.7915,210.0144 848.7915,208.2175 Q848.7915,206.1863 849.4477,204.7331 Q850.104,203.28 851.3852,202.4988 Q852.6665,201.7175 854.5415,201.7175 Q855.4321,201.7175 856.104,201.905 Q856.7758,202.0769 857.4633,202.4206 L856.6508,204.4363 Q856.0258,204.1238 855.479,203.9988 Q854.9477,203.8738 854.4633,203.8738 Q853.2915,203.8738 852.5883,204.405 Q851.8852,204.9363 851.5883,205.8894 Q851.2915,206.8425 851.2915,208.1081 Q851.2915,210.1238 852.0102,211.0925 Q852.729,212.0456 854.3227,212.0456 Q854.9165,212.0456 855.5415,211.8894 Q856.1665,211.7331 856.9946,211.3581 L856.9946,213.5769 Q856.2602,213.8894 855.4633,214.0456 Q854.6821,214.2019 853.9165,214.2019 Z " fill="#000000"/><text fill="#000000" font-family="sans-serif" font-size="14" lengthAdjust="spacing" textLength="82.0537" x="874.9477" y="212.712">PedidoFisico</text><line style="stroke:#181818;stroke-width:0.5;" x1="778.91" x2="1020.5391" y1="223.28" y2="223.28"/><text fill="#000000" font-family="sans-serif" font-size="14" lengthAdjust="spacing" textLength="146.9994" x="783.91" y="242.2459">-direccionEnvio: String</text><text fill="#000000" font-family="sans-serif" font-size="14" lengthAdjust="spacing" textLength="89.4317" x="783.91" y="261.3139">-peso: double</text><line style="stroke:#181818;stroke-width:0.5;" x1="778.91" x2="1020.5391" y1="269.4158" y2="269.4158"/><text fill="#000000" font-family="sans-serif" font-size="14" lengthAdjust="spacing" textLength="231.6291" x="783.91" y="288.3818">+aceptar(visitante: VisitantePedido)</text></g><!--class PedidoDigital--><g class="entity" data-qualified-name="PedidoDigital" data-source-line="22" id="ent0005"><rect fill="#F1F1F1" height="86.1358" rx="2.5" ry="2.5" style="stroke:#181818;stroke-width:0.5;" width="243.6291" x="1056.91" y="200.81"/><ellipse cx="1130.3537" cy="216.81" fill="#ADD1B2" rx="11" ry="11" style="stroke:#181818;stroke-width:1;"/><path d="M1129.8225,223.7319 Q1128.0725,223.7319 1126.9319,222.9975 Q1125.8069,222.2475 1125.2444,220.9038 Q1124.6975,219.5444 1124.6975,217.7475 Q1124.6975,215.7163 1125.3537,214.2631 Q1126.01,212.81 1127.2912,212.0288 Q1128.5725,211.2475 1130.4475,211.2475 Q1131.3381,211.2475 1132.01,211.435 Q1132.6819,211.6069 1133.3694,211.9506 L1132.5569,213.9663 Q1131.9319,213.6538 1131.385,213.5288 Q1130.8537,213.4038 1130.3694,213.4038 Q1129.1975,213.4038 1128.4944,213.935 Q1127.7912,214.4663 1127.4944,215.4194 Q1127.1975,216.3725 1127.1975,217.6381 Q1127.1975,219.6538 1127.9162,220.6225 Q1128.635,221.5756 1130.2287,221.5756 Q1130.8225,221.5756 1131.4475,221.4194 Q1132.0725,221.2631 1132.9006,220.8881 L1132.9006,223.1069 Q1132.1662,223.4194 1131.3694,223.5756 Q1130.5881,223.7319 1129.8225,223.7319 Z " fill="#000000"/><text fill="#000000" font-family="sans-serif" font-size="14" lengthAdjust="spacing" textLength="88.2417" x="1150.8537" y="222.242">PedidoDigital</text><line style="stroke:#181818;stroke-width:0.5;" x1="1057.91" x2="1299.5391" y1="232.81" y2="232.81"/><text fill="#000000" font-family="sans-serif" font-size="14" lengthAdjust="spacing" textLength="87.3597" x="1062.91" y="251.7759">-email: String</text><line style="stroke:#181818;stroke-width:0.5;" x1="1057.91" x2="1299.5391" y1="259.8779" y2="259.8779"/><text fill="#000000" font-family="sans-serif" font-size="14" lengthAdjust="spacing" textLength="231.6291" x="1062.91" y="278.8439">+aceptar(visitante: VisitantePedido)</text></g><!--class PedidoSuscripcion--><g class="entity" data-qualified-name="PedidoSuscripcion" data-source-line="27" id="ent0006"><rect fill="#F1F1F1" height="86.1358" rx="2.5" ry="2.5" style="stroke:#181818;stroke-width:0.5;" width="243.6291" x="1335.91" y="200.81"/><ellipse cx="1393.0298" cy="216.81" fill="#ADD1B2" rx="11" ry="11" style="stroke:#181818;stroke-width:1;"/><path d="M1392.4985,223.7319 Q1390.7485,223.7319 1389.6079,222.9975 Q1388.4829,222.2475 1387.9204,220.9038 Q1387.3735,219.5444 1387.3735,217.7475 Q1387.3735,215.7163 1388.0298,214.2631 Q1388.686,212.81 1389.9673,212.0288 Q1391.2485,211.2475 1393.1235,211.2475 Q1394.0142,211.2475 1394.686,211.435 Q1395.3579,211.6069 1396.0454,211.9506 L1395.2329,213.9663 Q1394.6079,213.6538 1394.061,213.5288 Q1393.5298,213.4038 1393.0454,213.4038 Q1391.8735,213.4038 1391.1704,213.935 Q1390.4673,214.4663 1390.1704,215.4194 Q1389.8735,216.3725 1389.8735,217.6381 Q1389.8735,219.6538 1390.5923,220.6225 Q1391.311,221.5756 1392.9048,221.5756 Q1393.4985,221.5756 1394.1235,221.4194 Q1394.7485,221.2631 1395.5767,220.8881 L1395.5767,223.1069 Q1394.8423,223.4194 1394.0454,223.5756 Q1393.2642,223.7319 1392.4985,223.7319 Z " fill="#000000"/><text fill="#000000" font-family="sans-serif" font-size="14" lengthAdjust="spacing" textLength="120.8895" x="1413.5298" y="222.242">PedidoSuscripcion</text><line style="stroke:#181818;stroke-width:0.5;" x1="1336.91" x2="1578.5391" y1="232.81" y2="232.81"/><text fill="#000000" font-family="sans-serif" font-size="14" lengthAdjust="spacing" textLength="129.4715" x="1341.91" y="251.7759">-duracionMeses: int</text><line style="stroke:#181818;stroke-width:0.5;" x1="1336.91" x2="1578.5391" y1="259.8779" y2="259.8779"/><text fill="#000000" font-family="sans-serif" font-size="14" lengthAdjust="spacing" textLength="231.6291" x="1341.91" y="278.8439">+aceptar(visitante: VisitantePedido)</text></g><!--class ProcesadorEnvios--><g class="entity" data-qualified-name="ProcesadorEnvios" data-source-line="32" id="ent0007"><rect fill="#F1F1F1" height="105.2038" rx="2.5" ry="2.5" style="stroke:#181818;stroke-width:0.5;" width="317.4509" x="7" y="16.54"/><ellipse cx="102.9277" cy="32.54" fill="#ADD1B2" rx="11" ry="11" style="stroke:#181818;stroke-width:1;"/><path d="M102.3964,39.4619 Q100.6464,39.4619 99.5058,38.7275 Q98.3808,37.9775 97.8183,36.6338 Q97.2714,35.2744 97.2714,33.4775 Q97.2714,31.4463 97.9277,29.9931 Q98.5839,28.54 99.8652,27.7588 Q101.1464,26.9775 103.0214,26.9775 Q103.912,26.9775 104.5839,27.165 Q105.2558,27.3369 105.9433,27.6806 L105.1308,29.6963 Q104.5058,29.3838 103.9589,29.2588 Q103.4277,29.1338 102.9433,29.1338 Q101.7714,29.1338 101.0683,29.665 Q100.3652,30.1963 100.0683,31.1494 Q99.7714,32.1025 99.7714,33.3681 Q99.7714,35.3838 100.4902,36.3525 Q101.2089,37.3056 102.8027,37.3056 Q103.3964,37.3056 104.0214,37.1494 Q104.6464,36.9931 105.4745,36.6181 L105.4745,38.8369 Q104.7402,39.1494 103.9433,39.3056 Q103.162,39.4619 102.3964,39.4619 Z " fill="#000000"/><text fill="#000000" font-family="sans-serif" font-size="14" lengthAdjust="spacing" textLength="117.0956" x="123.4277" y="37.972">ProcesadorEnvios</text><line style="stroke:#181818;stroke-width:0.5;" x1="8" x2="323.4509" y1="48.54" y2="48.54"/><line style="stroke:#181818;stroke-width:0.5;" x1="8" x2="323.4509" y1="56.54" y2="56.54"/><text fill="#000000" font-family="sans-serif" font-size="14" lengthAdjust="spacing" textLength="227.7791" x="13" y="75.5059">+visitar(pedidoFisico: PedidoFisico)</text><text fill="#000000" font-family="sans-serif" font-size="14" lengthAdjust="spacing" textLength="240.1551" x="13" y="94.5739">+visitar(pedidoDigital: PedidoDigital)</text><text fill="#000000" font-family="sans-serif" font-size="14" lengthAdjust="spacing" textLength="305.4509" x="13" y="113.6418">+visitar(pedidoSuscripcion: PedidoSuscripcion)</text></g><!--class ProcesadorFacturacion--><g class="entity" data-qualified-name="ProcesadorFacturacion" data-source-line="38" id="ent0008"><rect fill="#F1F1F1" height="105.2038" rx="2.5" ry="2.5" style="stroke:#181818;stroke-width:0.5;" width="317.4509" x="359" y="16.54"/><ellipse cx="437.7777" cy="32.54" fill="#ADD1B2" rx="11" ry="11" style="stroke:#181818;stroke-width:1;"/><path d="M437.2465,39.4619 Q435.4965,39.4619 434.3559,38.7275 Q433.2309,37.9775 432.6684,36.6338 Q432.1215,35.2744 432.1215,33.4775 Q432.1215,31.4463 432.7777,29.9931 Q433.434,28.54 434.7152,27.7588 Q435.9965,26.9775 437.8715,26.9775 Q438.7621,26.9775 439.434,27.165 Q440.1059,27.3369 440.7934,27.6806 L439.9809,29.6963 Q439.3559,29.3838 438.809,29.2588 Q438.2777,29.1338 437.7934,29.1338 Q436.6215,29.1338 435.9184,29.665 Q435.2152,30.1963 434.9184,31.1494 Q434.6215,32.1025 434.6215,33.3681 Q434.6215,35.3838 435.3402,36.3525 Q436.059,37.3056 437.6527,37.3056 Q438.2465,37.3056 438.8715,37.1494 Q439.4965,36.9931 440.3246,36.6181 L440.3246,38.8369 Q439.5902,39.1494 438.7934,39.3056 Q438.0121,39.4619 437.2465,39.4619 Z " fill="#000000"/><text fill="#000000" font-family="sans-serif" font-size="14" lengthAdjust="spacing" textLength="151.3954" x="458.2777" y="37.972">ProcesadorFacturacion</text><line style="stroke:#181818;stroke-width:0.5;" x1="360" x2="675.4509" y1="48.54" y2="48.54"/><line style="stroke:#181818;stroke-width:0.5;" x1="360" x2="675.4509" y1="56.54" y2="56.54"/><text fill="#000000" font-family="sans-serif" font-size="14" lengthAdjust="spacing" textLength="227.7791" x="365" y="75.5059">+visitar(pedidoFisico: PedidoFisico)</text><text fill="#000000" font-family="sans-serif" font-size="14" lengthAdjust="spacing" textLength="240.1551" x="365" y="94.5739">+visitar(pedidoDigital: PedidoDigital)</text><text fill="#000000" font-family="sans-serif" font-size="14" lengthAdjust="spacing" textLength="305.4509" x="365" y="113.6418">+visitar(pedidoSuscripcion: PedidoSuscripcion)</text></g><!--class ProcesadorNotificaciones--><g class="entity" data-qualified-name="ProcesadorNotificaciones" data-source-line="44" id="ent0009"><rect fill="#F1F1F1" height="105.2038" rx="2.5" ry="2.5" style="stroke:#181818;stroke-width:0.5;" width="317.4509" x="711" y="16.54"/><ellipse cx="781.6788" cy="32.54" fill="#ADD1B2" rx="11" ry="11" style="stroke:#181818;stroke-width:1;"/><path d="M781.1475,39.4619 Q779.3975,39.4619 778.2569,38.7275 Q777.1319,37.9775 776.5694,36.6338 Q776.0225,35.2744 776.0225,33.4775 Q776.0225,31.4463 776.6788,29.9931 Q777.335,28.54 778.6163,27.7588 Q779.8975,26.9775 781.7725,26.9775 Q782.6631,26.9775 783.335,27.165 Q784.0069,27.3369 784.6944,27.6806 L783.8819,29.6963 Q783.2569,29.3838 782.71,29.2588 Q782.1788,29.1338 781.6944,29.1338 Q780.5225,29.1338 779.8194,29.665 Q779.1163,30.1963 778.8194,31.1494 Q778.5225,32.1025 778.5225,33.3681 Q778.5225,35.3838 779.2413,36.3525 Q779.96,37.3056 781.5538,37.3056 Q782.1475,37.3056 782.7725,37.1494 Q783.3975,36.9931 784.2256,36.6181 L784.2256,38.8369 Q783.4913,39.1494 782.6944,39.3056 Q781.9131,39.4619 781.1475,39.4619 Z " fill="#000000"/><text fill="#000000" font-family="sans-serif" font-size="14" lengthAdjust="spacing" textLength="167.5934" x="802.1788" y="37.972">ProcesadorNotificaciones</text><line style="stroke:#181818;stroke-width:0.5;" x1="712" x2="1027.4509" y1="48.54" y2="48.54"/><line style="stroke:#181818;stroke-width:0.5;" x1="712" x2="1027.4509" y1="56.54" y2="56.54"/><text fill="#000000" font-family="sans-serif" font-size="14" lengthAdjust="spacing" textLength="227.7791" x="717" y="75.5059">+visitar(pedidoFisico: PedidoFisico)</text><text fill="#000000" font-family="sans-serif" font-size="14" lengthAdjust="spacing" textLength="240.1551" x="717" y="94.5739">+visitar(pedidoDigital: PedidoDigital)</text><text fill="#000000" font-family="sans-serif" font-size="14" lengthAdjust="spacing" textLength="305.4509" x="717" y="113.6418">+visitar(pedidoSuscripcion: PedidoSuscripcion)</text></g><!--reverse link Pedido to PedidoFisico--><g class="link" data-entity-1="ent0003" data-entity-2="ent0004" data-link-type="extension" data-source-line="50" id="lnk10"><path codeLine="50" d="M1063.8761,141.2457 C1032.5761,160.6257 1013.65,172.34 983.56,190.97" fill="none" id="Pedido-backto-PedidoFisico" style="stroke:#181818;stroke-width:1;"/><polygon fill="none" points="1079.18,131.77,1060.7175,136.1444,1067.0346,146.347,1079.18,131.77" style="stroke:#181818;stroke-width:1;"/></g><!--reverse link Pedido to PedidoDigital--><g class="link" data-entity-1="ent0003" data-entity-2="ent0005" data-link-type="extension" data-source-line="51" id="lnk11"><path codeLine="51" d="M1178.73,149.53 C1178.73,172.32 1178.73,179.64 1178.73,200.38" fill="none" id="Pedido-backto-PedidoDigital" style="stroke:#181818;stroke-width:1;"/><polygon fill="none" points="1178.73,131.53,1172.73,149.53,1184.73,149.53,1178.73,131.53" style="stroke:#181818;stroke-width:1;"/></g><!--reverse link Pedido to PedidoSuscripcion--><g class="link" data-entity-1="ent0003" data-entity-2="ent0006" data-link-type="extension" data-source-line="52" id="lnk12"><path codeLine="52" d="M1293.5745,141.2448 C1330.3545,164.0148 1355.87,179.81 1389.27,200.5" fill="none" id="Pedido-backto-PedidoSuscripcion" style="stroke:#181818;stroke-width:1;"/><polygon fill="none" points="1278.27,131.77,1290.4162,146.3463,1296.7328,136.1433,1278.27,131.77" style="stroke:#181818;stroke-width:1;"/></g><!--link ProcesadorEnvios to VisitantePedido--><g class="link" data-entity-1="ent0007" data-entity-2="ent0002" data-link-type="extension" data-source-line="54" id="lnk13"><path codeLine="54" d="M281.76,122.2 C330.25,143.96 370.0469,161.8123 418.5069,183.5523" fill="none" id="ProcesadorEnvios-to-VisitantePedido" style="stroke:#181818;stroke-width:1;stroke-dasharray:7,7;"/><polygon fill="none" points="434.93,190.92,420.9628,178.078,416.051,189.0267,434.93,190.92" style="stroke:#181818;stroke-width:1;"/></g><!--link ProcesadorFacturacion to VisitantePedido--><g class="link" data-entity-1="ent0008" data-entity-2="ent0002" data-link-type="extension" data-source-line="55" id="lnk14"><path codeLine="55" d="M527.63,121.97 C531.78,143.73 533.2345,151.3193 537.3945,173.1093" fill="none" id="ProcesadorFacturacion-to-VisitantePedido" style="stroke:#181818;stroke-width:1;stroke-dasharray:7,7;"/><polygon fill="none" points="540.77,190.79,543.2881,171.9842,531.501,174.2345,540.77,190.79" style="stroke:#181818;stroke-width:1;"/></g><!--link ProcesadorNotificaciones to VisitantePedido--><g class="link" data-entity-1="ent0009" data-entity-2="ent0002" data-link-type="extension" data-source-line="56" id="lnk15"><path codeLine="56" d="M773.58,122.2 C733.41,143.96 702.6595,160.611 662.4995,182.351" fill="none" id="ProcesadorNotificaciones-to-VisitantePedido" style="stroke:#181818;stroke-width:1;stroke-dasharray:7,7;"/><polygon fill="none" points="646.67,190.92,665.3558,187.6275,659.6431,177.0745,646.67,190.92" style="stroke:#181818;stroke-width:1;"/></g><!--link Pedido to VisitantePedido--><g class="link" data-entity-1="ent0003" data-entity-2="ent0002" data-link-type="dependency" data-source-line="58" id="lnk16"><path codeLine="58" d="M1062.91,125.19 C1057.15,127.36 1051.4,129.4 1045.73,131.28 C922.82,171.89 886.93,162.49 760.73,191.28 C744.16,195.05 732.7257,197.7155 715.5257,201.8255" fill="none" id="Pedido-to-VisitantePedido" style="stroke:#181818;stroke-width:1;stroke-dasharray:7,7;"/><polygon fill="#181818" points="709.69,203.22,719.3732,205.0188,714.5531,202.0579,717.5139,197.2378,709.69,203.22" style="stroke:#181818;stroke-width:1;"/></g><?plantuml-src pLEnQiCm4Dtr5HeRYardKmg5Dj2X9M3eBakNSDIHZ2HxQ99_xqMHKriL53BPsxrxt7ltT7PVg3jXnPxBLZZtxBt5flVm9eskyHlu0sEeFTYjaC0_qQ4NL6v0eJBym3Xzztm8kBth0hocIfgARoRLAijymHrLxKYDPPvRzqvQx2GQFV8dq8gT61EDyrP8Vzc5pqmM75N5QrfFxo8WMmJQ9K6z2OwKwPiMefF3EFd4AORkR6eOewZIL8ALgODB0bSV2Yt8i-TNFQ19r3jm9X6_GJ46UPM4lS1sfdJJs4dUlzlqb0i1x-30LPnkvQRvraXmGXaRGd5BkwpKvPfk8Iw-TAiVnkCMPV0AYmis_gEFnwAOYMSQKIhJcGobYUafbUNnAJqzbd_AVwX9b5dsQAyi__P-0000?></g></svg>