<?plantuml 1.2026.2?><svg xmlns="http://www.w3.org/2000/svg" xmlns:xlink="http://www.w3.org/1999/xlink" contentStyleType="text/css" data-diagram-type="CLASS" height="303px" preserveAspectRatio="none" style="width:1309px;height:303px;background:#FFFFFF;" version="1.1" viewBox="0 0 1309 303" width="1309px" zoomAndPan="magnify"><defs/><g><!--class VisitantePedido--><g class="entity" data-qualified-name="VisitantePedido" data-source-line="3" id="ent0002"><rect fill="#F1F1F1" height="105.2038" rx="2.5" ry="2.5" style="stroke:#181818;stroke-width:0.5;" width="211.7372" x="254" y="191.28"/><ellipse cx="307.6338" cy="207.28" fill="#B4A7E5" rx="11" ry="11" style="stroke:#181818;stroke-width:1;"/><path d="M303.6651,213.78 L303.6651,212.0769 L306.0244,211.8113 L306.0244,203.6081 L303.6651,203.3425 L303.6651,201.6394 L310.8057,201.6394 L310.8057,203.3425 L308.3838,203.6081 L308.3838,211.8113 L310.8057,212.0769 L310.8057,213.78 L303.6651,213.78 Z " fill="#000000"/><text fill="#000000" font-family="sans-serif" font-size="14" font-style="italic" lengthAdjust="spacing" textLength="95.9696" x="328.1338" y="212.712">VisitantePedido</text><line style="stroke:#181818;stroke-width:0.5;" x1="255" x2="464.7372" y1="223.28" y2="223.28"/><line style="stroke:#181818;stroke-width:0.5;" x1="255" x2="464.7372" y1="231.28" y2="231.28"/><text fill="#000000" font-family="sans-serif" font-size="14" lengthAdjust="spacing" textLength="159.0114" x="260" y="250.2459">+visitar(pf: PedidoFisico)</text><text fill="#000000" font-family="sans-serif" font-size="14" lengthAdjust="spacing" textLength="168.9934" x="260" y="269.3139">+visitar(pd: PedidoDigital)</text><text fill="#000000" font-family="sans-serif" font-size="14" lengthAdjust="spacing" textLength="199.7372" x="260" y="288.3818">+visitar(ps: PedidoSuscripcion)</text></g><!--class Pedido--><g class="entity" data-qualified-name="Pedido" data-source-line="9" id="ent0003"><rect fill="#F1F1F1" height="124.2717" rx="2.5" ry="2.5" style="stroke:#181818;stroke-width:0.5;" width="231.0291" x="767.35" y="7"/><ellipse cx="857.2996" cy="23" fill="#A9DCDF" rx="11" ry="11" style="stroke:#181818;stroke-width:1;"/><path d="M852.4715,28.75 L855.8153,16.5625 L858.9559,16.5625 L862.3309,28.75 L859.8621,28.75 L859.1278,25.7344 L855.6121,25.7344 L854.8621,28.75 L852.4715,28.75 Z M856.8778,20.7031 L856.1278,23.7031 L858.6434,23.7031 L857.9246,20.7031 Q857.784,20.125 857.659,19.5781 Q857.534,19.0156 857.3934,18.4375 Q857.284,19.0156 857.1434,19.5781 Q857.0028,20.125 856.8778,20.7031 Z " fill="#000000"/><text fill="#000000" font-family="sans-serif" font-size="14" font-style="italic" lengthAdjust="spacing" textLength="42.6299" x="877.7996" y="28.432">Pedido</text><line style="stroke:#181818;stroke-width:0.5;" x1="768.35" x2="997.3791" y1="39" y2="39"/><text fill="#000000" font-family="sans-serif" font-size="14" lengthAdjust="spacing" textLength="63.5178" x="773.35" y="57.9659">-id: String</text><text fill="#000000" font-family="sans-serif" font-size="14" lengthAdjust="spacing" textLength="94.7376" x="773.35" y="77.0339">-cliente: String</text><text fill="#000000" font-family="sans-serif" font-size="14" lengthAdjust="spacing" textLength="87.7937" x="773.35" y="96.1018">-total: double</text><line style="stroke:#181818;stroke-width:0.5;" x1="768.35" x2="997.3791" y1="104.2038" y2="104.2038"/><text fill="#000000" font-family="sans-serif" font-size="14" font-style="italic" lengthAdjust="spacing" textLength="219.0291" x="773.35" y="123.1697">+aceptar(visitante: VisitantePedido)</text></g><!--class PedidoFisico--><g class="entity" data-qualified-name="PedidoFisico" data-source-line="16" id="ent0004"><rect fill="#F1F1F1" height="105.2038" rx="2.5" ry="2.5" style="stroke:#181818;stroke-width:0.5;" width="243.6291" x="501.05" y="191.28"/><ellipse cx="577.5877" cy="207.28" fill="#ADD1B2" rx="11" ry="11" style="stroke:#181818;stroke-width:1;"/><path d="M577.0565,214.2019 Q575.3065,214.2019 574.1658,213.4675 Q573.0408,212.7175 572.4783,211.3738 Q571.9315,210.0144 571.9315,208.2175 Q571.9315,206.1863 572.5877,204.7331 Q573.244,203.28 574.5252,202.4988 Q575.8065,201.7175 577.6815,201.7175 Q578.5721,201.7175 579.244,201.905 Q579.9158,202.0769 580.6033,202.4206 L579.7908,204.4363 Q579.1658,204.1238 578.619,203.9988 Q578.0877,203.8738 577.6033,203.8738 Q576.4315,203.8738 575.7283,204.405 Q575.0252,204.9363 574.7283,205.8894 Q574.4315,206.8425 574.4315,208.1081 Q574.4315,210.1238 575.1502,211.0925 Q575.869,212.0456 577.4627,212.0456 Q578.0565,212.0456 578.6815,211.8894 Q579.3065,211.7331 580.1346,211.3581 L580.1346,213.5769 Q579.4002,213.8894 578.6033,214.0456 Q577.8221,214.2019 577.0565,214.2019 Z " fill="#000000"/><text fill="#000000" font-family="sans-serif" font-size="14" lengthAdjust="spacing" textLength="82.0537" x="598.0877" y="212.712">PedidoFisico</text><line style="stroke:#181818;stroke-width:0.5;" x1="502.05" x2="743.6791" y1="223.28" y2="223.28"/><text fill="#000000" font-family="sans-serif" font-size="14" lengthAdjust="spacing" textLength="146.9994" x="507.05" y="242.2459">-direccionEnvio: String</text><text fill="#000000" font-family="sans-serif" font-size="14" lengthAdjust="spacing" textLength="89.4317" x="507.05" y="261.3139">-peso: double</text><line style="stroke:#181818;stroke-width:0.5;" x1="502.05" x2="743.6791" y1="269.4158" y2="269.4158"/><text fill="#000000" font-family="sans-serif" font-size="14" lengthAdjust="spacing" textLength="231.6291" x="507.05" y="288.3818">+aceptar(visitante: VisitantePedido)</text></g><!--class PedidoDigital--><g class="entity" data-qualified-name="PedidoDigital" data-source-line="22" id="ent0005"><rect fill="#F1F1F1" height="86.1358" rx="2.5" ry="2.5" style="stroke:#181818;stroke-width:0.5;" width="243.6291" x="780.05" y="200.81"/><ellipse cx="853.4937" cy="216.81" fill="#ADD1B2" rx="11" ry="11" style="stroke:#181818;stroke-width:1;"/><path d="M852.9625,223.7319 Q851.2125,223.7319 850.0719,222.9975 Q848.9469,222.2475 848.3844,220.9038 Q847.8375,219.5444 847.8375,217.7475 Q847.8375,215.7163 848.4937,214.2631 Q849.15,212.81 850.4312,212.0288 Q851.7125,211.2475 853.5875,211.2475 Q854.4781,211.2475 855.15,211.435 Q855.8219,211.6069 856.5094,211.9506 L855.6969,213.9663 Q855.0719,213.6538 854.525,213.5288 Q853.9937,213.4038 853.5094,213.4038 Q852.3375,213.4038 851.6344,213.935 Q850.9312,214.4663 850.6344,215.4194 Q850.3375,216.3725 850.3375,217.6381 Q850.3375,219.6538 851.0562,220.6225 Q851.775,221.5756 853.3687,221.5756 Q853.9625,221.5756 854.5875,221.4194 Q855.2125,221.2631 856.0406,220.8881 L856.0406,223.1069 Q855.3062,223.4194 854.5094,223.5756 Q853.7281,223.7319 852.9625,223.7319 Z " fill="#000000"/><text fill="#000000" font-family="sans-serif" font-size="14" lengthAdjust="spacing" textLength="88.2417" x="873.9937" y="222.242">PedidoDigital</text><line style="stroke:#181818;stroke-width:0.5;" x1="781.05" x2="1022.6791" y1="232.81" y2="232.81"/><text fill="#000000" font-family="sans-serif" font-size="14" lengthAdjust="spacing" textLength="87.3597" x="786.05" y="251.7759">-email: String</text><line style="stroke:#181818;stroke-width:0.5;" x1="781.05" x2="1022.6791" y1="259.8779" y2="259.8779"/><text fill="#000000" font-family="sans-serif" font-size="14" lengthAdjust="spacing" textLength="231.6291" x="786.05" y="278.8439">+aceptar(visitante: VisitantePedido)</text></g><!--class PedidoSuscripcion--><g class="entity" data-qualified-name="PedidoSuscripcion" data-source-line="27" id="ent0006"><rect fill="#F1F1F1" height="86.1358" rx="2.5" ry="2.5" style="stroke:#181818;stroke-width:0.5;" width="243.6291" x="1059.05" y="200.81"/><ellipse cx="1116.1698" cy="216.81" fill="#ADD1B2" rx="11" ry="11" style="stroke:#181818;stroke-width:1;"/><path d="M1115.6385,223.7319 Q1113.8885,223.7319 1112.7479,222.9975 Q1111.6229,222.2475 1111.0604,220.9038 Q1110.5135,219.5444 1110.5135,217.7475 Q1110.5135,215.7163 1111.1698,214.2631 Q1111.826,212.81 1113.1073,212.0288 Q1114.3885,211.2475 1116.2635,211.2475 Q1117.1542,211.2475 1117.826,211.435 Q1118.4979,211.6069 1119.1854,211.9506 L1118.3729,213.9663 Q1117.7479,213.6538 1117.201,213.5288 Q1116.6698,213.4038 1116.1854,213.4038 Q1115.0135,213.4038 1114.3104,213.935 Q1113.6073,214.4663 1113.3104,215.4194 Q1113.0135,216.3725 1113.0135,217.6381 Q1113.0135,219.6538 1113.7323,220.6225 Q1114.451,221.5756 1116.0448,221.5756 Q1116.6385,221.5756 1117.2635,221.4194 Q1117.8885,221.2631 1118.7167,220.8881 L1118.7167,223.1069 Q1117.9823,223.4194 1117.1854,223.5756 Q1116.4042,223.7319 1115.6385,223.7319 Z " fill="#000000"/><text fill="#000000" font-family="sans-serif" font-size="14" lengthAdjust="spacing" textLength="120.8895" x="1136.6698" y="222.242">PedidoSuscripcion</text><line style="stroke:#181818;stroke-width:0.5;" x1="1060.05" x2="1301.6791" y1="232.81" y2="232.81"/><text fill="#000000" font-family="sans-serif" font-size="14" lengthAdjust="spacing" textLength="129.4715" x="1065.05" y="251.7759">-duracionMeses: int</text><line style="stroke:#181818;stroke-width:0.5;" x1="1060.05" x2="1301.6791" y1="259.8779" y2="259.8779"/><text fill="#000000" font-family="sans-serif" font-size="14" lengthAdjust="spacing" textLength="231.6291" x="1065.05" y="278.8439">+aceptar(visitante: VisitantePedido)</text></g><!--class ProcesadorEnvios--><g class="entity" data-qualified-name="ProcesadorEnvios" data-source-line="32" id="ent0007"><rect fill="#F1F1F1" height="105.2038" rx="2.5" ry="2.5" style="stroke:#181818;stroke-width:0.5;" width="211.7372" x="7" y="16.54"/><ellipse cx="50.1888" cy="32.54" fill="#ADD1B2" rx="11" ry="11" style="stroke:#181818;stroke-width:1;"/><path d="M49.6575,39.4619 Q47.9075,39.4619 46.7669,38.7275 Q45.6419,37.9775 45.0794,36.6338 Q44.5325,35.2744 44.5325,33.4775 Q44.5325,31.4463 45.1888,29.9931 Q45.845,28.54 47.1263,27.7588 Q48.4075,26.9775 50.2825,26.9775 Q51.1731,26.9775 51.845,27.165 Q52.5169,27.3369 53.2044,27.6806 L52.3919,29.6963 Q51.7669,29.3838 51.22,29.2588 Q50.6888,29.1338 50.2044,29.1338 Q49.0325,29.1338 48.3294,29.665 Q47.6263,30.1963 47.3294,31.1494 Q47.0325,32.1025 47.0325,33.3681 Q47.0325,35.3838 47.7513,36.3525 Q48.47,37.3056 50.0638,37.3056 Q50.6575,37.3056 51.2825,37.1494 Q51.9075,36.9931 52.7356,36.6181 L52.7356,38.8369 Q52.0013,39.1494 51.2044,39.3056 Q50.4231,39.4619 49.6575,39.4619 Z " fill="#000000"/><text fill="#000000" font-family="sans-serif" font-size="14" lengthAdjust="spacing" textLength="117.0956" x="70.4529" y="37.972">ProcesadorEnvios</text><line style="stroke:#181818;stroke-width:0.5;" x1="8" x2="217.7372" y1="48.54" y2="48.54"/><line style="stroke:#181818;stroke-width:0.5;" x1="8" x2="217.7372" y1="56.54" y2="56.54"/><text fill="#000000" font-family="sans-serif" font-size="14" lengthAdjust="spacing" textLength="159.0114" x="13" y="75.5059">+visitar(pf: PedidoFisico)</text><text fill="#000000" font-family="sans-serif" font-size="14" lengthAdjust="spacing" textLength="168.9934" x="13" y="94.5739">+visitar(pd: PedidoDigital)</text><text fill="#000000" font-family="sans-serif" font-size="14" lengthAdjust="spacing" textLength="199.7372" x="13" y="113.6418">+visitar(ps: PedidoSuscripcion)</text></g><!--class ProcesadorFacturacion--><g class="entity" data-qualified-name="ProcesadorFacturacion" data-source-line="38" id="ent0008"><rect fill="#F1F1F1" height="105.2038" rx="2.5" ry="2.5" style="stroke:#181818;stroke-width:0.5;" width="211.7372" x="254" y="16.54"/><ellipse cx="281.7538" cy="32.54" fill="#ADD1B2" rx="11" ry="11" style="stroke:#181818;stroke-width:1;"/><path d="M281.2226,39.4619 Q279.4726,39.4619 278.3319,38.7275 Q277.2069,37.9775 276.6444,36.6338 Q276.0976,35.2744 276.0976,33.4775 Q276.0976,31.4463 276.7538,29.9931 Q277.4101,28.54 278.6913,27.7588 Q279.9726,26.9775 281.8476,26.9775 Q282.7382,26.9775 283.4101,27.165 Q284.0819,27.3369 284.7694,27.6806 L283.9569,29.6963 Q283.3319,29.3838 282.7851,29.2588 Q282.2538,29.1338 281.7694,29.1338 Q280.5976,29.1338 279.8944,29.665 Q279.1913,30.1963 278.8944,31.1494 Q278.5976,32.1025 278.5976,33.3681 Q278.5976,35.3838 279.3163,36.3525 Q280.0351,37.3056 281.6288,37.3056 Q282.2226,37.3056 282.8476,37.1494 Q283.4726,36.9931 284.3007,36.6181 L284.3007,38.8369 Q283.5663,39.1494 282.7694,39.3056 Q281.9882,39.4619 281.2226,39.4619 Z " fill="#000000"/><text fill="#000000" font-family="sans-serif" font-size="14" lengthAdjust="spacing" textLength="151.3954" x="298.588" y="37.972">ProcesadorFacturacion</text><line style="stroke:#181818;stroke-width:0.5;" x1="255" x2="464.7372" y1="48.54" y2="48.54"/><line style="stroke:#181818;stroke-width:0.5;" x1="255" x2="464.7372" y1="56.54" y2="56.54"/><text fill="#000000" font-family="sans-serif" font-size="14" lengthAdjust="spacing" textLength="159.0114" x="260" y="75.5059">+visitar(pf: PedidoFisico)</text><text fill="#000000" font-family="sans-serif" font-size="14" lengthAdjust="spacing" textLength="168.9934" x="260" y="94.5739">+visitar(pd: PedidoDigital)</text><text fill="#000000" font-family="sans-serif" font-size="14" lengthAdjust="spacing" textLength="199.7372" x="260" y="113.6418">+visitar(ps: PedidoSuscripcion)</text></g><!--class ProcesadorNotificaciones--><g class="entity" data-qualified-name="ProcesadorNotificaciones" data-source-line="44" id="ent0009"><rect fill="#F1F1F1" height="105.2038" rx="2.5" ry="2.5" style="stroke:#181818;stroke-width:0.5;" width="211.7372" x="501" y="16.54"/><ellipse cx="521.4647" cy="32.54" fill="#ADD1B2" rx="11" ry="11" style="stroke:#181818;stroke-width:1;"/><path d="M520.9335,39.4619 Q519.1835,39.4619 518.0429,38.7275 Q516.9179,37.9775 516.3554,36.6338 Q515.8085,35.2744 515.8085,33.4775 Q515.8085,31.4463 516.4647,29.9931 Q517.121,28.54 518.4022,27.7588 Q519.6835,26.9775 521.5585,26.9775 Q522.4491,26.9775 523.121,27.165 Q523.7929,27.3369 524.4804,27.6806 L523.6679,29.6963 Q523.0429,29.3838 522.496,29.2588 Q521.9647,29.1338 521.4804,29.1338 Q520.3085,29.1338 519.6054,29.665 Q518.9022,30.1963 518.6054,31.1494 Q518.3085,32.1025 518.3085,33.3681 Q518.3085,35.3838 519.0272,36.3525 Q519.746,37.3056 521.3397,37.3056 Q521.9335,37.3056 522.5585,37.1494 Q523.1835,36.9931 524.0116,36.6181 L524.0116,38.8369 Q523.2772,39.1494 522.4804,39.3056 Q521.6991,39.4619 520.9335,39.4619 Z " fill="#000000"/><text fill="#000000" font-family="sans-serif" font-size="14" lengthAdjust="spacing" textLength="167.5934" x="536.6791" y="37.972">ProcesadorNotificaciones</text><line style="stroke:#181818;stroke-width:0.5;" x1="502" x2="711.7372" y1="48.54" y2="48.54"/><line style="stroke:#181818;stroke-width:0.5;" x1="502" x2="711.7372" y1="56.54" y2="56.54"/><text fill="#000000" font-family="sans-serif" font-size="14" lengthAdjust="spacing" textLength="159.0114" x="507" y="75.5059">+visitar(pf: PedidoFisico)</text><text fill="#000000" font-family="sans-serif" font-size="14" lengthAdjust="spacing" textLength="168.9934" x="507" y="94.5739">+visitar(pd: PedidoDigital)</text><text fill="#000000" font-family="sans-serif" font-size="14" lengthAdjust="spacing" textLength="199.7372" x="507" y="113.6418">+visitar(ps: PedidoSuscripcion)</text></g><!--reverse link Pedido to PedidoFisico--><g class="link" data-entity-1="ent0003" data-entity-2="ent0004" data-link-type="extension" data-source-line="50" id="lnk10"><path codeLine="50" d="M775.1089,141.7332 C745.9489,161.1132 729.04,172.34 700.99,190.97" fill="none" id="Pedido-backto-PedidoFisico" style="stroke:#181818;stroke-width:1;"/><polygon fill="none" points="790.1,131.77,771.7878,136.7362,778.43,146.7303,790.1,131.77" style="stroke:#181818;stroke-width:1;"/></g><!--reverse link Pedido to PedidoDigital--><g class="link" data-entity-1="ent0003" data-entity-2="ent0005" data-link-type="extension" data-source-line="51" id="lnk11"><path codeLine="51" d="M891.5905,149.4218 C894.1005,172.2118 894.91,179.64 897.19,200.38" fill="none" id="Pedido-backto-PedidoDigital" style="stroke:#181818;stroke-width:1;"/><polygon fill="none" points="889.62,131.53,885.6266,150.0787,897.5545,148.765,889.62,131.53" style="stroke:#181818;stroke-width:1;"/></g><!--reverse link Pedido to PedidoSuscripcion--><g class="link" data-entity-1="ent0003" data-entity-2="ent0006" data-link-type="extension" data-source-line="52" id="lnk12"><path codeLine="52" d="M1004.7627,140.7972 C1044.0427,163.5672 1072.07,179.81 1107.76,200.5" fill="none" id="Pedido-backto-PedidoSuscripcion" style="stroke:#181818;stroke-width:1;"/><polygon fill="none" points="989.19,131.77,1001.7536,145.9881,1007.7718,135.6063,989.19,131.77" style="stroke:#181818;stroke-width:1;"/></g><!--link ProcesadorEnvios to VisitantePedido--><g class="link" data-entity-1="ent0007" data-entity-2="ent0002" data-link-type="extension" data-source-line="54" id="lnk13"><path codeLine="54" d="M187.31,122.2 C218.42,143.96 239.7387,158.865 270.8287,180.605" fill="none" id="ProcesadorEnvios-to-VisitantePedido" style="stroke:#181818;stroke-width:1;stroke-dasharray:7,7;"/><polygon fill="none" points="285.58,190.92,274.267,175.6879,267.3904,185.5221,285.58,190.92" style="stroke:#181818;stroke-width:1;"/></g><!--link ProcesadorFacturacion to VisitantePedido--><g class="link" data-entity-1="ent0008" data-entity-2="ent0002" data-link-type="extension" data-source-line="55" id="lnk14"><path codeLine="55" d="M359.87,121.97 C359.87,143.73 359.87,151 359.87,172.79" fill="none" id="ProcesadorFacturacion-to-VisitantePedido" style="stroke:#181818;stroke-width:1;stroke-dasharray:7,7;"/><polygon fill="none" points="359.87,190.79,365.87,172.79,353.87,172.79,359.87,190.79" style="stroke:#181818;stroke-width:1;"/></g><!--link ProcesadorNotificaciones to VisitantePedido--><g class="link" data-entity-1="ent0009" data-entity-2="ent0002" data-link-type="extension" data-source-line="56" id="lnk15"><path codeLine="56" d="M532.43,122.2 C501.32,143.96 480.0013,158.865 448.9113,180.605" fill="none" id="ProcesadorNotificaciones-to-VisitantePedido" style="stroke:#181818;stroke-width:1;stroke-dasharray:7,7;"/><polygon fill="none" points="434.16,190.92,452.3496,185.5221,445.473,175.6879,434.16,190.92" style="stroke:#181818;stroke-width:1;"/></g><!--link Pedido to VisitantePedido--><g class="link" data-entity-1="ent0003" data-entity-2="ent0002" data-link-type="dependency" data-source-line="58" id="lnk16"><path codeLine="58" d="M766.96,118.43 C754.52,123.02 741.99,127.4 729.87,131.28 C622.68,165.57 590.81,156.22 483.87,191.28 C478,193.2 477.6504,193.2341 471.6404,195.4141" fill="none" id="Pedido-to-VisitantePedido" style="stroke:#181818;stroke-width:1;stroke-dasharray:7,7;"/><polygon fill="#181818" points="466,197.46,475.8246,198.1514,470.7003,195.7551,473.0966,190.6308,466,197.46" style="stroke:#181818;stroke-width:1;"/></g><?plantuml-src nPCzQyCm48Pt_GgD3SMcioc5GXl8q10mT9UbSpZgI4QIFJJ9V-_5bbDRCHGyfDvqTxplSnzsNwXhOSM1oqeuz-gznQBni956v_WD_8anr1viAIJmJtJe1Jrte50PVcISlaVUTd7xK9SPxrDhYaYpYlDgoB_XdYBLJO4R2lB6IOkrHADNxCoOA9otGlgUaqy04euad1EwteU0h128CufwGvuPLwOfAWZMnq7vpAd5-aBH3crcSSSTofYWx_FAeT22l32_wnPDv5w3Cv7v0iSmkQib70HM4wT5igDv_tRJq5mey04EQ35q1ulqhP7WX3As6ugxvzN416lQSsZgFp6sncE9ikE0kmua_3VFfoIPMCmaWlPCPYHAYl5wq_Jq4fy3cr_17wNHc6Qh1xmqlStz0000?></g></svg>