<?plantuml 1.2026.2?><svg xmlns="http://www.w3.org/2000/svg" xmlns:xlink="http://www.w3.org/1999/xlink" contentStyleType="text/css" data-diagram-type="CLASS" height="502px" preserveAspectRatio="none" style="width:588px;height:502px;background:#FFFFFF;" version="1.1" viewBox="0 0 588 502" width="588px" zoomAndPan="magnify"><defs/><g><!--class EvaluadorBecas--><g class="entity" data-qualified-name="EvaluadorBecas" data-source-line="3" id="ent0002"><rect fill="#F1F1F1" height="67.0679" rx="2.5" ry="2.5" style="stroke:#181818;stroke-width:0.5;" width="177.8014" x="206.38" y="7"/><ellipse cx="242.601" cy="23" fill="#A9DCDF" rx="11" ry="11" style="stroke:#181818;stroke-width:1;"/><path d="M237.7729,28.75 L241.1166,16.5625 L244.2572,16.5625 L247.6322,28.75 L245.1635,28.75 L244.4291,25.7344 L240.9135,25.7344 L240.1635,28.75 L237.7729,28.75 Z M242.1791,20.7031 L241.4291,23.7031 L243.9447,23.7031 L243.226,20.7031 Q243.0854,20.125 242.9604,19.5781 Q242.8354,19.0156 242.6947,18.4375 Q242.5854,19.0156 242.4447,19.5781 Q242.3041,20.125 242.1791,20.7031 Z " fill="#000000"/><text fill="#000000" font-family="sans-serif" font-size="14" font-style="italic" lengthAdjust="spacing" textLength="98.6436" x="261.3168" y="28.432">EvaluadorBecas</text><line style="stroke:#181818;stroke-width:0.5;" x1="207.38" x2="383.1814" y1="39" y2="39"/><line style="stroke:#181818;stroke-width:0.5;" x1="207.38" x2="383.1814" y1="47" y2="47"/><text fill="#000000" font-family="sans-serif" font-size="14" font-style="italic" lengthAdjust="spacing" textLength="165.8014" x="212.38" y="65.9659">+evaluar(alumno: Alumno)</text></g><!--class EvaluadorAcademico--><g class="entity" data-qualified-name="EvaluadorAcademico" data-source-line="7" id="ent0003"><rect fill="#F1F1F1" height="67.0679" rx="2.5" ry="2.5" style="stroke:#181818;stroke-width:0.5;" width="186.3133" x="334.12" y="135.07"/><ellipse cx="356.6196" cy="151.07" fill="#ADD1B2" rx="11" ry="11" style="stroke:#181818;stroke-width:1;"/><path d="M356.0884,157.9919 Q354.3384,157.9919 353.1977,157.2575 Q352.0727,156.5075 351.5102,155.1638 Q350.9634,153.8044 350.9634,152.0075 Q350.9634,149.9763 351.6196,148.5231 Q352.2759,147.07 353.5571,146.2888 Q354.8384,145.5075 356.7134,145.5075 Q357.604,145.5075 358.2759,145.695 Q358.9477,145.8669 359.6352,146.2106 L358.8227,148.2263 Q358.1977,147.9138 357.6509,147.7888 Q357.1196,147.6638 356.6352,147.6638 Q355.4634,147.6638 354.7602,148.195 Q354.0571,148.7263 353.7602,149.6794 Q353.4634,150.6325 353.4634,151.8981 Q353.4634,153.9138 354.1821,154.8825 Q354.9009,155.8356 356.4946,155.8356 Q357.0884,155.8356 357.7134,155.6794 Q358.3384,155.5231 359.1665,155.1481 L359.1665,157.3669 Q358.4321,157.6794 357.6352,157.8356 Q356.854,157.9919 356.0884,157.9919 Z " fill="#000000"/><text fill="#000000" font-family="sans-serif" font-size="14" lengthAdjust="spacing" textLength="137.6475" x="372.2862" y="156.502">EvaluadorAcademico</text><line style="stroke:#181818;stroke-width:0.5;" x1="335.12" x2="519.4333" y1="167.07" y2="167.07"/><line style="stroke:#181818;stroke-width:0.5;" x1="335.12" x2="519.4333" y1="175.07" y2="175.07"/><text fill="#000000" font-family="sans-serif" font-size="14" lengthAdjust="spacing" textLength="174.3133" x="340.12" y="194.0359">+evaluar(alumno: Alumno)</text></g><!--class EvaluadorSocioeconomico--><g class="entity" data-qualified-name="EvaluadorSocioeconomico" data-source-line="11" id="ent0004"><rect fill="#F1F1F1" height="67.0679" rx="2.5" ry="2.5" style="stroke:#181818;stroke-width:0.5;" width="204.7873" x="77.88" y="135.07"/><ellipse cx="92.88" cy="151.07" fill="#ADD1B2" rx="11" ry="11" style="stroke:#181818;stroke-width:1;"/><path d="M92.3488,157.9919 Q90.5988,157.9919 89.4581,157.2575 Q88.3331,156.5075 87.7706,155.1638 Q87.2238,153.8044 87.2238,152.0075 Q87.2238,149.9763 87.88,148.5231 Q88.5363,147.07 89.8175,146.2888 Q91.0988,145.5075 92.9738,145.5075 Q93.8644,145.5075 94.5363,145.695 Q95.2081,145.8669 95.8956,146.2106 L95.0831,148.2263 Q94.4581,147.9138 93.9113,147.7888 Q93.38,147.6638 92.8956,147.6638 Q91.7238,147.6638 91.0206,148.195 Q90.3175,148.7263 90.0206,149.6794 Q89.7238,150.6325 89.7238,151.8981 Q89.7238,153.9138 90.4425,154.8825 Q91.1613,155.8356 92.755,155.8356 Q93.3488,155.8356 93.9738,155.6794 Q94.5988,155.5231 95.4269,155.1481 L95.4269,157.3669 Q94.6925,157.6794 93.8956,157.8356 Q93.1144,157.9919 92.3488,157.9919 Z " fill="#000000"/><text fill="#000000" font-family="sans-serif" font-size="14" lengthAdjust="spacing" textLength="172.7873" x="106.88" y="156.502">EvaluadorSocioeconomico</text><line style="stroke:#181818;stroke-width:0.5;" x1="78.88" x2="281.6673" y1="167.07" y2="167.07"/><line style="stroke:#181818;stroke-width:0.5;" x1="78.88" x2="281.6673" y1="175.07" y2="175.07"/><text fill="#000000" font-family="sans-serif" font-size="14" lengthAdjust="spacing" textLength="174.3133" x="83.88" y="194.0359">+evaluar(alumno: Alumno)</text></g><!--class Alumno--><g class="entity" data-qualified-name="Alumno" data-source-line="15" id="ent0005"><rect fill="#F1F1F1" height="86.1358" rx="2.5" ry="2.5" style="stroke:#181818;stroke-width:0.5;" width="115.7956" x="112.38" y="281.14"/><ellipse cx="143.5673" cy="297.14" fill="#A9DCDF" rx="11" ry="11" style="stroke:#181818;stroke-width:1;"/><path d="M138.7392,302.89 L142.0829,290.7025 L145.2236,290.7025 L148.5986,302.89 L146.1298,302.89 L145.3954,299.8744 L141.8798,299.8744 L141.1298,302.89 L138.7392,302.89 Z M143.1454,294.8431 L142.3954,297.8431 L144.9111,297.8431 L144.1923,294.8431 Q144.0517,294.265 143.9267,293.7181 Q143.8017,293.1556 143.6611,292.5775 Q143.5517,293.1556 143.4111,293.7181 Q143.2704,294.265 143.1454,294.8431 Z " fill="#000000"/><text fill="#000000" font-family="sans-serif" font-size="14" font-style="italic" lengthAdjust="spacing" textLength="47.8238" x="161.1645" y="302.572">Alumno</text><line style="stroke:#181818;stroke-width:0.5;" x1="113.38" x2="227.1756" y1="313.14" y2="313.14"/><text fill="#000000" font-family="sans-serif" font-size="14" lengthAdjust="spacing" textLength="63.5178" x="118.38" y="332.1059">-id: String</text><text fill="#000000" font-family="sans-serif" font-size="14" lengthAdjust="spacing" textLength="103.7956" x="118.38" y="351.1739">-nombre: String</text><line style="stroke:#181818;stroke-width:0.5;" x1="113.38" x2="227.1756" y1="359.2758" y2="359.2758"/></g><!--class AlumnoErasmus--><g class="entity" data-qualified-name="AlumnoErasmus" data-source-line="20" id="ent0006"><rect fill="#F1F1F1" height="67.0679" rx="2.5" ry="2.5" style="stroke:#181818;stroke-width:0.5;" width="139.9956" x="12.28" y="428.27"/><ellipse cx="27.28" cy="444.27" fill="#ADD1B2" rx="11" ry="11" style="stroke:#181818;stroke-width:1;"/><path d="M26.7488,451.1919 Q24.9988,451.1919 23.8581,450.4575 Q22.7331,449.7075 22.1706,448.3638 Q21.6238,447.0044 21.6238,445.2075 Q21.6238,443.1763 22.28,441.7231 Q22.9363,440.27 24.2175,439.4888 Q25.4988,438.7075 27.3738,438.7075 Q28.2644,438.7075 28.9363,438.895 Q29.6081,439.0669 30.2956,439.4106 L29.4831,441.4263 Q28.8581,441.1138 28.3113,440.9888 Q27.78,440.8638 27.2956,440.8638 Q26.1238,440.8638 25.4206,441.395 Q24.7175,441.9263 24.4206,442.8794 Q24.1238,443.8325 24.1238,445.0981 Q24.1238,447.1138 24.8425,448.0825 Q25.5613,449.0356 27.155,449.0356 Q27.7488,449.0356 28.3738,448.8794 Q28.9988,448.7231 29.8269,448.3481 L29.8269,450.5669 Q29.0925,450.8794 28.2956,451.0356 Q27.5144,451.1919 26.7488,451.1919 Z " fill="#000000"/><text fill="#000000" font-family="sans-serif" font-size="14" lengthAdjust="spacing" textLength="107.9956" x="41.28" y="449.702">AlumnoErasmus</text><line style="stroke:#181818;stroke-width:0.5;" x1="13.28" x2="151.2756" y1="460.27" y2="460.27"/><text fill="#000000" font-family="sans-serif" font-size="14" lengthAdjust="spacing" textLength="123.5635" x="18.28" y="479.2359">-paisOrigen: String</text><line style="stroke:#181818;stroke-width:0.5;" x1="13.28" x2="151.2756" y1="487.3379" y2="487.3379"/></g><!--class AlumnoVirtual--><g class="entity" data-qualified-name="AlumnoVirtual" data-source-line="24" id="ent0007"><rect fill="#F1F1F1" height="67.0679" rx="2.5" ry="2.5" style="stroke:#181818;stroke-width:0.5;" width="282.6749" x="186.94" y="428.27"/><ellipse cx="276.8336" cy="444.27" fill="#ADD1B2" rx="11" ry="11" style="stroke:#181818;stroke-width:1;"/><path d="M276.3024,451.1919 Q274.5524,451.1919 273.4118,450.4575 Q272.2868,449.7075 271.7243,448.3638 Q271.1774,447.0044 271.1774,445.2075 Q271.1774,443.1763 271.8336,441.7231 Q272.4899,440.27 273.7711,439.4888 Q275.0524,438.7075 276.9274,438.7075 Q277.818,438.7075 278.4899,438.895 Q279.1618,439.0669 279.8493,439.4106 L279.0368,441.4263 Q278.4118,441.1138 277.8649,440.9888 Q277.3336,440.8638 276.8493,440.8638 Q275.6774,440.8638 274.9743,441.395 Q274.2711,441.9263 273.9743,442.8794 Q273.6774,443.8325 273.6774,445.0981 Q273.6774,447.1138 274.3961,448.0825 Q275.1149,449.0356 276.7086,449.0356 Q277.3024,449.0356 277.9274,448.8794 Q278.5524,448.7231 279.3805,448.3481 L279.3805,450.5669 Q278.6461,450.8794 277.8493,451.0356 Q277.068,451.1919 276.3024,451.1919 Z " fill="#000000"/><text fill="#000000" font-family="sans-serif" font-size="14" lengthAdjust="spacing" textLength="94.3876" x="297.3336" y="449.702">AlumnoVirtual</text><line style="stroke:#181818;stroke-width:0.5;" x1="187.94" x2="468.6149" y1="460.27" y2="460.27"/><text fill="#000000" font-family="sans-serif" font-size="14" lengthAdjust="spacing" textLength="270.6749" x="192.94" y="479.2359">-requiereExamenesPresenciales: boolean</text><line style="stroke:#181818;stroke-width:0.5;" x1="187.94" x2="468.6149" y1="487.3379" y2="487.3379"/></g><!--reverse link EvaluadorBecas to EvaluadorAcademico--><g class="link" data-entity-1="ent0002" data-entity-2="ent0003" data-link-type="extension" data-source-line="28" id="lnk8"><path codeLine="28" d="M342.6307,86.7582 C362.1907,105.4282 373.59,116.32 393.11,134.97" fill="none" id="EvaluadorBecas-backto-EvaluadorAcademico" style="stroke:#181818;stroke-width:1;"/><polygon fill="none" points="329.61,74.33,338.488,91.0985,346.7735,82.418,329.61,74.33" style="stroke:#181818;stroke-width:1;"/></g><!--reverse link EvaluadorBecas to EvaluadorSocioeconomico--><g class="link" data-entity-1="ent0002" data-entity-2="ent0004" data-link-type="extension" data-source-line="29" id="lnk9"><path codeLine="29" d="M253.2296,87.6286 C236.1996,106.2986 227.05,116.32 210.04,134.97" fill="none" id="EvaluadorBecas-backto-EvaluadorSocioeconomico" style="stroke:#181818;stroke-width:1;"/><polygon fill="none" points="265.36,74.33,248.7967,83.5851,257.6624,91.6721,265.36,74.33" style="stroke:#181818;stroke-width:1;"/></g><!--reverse link Alumno to AlumnoErasmus--><g class="link" data-entity-1="ent0005" data-entity-2="ent0006" data-link-type="extension" data-source-line="31" id="lnk10"><path codeLine="31" d="M132.8773,382.8366 C120.2673,402.2566 115.38,409.8 103.64,427.89" fill="none" id="Alumno-backto-AlumnoErasmus" style="stroke:#181818;stroke-width:1;"/><polygon fill="none" points="142.68,367.74,127.8451,379.569,137.9095,386.1042,142.68,367.74" style="stroke:#181818;stroke-width:1;"/></g><!--reverse link Alumno to AlumnoVirtual--><g class="link" data-entity-1="ent0005" data-entity-2="ent0007" data-link-type="extension" data-source-line="32" id="lnk11"><path codeLine="32" d="M233.4972,379.4652 C256.1172,398.8852 268.85,409.8 289.92,427.89" fill="none" id="Alumno-backto-AlumnoVirtual" style="stroke:#181818;stroke-width:1;"/><polygon fill="none" points="219.84,367.74,229.5888,384.0176,237.4056,374.9128,219.84,367.74" style="stroke:#181818;stroke-width:1;"/></g><!--link EvaluadorAcademico to Alumno--><g class="link" data-entity-1="ent0003" data-entity-2="ent0005" data-link-type="dependency" data-source-line="34" id="lnk12"><path codeLine="34" d="M372.14,202.55 C329.82,227.85 276.6603,259.622 233.5903,285.362" fill="none" id="EvaluadorAcademico-to-Alumno" style="stroke:#181818;stroke-width:1;stroke-dasharray:7,7;"/><polygon fill="#181818" points="228.44,288.44,238.2175,287.2566,232.7319,285.875,234.1135,280.3894,228.44,288.44" style="stroke:#181818;stroke-width:1;"/><text fill="#000000" font-family="sans-serif" font-size="13" lengthAdjust="spacing" textLength="24.245" x="322.8" y="247.037">else</text></g><!--link EvaluadorAcademico to AlumnoErasmus--><g class="link" data-entity-1="ent0003" data-entity-2="ent0006" data-link-type="dependency" data-source-line="35" id="lnk13"><path codeLine="35" d="M431.7,202.52 C435.56,245.9 435.26,322.01 394.28,367.27 C324.74,444.08 267.91,396.54 169.28,428.27 C163.75,430.05 163.7247,429.9923 158.0247,431.9823" fill="none" id="EvaluadorAcademico-to-AlumnoErasmus" style="stroke:#181818;stroke-width:1;stroke-dasharray:7,7;"/><polygon fill="#181818" points="152.36,433.96,162.1755,434.77,157.0806,432.3119,159.5386,427.217,152.36,433.96" style="stroke:#181818;stroke-width:1;"/><text fill="#000000" font-family="sans-serif" font-size="13" lengthAdjust="spacing" textLength="63.5441" x="430.87" y="329.597">instanceof</text></g><!--link EvaluadorAcademico to AlumnoVirtual--><g class="link" data-entity-1="ent0003" data-entity-2="ent0007" data-link-type="dependency" data-source-line="36" id="lnk14"><path codeLine="36" d="M457.82,202.46 C491.19,242.53 536.15,311.79 506.28,367.27 C491.72,394.32 471.4733,411.1006 444.1633,425.0506" fill="none" id="EvaluadorAcademico-to-AlumnoVirtual" style="stroke:#181818;stroke-width:1;stroke-dasharray:7,7;"/><polygon fill="#181818" points="438.82,427.78,448.6545,427.2482,443.2727,425.5055,445.0153,420.1238,438.82,427.78" style="stroke:#181818;stroke-width:1;"/><text fill="#000000" font-family="sans-serif" font-size="13" lengthAdjust="spacing" textLength="63.5441" x="517.06" y="329.597">instanceof</text></g><!--link EvaluadorSocioeconomico to Alumno--><g class="link" data-entity-1="ent0004" data-entity-2="ent0005" data-link-type="dependency" data-source-line="37" id="lnk15"><path codeLine="37" d="M178.13,202.55 C176.65,225.38 175.0383,250.0026 173.4383,274.6726" fill="none" id="EvaluadorSocioeconomico-to-Alumno" style="stroke:#181818;stroke-width:1;stroke-dasharray:7,7;"/><polygon fill="#181818" points="173.05,280.66,177.6241,271.9377,173.3736,275.6705,169.6409,271.42,173.05,280.66" style="stroke:#181818;stroke-width:1;"/><text fill="#000000" font-family="sans-serif" font-size="13" lengthAdjust="spacing" textLength="24.245" x="177.17" y="247.037">else</text></g><!--link EvaluadorSocioeconomico to AlumnoErasmus--><g class="link" data-entity-1="ent0004" data-entity-2="ent0006" data-link-type="dependency" data-source-line="38" id="lnk16"><path codeLine="38" d="M110.71,202.54 C80.12,221 47.33,247.21 30.28,281.14 C6,329.45 32.0924,385.8494 55.5424,422.9194" fill="none" id="EvaluadorSocioeconomico-to-AlumnoErasmus" style="stroke:#181818;stroke-width:1;stroke-dasharray:7,7;"/><polygon fill="#181818" points="58.75,427.99,57.319,418.2457,56.077,423.7645,50.5582,422.5225,58.75,427.99" style="stroke:#181818;stroke-width:1;"/><text fill="#000000" font-family="sans-serif" font-size="13" lengthAdjust="spacing" textLength="63.5441" x="31.28" y="329.597">instanceof</text></g><!--link EvaluadorSocioeconomico to AlumnoVirtual--><g class="link" data-entity-1="ent0004" data-entity-2="ent0007" data-link-type="dependency" data-source-line="39" id="lnk17"><path codeLine="39" d="M246.06,202.57 C257.53,210.86 268.32,220.71 276.28,232.14 C318.05,292.1 326.6203,374.403 328.1203,421.813" fill="none" id="EvaluadorSocioeconomico-to-AlumnoVirtual" style="stroke:#181818;stroke-width:1;stroke-dasharray:7,7;"/><polygon fill="#181818" points="328.31,427.81,332.0234,418.688,328.1519,422.8125,324.0274,418.941,328.31,427.81" style="stroke:#181818;stroke-width:1;"/><text fill="#000000" font-family="sans-serif" font-size="13" lengthAdjust="spacing" textLength="63.5441" x="323.96" y="329.597">instanceof</text></g><?plantuml-src ZP9FIyGm4CNl-HHpLAIBvo92XHuyAHIyJzDn6KoJTIOLSTtlRkq_tTAMxI65vFqURrwYR-mFA5Y3TQYQnIXSDf4URV05Vn7S6eEbHa4RUmda7-WQh88ya4M5eu7sku7ZA3i1TGgvQjVQXnIoxdzjJiRCB3AB5TLimsHpELi4ou7QdE5IWzaW_Sa09i1L2aKxljyF6wrnAJHjJWbwBXVKkj49Fo3ha_2U_1hnmX8RT1CXzDum2UMVM9CdVHPIyfRHaQPGXk08_Q_9hF6xxoHPg71RTjwMCSFmdUXie8MJ8VY_87_tjjlTZqMcG4vfMpIsbW9xZUWjXTTjOcnjcPWzWeqqgyhjIAlOOguV?></g></svg>