<?xml version="1.0" encoding="us-ascii" standalone="no"?><svg xmlns="http://www.w3.org/2000/svg" xmlns:xlink="http://www.w3.org/1999/xlink" contentStyleType="text/css" height="500px" preserveAspectRatio="none" style="width:391px;height:500px;background:#FFFFFF;" version="1.1" viewBox="0 0 391 500" width="391px" zoomAndPan="magnify"><defs/><g><!--cluster Sistema de Capas--><g id="cluster_Sistema de Capas"><path d="M8.5,6.602 L130.5,6.602 A3.75,3.75 0 0 1 133,9.102 L140,31.6699 L211.5,31.6699 A2.5,2.5 0 0 1 214,34.1699 L214,491.372 A2.5,2.5 0 0 1 211.5,493.872 L8.5,493.872 A2.5,2.5 0 0 1 6,491.372 L6,9.102 A2.5,2.5 0 0 1 8.5,6.602 " fill="none" style="stroke:#000000;stroke-width:1.5;"/><line style="stroke:#000000;stroke-width:1.5;" x1="6" x2="140" y1="31.6699" y2="31.6699"/><text fill="#000000" font-family="sans-serif" font-size="14" font-weight="bold" lengthAdjust="spacing" textLength="121" x="10" y="23.5679">Sistema de Capas</text></g><!--entity UI--><g id="elem_UI"><rect fill="#F1F1F1" height="49.0679" rx="2.5" ry="2.5" style="stroke:#181818;stroke-width:0.5;" width="149" x="33.5" y="44.602"/><rect fill="#F1F1F1" height="10" style="stroke:#181818;stroke-width:0.5;" width="15" x="162.5" y="49.602"/><rect fill="#F1F1F1" height="2" style="stroke:#181818;stroke-width:0.5;" width="4" x="160.5" y="51.602"/><rect fill="#F1F1F1" height="2" style="stroke:#181818;stroke-width:0.5;" width="4" x="160.5" y="55.602"/><text fill="#000000" font-family="sans-serif" font-size="14" lengthAdjust="spacing" textLength="109" x="48.5" y="79.5679">Interfaz Usuario</text></g><!--entity APP--><g id="elem_APP"><rect fill="#F1F1F1" height="49.0679" rx="2.5" ry="2.5" style="stroke:#181818;stroke-width:0.5;" width="177" x="21.5" y="172.672"/><rect fill="#F1F1F1" height="10" style="stroke:#181818;stroke-width:0.5;" width="15" x="178.5" y="177.672"/><rect fill="#F1F1F1" height="2" style="stroke:#181818;stroke-width:0.5;" width="4" x="176.5" y="179.672"/><rect fill="#F1F1F1" height="2" style="stroke:#181818;stroke-width:0.5;" width="4" x="176.5" y="183.672"/><text fill="#000000" font-family="sans-serif" font-size="14" lengthAdjust="spacing" textLength="137" x="36.5" y="207.6379">L&#243;gica de Aplicaci&#243;n</text></g><!--entity DOMAIN--><g id="elem_DOMAIN"><rect fill="#F1F1F1" height="49.0679" rx="2.5" ry="2.5" style="stroke:#181818;stroke-width:0.5;" width="164" x="25" y="300.732"/><rect fill="#F1F1F1" height="10" style="stroke:#181818;stroke-width:0.5;" width="15" x="169" y="305.732"/><rect fill="#F1F1F1" height="2" style="stroke:#181818;stroke-width:0.5;" width="4" x="167" y="307.732"/><rect fill="#F1F1F1" height="2" style="stroke:#181818;stroke-width:0.5;" width="4" x="167" y="311.732"/><text fill="#000000" font-family="sans-serif" font-size="14" lengthAdjust="spacing" textLength="124" x="40" y="335.6979">L&#243;gica de Dominio</text></g><!--entity INFRA--><g id="elem_INFRA"><rect fill="#F1F1F1" height="49.0679" rx="2.5" ry="2.5" style="stroke:#181818;stroke-width:0.5;" width="143" x="35.5" y="428.802"/><rect fill="#F1F1F1" height="10" style="stroke:#181818;stroke-width:0.5;" width="15" x="158.5" y="433.802"/><rect fill="#F1F1F1" height="2" style="stroke:#181818;stroke-width:0.5;" width="4" x="156.5" y="435.802"/><rect fill="#F1F1F1" height="2" style="stroke:#181818;stroke-width:0.5;" width="4" x="156.5" y="439.802"/><text fill="#000000" font-family="sans-serif" font-size="14" lengthAdjust="spacing" textLength="103" x="50.5" y="463.7679">Infraestructura</text></g><g id="elem_GMN10"><path d="M230,46.432 L230,65.132 L182.62,69.132 L230,73.132 L230,91.844 A0,0 0 0 0 230,91.844 L384,91.844 A0,0 0 0 0 384,91.844 L384,56.432 L374,46.432 L230,46.432 A0,0 0 0 0 230,46.432 " fill="#FEFFDD" style="stroke:#181818;stroke-width:0.5;"/><path d="M374,46.432 L374,56.432 L384,56.432 L374,46.432 " fill="#FEFFDD" style="stroke:#181818;stroke-width:0.5;"/><text fill="#000000" font-family="sans-serif" font-size="13" lengthAdjust="spacing" textLength="133" x="236" y="65.329">Idealmente no conoce</text><text fill="#000000" font-family="sans-serif" font-size="13" lengthAdjust="spacing" textLength="123" x="236" y="83.035">las capas por encima</text></g><g id="elem_GMN13"><path d="M229.5,302.562 L229.5,321.272 L189.18,325.272 L229.5,329.272 L229.5,347.974 A0,0 0 0 0 229.5,347.974 L370.5,347.974 A0,0 0 0 0 370.5,347.974 L370.5,312.562 L360.5,302.562 L229.5,302.562 A0,0 0 0 0 229.5,302.562 " fill="#FEFFDD" style="stroke:#181818;stroke-width:0.5;"/><path d="M360.5,302.562 L360.5,312.562 L370.5,312.562 L360.5,302.562 " fill="#FEFFDD" style="stroke:#181818;stroke-width:0.5;"/><text fill="#000000" font-family="sans-serif" font-size="13" lengthAdjust="spacing" textLength="120" x="235.5" y="321.459">No conoce las capas</text><text fill="#000000" font-family="sans-serif" font-size="13" lengthAdjust="spacing" textLength="108" x="235.5" y="339.165">por encima de ella</text></g><!--link UI to APP--><g id="link_UI_APP"><path d="M108.38,94.142 C108.74,116.572 109.1763,143.8827 109.5263,166.2827 " fill="none" id="UI-to-APP" style="stroke:#181818;stroke-width:1.0;"/><polygon fill="#181818" points="109.62,172.282,113.4789,163.2206,109.5419,167.2826,105.4799,163.3456,109.62,172.282" style="stroke:#181818;stroke-width:1.0;"/><text fill="#000000" font-family="sans-serif" font-size="13" lengthAdjust="spacing" textLength="128" x="110.12" y="138.569">proporciona servicios</text></g><!--link APP to DOMAIN--><g id="link_APP_DOMAIN"><path d="M109.43,222.212 C108.89,244.642 108.2419,271.9537 107.7119,294.3537 " fill="none" id="APP-to-DOMAIN" style="stroke:#181818;stroke-width:1.0;"/><polygon fill="#181818" points="107.57,300.352,111.7818,291.4491,107.6883,295.3534,103.784,291.2599,107.57,300.352" style="stroke:#181818;stroke-width:1.0;"/><text fill="#000000" font-family="sans-serif" font-size="13" lengthAdjust="spacing" textLength="89" x="109.68" y="266.629">utiliza servicios</text></g><!--link DOMAIN to INFRA--><g id="link_DOMAIN_INFRA"><path d="M107,350.282 C107,372.712 107,400.012 107,422.422 " fill="none" id="DOMAIN-to-INFRA" style="stroke:#181818;stroke-width:1.0;"/><polygon fill="#181818" points="107,428.422,111,419.422,107,423.422,103,419.422,107,428.422" style="stroke:#181818;stroke-width:1.0;"/><text fill="#000000" font-family="sans-serif" font-size="13" lengthAdjust="spacing" textLength="89" x="108" y="394.699">utiliza servicios</text></g><!--SRC=[TP1BJiCm443tFiMGVI_00YbgGB84QLN82h4Od4bg4Niiss5HnAbwX5uCEor4HEh2qcZc-StdfgLEMu9AxkxNBt9JGsIN7hnpZ6o4SAW-i2SeddM8P11QWZKw30Ly2G35nh4b6-5LsaY-mmCqOKIl-GqmG2F_Gu-dOw_LP2dTa2AbJqSxeULsUvMjs6XxKLQRfrBMozwTHmhHZogE7YTErW-xKYIkaR1QtMK_t4BXF3lsIhD52EG_TGf3aR1SpzpPdz4nwa4V5jYbdCcfmnNmMmZBaS3hVX-1k_CbP4iuc3GoWUMqW6L5AJsaSLK-AgJHWApI1WNP5h9YAVhRl_urpFzJTZRamz4mpAOV]--></g></svg>