<svg xmlns="http://www.w3.org/2000/svg" xmlns:xlink="http://www.w3.org/1999/xlink" contentStyleType="text/css" data-diagram-type="CLASS" height="805px" preserveAspectRatio="none" style="width:925px;height:805px;background:#FFFFFF;" version="1.1" viewBox="0 0 925 805" width="925px" zoomAndPan="magnify"><?plantuml 1.2026.3beta4?><defs/><g><!--class Alumno--><g class="entity" data-qualified-name="Alumno" data-source-line="18" id="ent0002"><rect fill="#F1F1F1" height="337.0469" rx="2.5" ry="2.5" style="stroke:#A9A9A9;stroke-width:2;" width="145.5166" x="405.92" y="7"/><text fill="#000000" font-family="sans-serif" font-size="14" lengthAdjust="spacing" textLength="53.416" x="451.9703" y="25.9951">Alumno</text><line style="stroke:#A9A9A9;stroke-width:2;" x1="406.92" x2="550.4366" y1="35.2969" y2="35.2969"/><text fill="#000000" font-family="sans-serif" font-size="14" lengthAdjust="spacing" textLength="58.3652" x="412.92" y="53.292">profesor</text><text fill="#000000" font-family="sans-serif" font-size="14" lengthAdjust="spacing" textLength="99.4424" x="412.92" y="71.5889">setCalification</text><text fill="#000000" font-family="sans-serif" font-size="14" lengthAdjust="spacing" textLength="101.0352" x="412.92" y="89.8857">getCalification</text><text fill="#000000" font-family="sans-serif" font-size="14" lengthAdjust="spacing" textLength="114.1191" x="412.92" y="108.1826">scaleCalification</text><text fill="#000000" font-family="sans-serif" font-size="14" lengthAdjust="spacing" textLength="131.5166" x="412.92" y="126.4795">removeCalification</text><text fill="#000000" font-family="sans-serif" font-size="14" lengthAdjust="spacing" textLength="44.748" x="412.92" y="144.7764">create</text><text fill="#000000" font-family="sans-serif" font-size="14" lengthAdjust="spacing" textLength="49.3281" x="412.92" y="163.0732">update</text><text fill="#000000" font-family="sans-serif" font-size="14" lengthAdjust="spacing" textLength="53.4707" x="412.92" y="181.3701">remove</text><text fill="#000000" font-family="sans-serif" font-size="14" lengthAdjust="spacing" textLength="57.4834" x="412.92" y="199.667">findById</text><text fill="#000000" font-family="sans-serif" font-size="14" lengthAdjust="spacing" textLength="85.7705" x="412.92" y="217.9639">findByName</text><text fill="#000000" font-family="sans-serif" font-size="14" lengthAdjust="spacing" textLength="97.6924" x="412.92" y="236.2607">onClickButton</text><text fill="#000000" font-family="sans-serif" font-size="14" lengthAdjust="spacing" textLength="71.0391" x="412.92" y="254.5576">onChange</text><text fill="#000000" font-family="sans-serif" font-size="14" lengthAdjust="spacing" textLength="46.498" x="412.92" y="272.8545">render</text><text fill="#000000" font-family="sans-serif" font-size="14" lengthAdjust="spacing" textLength="33.667" x="412.92" y="291.1514">send</text><text fill="#000000" font-family="sans-serif" font-size="14" lengthAdjust="spacing" textLength="51.4678" x="412.92" y="309.4482">receive</text><text fill="#000000" font-family="sans-serif" font-size="14" lengthAdjust="spacing" textLength="13.3506" x="412.92" y="327.7451">...</text><line style="stroke:#A9A9A9;stroke-width:2;" x1="406.92" x2="550.4366" y1="336.0469" y2="336.0469"/></g><!--class Profesor--><g class="entity" data-qualified-name="Profesor" data-source-line="36" id="ent0003"><rect fill="#F1F1F1" height="282.1563" rx="2.5" ry="2.5" style="stroke:#A9A9A9;stroke-width:2;" width="139.2617" x="348.05" y="404.05"/><text fill="#000000" font-family="sans-serif" font-size="14" lengthAdjust="spacing" textLength="57.9209" x="388.7204" y="423.0451">Profesor</text><line style="stroke:#A9A9A9;stroke-width:2;" x1="349.05" x2="486.3117" y1="432.3469" y2="432.3469"/><text fill="#000000" font-family="sans-serif" font-size="14" lengthAdjust="spacing" textLength="44.748" x="355.05" y="450.342">create</text><text fill="#000000" font-family="sans-serif" font-size="14" lengthAdjust="spacing" textLength="49.3281" x="355.05" y="468.6389">update</text><text fill="#000000" font-family="sans-serif" font-size="14" lengthAdjust="spacing" textLength="53.4707" x="355.05" y="486.9357">remove</text><text fill="#000000" font-family="sans-serif" font-size="14" lengthAdjust="spacing" textLength="57.4834" x="355.05" y="505.2326">findById</text><text fill="#000000" font-family="sans-serif" font-size="14" lengthAdjust="spacing" textLength="85.7705" x="355.05" y="523.5295">findByName</text><text fill="#000000" font-family="sans-serif" font-size="14" lengthAdjust="spacing" textLength="97.6924" x="355.05" y="541.8264">onClickButton</text><text fill="#000000" font-family="sans-serif" font-size="14" lengthAdjust="spacing" textLength="71.0391" x="355.05" y="560.1232">onChange</text><text fill="#000000" font-family="sans-serif" font-size="14" lengthAdjust="spacing" textLength="46.498" x="355.05" y="578.4201">render</text><text fill="#000000" font-family="sans-serif" font-size="14" lengthAdjust="spacing" textLength="33.667" x="355.05" y="596.717">send</text><text fill="#000000" font-family="sans-serif" font-size="14" lengthAdjust="spacing" textLength="51.4678" x="355.05" y="615.0139">receive</text><text fill="#000000" font-family="sans-serif" font-size="14" lengthAdjust="spacing" textLength="13.3506" x="355.05" y="633.3107">...</text><line style="stroke:#A9A9A9;stroke-width:2;" x1="349.05" x2="486.3117" y1="641.6125" y2="641.6125"/><text fill="#000000" font-family="sans-serif" font-size="14" lengthAdjust="spacing" textLength="125.2617" x="355.05" y="659.6076">evaluate(Alumno)</text><text fill="#000000" font-family="sans-serif" font-size="14" lengthAdjust="spacing" textLength="113.668" x="355.05" y="677.9045">update(Alumno)</text></g><!--class Socket--><g class="entity" data-qualified-name="Socket" data-source-line="52" id="ent0005"><rect fill="#F1F1F1" height="44.2969" rx="2.5" ry="2.5" style="stroke:#228B22;stroke-width:2;" width="55.3594" x="7" y="746.2"/><text fill="#228B22" font-family="sans-serif" font-size="14" lengthAdjust="spacing" textLength="47.3594" x="11" y="765.1951">Socket</text><line style="stroke:#228B22;stroke-width:2;" x1="8" x2="61.3594" y1="774.4969" y2="774.4969"/><line style="stroke:#228B22;stroke-width:2;" x1="8" x2="61.3594" y1="782.4969" y2="782.4969"/></g><!--class DatagramSocket--><g class="entity" data-qualified-name="DatagramSocket" data-source-line="53" id="ent0006"><rect fill="#F1F1F1" height="44.2969" rx="2.5" ry="2.5" style="stroke:#228B22;stroke-width:2;" width="125.6465" x="97.86" y="746.2"/><text fill="#228B22" font-family="sans-serif" font-size="14" lengthAdjust="spacing" textLength="117.6465" x="101.86" y="765.1951">DatagramSocket</text><line style="stroke:#228B22;stroke-width:2;" x1="98.86" x2="222.5065" y1="774.4969" y2="774.4969"/><line style="stroke:#228B22;stroke-width:2;" x1="98.86" x2="222.5065" y1="782.4969" y2="782.4969"/></g><!--class IPAdress--><g class="entity" data-qualified-name="IPAdress" data-source-line="54" id="ent0007"><rect fill="#F1F1F1" height="44.2969" rx="2.5" ry="2.5" style="stroke:#228B22;stroke-width:2;" width="67.9922" x="258.68" y="746.2"/><text fill="#228B22" font-family="sans-serif" font-size="14" lengthAdjust="spacing" textLength="59.9922" x="262.68" y="765.1951">IPAdress</text><line style="stroke:#228B22;stroke-width:2;" x1="259.68" x2="325.6722" y1="774.4969" y2="774.4969"/><line style="stroke:#228B22;stroke-width:2;" x1="259.68" x2="325.6722" y1="782.4969" y2="782.4969"/></g><!--class Button--><g class="entity" data-qualified-name="Button" data-source-line="55" id="ent0008"><rect fill="#F1F1F1" height="44.2969" rx="2.5" ry="2.5" style="stroke:#1E90FF;stroke-width:2;" width="54.8945" x="361.23" y="746.2"/><text fill="#1E90FF" font-family="sans-serif" font-size="14" lengthAdjust="spacing" textLength="46.8945" x="365.23" y="765.1951">Button</text><line style="stroke:#1E90FF;stroke-width:2;" x1="362.23" x2="415.1245" y1="774.4969" y2="774.4969"/><line style="stroke:#1E90FF;stroke-width:2;" x1="362.23" x2="415.1245" y1="782.4969" y2="782.4969"/></g><!--class Edit--><g class="entity" data-qualified-name="Edit" data-source-line="56" id="ent0009"><rect fill="#F1F1F1" height="44.2969" rx="2.5" ry="2.5" style="stroke:#1E90FF;stroke-width:2;" width="35.1113" x="451.12" y="746.2"/><text fill="#1E90FF" font-family="sans-serif" font-size="14" lengthAdjust="spacing" textLength="27.1113" x="455.12" y="765.1951">Edit</text><line style="stroke:#1E90FF;stroke-width:2;" x1="452.12" x2="485.2313" y1="774.4969" y2="774.4969"/><line style="stroke:#1E90FF;stroke-width:2;" x1="452.12" x2="485.2313" y1="782.4969" y2="782.4969"/></g><!--class Label--><g class="entity" data-qualified-name="Label" data-source-line="57" id="ent0010"><rect fill="#F1F1F1" height="44.2969" rx="2.5" ry="2.5" style="stroke:#1E90FF;stroke-width:2;" width="45.7686" x="520.8" y="746.2"/><text fill="#1E90FF" font-family="sans-serif" font-size="14" lengthAdjust="spacing" textLength="37.7686" x="524.8" y="765.1951">Label</text><line style="stroke:#1E90FF;stroke-width:2;" x1="521.8" x2="565.5686" y1="774.4969" y2="774.4969"/><line style="stroke:#1E90FF;stroke-width:2;" x1="521.8" x2="565.5686" y1="782.4969" y2="782.4969"/></g><!--class Statment--><g class="entity" data-qualified-name="Statment" data-source-line="58" id="ent0011"><rect fill="#F1F1F1" height="44.2969" rx="2.5" ry="2.5" style="stroke:#DC143C;stroke-width:2;" width="73.0576" x="601.15" y="746.2"/><text fill="#DC143C" font-family="sans-serif" font-size="14" lengthAdjust="spacing" textLength="65.0576" x="605.15" y="765.1951">Statment</text><line style="stroke:#DC143C;stroke-width:2;" x1="602.15" x2="673.2076" y1="774.4969" y2="774.4969"/><line style="stroke:#DC143C;stroke-width:2;" x1="602.15" x2="673.2076" y1="782.4969" y2="782.4969"/></g><!--class ResultSet--><g class="entity" data-qualified-name="ResultSet" data-source-line="59" id="ent0012"><rect fill="#F1F1F1" height="44.2969" rx="2.5" ry="2.5" style="stroke:#DC143C;stroke-width:2;" width="74.876" x="709.24" y="746.2"/><text fill="#DC143C" font-family="sans-serif" font-size="14" lengthAdjust="spacing" textLength="66.876" x="713.24" y="765.1951">ResultSet</text><line style="stroke:#DC143C;stroke-width:2;" x1="710.24" x2="783.116" y1="774.4969" y2="774.4969"/><line style="stroke:#DC143C;stroke-width:2;" x1="710.24" x2="783.116" y1="782.4969" y2="782.4969"/></g><!--class BBDDDriver--><g class="entity" data-qualified-name="BBDDDriver" data-source-line="60" id="ent0013"><rect fill="#F1F1F1" height="44.2969" rx="2.5" ry="2.5" style="stroke:#DC143C;stroke-width:2;" width="91.8496" x="818.75" y="746.2"/><text fill="#DC143C" font-family="sans-serif" font-size="14" lengthAdjust="spacing" textLength="83.8496" x="822.75" y="765.1951">BBDDDriver</text><line style="stroke:#DC143C;stroke-width:2;" x1="819.75" x2="909.5996" y1="774.4969" y2="774.4969"/><line style="stroke:#DC143C;stroke-width:2;" x1="819.75" x2="909.5996" y1="782.4969" y2="782.4969"/></g><!--link Alumno to Profesor--><g class="link" data-entity-1="ent0002" data-entity-2="ent0003" data-link-type="dependency" data-source-line="51" id="lnk4"><path codeLine="51" d="M449.828,350.3791 C446.548,370.1491 445.1924,378.331 441.9824,397.671" fill="none" id="Alumno-Profesor" style="stroke:#181818;stroke-width:1;"/><polygon fill="#181818" points="450.81,344.46,445.3909,352.684,449.9916,349.3926,453.283,353.9933,450.81,344.46" style="stroke:#181818;stroke-width:1;"/><polygon fill="#181818" points="441,403.59,446.4197,395.3664,441.8187,398.6575,438.5276,394.0565,441,403.59" style="stroke:#181818;stroke-width:1;"/></g><!--link Alumno to Socket--><g class="link" data-entity-1="ent0002" data-entity-2="ent0005" data-link-type="dependency" data-source-line="62" id="lnk14"><path codeLine="62" d="M405.55,212.98 C335.03,251.55 229.83,318.64 165.68,404.05 C81.73,515.83 48.6012,680.5991 38.8412,740.0991" fill="none" id="Alumno-to-Socket" style="stroke:#181818;stroke-width:1;"/><polygon fill="#181818" points="37.87,746.02,43.2741,737.7862,38.6794,741.0859,35.3796,736.4912,37.87,746.02" style="stroke:#181818;stroke-width:1;"/></g><!--link Alumno to DatagramSocket--><g class="link" data-entity-1="ent0002" data-entity-2="ent0006" data-link-type="dependency" data-source-line="63" id="lnk15"><path codeLine="63" d="M405.57,237.04 C358.8,279.37 300.26,339.67 263.68,404.05 C196.48,522.33 171.3068,681.5979 163.8868,739.9579" fill="none" id="Alumno-to-DatagramSocket" style="stroke:#181818;stroke-width:1;"/><polygon fill="#181818" points="163.13,745.91,168.2332,737.4864,163.7606,740.9499,160.2971,736.4774,163.13,745.91" style="stroke:#181818;stroke-width:1;"/></g><!--link Alumno to IPAdress--><g class="link" data-entity-1="ent0002" data-entity-2="ent0007" data-link-type="dependency" data-source-line="64" id="lnk16"><path codeLine="64" d="M405.42,242.51 C364.68,284.28 317.83,341.98 295.68,404.05 C251.79,527.02 275.7684,682.7716 286.9884,740.1416" fill="none" id="Alumno-to-IPAdress" style="stroke:#181818;stroke-width:1;"/><polygon fill="#181818" points="288.14,746.03,290.3382,736.4296,287.1803,741.123,282.4869,737.9651,288.14,746.03" style="stroke:#181818;stroke-width:1;"/></g><!--link Alumno to Button--><g class="link" data-entity-1="ent0002" data-entity-2="ent0008" data-link-type="dependency" data-source-line="65" id="lnk17"><path codeLine="65" d="M405.51,262.94 C376.16,303.13 345.76,353.22 330.68,404.05 C295.02,524.27 292.39,566.79 330.68,686.2 C337.98,708.96 350.2925,726.259 363.7525,741.529" fill="none" id="Alumno-to-Button" style="stroke:#181818;stroke-width:1;"/><polygon fill="#181818" points="367.72,746.03,364.7694,736.6335,364.4138,742.2792,358.7681,741.9235,367.72,746.03" style="stroke:#181818;stroke-width:1;"/></g><!--link Alumno to Edit--><g class="link" data-entity-1="ent0002" data-entity-2="ent0009" data-link-type="dependency" data-source-line="66" id="lnk18"><path codeLine="66" d="M508.83,344.37 C521.51,444.6 528.48,573.85 504.68,686.2 C500.18,707.46 492.5375,724.628 484.0475,740.518" fill="none" id="Alumno-to-Edit" style="stroke:#181818;stroke-width:1;"/><polygon fill="#181818" points="481.22,745.81,488.9893,739.757,483.5763,741.4,481.9333,735.987,481.22,745.81" style="stroke:#181818;stroke-width:1;"/></g><!--link Alumno to Label--><g class="link" data-entity-1="ent0002" data-entity-2="ent0010" data-link-type="dependency" data-source-line="67" id="lnk19"><path codeLine="67" d="M527.82,344.26 C532.22,364.27 536.01,384.52 538.68,404.05 C556.27,532.79 549.1716,683.6021 545.5816,739.9321" fill="none" id="Alumno-to-Label" style="stroke:#181818;stroke-width:1;"/><polygon fill="#181818" points="545.2,745.92,549.7643,737.1926,545.518,740.9301,541.7805,736.6838,545.2,745.92" style="stroke:#181818;stroke-width:1;"/></g><!--link Alumno to Statment--><g class="link" data-entity-1="ent0002" data-entity-2="ent0011" data-link-type="dependency" data-source-line="68" id="lnk20"><path codeLine="68" d="M550.98,344.47 C558.23,364.35 564.99,384.51 570.68,404.05 C607.61,530.9 627.7827,682.8918 634.5327,739.7518" fill="none" id="Alumno-to-Statment" style="stroke:#181818;stroke-width:1;"/><polygon fill="#181818" points="635.24,745.71,638.1511,736.3012,634.6506,740.7449,630.2069,737.2443,635.24,745.71" style="stroke:#181818;stroke-width:1;"/></g><!--link Alumno to ResultSet--><g class="link" data-entity-1="ent0002" data-entity-2="ent0012" data-link-type="dependency" data-source-line="69" id="lnk21"><path codeLine="69" d="M551.92,277.81 C577.5,316.12 604.97,360.91 625.68,404.05 C685.09,527.81 725.9568,682.4737 740.0868,739.9137" fill="none" id="Alumno-to-ResultSet" style="stroke:#181818;stroke-width:1;"/><polygon fill="#181818" points="741.52,745.74,743.2543,736.045,740.3256,740.8847,735.4859,737.956,741.52,745.74" style="stroke:#181818;stroke-width:1;"/></g><!--link Alumno to BBDDDriver--><g class="link" data-entity-1="ent0002" data-entity-2="ent0013" data-link-type="dependency" data-source-line="70" id="lnk22"><path codeLine="70" d="M551.8,238.67 C599.01,281.57 659.3,341.9 701.68,404.05 C782.5,522.56 837.5607,681.9257 856.2207,740.2157" fill="none" id="Alumno-to-BBDDDriver" style="stroke:#181818;stroke-width:1;"/><polygon fill="#181818" points="858.05,745.93,859.1156,736.139,856.5256,741.1681,851.4965,738.578,858.05,745.93" style="stroke:#181818;stroke-width:1;"/></g><!--link Profesor to Socket--><g class="link" data-entity-1="ent0003" data-entity-2="ent0005" data-link-type="dependency" data-source-line="76" id="lnk23"><path codeLine="76" d="M347.88,586.44 C262.44,635.8 126.9956,714.029 67.6656,748.299" fill="none" id="Profesor-to-Socket" style="stroke:#181818;stroke-width:1;"/><polygon fill="#181818" points="62.47,751.3,72.264,750.2621,66.7996,748.7991,68.2626,743.3347,62.47,751.3" style="stroke:#181818;stroke-width:1;"/></g><!--link Profesor to DatagramSocket--><g class="link" data-entity-1="ent0003" data-entity-2="ent0006" data-link-type="dependency" data-source-line="77" id="lnk24"><path codeLine="77" d="M347.79,606.28 C293.99,652.6 227.2779,710.0264 190.1379,741.9864" fill="none" id="Profesor-to-DatagramSocket" style="stroke:#181818;stroke-width:1;"/><polygon fill="#181818" points="185.59,745.9,195.021,743.0615,189.3799,742.6387,189.8028,736.9976,185.59,745.9" style="stroke:#181818;stroke-width:1;"/></g><!--link Profesor to IPAdress--><g class="link" data-entity-1="ent0003" data-entity-2="ent0007" data-link-type="dependency" data-source-line="78" id="lnk25"><path codeLine="78" d="M347.69,670 C331.06,699.42 318.1123,722.3466 307.7123,740.7466" fill="none" id="Profesor-to-IPAdress" style="stroke:#181818;stroke-width:1;"/><polygon fill="#181818" points="304.76,745.97,312.6708,740.1032,307.2203,741.6172,305.7063,736.1667,304.76,745.97" style="stroke:#181818;stroke-width:1;"/></g><!--link Profesor to Button--><g class="link" data-entity-1="ent0003" data-entity-2="ent0008" data-link-type="dependency" data-source-line="79" id="lnk26"><path codeLine="79" d="M399.27,686.54 C396.25,709.63 394.2525,724.8812 392.2925,739.7812" fill="none" id="Profesor-to-Button" style="stroke:#181818;stroke-width:1;"/><polygon fill="#181818" points="391.51,745.73,396.6496,737.3286,392.1621,740.7727,388.7179,736.2852,391.51,745.73" style="stroke:#181818;stroke-width:1;"/></g><!--link Profesor to Edit--><g class="link" data-entity-1="ent0003" data-entity-2="ent0009" data-link-type="dependency" data-source-line="80" id="lnk27"><path codeLine="80" d="M450.05,686.54 C455.37,709.63 458.914,724.9829 462.344,739.8829" fill="none" id="Profesor-to-Edit" style="stroke:#181818;stroke-width:1;"/><polygon fill="#181818" points="463.69,745.73,465.569,736.0621,462.5683,740.8574,457.7729,737.8567,463.69,745.73" style="stroke:#181818;stroke-width:1;"/></g><!--link Profesor to Label--><g class="link" data-entity-1="ent0003" data-entity-2="ent0010" data-link-type="dependency" data-source-line="81" id="lnk28"><path codeLine="81" d="M487.68,669.03 C504.56,698.67 517.7892,721.8971 528.3892,740.4971" fill="none" id="Profesor-to-Label" style="stroke:#181818;stroke-width:1;"/><polygon fill="#181818" points="531.36,745.71,530.3791,735.9101,528.8843,741.3659,523.4285,739.8712,531.36,745.71" style="stroke:#181818;stroke-width:1;"/></g><!--link Profesor to Statment--><g class="link" data-entity-1="ent0003" data-entity-2="ent0011" data-link-type="dependency" data-source-line="82" id="lnk29"><path codeLine="82" d="M487.59,616.43 C532.13,661.21 582.5988,711.9659 612.1188,741.6459" fill="none" id="Profesor-to-Statment" style="stroke:#181818;stroke-width:1;"/><polygon fill="#181818" points="616.35,745.9,612.8393,736.6981,612.824,742.3549,607.1672,742.3396,616.35,745.9" style="stroke:#181818;stroke-width:1;"/></g><!--link Profesor to ResultSet--><g class="link" data-entity-1="ent0003" data-entity-2="ent0012" data-link-type="dependency" data-source-line="83" id="lnk30"><path codeLine="83" d="M487.45,593.04 C557.62,640.22 657.6909,707.512 709.8909,742.612" fill="none" id="Profesor-to-ResultSet" style="stroke:#181818;stroke-width:1;"/><polygon fill="#181818" points="714.87,745.96,709.6334,737.6187,710.7208,743.17,705.1694,744.2574,714.87,745.96" style="stroke:#181818;stroke-width:1;"/></g><!--link Profesor to BBDDDriver--><g class="link" data-entity-1="ent0003" data-entity-2="ent0013" data-link-type="dependency" data-source-line="84" id="lnk31"><path codeLine="84" d="M487.52,580.69 C580.83,626.87 738.0127,704.6584 815.6327,743.0784" fill="none" id="Profesor-to-BBDDDriver" style="stroke:#181818;stroke-width:1;"/><polygon fill="#181818" points="821.01,745.74,814.7184,738.1626,816.5289,743.522,811.1696,745.3324,821.01,745.74" style="stroke:#181818;stroke-width:1;"/></g><?plantuml-src nPCnRzim48Lt_Gh1NTh1HkrqQ073G2J5GO2Y2EgEMIxasI94aG99fJ2A_lTI9ANGefEr7cJoUmJltjEfPXHpRL2XDESEithO4wO8nqmtJ7IWeCrr3LJ-PkAK7u7hMEc0qe6l8qOuQ9t_oNBxAwIYg7xLZ3G2BTr4j9HSgkqMThlymsRpjTXS4Py7SNttxVD-dufa4Ajo_UMcJ4NgH53DlSApazrZBuLvet0apSj6qhne9BcI1GVIP7-ppCTmo_jMIA_vI3ebZwYbSXkDfWJEZeo0OL8uThh2D06E2LNOofSK4uLWq2txZevBVzWjZqpGuln0eyqFQBqcHSdjsofwOy9rbjGWJkCjmcOSUXSqC88iNBrQhQnvx_qnE8tTumlmthRqqGVpAUho0lr_3xwRVBjSxYOdmTX1aWQDcw10AZ1miiEVAW-FjrJPqO-PRyoDMI1tb9bu_nsUaSVWOC2qA8mRmC1-ekwvEU05B8gggfIrucSr6tqixHSih1NVuPnUzZzNHmzp7WAUqS7Bd3a_IIl1qvnFlf9waxViQkuvw7mneYVXuUBjerCXU_RTWw-5duJ_NsJPE1JpQ1C-2pVHftWJ9GISS1TnGdt8QLjZp8do6dHQUNBy3m00?></g></svg>