<?xml version="1.0" encoding="us-ascii" standalone="no"?><svg xmlns="http://www.w3.org/2000/svg" xmlns:xlink="http://www.w3.org/1999/xlink" contentStyleType="text/css" height="266px" preserveAspectRatio="none" style="width:1123px;height:266px;background:#FFFFFF;" version="1.1" viewBox="0 0 1123 266" width="1123px" zoomAndPan="magnify"><defs/><g><!--class Animal--><g id="elem_Animal"><rect codeLine="2" fill="#F1F1F1" height="67.0679" id="Animal" rx="2.5" ry="2.5" style="stroke:#181818;stroke-width:0.5;" width="243" x="443" y="16.53"/><ellipse cx="538.25" cy="32.53" fill="#A9DCDF" rx="11" ry="11" style="stroke:#181818;stroke-width:1.0;"/><path d="M533.4219,38.28 L536.7656,26.0925 L539.9063,26.0925 L543.2813,38.28 L540.8125,38.28 L540.0781,35.2644 L536.5625,35.2644 L535.8125,38.28 L533.4219,38.28 Z M537.8281,30.2331 L537.0781,33.2331 L539.5938,33.2331 L538.875,30.2331 Q538.7344,29.655 538.6094,29.1081 Q538.4844,28.5456 538.3438,27.9675 Q538.2344,28.5456 538.0938,29.1081 Q537.9531,29.655 537.8281,30.2331 Z " fill="#000000"/><text fill="#000000" font-family="sans-serif" font-size="14" font-style="italic" lengthAdjust="spacing" textLength="44" x="558.75" y="37.962">Animal</text><line style="stroke:#181818;stroke-width:0.5;" x1="444" x2="685" y1="48.53" y2="48.53"/><line style="stroke:#181818;stroke-width:0.5;" x1="444" x2="685" y1="56.53" y2="56.53"/><ellipse cx="454" cy="71.564" fill="#84BE84" rx="3" ry="3" style="stroke:#038048;stroke-width:1.0;"/><text fill="#000000" font-family="sans-serif" font-size="14" font-style="italic" lengthAdjust="spacing" textLength="217" x="463" y="75.4959">aceptar(visitante: VisitanteAnimal)</text></g><!--class Perro--><g id="elem_Perro"><rect codeLine="6" fill="#F1F1F1" height="86.1358" id="Perro" rx="2.5" ry="2.5" style="stroke:#181818;stroke-width:0.5;" width="255" x="395" y="163.67"/><ellipse cx="500.25" cy="179.67" fill="#ADD1B2" rx="11" ry="11" style="stroke:#181818;stroke-width:1.0;"/><path d="M499.7188,186.5919 Q497.9688,186.5919 496.8281,185.8575 Q495.7031,185.1075 495.1406,183.7638 Q494.5938,182.4044 494.5938,180.6075 Q494.5938,178.5763 495.25,177.1231 Q495.9063,175.67 497.1875,174.8888 Q498.4688,174.1075 500.3438,174.1075 Q501.2344,174.1075 501.9063,174.295 Q502.5781,174.4669 503.2656,174.8106 L502.4531,176.8263 Q501.8281,176.5138 501.2813,176.3888 Q500.75,176.2638 500.2656,176.2638 Q499.0938,176.2638 498.3906,176.795 Q497.6875,177.3263 497.3906,178.2794 Q497.0938,179.2325 497.0938,180.4981 Q497.0938,182.5138 497.8125,183.4825 Q498.5313,184.4356 500.125,184.4356 Q500.7188,184.4356 501.3438,184.2794 Q501.9688,184.1231 502.7969,183.7481 L502.7969,185.9669 Q502.0625,186.2794 501.2656,186.4356 Q500.4844,186.5919 499.7188,186.5919 Z " fill="#000000"/><text fill="#000000" font-family="sans-serif" font-size="14" lengthAdjust="spacing" textLength="36" x="520.75" y="185.102">Perro</text><line style="stroke:#181818;stroke-width:0.5;" x1="396" x2="649" y1="195.67" y2="195.67"/><line style="stroke:#181818;stroke-width:0.5;" x1="396" x2="649" y1="203.67" y2="203.67"/><ellipse cx="406" cy="218.704" fill="#84BE84" rx="3" ry="3" style="stroke:#038048;stroke-width:1.0;"/><text fill="#000000" font-family="sans-serif" font-size="14" lengthAdjust="spacing" textLength="229" x="415" y="222.6359">aceptar(visitante: VisitanteAnimal)</text><ellipse cx="406" cy="237.7719" fill="#84BE84" rx="3" ry="3" style="stroke:#038048;stroke-width:1.0;"/><text fill="#000000" font-family="sans-serif" font-size="14" lengthAdjust="spacing" textLength="79" x="415" y="241.7039">moverCola()</text></g><!--class Pajaro--><g id="elem_Pajaro"><rect codeLine="11" fill="#F1F1F1" height="105.2038" id="Pajaro" rx="2.5" ry="2.5" style="stroke:#181818;stroke-width:0.5;" width="255" x="685" y="154.14"/><ellipse cx="787.25" cy="170.14" fill="#ADD1B2" rx="11" ry="11" style="stroke:#181818;stroke-width:1.0;"/><path d="M786.7188,177.0619 Q784.9688,177.0619 783.8281,176.3275 Q782.7031,175.5775 782.1406,174.2338 Q781.5938,172.8744 781.5938,171.0775 Q781.5938,169.0463 782.25,167.5931 Q782.9063,166.14 784.1875,165.3588 Q785.4688,164.5775 787.3438,164.5775 Q788.2344,164.5775 788.9063,164.765 Q789.5781,164.9369 790.2656,165.2806 L789.4531,167.2963 Q788.8281,166.9838 788.2813,166.8588 Q787.75,166.7338 787.2656,166.7338 Q786.0938,166.7338 785.3906,167.265 Q784.6875,167.7963 784.3906,168.7494 Q784.0938,169.7025 784.0938,170.9681 Q784.0938,172.9838 784.8125,173.9525 Q785.5313,174.9056 787.125,174.9056 Q787.7188,174.9056 788.3438,174.7494 Q788.9688,174.5931 789.7969,174.2181 L789.7969,176.4369 Q789.0625,176.7494 788.2656,176.9056 Q787.4844,177.0619 786.7188,177.0619 Z " fill="#000000"/><text fill="#000000" font-family="sans-serif" font-size="14" lengthAdjust="spacing" textLength="42" x="807.75" y="175.572">Pajaro</text><line style="stroke:#181818;stroke-width:0.5;" x1="686" x2="939" y1="186.14" y2="186.14"/><line style="stroke:#181818;stroke-width:0.5;" x1="686" x2="939" y1="194.14" y2="194.14"/><ellipse cx="696" cy="209.174" fill="#84BE84" rx="3" ry="3" style="stroke:#038048;stroke-width:1.0;"/><text fill="#000000" font-family="sans-serif" font-size="14" lengthAdjust="spacing" textLength="229" x="705" y="213.1059">aceptar(visitante: VisitanteAnimal)</text><ellipse cx="696" cy="228.2419" fill="#84BE84" rx="3" ry="3" style="stroke:#038048;stroke-width:1.0;"/><text fill="#000000" font-family="sans-serif" font-size="14" lengthAdjust="spacing" textLength="116" x="705" y="232.1739">posarseEnMano()</text><ellipse cx="696" cy="247.3098" fill="#84BE84" rx="3" ry="3" style="stroke:#038048;stroke-width:1.0;"/><text fill="#000000" font-family="sans-serif" font-size="14" lengthAdjust="spacing" textLength="81" x="705" y="251.2418">cantarFeliz()</text></g><!--class VisitanteAnimal--><g id="elem_VisitanteAnimal"><rect codeLine="17" fill="#F1F1F1" height="86.1358" id="VisitanteAnimal" rx="2.5" ry="2.5" style="stroke:#181818;stroke-width:0.5;" width="168" x="185.5" y="7"/><ellipse cx="217.15" cy="23" fill="#B4A7E5" rx="11" ry="11" style="stroke:#181818;stroke-width:1.0;"/><path d="M213.1813,29.5 L213.1813,27.7969 L215.5406,27.5313 L215.5406,19.3281 L213.1813,19.0625 L213.1813,17.3594 L220.3219,17.3594 L220.3219,19.0625 L217.9,19.3281 L217.9,27.5313 L220.3219,27.7969 L220.3219,29.5 L213.1813,29.5 Z " fill="#000000"/><text fill="#000000" font-family="sans-serif" font-size="14" font-style="italic" lengthAdjust="spacing" textLength="99" x="234.85" y="28.432">VisitanteAnimal</text><line style="stroke:#181818;stroke-width:0.5;" x1="186.5" x2="352.5" y1="39" y2="39"/><line style="stroke:#181818;stroke-width:0.5;" x1="186.5" x2="352.5" y1="47" y2="47"/><ellipse cx="196.5" cy="62.034" fill="#84BE84" rx="3" ry="3" style="stroke:#038048;stroke-width:1.0;"/><text fill="#000000" font-family="sans-serif" font-size="14" lengthAdjust="spacing" textLength="130" x="205.5" y="65.9659">visitar(perro: Perro)</text><ellipse cx="196.5" cy="81.1019" fill="#84BE84" rx="3" ry="3" style="stroke:#038048;stroke-width:1.0;"/><text fill="#000000" font-family="sans-serif" font-size="14" lengthAdjust="spacing" textLength="142" x="205.5" y="85.0339">visitar(pajaro: Pajaro)</text></g><!--class CuidadorAnimal--><g id="elem_CuidadorAnimal"><rect codeLine="22" fill="#F1F1F1" height="105.2038" id="CuidadorAnimal" rx="2.5" ry="2.5" style="stroke:#181818;stroke-width:0.5;" width="178" x="180.5" y="154.14"/><ellipse cx="212.15" cy="170.14" fill="#ADD1B2" rx="11" ry="11" style="stroke:#181818;stroke-width:1.0;"/><path d="M211.6188,177.0619 Q209.8688,177.0619 208.7281,176.3275 Q207.6031,175.5775 207.0406,174.2338 Q206.4938,172.8744 206.4938,171.0775 Q206.4938,169.0463 207.15,167.5931 Q207.8063,166.14 209.0875,165.3588 Q210.3688,164.5775 212.2438,164.5775 Q213.1344,164.5775 213.8063,164.765 Q214.4781,164.9369 215.1656,165.2806 L214.3531,167.2963 Q213.7281,166.9838 213.1813,166.8588 Q212.65,166.7338 212.1656,166.7338 Q210.9938,166.7338 210.2906,167.265 Q209.5875,167.7963 209.2906,168.7494 Q208.9938,169.7025 208.9938,170.9681 Q208.9938,172.9838 209.7125,173.9525 Q210.4313,174.9056 212.025,174.9056 Q212.6188,174.9056 213.2438,174.7494 Q213.8688,174.5931 214.6969,174.2181 L214.6969,176.4369 Q213.9625,176.7494 213.1656,176.9056 Q212.3844,177.0619 211.6188,177.0619 Z " fill="#000000"/><text fill="#000000" font-family="sans-serif" font-size="14" lengthAdjust="spacing" textLength="109" x="229.85" y="175.572">CuidadorAnimal</text><line style="stroke:#181818;stroke-width:0.5;" x1="181.5" x2="357.5" y1="186.14" y2="186.14"/><line style="stroke:#181818;stroke-width:0.5;" x1="181.5" x2="357.5" y1="194.14" y2="194.14"/><ellipse cx="191.5" cy="209.174" fill="#84BE84" rx="3" ry="3" style="stroke:#038048;stroke-width:1.0;"/><text fill="#000000" font-family="sans-serif" font-size="14" lengthAdjust="spacing" textLength="130" x="200.5" y="213.1059">visitar(perro: Perro)</text><ellipse cx="191.5" cy="228.2419" fill="#84BE84" rx="3" ry="3" style="stroke:#038048;stroke-width:1.0;"/><text fill="#000000" font-family="sans-serif" font-size="14" lengthAdjust="spacing" textLength="142" x="200.5" y="232.1739">visitar(pajaro: Pajaro)</text><ellipse cx="191.5" cy="247.3098" fill="#84BE84" rx="3" ry="3" style="stroke:#038048;stroke-width:1.0;"/><text fill="#000000" font-family="sans-serif" font-size="14" lengthAdjust="spacing" textLength="152" x="200.5" y="251.2418">cuidar(animal: Animal)</text></g><path d="M975,187.89 L975,197.743 L934,207.674 L975,205.743 L975,215.596 A0,0 0 0 0 975,215.596 L1116,215.596 A0,0 0 0 0 1116,215.596 L1116,197.89 L1106,187.89 L975,187.89 A0,0 0 0 0 975,187.89 " fill="#FEFFDD" style="stroke:#181818;stroke-width:0.5;"/><path d="M1106,187.89 L1106,197.89 L1116,197.89 L1106,187.89 " fill="#FEFFDD" style="stroke:#181818;stroke-width:0.5;"/><text fill="#000000" font-family="sans-serif" font-size="13" lengthAdjust="spacing" textLength="120" x="981" y="206.787">visitante.visitar(this)</text><path d="M6,187.89 L6,215.596 A0,0 0 0 0 6,215.596 L145,215.596 A0,0 0 0 0 145,215.596 L145,205.89 L184.5,245.8098 L145,197.89 L145,197.89 L135,187.89 L6,187.89 A0,0 0 0 0 6,187.89 " fill="#FEFFDD" style="stroke:#181818;stroke-width:0.5;"/><path d="M135,187.89 L135,197.89 L145,197.89 L135,187.89 " fill="#FEFFDD" style="stroke:#181818;stroke-width:0.5;"/><text fill="#000000" font-family="sans-serif" font-size="13" lengthAdjust="spacing" textLength="118" x="12" y="206.787">animal.aceptar(this)</text><!--reverse link Animal to Perro--><g id="link_Animal_Perro"><path d="M550.8755,101.2416 C544.5955,124.3816 540.83,138.23 534.03,163.28 " fill="none" id="Animal-backto-Perro" style="stroke:#181818;stroke-width:1.0;"/><polygon fill="none" points="555.59,83.87,545.0849,99.6701,556.666,102.8131,555.59,83.87" style="stroke:#181818;stroke-width:1.0;"/></g><!--reverse link Animal to Pajaro--><g id="link_Animal_Pajaro"><path d="M632.6716,93.5878 C665.2416,113.9078 692.44,130.86 729.43,153.93 " fill="none" id="Animal-backto-Pajaro" style="stroke:#181818;stroke-width:1.0;"/><polygon fill="none" points="617.4,84.06,629.4957,98.6783,635.8475,88.4972,617.4,84.06" style="stroke:#181818;stroke-width:1.0;"/></g><!--reverse link VisitanteAnimal to CuidadorAnimal--><g id="link_VisitanteAnimal_CuidadorAnimal"><path codeLine="28" d="M269.5,111.33 C269.5,130.03 269.5,134.19 269.5,153.87 " fill="none" id="VisitanteAnimal-backto-CuidadorAnimal" style="stroke:#181818;stroke-width:1.0;stroke-dasharray:7.0,7.0;"/><polygon fill="none" points="269.5,93.33,263.5,111.33,275.5,111.33,269.5,93.33" style="stroke:#181818;stroke-width:1.0;"/></g><!--reverse link VisitanteAnimal to Animal--><g id="link_VisitanteAnimal_Animal"><path codeLine="29" d="M359.64,50.07 C387.31,50.07 412.66,50.07 442.56,50.07 " fill="none" id="VisitanteAnimal-backto-Animal" style="stroke:#181818;stroke-width:1.0;stroke-dasharray:7.0,7.0;"/><polygon fill="#181818" points="353.64,50.07,362.64,54.07,358.64,50.07,362.64,46.07,353.64,50.07" style="stroke:#181818;stroke-width:1.0;"/><text fill="#000000" font-family="sans-serif" font-size="13" lengthAdjust="spacing" textLength="53" x="371.75" y="42.967">aceptar()</text></g><!--link Perro to Pajaro--><!--SRC=[hP6nRiCW48Ptdk96h2f-08P8LTHkbJfbgJfSxNDDHS0wI1GrpRiN6sovPEaG9iJTVV__S_ZX0sCJe37eFJnQVK035m7nFC05S_aAsD0GaEL9UntG1bAmdwzfgX9N8HBcbPWTq3cGRM-W_o6bpeCx4U-SGRbcunVU0puuZ-pfoRwWTN9-RM8ZyZCP_Pr4THpaBc9BpYAPf5WEOsYLibTbRJAjilbLcjrHjzWwlWCp1nY1B77YALYjff2gZ_NFjWmbvgAfRsgWbj-jX4Whtl1RhzkMxFic-n32ka30-hCFuBhygbGUZIwNrTHpaj1hNucuJXXdCy5GDm7-sbOg1OoS5B6UFHMGNm00]--></g></svg>