<?plantuml 1.2026.2?><svg xmlns="http://www.w3.org/2000/svg" xmlns:xlink="http://www.w3.org/1999/xlink" contentStyleType="text/css" data-diagram-type="CLASS" height="341px" preserveAspectRatio="none" style="width:326px;height:341px;background:#FFFFFF;" version="1.1" viewBox="0 0 326 341" width="326px" zoomAndPan="magnify"><defs/><g><!--class Perro--><g class="entity" data-qualified-name="Perro" data-source-line="3" id="ent0002"><rect fill="#F1F1F1" height="200.5433" rx="2.5" ry="2.5" style="stroke:#181818;stroke-width:0.5;" width="159.4895" x="7" y="134"/><ellipse cx="64.2948" cy="150" fill="#ADD1B2" rx="11" ry="11" style="stroke:#181818;stroke-width:1;"/><path d="M63.7635,156.9219 Q62.0135,156.9219 60.8729,156.1875 Q59.7479,155.4375 59.1854,154.0938 Q58.6385,152.7344 58.6385,150.9375 Q58.6385,148.9063 59.2948,147.4531 Q59.951,146 61.2323,145.2188 Q62.5135,144.4375 64.3885,144.4375 Q65.2792,144.4375 65.951,144.625 Q66.6229,144.7969 67.3104,145.1406 L66.4979,147.1563 Q65.8729,146.8438 65.326,146.7188 Q64.7948,146.5938 64.3104,146.5938 Q63.1385,146.5938 62.4354,147.125 Q61.7323,147.6563 61.4354,148.6094 Q61.1385,149.5625 61.1385,150.8281 Q61.1385,152.8438 61.8573,153.8125 Q62.576,154.7656 64.1698,154.7656 Q64.7635,154.7656 65.3885,154.6094 Q66.0135,154.4531 66.8417,154.0781 L66.8417,156.2969 Q66.1073,156.6094 65.3104,156.7656 Q64.5292,156.9219 63.7635,156.9219 Z " fill="#000000"/><text fill="#000000" font-family="sans-serif" font-size="14" lengthAdjust="spacing" textLength="36.3999" x="84.7948" y="155.432">Perro</text><line style="stroke:#181818;stroke-width:0.5;" x1="8" x2="165.4895" y1="166" y2="166"/><text fill="#000000" font-family="sans-serif" font-size="14" lengthAdjust="spacing" textLength="105.0556" x="13" y="184.9659">-cabeza: Cabeza</text><text fill="#000000" font-family="sans-serif" font-size="14" lengthAdjust="spacing" textLength="106.2876" x="13" y="204.0339">-cuerpo: Cuerpo</text><text fill="#000000" font-family="sans-serif" font-size="14" lengthAdjust="spacing" textLength="147.4895" x="13" y="223.1018">-patas: Extremidades[]</text><text fill="#000000" font-family="sans-serif" font-size="14" lengthAdjust="spacing" textLength="67.3397" x="13" y="242.1697">-cola: Cola</text><line style="stroke:#181818;stroke-width:0.5;" x1="8" x2="165.4895" y1="250.2717" y2="250.2717"/><text fill="#000000" font-family="sans-serif" font-size="14" lengthAdjust="spacing" textLength="52.8078" x="13" y="269.2376">+Perro()</text><text fill="#000000" font-family="sans-serif" font-size="14" lengthAdjust="spacing" textLength="73.3597" x="13" y="288.3055">+moverse()</text><text fill="#000000" font-family="sans-serif" font-size="14" lengthAdjust="spacing" textLength="100.5616" x="13" y="307.3734">+comunicarse()</text><text fill="#000000" font-family="sans-serif" font-size="14" lengthAdjust="spacing" textLength="58.3658" x="13" y="326.4414">+comer()</text></g><!--class Pajaro--><g class="entity" data-qualified-name="Pajaro" data-source-line="14" id="ent0003"><rect fill="#F1F1F1" height="200.5433" rx="2.5" ry="2.5" style="stroke:#181818;stroke-width:0.5;" width="118.2876" x="201.6" y="134"/><ellipse cx="236.5106" cy="150" fill="#ADD1B2" rx="11" ry="11" style="stroke:#181818;stroke-width:1;"/><path d="M235.9793,156.9219 Q234.2293,156.9219 233.0887,156.1875 Q231.9637,155.4375 231.4012,154.0938 Q230.8543,152.7344 230.8543,150.9375 Q230.8543,148.9063 231.5106,147.4531 Q232.1668,146 233.4481,145.2188 Q234.7293,144.4375 236.6043,144.4375 Q237.495,144.4375 238.1668,144.625 Q238.8387,144.7969 239.5262,145.1406 L238.7137,147.1563 Q238.0887,146.8438 237.5418,146.7188 Q237.0106,146.5938 236.5262,146.5938 Q235.3543,146.5938 234.6512,147.125 Q233.9481,147.6563 233.6512,148.6094 Q233.3543,149.5625 233.3543,150.8281 Q233.3543,152.8438 234.0731,153.8125 Q234.7918,154.7656 236.3856,154.7656 Q236.9793,154.7656 237.6043,154.6094 Q238.2293,154.4531 239.0575,154.0781 L239.0575,156.2969 Q238.3231,156.6094 237.5262,156.7656 Q236.745,156.9219 235.9793,156.9219 Z " fill="#000000"/><text fill="#000000" font-family="sans-serif" font-size="14" lengthAdjust="spacing" textLength="42.0419" x="254.9352" y="155.432">Pajaro</text><line style="stroke:#181818;stroke-width:0.5;" x1="202.6" x2="318.8876" y1="166" y2="166"/><text fill="#000000" font-family="sans-serif" font-size="14" lengthAdjust="spacing" textLength="105.0556" x="207.6" y="184.9659">-cabeza: Cabeza</text><text fill="#000000" font-family="sans-serif" font-size="14" lengthAdjust="spacing" textLength="106.2876" x="207.6" y="204.0339">-cuerpo: Cuerpo</text><text fill="#000000" font-family="sans-serif" font-size="14" lengthAdjust="spacing" textLength="65.0438" x="207.6" y="223.1018">-alas: Alas</text><text fill="#000000" font-family="sans-serif" font-size="14" lengthAdjust="spacing" textLength="67.3397" x="207.6" y="242.1697">-cola: Cola</text><line style="stroke:#181818;stroke-width:0.5;" x1="202.6" x2="318.8876" y1="250.2717" y2="250.2717"/><text fill="#000000" font-family="sans-serif" font-size="14" lengthAdjust="spacing" textLength="58.4498" x="207.6" y="269.2376">+Pajaro()</text><text fill="#000000" font-family="sans-serif" font-size="14" lengthAdjust="spacing" textLength="73.3597" x="207.6" y="288.3055">+moverse()</text><text fill="#000000" font-family="sans-serif" font-size="14" lengthAdjust="spacing" textLength="100.5616" x="207.6" y="307.3734">+comunicarse()</text><text fill="#000000" font-family="sans-serif" font-size="14" lengthAdjust="spacing" textLength="58.3658" x="207.6" y="326.4414">+comer()</text></g><!--class Cliente--><g class="entity" data-qualified-name="Cliente" data-source-line="25" id="ent0004"><rect fill="#F1F1F1" height="48" rx="2.5" ry="2.5" style="stroke:#181818;stroke-width:0.5;" width="77.5698" x="134.96" y="7"/><ellipse cx="149.96" cy="23" fill="#ADD1B2" rx="11" ry="11" style="stroke:#181818;stroke-width:1;"/><path d="M149.4287,29.9219 Q147.6787,29.9219 146.5381,29.1875 Q145.4131,28.4375 144.8506,27.0938 Q144.3037,25.7344 144.3037,23.9375 Q144.3037,21.9063 144.96,20.4531 Q145.6162,19 146.8975,18.2188 Q148.1787,17.4375 150.0537,17.4375 Q150.9444,17.4375 151.6162,17.625 Q152.2881,17.7969 152.9756,18.1406 L152.1631,20.1563 Q151.5381,19.8438 150.9912,19.7188 Q150.46,19.5938 149.9756,19.5938 Q148.8037,19.5938 148.1006,20.125 Q147.3975,20.6563 147.1006,21.6094 Q146.8037,22.5625 146.8037,23.8281 Q146.8037,25.8438 147.5225,26.8125 Q148.2412,27.7656 149.835,27.7656 Q150.4287,27.7656 151.0537,27.6094 Q151.6787,27.4531 152.5069,27.0781 L152.5069,29.2969 Q151.7725,29.6094 150.9756,29.7656 Q150.1944,29.9219 149.4287,29.9219 Z " fill="#000000"/><text fill="#000000" font-family="sans-serif" font-size="14" lengthAdjust="spacing" textLength="45.5698" x="163.96" y="28.432">Cliente</text><line style="stroke:#181818;stroke-width:0.5;" x1="135.96" x2="211.5298" y1="39" y2="39"/><line style="stroke:#181818;stroke-width:0.5;" x1="135.96" x2="211.5298" y1="47" y2="47"/></g><!--link Cliente to Perro--><g class="link" data-entity-1="ent0004" data-entity-2="ent0002" data-link-type="dependency" data-source-line="28" id="lnk5"><path codeLine="28" d="M160.65,55.47 C155.75,64.58 150.28,75.17 145.74,85 C138.55,100.59 133.6596,111.7799 126.9196,128.1899" fill="none" id="Cliente-to-Perro" style="stroke:#181818;stroke-width:1;stroke-dasharray:7,7;"/><polygon fill="#181818" points="124.64,133.74,131.7594,126.9346,126.5396,129.1149,124.3593,123.8951,124.64,133.74" style="stroke:#181818;stroke-width:1;"/><text fill="#000000" font-family="sans-serif" font-size="13" lengthAdjust="spacing" textLength="70.5641" x="146.74" y="99.897">new Perro()</text></g><!--link Cliente to Pajaro--><g class="link" data-entity-1="ent0004" data-entity-2="ent0003" data-link-type="dependency" data-source-line="29" id="lnk6"><path codeLine="29" d="M199.4,55.42 C207.56,64.03 215.95,74.3 221.74,85 C229.92,100.09 234.6929,111.2561 239.8829,128.0961" fill="none" id="Cliente-to-Pajaro" style="stroke:#181818;stroke-width:1;stroke-dasharray:7,7;"/><polygon fill="#181818" points="241.65,133.83,242.8219,124.0511,240.1774,129.0518,235.1767,126.4073,241.65,133.83" style="stroke:#181818;stroke-width:1;"/><text fill="#000000" font-family="sans-serif" font-size="13" lengthAdjust="spacing" textLength="75.8031" x="231.73" y="99.897">new Pajaro()</text></g><?plantuml-src fP2n2i8m48RtFiMDYYZE7OHI7Dm4Ht6ufZT4cwHSKfMAxswQ9WK55yrmn_zVxlBbx4Ng5XaLY0QjBPnZMNMETiBeW-m9rbaMAh0dPWEF3FnPWi2AUioX33cP7N5hl1boD5jqQ7FOtXsJaZNMP8-dr62QOOQFmLYCZypcKIbp9ROqQM5KfwN03u_Og-V4YMVy2HIRWRFmyIjT6FqVNjb8qeuydxUIMAqsSRyvQBfDQtYhZ_-A5nB92m00?></g></svg>