<?plantuml 1.2026.2?><svg xmlns="http://www.w3.org/2000/svg" xmlns:xlink="http://www.w3.org/1999/xlink" contentStyleType="text/css" data-diagram-type="CLASS" height="510px" preserveAspectRatio="none" style="width:500px;height:510px;background:#FFFFFF;" version="1.1" viewBox="0 0 500 510" width="500px" zoomAndPan="magnify"><defs/><g><!--class Animal--><g class="entity" data-qualified-name="Animal" data-source-line="3" id="ent0002"><rect fill="#F1F1F1" height="105.2038" rx="2.5" ry="2.5" style="stroke:#181818;stroke-width:0.5;" width="107.3256" x="292.89" y="193.53"/><ellipse cx="322.2566" cy="209.53" fill="#A9DCDF" rx="11" ry="11" style="stroke:#181818;stroke-width:1;"/><path d="M317.4285,215.28 L320.7722,203.0925 L323.9129,203.0925 L327.2879,215.28 L324.8191,215.28 L324.0847,212.2644 L320.5691,212.2644 L319.8191,215.28 L317.4285,215.28 Z M321.8347,207.2331 L321.0847,210.2331 L323.6004,210.2331 L322.8816,207.2331 Q322.741,206.655 322.616,206.1081 Q322.491,205.5456 322.3504,204.9675 Q322.241,205.5456 322.1004,206.1081 Q321.9597,206.655 321.8347,207.2331 Z " fill="#000000"/><text fill="#000000" font-family="sans-serif" font-size="14" font-style="italic" lengthAdjust="spacing" textLength="43.3998" x="339.4492" y="214.962">Animal</text><line style="stroke:#181818;stroke-width:0.5;" x1="293.89" x2="399.2156" y1="225.53" y2="225.53"/><line style="stroke:#181818;stroke-width:0.5;" x1="293.89" x2="399.2156" y1="233.53" y2="233.53"/><text fill="#000000" font-family="sans-serif" font-size="14" font-style="italic" lengthAdjust="spacing" textLength="68.3897" x="298.89" y="252.4959">+moverse()</text><text fill="#000000" font-family="sans-serif" font-size="14" font-style="italic" lengthAdjust="spacing" textLength="95.3256" x="298.89" y="271.5639">+comunicarse()</text><text fill="#000000" font-family="sans-serif" font-size="14" font-style="italic" lengthAdjust="spacing" textLength="55.1598" x="298.89" y="290.6318">+comer()</text></g><!--class Perro--><g class="entity" data-qualified-name="Perro" data-source-line="9" id="ent0003"><rect fill="#F1F1F1" height="124.2717" rx="2.5" ry="2.5" style="stroke:#181818;stroke-width:0.5;" width="112.5616" x="211.27" y="369.26"/><ellipse cx="246.1428" cy="385.26" fill="#ADD1B2" rx="11" ry="11" style="stroke:#181818;stroke-width:1;"/><path d="M245.6115,392.1819 Q243.8615,392.1819 242.7209,391.4475 Q241.5959,390.6975 241.0334,389.3538 Q240.4865,387.9944 240.4865,386.1975 Q240.4865,384.1663 241.1428,382.7131 Q241.799,381.26 243.0803,380.4788 Q244.3615,379.6975 246.2365,379.6975 Q247.1272,379.6975 247.799,379.885 Q248.4709,380.0569 249.1584,380.4006 L248.3459,382.4163 Q247.7209,382.1038 247.174,381.9788 Q246.6428,381.8538 246.1584,381.8538 Q244.9865,381.8538 244.2834,382.385 Q243.5803,382.9163 243.2834,383.8694 Q242.9865,384.8225 242.9865,386.0881 Q242.9865,388.1038 243.7053,389.0725 Q244.424,390.0256 246.0178,390.0256 Q246.6115,390.0256 247.2365,389.8694 Q247.8615,389.7131 248.6897,389.3381 L248.6897,391.5569 Q247.9553,391.8694 247.1584,392.0256 Q246.3772,392.1819 245.6115,392.1819 Z " fill="#000000"/><text fill="#000000" font-family="sans-serif" font-size="14" lengthAdjust="spacing" textLength="36.3999" x="264.559" y="390.692">Perro</text><line style="stroke:#181818;stroke-width:0.5;" x1="212.27" x2="322.8316" y1="401.26" y2="401.26"/><line style="stroke:#181818;stroke-width:0.5;" x1="212.27" x2="322.8316" y1="409.26" y2="409.26"/><text fill="#000000" font-family="sans-serif" font-size="14" lengthAdjust="spacing" textLength="73.3597" x="217.27" y="428.2259">+moverse()</text><text fill="#000000" font-family="sans-serif" font-size="14" lengthAdjust="spacing" textLength="100.5616" x="217.27" y="447.2939">+comunicarse()</text><text fill="#000000" font-family="sans-serif" font-size="14" lengthAdjust="spacing" textLength="58.3658" x="217.27" y="466.3618">+comer()</text><text fill="#000000" font-family="sans-serif" font-size="14" lengthAdjust="spacing" textLength="87.5417" x="217.27" y="485.4297">+moverCola()</text></g><!--class Pajaro--><g class="entity" data-qualified-name="Pajaro" data-source-line="16" id="ent0005"><rect fill="#F1F1F1" height="143.3396" rx="2.5" ry="2.5" style="stroke:#181818;stroke-width:0.5;" width="134.5415" x="359.28" y="359.73"/><ellipse cx="401.5049" cy="375.73" fill="#ADD1B2" rx="11" ry="11" style="stroke:#181818;stroke-width:1;"/><path d="M400.9736,382.6519 Q399.2236,382.6519 398.083,381.9175 Q396.958,381.1675 396.3955,379.8237 Q395.8486,378.4644 395.8486,376.6675 Q395.8486,374.6362 396.5049,373.1831 Q397.1611,371.73 398.4424,370.9487 Q399.7236,370.1675 401.5986,370.1675 Q402.4892,370.1675 403.1611,370.355 Q403.833,370.5269 404.5205,370.8706 L403.708,372.8862 Q403.083,372.5737 402.5361,372.4487 Q402.0049,372.3237 401.5205,372.3237 Q400.3486,372.3237 399.6455,372.855 Q398.9424,373.3862 398.6455,374.3394 Q398.3486,375.2925 398.3486,376.5581 Q398.3486,378.5737 399.0674,379.5425 Q399.7861,380.4956 401.3799,380.4956 Q401.9736,380.4956 402.5986,380.3394 Q403.2236,380.1831 404.0517,379.8081 L404.0517,382.0269 Q403.3174,382.3394 402.5205,382.4956 Q401.7392,382.6519 400.9736,382.6519 Z " fill="#000000"/><text fill="#000000" font-family="sans-serif" font-size="14" lengthAdjust="spacing" textLength="42.0419" x="421.5548" y="381.162">Pajaro</text><line style="stroke:#181818;stroke-width:0.5;" x1="360.28" x2="492.8215" y1="391.73" y2="391.73"/><line style="stroke:#181818;stroke-width:0.5;" x1="360.28" x2="492.8215" y1="399.73" y2="399.73"/><text fill="#000000" font-family="sans-serif" font-size="14" lengthAdjust="spacing" textLength="73.3597" x="365.28" y="418.6959">+moverse()</text><text fill="#000000" font-family="sans-serif" font-size="14" lengthAdjust="spacing" textLength="100.5616" x="365.28" y="437.7639">+comunicarse()</text><text fill="#000000" font-family="sans-serif" font-size="14" lengthAdjust="spacing" textLength="58.3658" x="365.28" y="456.8318">+comer()</text><text fill="#000000" font-family="sans-serif" font-size="14" lengthAdjust="spacing" textLength="122.5415" x="365.28" y="475.8997">+posarseEnMano()</text><text fill="#000000" font-family="sans-serif" font-size="14" lengthAdjust="spacing" textLength="87.2897" x="365.28" y="494.9676">+cantarFeliz()</text></g><!--class Cuidador--><g class="entity" data-qualified-name="Cuidador" data-source-line="24" id="ent0007"><rect fill="#F1F1F1" height="67.0679" rx="2.5" ry="2.5" style="stroke:#181818;stroke-width:0.5;" width="137.5795" x="277.76" y="26.73"/><ellipse cx="313.0738" cy="42.73" fill="#ADD1B2" rx="11" ry="11" style="stroke:#181818;stroke-width:1;"/><path d="M312.5425,49.6519 Q310.7925,49.6519 309.6519,48.9175 Q308.5269,48.1675 307.9644,46.8238 Q307.4175,45.4644 307.4175,43.6675 Q307.4175,41.6363 308.0738,40.1831 Q308.73,38.73 310.0113,37.9488 Q311.2925,37.1675 313.1675,37.1675 Q314.0582,37.1675 314.73,37.355 Q315.4019,37.5269 316.0894,37.8706 L315.2769,39.8863 Q314.6519,39.5738 314.105,39.4488 Q313.5738,39.3238 313.0894,39.3238 Q311.9175,39.3238 311.2144,39.855 Q310.5113,40.3863 310.2144,41.3394 Q309.9175,42.2925 309.9175,43.5581 Q309.9175,45.5738 310.6363,46.5425 Q311.355,47.4956 312.9488,47.4956 Q313.5425,47.4956 314.1675,47.3394 Q314.7925,47.1831 315.6207,46.8081 L315.6207,49.0269 Q314.8863,49.3394 314.0894,49.4956 Q313.3082,49.6519 312.5425,49.6519 Z " fill="#000000"/><text fill="#000000" font-family="sans-serif" font-size="14" lengthAdjust="spacing" textLength="60.4378" x="331.588" y="48.162">Cuidador</text><line style="stroke:#181818;stroke-width:0.5;" x1="278.76" x2="414.3395" y1="58.73" y2="58.73"/><line style="stroke:#181818;stroke-width:0.5;" x1="278.76" x2="414.3395" y1="66.73" y2="66.73"/><text fill="#000000" font-family="sans-serif" font-size="14" lengthAdjust="spacing" textLength="125.5795" x="283.76" y="85.6959">+alimentar(Animal)</text></g><path d="M6,6 L6,104.5301 A0,0 0 0 0 6,104.5301 L243.0992,104.5301 A0,0 0 0 0 243.0992,104.5301 L243.0992,59.265 L281.76,80.264 L243.0992,51.265 L243.0992,16 L233.0992,6 L6,6 A0,0 0 0 0 6,6" fill="#FEFFDD" style="stroke:#181818;stroke-width:0.5;"/><path d="M233.0992,6 L233.0992,16 L243.0992,16 L233.0992,6" fill="#FEFFDD" style="stroke:#181818;stroke-width:0.5;"/><text fill="#000000" font-family="sans-serif" font-size="13" lengthAdjust="spacing" textLength="178.1521" x="12" y="24.897">if (animal instanceof Pajaro) {</text><text fill="#000000" font-family="sans-serif" font-size="13" lengthAdjust="spacing" textLength="209.3392" x="18.76" y="42.603">((Pajaro) animal).posarseEnMano()</text><text fill="#000000" font-family="sans-serif" font-size="13" lengthAdjust="spacing" textLength="40.885" x="12" y="60.309">} else {</text><text fill="#000000" font-family="sans-serif" font-size="13" lengthAdjust="spacing" textLength="171.6002" x="18.76" y="78.0151">((Perro) animal).moverCola()</text><text fill="#000000" font-family="sans-serif" font-size="13" lengthAdjust="spacing" textLength="4.94" x="12" y="95.7211">}</text><!--reverse link Animal to Perro--><g class="link" data-entity-1="ent0002" data-entity-2="ent0003" data-link-type="extension" data-source-line="10" id="lnk4"><path d="M316.9945,315.6896 C307.6445,337.3796 303.84,346.21 294.09,368.83" fill="none" id="Animal-backto-Perro" style="stroke:#181818;stroke-width:1;"/><polygon fill="none" points="324.12,299.16,311.4847,313.3144,322.5044,318.0648,324.12,299.16" style="stroke:#181818;stroke-width:1;"/></g><!--reverse link Animal to Pajaro--><g class="link" data-entity-1="ent0002" data-entity-2="ent0005" data-link-type="extension" data-source-line="17" id="lnk6"><path d="M376.4641,315.6555 C384.6441,334.3855 386.81,339.35 395.57,359.42" fill="none" id="Animal-backto-Pajaro" style="stroke:#181818;stroke-width:1;"/><polygon fill="none" points="369.26,299.16,370.9656,318.0568,381.9626,313.2541,369.26,299.16" style="stroke:#181818;stroke-width:1;"/></g><!--link Cuidador to Animal--><g class="link" data-entity-1="ent0007" data-entity-2="ent0002" data-link-type="dependency" data-source-line="28" id="lnk8"><path codeLine="28" d="M346.55,94.13 C346.55,121.61 346.55,155.29 346.55,187.08" fill="none" id="Cuidador-to-Animal" style="stroke:#181818;stroke-width:1;stroke-dasharray:7,7;"/><polygon fill="#181818" points="346.55,193.08,350.55,184.08,346.55,188.08,342.55,184.08,346.55,193.08" style="stroke:#181818;stroke-width:1;"/><text fill="#000000" font-family="sans-serif" font-size="13" lengthAdjust="spacing" textLength="108.1601" x="347.55" y="159.427">alimentar(animal)</text></g><?plantuml-src hP7DQiCm48JlUeezEXHCppu4GcYXXqAXJx2Hrx2jj1iakPG4ltla-hTrUwjkOhwT6QtYEyiP0tgm3cCyf1Jur2PwiYglV26uDmPFCGMqQK3W8EpHmTL0FdTmdUGEl7vGY5Jijf9LtmfR_5kca8NEc27aXK9GeCz4KcyYV-RyPZuvhYQEwl1R1hxXVuQSDVRgWpoZwCAW90oFvFYo3Z-sN6EjOSv3nvvwj1YAVB4pLPRxgM2rGd54ZMWYSDGaq6RshggPp27SmCW3IqmebZ8xB64trYYAwJuwbzj7TK0kqZBG_zJ2hpUTMPDN2tqvSmC0?></g></svg>