<?plantuml 1.2026.2?><svg xmlns="http://www.w3.org/2000/svg" xmlns:xlink="http://www.w3.org/1999/xlink" contentStyleType="text/css" data-diagram-type="CLASS" height="379px" preserveAspectRatio="none" style="width:508px;height:379px;background:#FFFFFF;" version="1.1" viewBox="0 0 508 379" width="508px" zoomAndPan="magnify"><defs/><g><!--class Animal--><g class="entity" data-qualified-name="Animal" data-source-line="3" id="ent0002"><rect fill="#F1F1F1" height="238.6792" rx="2.5" ry="2.5" style="stroke:#181818;stroke-width:0.5;" width="213.8233" x="263.68" y="134"/><ellipse cx="343.4587" cy="150" fill="#ADD1B2" rx="11" ry="11" style="stroke:#181818;stroke-width:1;"/><path d="M342.9275,156.9219 Q341.1775,156.9219 340.0368,156.1875 Q338.9118,155.4375 338.3493,154.0938 Q337.8025,152.7344 337.8025,150.9375 Q337.8025,148.9063 338.4587,147.4531 Q339.115,146 340.3962,145.2188 Q341.6775,144.4375 343.5525,144.4375 Q344.4431,144.4375 345.115,144.625 Q345.7868,144.7969 346.4743,145.1406 L345.6618,147.1563 Q345.0368,146.8438 344.49,146.7188 Q343.9587,146.5938 343.4743,146.5938 Q342.3025,146.5938 341.5993,147.125 Q340.8962,147.6563 340.5993,148.6094 Q340.3025,149.5625 340.3025,150.8281 Q340.3025,152.8438 341.0212,153.8125 Q341.74,154.7656 343.3337,154.7656 Q343.9275,154.7656 344.5525,154.6094 Q345.1775,154.4531 346.0056,154.0781 L346.0056,156.2969 Q345.2712,156.6094 344.4743,156.7656 Q343.6931,156.9219 342.9275,156.9219 Z " fill="#000000"/><text fill="#000000" font-family="sans-serif" font-size="14" lengthAdjust="spacing" textLength="45.7658" x="363.9587" y="155.432">Animal</text><line style="stroke:#181818;stroke-width:0.5;" x1="264.68" x2="476.5033" y1="166" y2="166"/><text fill="#000000" font-family="sans-serif" font-size="14" lengthAdjust="spacing" textLength="105.0556" x="269.68" y="184.9659">-cabeza: Cabeza</text><text fill="#000000" font-family="sans-serif" font-size="14" lengthAdjust="spacing" textLength="106.2876" x="269.68" y="204.0339">-cuerpo: Cuerpo</text><text fill="#000000" font-family="sans-serif" font-size="14" lengthAdjust="spacing" textLength="201.8233" x="269.68" y="223.1018">-extremidades: Extremidades[]</text><text fill="#000000" font-family="sans-serif" font-size="14" lengthAdjust="spacing" textLength="65.0438" x="269.68" y="242.1697">-alas: Alas</text><text fill="#000000" font-family="sans-serif" font-size="14" lengthAdjust="spacing" textLength="67.3397" x="269.68" y="261.2376">-cola: Cola</text><text fill="#000000" font-family="sans-serif" font-size="14" lengthAdjust="spacing" textLength="77.0417" x="269.68" y="280.3055">-tipo: String</text><line style="stroke:#181818;stroke-width:0.5;" x1="264.68" x2="476.5033" y1="288.4075" y2="288.4075"/><text fill="#000000" font-family="sans-serif" font-size="14" lengthAdjust="spacing" textLength="134.7075" x="269.68" y="307.3734">+Animal(tipo: String)</text><text fill="#000000" font-family="sans-serif" font-size="14" lengthAdjust="spacing" textLength="73.3597" x="269.68" y="326.4414">+moverse()</text><text fill="#000000" font-family="sans-serif" font-size="14" lengthAdjust="spacing" textLength="100.5616" x="269.68" y="345.5093">+comunicarse()</text><text fill="#000000" font-family="sans-serif" font-size="14" lengthAdjust="spacing" textLength="58.3658" x="269.68" y="364.5772">+comer()</text></g><!--class Cliente--><g class="entity" data-qualified-name="Cliente" data-source-line="16" id="ent0003"><rect fill="#F1F1F1" height="48" rx="2.5" ry="2.5" style="stroke:#181818;stroke-width:0.5;" width="77.5698" x="331.8" y="7"/><ellipse cx="346.8" cy="23" fill="#ADD1B2" rx="11" ry="11" style="stroke:#181818;stroke-width:1;"/><path d="M346.2688,29.9219 Q344.5188,29.9219 343.3781,29.1875 Q342.2531,28.4375 341.6906,27.0938 Q341.1438,25.7344 341.1438,23.9375 Q341.1438,21.9063 341.8,20.4531 Q342.4563,19 343.7375,18.2188 Q345.0188,17.4375 346.8938,17.4375 Q347.7844,17.4375 348.4563,17.625 Q349.1281,17.7969 349.8156,18.1406 L349.0031,20.1563 Q348.3781,19.8438 347.8313,19.7188 Q347.3,19.5938 346.8156,19.5938 Q345.6438,19.5938 344.9406,20.125 Q344.2375,20.6563 343.9406,21.6094 Q343.6438,22.5625 343.6438,23.8281 Q343.6438,25.8438 344.3625,26.8125 Q345.0813,27.7656 346.675,27.7656 Q347.2688,27.7656 347.8938,27.6094 Q348.5188,27.4531 349.3469,27.0781 L349.3469,29.2969 Q348.6125,29.6094 347.8156,29.7656 Q347.0344,29.9219 346.2688,29.9219 Z " fill="#000000"/><text fill="#000000" font-family="sans-serif" font-size="14" lengthAdjust="spacing" textLength="45.5698" x="360.8" y="28.432">Cliente</text><line style="stroke:#181818;stroke-width:0.5;" x1="332.8" x2="408.3698" y1="39" y2="39"/><line style="stroke:#181818;stroke-width:0.5;" x1="332.8" x2="408.3698" y1="47" y2="47"/></g><path d="M6,225.63 L6,271.042 A0,0 0 0 0 6,271.042 L229.1762,271.042 A0,0 0 0 0 229.1762,271.042 L229.1762,252.336 L267.68,321.0094 L229.1762,244.336 L229.1762,235.63 L219.1762,225.63 L6,225.63 A0,0 0 0 0 6,225.63" fill="#FEFFDD" style="stroke:#181818;stroke-width:0.5;"/><path d="M219.1762,225.63 L219.1762,235.63 L229.1762,235.63 L219.1762,225.63" fill="#FEFFDD" style="stroke:#181818;stroke-width:0.5;"/><text fill="#000000" font-family="sans-serif" font-size="13" lengthAdjust="spacing" textLength="169.3122" x="12" y="244.527">if (tipo.equals("Perro")) { ... }</text><text fill="#000000" font-family="sans-serif" font-size="13" lengthAdjust="spacing" textLength="202.1762" x="12" y="262.233">else if (tipo.equals("P&#225;jaro")) { ... }</text><!--link Cliente to Animal--><g class="link" data-entity-1="ent0003" data-entity-2="ent0002" data-link-type="dependency" data-source-line="19" id="lnk4"><path codeLine="19" d="M370.59,55.16 C370.59,74.5 370.59,97.65 370.59,127.65" fill="none" id="Cliente-to-Animal" style="stroke:#181818;stroke-width:1;stroke-dasharray:7,7;"/><polygon fill="#181818" points="370.59,133.65,374.59,124.65,370.59,128.65,366.59,124.65,370.59,133.65" style="stroke:#181818;stroke-width:1;"/><text fill="#000000" font-family="sans-serif" font-size="13" lengthAdjust="spacing" textLength="128.9081" x="371.59" y="99.897">new Animal("P&#225;jaro")</text></g><?plantuml-src RK_BJWCn3BpdAwoUkaAiUiu1QLLnu8RK8-BWPht8a4T9iWMrwiVmBVmOtYWH5I87HvuPUyRfZVq18pem5bCQSewydpCzcE1tV2BOA5KO63mxj71M8EyM3ExfX1gsvM_WJF4G12n_1UapHt8yuaX9m_rLz_HS9IWE6WQfRL6moswf5SYyxDr9ElzIe9iQQ7tDT9LouKWnqRhr9hZPiy4_64NfBkt0hMNocUH2WLhJztVjSWsUFfhhwl7xwnLZM7LA-I12IrE6C5LUwnf1p7Y24hAdznbjab6Aos07PrdVmqKqP1Fz8smUlrBo8on-wWS0?></g></svg>