<?plantuml 1.2026.2?><svg xmlns="http://www.w3.org/2000/svg" xmlns:xlink="http://www.w3.org/1999/xlink" contentStyleType="text/css" data-diagram-type="CLASS" height="526px" preserveAspectRatio="none" style="width:321px;height:526px;background:#FFFFFF;" version="1.1" viewBox="0 0 321 526" width="321px" zoomAndPan="magnify"><defs/><g><!--class Animal--><g class="entity" data-qualified-name="Animal" data-source-line="3" id="ent0002"><rect fill="#F1F1F1" height="181.4754" rx="2.5" ry="2.5" style="stroke:#181818;stroke-width:0.5;" width="118.2876" x="112.6" y="134"/><ellipse cx="146.8995" cy="150" fill="#A9DCDF" rx="11" ry="11" style="stroke:#181818;stroke-width:1;"/><path d="M142.0714,155.75 L145.4151,143.5625 L148.5557,143.5625 L151.9307,155.75 L149.462,155.75 L148.7276,152.7344 L145.212,152.7344 L144.462,155.75 L142.0714,155.75 Z M146.4776,147.7031 L145.7276,150.7031 L148.2432,150.7031 L147.5245,147.7031 Q147.3839,147.125 147.2589,146.5781 Q147.1339,146.0156 146.9932,145.4375 Q146.8839,146.0156 146.7432,146.5781 Q146.6026,147.125 146.4776,147.7031 Z " fill="#000000"/><text fill="#000000" font-family="sans-serif" font-size="14" font-style="italic" lengthAdjust="spacing" textLength="43.3998" x="165.1883" y="155.432">Animal</text><line style="stroke:#181818;stroke-width:0.5;" x1="113.6" x2="229.8876" y1="166" y2="166"/><text fill="#000000" font-family="sans-serif" font-size="14" lengthAdjust="spacing" textLength="105.0556" x="118.6" y="184.9659">-cabeza: Cabeza</text><text fill="#000000" font-family="sans-serif" font-size="14" lengthAdjust="spacing" textLength="106.2876" x="118.6" y="204.0339">-cuerpo: Cuerpo</text><line style="stroke:#181818;stroke-width:0.5;" x1="113.6" x2="229.8876" y1="212.1358" y2="212.1358"/><text fill="#000000" font-family="sans-serif" font-size="14" lengthAdjust="spacing" textLength="68.4317" x="118.6" y="231.1018">+respirar()</text><text fill="#000000" font-family="sans-serif" font-size="14" lengthAdjust="spacing" textLength="61.7538" x="118.6" y="250.1697">+dormir()</text><text fill="#000000" font-family="sans-serif" font-size="14" font-style="italic" lengthAdjust="spacing" textLength="68.3897" x="118.6" y="269.2376">+moverse()</text><text fill="#000000" font-family="sans-serif" font-size="14" font-style="italic" lengthAdjust="spacing" textLength="95.3256" x="118.6" y="288.3055">+comunicarse()</text><text fill="#000000" font-family="sans-serif" font-size="14" font-style="italic" lengthAdjust="spacing" textLength="55.1598" x="118.6" y="307.3734">+comer()</text></g><!--class Perro--><g class="entity" data-qualified-name="Perro" data-source-line="13" id="ent0003"><rect fill="#F1F1F1" height="143.3396" rx="2.5" ry="2.5" style="stroke:#181818;stroke-width:0.5;" width="159.4895" x="7" y="376.48"/><ellipse cx="64.2948" cy="392.48" fill="#ADD1B2" rx="11" ry="11" style="stroke:#181818;stroke-width:1;"/><path d="M63.7635,399.4019 Q62.0135,399.4019 60.8729,398.6675 Q59.7479,397.9175 59.1854,396.5738 Q58.6385,395.2144 58.6385,393.4175 Q58.6385,391.3863 59.2948,389.9331 Q59.951,388.48 61.2323,387.6988 Q62.5135,386.9175 64.3885,386.9175 Q65.2792,386.9175 65.951,387.105 Q66.6229,387.2769 67.3104,387.6206 L66.4979,389.6363 Q65.8729,389.3238 65.326,389.1988 Q64.7948,389.0738 64.3104,389.0738 Q63.1385,389.0738 62.4354,389.605 Q61.7323,390.1363 61.4354,391.0894 Q61.1385,392.0425 61.1385,393.3081 Q61.1385,395.3238 61.8573,396.2925 Q62.576,397.2456 64.1698,397.2456 Q64.7635,397.2456 65.3885,397.0894 Q66.0135,396.9331 66.8417,396.5581 L66.8417,398.7769 Q66.1073,399.0894 65.3104,399.2456 Q64.5292,399.4019 63.7635,399.4019 Z " fill="#000000"/><text fill="#000000" font-family="sans-serif" font-size="14" lengthAdjust="spacing" textLength="36.3999" x="84.7948" y="397.912">Perro</text><line style="stroke:#181818;stroke-width:0.5;" x1="8" x2="165.4895" y1="408.48" y2="408.48"/><text fill="#000000" font-family="sans-serif" font-size="14" lengthAdjust="spacing" textLength="147.4895" x="13" y="427.4459">-patas: Extremidades[]</text><text fill="#000000" font-family="sans-serif" font-size="14" lengthAdjust="spacing" textLength="67.3397" x="13" y="446.5139">-cola: Cola</text><line style="stroke:#181818;stroke-width:0.5;" x1="8" x2="165.4895" y1="454.6158" y2="454.6158"/><text fill="#000000" font-family="sans-serif" font-size="14" lengthAdjust="spacing" textLength="73.3597" x="13" y="473.5818">+moverse()</text><text fill="#000000" font-family="sans-serif" font-size="14" lengthAdjust="spacing" textLength="100.5616" x="13" y="492.6497">+comunicarse()</text><text fill="#000000" font-family="sans-serif" font-size="14" lengthAdjust="spacing" textLength="58.3658" x="13" y="511.7176">+comer()</text></g><!--class Pajaro--><g class="entity" data-qualified-name="Pajaro" data-source-line="21" id="ent0005"><rect fill="#F1F1F1" height="143.3396" rx="2.5" ry="2.5" style="stroke:#181818;stroke-width:0.5;" width="112.5616" x="201.46" y="376.48"/><ellipse cx="233.7939" cy="392.48" fill="#ADD1B2" rx="11" ry="11" style="stroke:#181818;stroke-width:1;"/><path d="M233.2626,399.4019 Q231.5126,399.4019 230.372,398.6675 Q229.247,397.9175 228.6845,396.5738 Q228.1376,395.2144 228.1376,393.4175 Q228.1376,391.3863 228.7939,389.9331 Q229.4501,388.48 230.7314,387.6988 Q232.0126,386.9175 233.8876,386.9175 Q234.7783,386.9175 235.4501,387.105 Q236.122,387.2769 236.8095,387.6206 L235.997,389.6363 Q235.372,389.3238 234.8251,389.1988 Q234.2939,389.0738 233.8095,389.0738 Q232.6376,389.0738 231.9345,389.605 Q231.2314,390.1363 230.9345,391.0894 Q230.6376,392.0425 230.6376,393.3081 Q230.6376,395.3238 231.3564,396.2925 Q232.0751,397.2456 233.6689,397.2456 Q234.2626,397.2456 234.8876,397.0894 Q235.5126,396.9331 236.3408,396.5581 L236.3408,398.7769 Q235.6064,399.0894 234.8095,399.2456 Q234.0283,399.4019 233.2626,399.4019 Z " fill="#000000"/><text fill="#000000" font-family="sans-serif" font-size="14" lengthAdjust="spacing" textLength="42.0419" x="251.6459" y="397.912">Pajaro</text><line style="stroke:#181818;stroke-width:0.5;" x1="202.46" x2="313.0216" y1="408.48" y2="408.48"/><text fill="#000000" font-family="sans-serif" font-size="14" lengthAdjust="spacing" textLength="65.0438" x="207.46" y="427.4459">-alas: Alas</text><text fill="#000000" font-family="sans-serif" font-size="14" lengthAdjust="spacing" textLength="67.3397" x="207.46" y="446.5139">-cola: Cola</text><line style="stroke:#181818;stroke-width:0.5;" x1="202.46" x2="313.0216" y1="454.6158" y2="454.6158"/><text fill="#000000" font-family="sans-serif" font-size="14" lengthAdjust="spacing" textLength="73.3597" x="207.46" y="473.5818">+moverse()</text><text fill="#000000" font-family="sans-serif" font-size="14" lengthAdjust="spacing" textLength="100.5616" x="207.46" y="492.6497">+comunicarse()</text><text fill="#000000" font-family="sans-serif" font-size="14" lengthAdjust="spacing" textLength="58.3658" x="207.46" y="511.7176">+comer()</text></g><!--class Cliente--><g class="entity" data-qualified-name="Cliente" data-source-line="29" id="ent0007"><rect fill="#F1F1F1" height="48" rx="2.5" ry="2.5" style="stroke:#181818;stroke-width:0.5;" width="77.5698" x="132.96" y="7"/><ellipse cx="147.96" cy="23" fill="#ADD1B2" rx="11" ry="11" style="stroke:#181818;stroke-width:1;"/><path d="M147.4287,29.9219 Q145.6787,29.9219 144.5381,29.1875 Q143.4131,28.4375 142.8506,27.0938 Q142.3037,25.7344 142.3037,23.9375 Q142.3037,21.9063 142.96,20.4531 Q143.6162,19 144.8975,18.2188 Q146.1787,17.4375 148.0537,17.4375 Q148.9444,17.4375 149.6162,17.625 Q150.2881,17.7969 150.9756,18.1406 L150.1631,20.1563 Q149.5381,19.8438 148.9912,19.7188 Q148.46,19.5938 147.9756,19.5938 Q146.8037,19.5938 146.1006,20.125 Q145.3975,20.6563 145.1006,21.6094 Q144.8037,22.5625 144.8037,23.8281 Q144.8037,25.8438 145.5225,26.8125 Q146.2412,27.7656 147.835,27.7656 Q148.4287,27.7656 149.0537,27.6094 Q149.6787,27.4531 150.5069,27.0781 L150.5069,29.2969 Q149.7725,29.6094 148.9756,29.7656 Q148.1944,29.9219 147.4287,29.9219 Z " fill="#000000"/><text fill="#000000" font-family="sans-serif" font-size="14" lengthAdjust="spacing" textLength="45.5698" x="161.96" y="28.432">Cliente</text><line style="stroke:#181818;stroke-width:0.5;" x1="133.96" x2="209.5298" y1="39" y2="39"/><line style="stroke:#181818;stroke-width:0.5;" x1="133.96" x2="209.5298" y1="47" y2="47"/></g><!--reverse link Animal to Perro--><g class="link" data-entity-1="ent0002" data-entity-2="ent0003" data-link-type="extension" data-source-line="14" id="lnk4"><path d="M130.719,332.6043 C122.999,352.7143 121.37,356.97 113.99,376.18" fill="none" id="Animal-backto-Perro" style="stroke:#181818;stroke-width:1;"/><polygon fill="none" points="137.17,315.8,125.1176,330.454,136.3205,334.7546,137.17,315.8" style="stroke:#181818;stroke-width:1;"/></g><!--reverse link Animal to Pajaro--><g class="link" data-entity-1="ent0002" data-entity-2="ent0005" data-link-type="extension" data-source-line="22" id="lnk6"><path d="M213.2436,332.5762 C221.0636,352.6862 222.72,356.97 230.18,376.18" fill="none" id="Animal-backto-Pajaro" style="stroke:#181818;stroke-width:1;"/><polygon fill="none" points="206.72,315.8,207.6515,334.7508,218.8357,330.4017,206.72,315.8" style="stroke:#181818;stroke-width:1;"/></g><!--link Cliente to Animal--><g class="link" data-entity-1="ent0007" data-entity-2="ent0002" data-link-type="dependency" data-source-line="32" id="lnk8"><path codeLine="32" d="M171.74,55.13 C171.74,74.85 171.74,98.54 171.74,127.53" fill="none" id="Cliente-to-Animal" style="stroke:#181818;stroke-width:1;stroke-dasharray:7,7;"/><polygon fill="#181818" points="171.74,133.53,175.74,124.53,171.74,128.53,167.74,124.53,171.74,133.53" style="stroke:#181818;stroke-width:1;"/><text fill="#000000" font-family="sans-serif" font-size="13" lengthAdjust="spacing" textLength="132.3141" x="172.74" y="99.897">zoologico.getAnimal()</text></g><?plantuml-src hO-nQiD038PtFuN6XbBJsKF1X0xT2XbB1_aiWjgxaz799JZatNEsSnIQPAi62VqI-dwbRuu3AWPm7bDgpPIxqUZDITpnHF1SLTWbKtIsha0REQ27OmKvdi1XHnCsi5rg4KVIGRAur4Ly1AKqiA8-R2v2BnhujpqMq0c2_90ckZLo4iR83k-FQJvvgghLxZkf2j31AFPNvWSqJ0sy7amfS8yzfO_FyeFu-QsSBvI_fcuvkSRZ5zxdev_nRSx_2jrwfcYKCLagJLs_57m3auYNFJkfzsIhcW-S0G00?></g></svg>