<svg xmlns="http://www.w3.org/2000/svg" xmlns:xlink="http://www.w3.org/1999/xlink" contentStyleType="text/css" data-diagram-type="CLASS" height="386px" preserveAspectRatio="none" style="width:311px;height:386px;background:#FFFFFF;" version="1.1" viewBox="0 0 311 386" width="311px" zoomAndPan="magnify"><defs/><g><!--class Documento--><g class="entity" data-entity="Documento" data-source-line="3" data-uid="ent0002" id="entity_Documento"><rect fill="#F1F1F1" height="48" rx="2.5" ry="2.5" style="stroke:#181818;stroke-width:0.5;" width="113.0947" x="91.5" y="223"/><ellipse cx="106.5" cy="239" fill="#ADD1B2" rx="11" ry="11" style="stroke:#181818;stroke-width:1;"/><path d="M109.4688,244.6406 Q108.8906,244.9375 108.25,245.0781 Q107.6094,245.2344 106.9063,245.2344 Q104.4063,245.2344 103.0781,243.5938 Q101.7656,241.9375 101.7656,238.8125 Q101.7656,235.6875 103.0781,234.0313 Q104.4063,232.375 106.9063,232.375 Q107.6094,232.375 108.25,232.5313 Q108.9063,232.6875 109.4688,232.9844 L109.4688,235.7031 Q108.8438,235.125 108.25,234.8594 Q107.6563,234.5781 107.0313,234.5781 Q105.6875,234.5781 105,235.6563 Q104.3125,236.7188 104.3125,238.8125 Q104.3125,240.9063 105,241.9844 Q105.6875,243.0469 107.0313,243.0469 Q107.6563,243.0469 108.25,242.7813 Q108.8438,242.5 109.4688,241.9219 L109.4688,244.6406 Z " fill="#000000"/><text fill="#000000" font-family="sans-serif" font-size="14" lengthAdjust="spacing" textLength="81.0947" x="120.5" y="243.8467">Documento</text><line style="stroke:#181818;stroke-width:0.5;" x1="92.5" x2="203.5947" y1="255" y2="255"/><line style="stroke:#181818;stroke-width:0.5;" x1="92.5" x2="203.5947" y1="263" y2="263"/></g><!--class Contenido--><g class="entity" data-entity="Contenido" data-source-line="4" data-uid="ent0003" id="entity_Contenido"><rect fill="#F1F1F1" height="48" rx="2.5" ry="2.5" style="stroke:#181818;stroke-width:0.5;" width="103.5313" x="96" y="331"/><ellipse cx="111" cy="347" fill="#ADD1B2" rx="11" ry="11" style="stroke:#181818;stroke-width:1;"/><path d="M113.9688,352.6406 Q113.3906,352.9375 112.75,353.0781 Q112.1094,353.2344 111.4063,353.2344 Q108.9063,353.2344 107.5781,351.5938 Q106.2656,349.9375 106.2656,346.8125 Q106.2656,343.6875 107.5781,342.0313 Q108.9063,340.375 111.4063,340.375 Q112.1094,340.375 112.75,340.5313 Q113.4063,340.6875 113.9688,340.9844 L113.9688,343.7031 Q113.3438,343.125 112.75,342.8594 Q112.1563,342.5781 111.5313,342.5781 Q110.1875,342.5781 109.5,343.6563 Q108.8125,344.7188 108.8125,346.8125 Q108.8125,348.9063 109.5,349.9844 Q110.1875,351.0469 111.5313,351.0469 Q112.1563,351.0469 112.75,350.7813 Q113.3438,350.5 113.9688,349.9219 L113.9688,352.6406 Z " fill="#000000"/><text fill="#000000" font-family="sans-serif" font-size="14" lengthAdjust="spacing" textLength="71.5313" x="125" y="351.8467">Contenido</text><line style="stroke:#181818;stroke-width:0.5;" x1="97" x2="198.5313" y1="363" y2="363"/><line style="stroke:#181818;stroke-width:0.5;" x1="97" x2="198.5313" y1="371" y2="371"/></g><!--class Carpeta--><g class="entity" data-entity="Carpeta" data-source-line="5" data-uid="ent0004" id="entity_Carpeta"><rect fill="#F1F1F1" height="48" rx="2.5" ry="2.5" style="stroke:#181818;stroke-width:0.5;" width="87.6787" x="7" y="115"/><ellipse cx="22" cy="131" fill="#ADD1B2" rx="11" ry="11" style="stroke:#181818;stroke-width:1;"/><path d="M24.9688,136.6406 Q24.3906,136.9375 23.75,137.0781 Q23.1094,137.2344 22.4063,137.2344 Q19.9063,137.2344 18.5781,135.5938 Q17.2656,133.9375 17.2656,130.8125 Q17.2656,127.6875 18.5781,126.0313 Q19.9063,124.375 22.4063,124.375 Q23.1094,124.375 23.75,124.5313 Q24.4063,124.6875 24.9688,124.9844 L24.9688,127.7031 Q24.3438,127.125 23.75,126.8594 Q23.1563,126.5781 22.5313,126.5781 Q21.1875,126.5781 20.5,127.6563 Q19.8125,128.7188 19.8125,130.8125 Q19.8125,132.9063 20.5,133.9844 Q21.1875,135.0469 22.5313,135.0469 Q23.1563,135.0469 23.75,134.7813 Q24.3438,134.5 24.9688,133.9219 L24.9688,136.6406 Z " fill="#000000"/><text fill="#000000" font-family="sans-serif" font-size="14" lengthAdjust="spacing" textLength="55.6787" x="36" y="135.8467">Carpeta</text><line style="stroke:#181818;stroke-width:0.5;" x1="8" x2="93.6787" y1="147" y2="147"/><line style="stroke:#181818;stroke-width:0.5;" x1="8" x2="93.6787" y1="155" y2="155"/></g><!--class Usuario--><g class="entity" data-entity="Usuario" data-source-line="6" data-uid="ent0005" id="entity_Usuario"><rect fill="#F1F1F1" height="48" rx="2.5" ry="2.5" style="stroke:#181818;stroke-width:0.5;" width="85.2041" x="157.5" y="7"/><ellipse cx="172.5" cy="23" fill="#ADD1B2" rx="11" ry="11" style="stroke:#181818;stroke-width:1;"/><path d="M175.4688,28.6406 Q174.8906,28.9375 174.25,29.0781 Q173.6094,29.2344 172.9063,29.2344 Q170.4063,29.2344 169.0781,27.5938 Q167.7656,25.9375 167.7656,22.8125 Q167.7656,19.6875 169.0781,18.0313 Q170.4063,16.375 172.9063,16.375 Q173.6094,16.375 174.25,16.5313 Q174.9063,16.6875 175.4688,16.9844 L175.4688,19.7031 Q174.8438,19.125 174.25,18.8594 Q173.6563,18.5781 173.0313,18.5781 Q171.6875,18.5781 171,19.6563 Q170.3125,20.7188 170.3125,22.8125 Q170.3125,24.9063 171,25.9844 Q171.6875,27.0469 173.0313,27.0469 Q173.6563,27.0469 174.25,26.7813 Q174.8438,26.5 175.4688,25.9219 L175.4688,28.6406 Z " fill="#000000"/><text fill="#000000" font-family="sans-serif" font-size="14" lengthAdjust="spacing" textLength="53.2041" x="186.5" y="27.8467">Usuario</text><line style="stroke:#181818;stroke-width:0.5;" x1="158.5" x2="241.7041" y1="39" y2="39"/><line style="stroke:#181818;stroke-width:0.5;" x1="158.5" x2="241.7041" y1="47" y2="47"/></g><!--class Impresora--><g class="entity" data-entity="Impresora" data-source-line="7" data-uid="ent0006" id="entity_Impresora"><rect fill="#F1F1F1" height="48" rx="2.5" ry="2.5" style="stroke:#181818;stroke-width:0.5;" width="103.2168" x="201.5" y="115"/><ellipse cx="216.5" cy="131" fill="#ADD1B2" rx="11" ry="11" style="stroke:#181818;stroke-width:1;"/><path d="M219.4688,136.6406 Q218.8906,136.9375 218.25,137.0781 Q217.6094,137.2344 216.9063,137.2344 Q214.4063,137.2344 213.0781,135.5938 Q211.7656,133.9375 211.7656,130.8125 Q211.7656,127.6875 213.0781,126.0313 Q214.4063,124.375 216.9063,124.375 Q217.6094,124.375 218.25,124.5313 Q218.9063,124.6875 219.4688,124.9844 L219.4688,127.7031 Q218.8438,127.125 218.25,126.8594 Q217.6563,126.5781 217.0313,126.5781 Q215.6875,126.5781 215,127.6563 Q214.3125,128.7188 214.3125,130.8125 Q214.3125,132.9063 215,133.9844 Q215.6875,135.0469 217.0313,135.0469 Q217.6563,135.0469 218.25,134.7813 Q218.8438,134.5 219.4688,133.9219 L219.4688,136.6406 Z " fill="#000000"/><text fill="#000000" font-family="sans-serif" font-size="14" lengthAdjust="spacing" textLength="71.2168" x="230.5" y="135.8467">Impresora</text><line style="stroke:#181818;stroke-width:0.5;" x1="202.5" x2="303.7168" y1="147" y2="147"/><line style="stroke:#181818;stroke-width:0.5;" x1="202.5" x2="303.7168" y1="155" y2="155"/></g><!--reverse link Documento to Contenido--><g class="link" data-entity-1="Documento" data-entity-2="Contenido" data-source-line="9" data-uid="lnk7" id="link_Documento_Contenido"><path codeLine="9" d="M148,283 C148,300.66 148,312.94 148,330.68" fill="none" id="Documento-backto-Contenido" style="stroke:#181818;stroke-width:1;"/><polygon fill="#181818" points="148,271,144,277,148,283,152,277,148,271" style="stroke:#181818;stroke-width:1;"/></g><!--reverse link Carpeta to Documento--><g class="link" data-entity-1="Carpeta" data-entity-2="Documento" data-source-line="10" data-uid="lnk8" id="link_Carpeta_Documento"><path codeLine="10" d="M80.151,171.8529 C96.311,189.5129 110.43,204.94 126.66,222.68" fill="none" id="Carpeta-backto-Documento" style="stroke:#181818;stroke-width:1;"/><polygon fill="none" points="72.05,163,73.1495,170.1268,80.151,171.8529,79.0515,164.7261,72.05,163" style="stroke:#181818;stroke-width:1;"/></g><!--link Usuario to Documento--><g class="link" data-entity-1="Usuario" data-entity-2="Documento" data-source-line="11" data-uid="lnk9" id="link_Usuario_Documento"><path codeLine="11" d="M194.34,55.31 C184.33,96.47 165.0658,175.7494 155.0758,216.8894" fill="none" id="Usuario-to-Documento" style="stroke:#181818;stroke-width:1;"/><polygon fill="#181818" points="153.66,222.72,159.6708,214.918,154.8399,217.8612,151.8967,213.0303,153.66,222.72" style="stroke:#181818;stroke-width:1;"/></g><!--link Impresora to Documento--><g class="link" data-entity-1="Impresora" data-entity-2="Documento" data-source-line="12" data-uid="lnk10" id="link_Impresora_Documento"><path codeLine="12" d="M230.22,163 C212.73,180.66 192.8922,200.677 175.3222,218.417" fill="none" id="Impresora-to-Documento" style="stroke:#181818;stroke-width:1;stroke-dasharray:7,7;"/><polygon fill="#181818" points="171.1,222.68,180.2753,219.1003,174.6185,219.1275,174.5912,213.4707,171.1,222.68" style="stroke:#181818;stroke-width:1;"/></g><!--link Usuario to Impresora--><g class="link" data-entity-1="Usuario" data-entity-2="Impresora" data-source-line="13" data-uid="lnk11" id="link_Usuario_Impresora"><path codeLine="13" d="M211.5,55 C220.33,72.66 229.7867,91.5734 238.6567,109.3134" fill="none" id="Usuario-to-Impresora" style="stroke:#181818;stroke-width:1;stroke-dasharray:7,7;"/><polygon fill="#181818" points="241.34,114.68,240.8928,104.8413,239.1039,110.2079,233.7374,108.419,241.34,114.68" style="stroke:#181818;stroke-width:1;"/></g><!--SRC=[ROmn3W8n30Hxly8rKawyu2G4pTM81vZW8eB4aUqql9u3XHm5vUxEZjrJgQIKCJx8xE2kwTgSboZbd9wCUu3FWYU9BNDnwVaenRcasyYabPrwkbWZJTzjoLNPH0bWQ70NmYP1w7-KjTuWw28COVwjXn6dQVx7l-i1lG00]--></g></svg>