<?xml version="1.0" encoding="us-ascii" standalone="no"?><svg xmlns="http://www.w3.org/2000/svg" xmlns:xlink="http://www.w3.org/1999/xlink" contentStyleType="text/css" height="641px" preserveAspectRatio="none" style="width:1716px;height:641px;background:#FFFFFF;" version="1.1" viewBox="0 0 1716 641" width="1716px" zoomAndPan="magnify"><defs/><g><!--class Pedido--><g id="elem_Pedido"><rect codeLine="3" fill="#F1F1F1" height="200.5433" id="Pedido" rx="2.5" ry="2.5" style="stroke:#181818;stroke-width:0.5;" width="331" x="871.5" y="210.27"/><ellipse cx="1011.25" cy="226.27" fill="#A9DCDF" rx="11" ry="11" style="stroke:#181818;stroke-width:1.0;"/><path d="M1006.4219,232.02 L1009.7656,219.8325 L1012.9063,219.8325 L1016.2813,232.02 L1013.8125,232.02 L1013.0781,229.0044 L1009.5625,229.0044 L1008.8125,232.02 L1006.4219,232.02 Z M1010.8281,223.9731 L1010.0781,226.9731 L1012.5938,226.9731 L1011.875,223.9731 Q1011.7344,223.395 1011.6094,222.8481 Q1011.4844,222.2856 1011.3438,221.7075 Q1011.2344,222.2856 1011.0938,222.8481 Q1010.9531,223.395 1010.8281,223.9731 Z " fill="#000000"/><text fill="#000000" font-family="sans-serif" font-size="14" font-style="italic" lengthAdjust="spacing" textLength="43" x="1031.75" y="231.702">Pedido</text><line style="stroke:#181818;stroke-width:0.5;" x1="872.5" x2="1201.5" y1="242.27" y2="242.27"/><text fill="#000000" font-family="sans-serif" font-size="14" lengthAdjust="spacing" textLength="67" x="877.5" y="261.2359">-id: String</text><text fill="#000000" font-family="sans-serif" font-size="14" lengthAdjust="spacing" textLength="99" x="877.5" y="280.3039">-cliente: String</text><text fill="#000000" font-family="sans-serif" font-size="14" lengthAdjust="spacing" textLength="90" x="877.5" y="299.3718">-total: double</text><line style="stroke:#181818;stroke-width:0.5;" x1="872.5" x2="1201.5" y1="307.4738" y2="307.4738"/><text fill="#000000" font-family="sans-serif" font-size="14" lengthAdjust="spacing" textLength="319" x="877.5" y="326.4397">+Pedido(id: String, cliente: String, total: double)</text><text fill="#000000" font-family="sans-serif" font-size="14" lengthAdjust="spacing" textLength="101" x="877.5" y="345.5076">+getId(): String</text><text fill="#000000" font-family="sans-serif" font-size="14" lengthAdjust="spacing" textLength="134" x="877.5" y="364.5755">+getCliente(): String</text><text fill="#000000" font-family="sans-serif" font-size="14" lengthAdjust="spacing" textLength="126" x="877.5" y="383.6434">+getTotal(): double</text><text fill="#000000" font-family="sans-serif" font-size="14" font-style="italic" lengthAdjust="spacing" textLength="109" x="877.5" y="402.7114">+getTipo(): String</text></g><!--class PedidoFisico--><g id="elem_PedidoFisico"><rect codeLine="14" fill="#F1F1F1" height="162.4075" id="PedidoFisico" rx="2.5" ry="2.5" style="stroke:#181818;stroke-width:0.5;" width="618" x="7" y="471.81"/><ellipse cx="270.25" cy="487.81" fill="#ADD1B2" rx="11" ry="11" style="stroke:#181818;stroke-width:1.0;"/><path d="M269.7188,494.7319 Q267.9688,494.7319 266.8281,493.9975 Q265.7031,493.2475 265.1406,491.9038 Q264.5938,490.5444 264.5938,488.7475 Q264.5938,486.7163 265.25,485.2631 Q265.9063,483.81 267.1875,483.0288 Q268.4688,482.2475 270.3438,482.2475 Q271.2344,482.2475 271.9063,482.435 Q272.5781,482.6069 273.2656,482.9506 L272.4531,484.9663 Q271.8281,484.6538 271.2813,484.5288 Q270.75,484.4038 270.2656,484.4038 Q269.0938,484.4038 268.3906,484.935 Q267.6875,485.4663 267.3906,486.4194 Q267.0938,487.3725 267.0938,488.6381 Q267.0938,490.6538 267.8125,491.6225 Q268.5313,492.5756 270.125,492.5756 Q270.7188,492.5756 271.3438,492.4194 Q271.9688,492.2631 272.7969,491.8881 L272.7969,494.1069 Q272.0625,494.4194 271.2656,494.5756 Q270.4844,494.7319 269.7188,494.7319 Z " fill="#000000"/><text fill="#000000" font-family="sans-serif" font-size="14" lengthAdjust="spacing" textLength="83" x="290.75" y="493.242">PedidoFisico</text><line style="stroke:#181818;stroke-width:0.5;" x1="8" x2="624" y1="503.81" y2="503.81"/><text fill="#000000" font-family="sans-serif" font-size="14" lengthAdjust="spacing" textLength="152" x="13" y="522.7759">-direccionEnvio: String</text><text fill="#000000" font-family="sans-serif" font-size="14" lengthAdjust="spacing" textLength="92" x="13" y="541.8439">-peso: double</text><line style="stroke:#181818;stroke-width:0.5;" x1="8" x2="624" y1="549.9458" y2="549.9458"/><text fill="#000000" font-family="sans-serif" font-size="14" lengthAdjust="spacing" textLength="606" x="13" y="568.9118">+PedidoFisico(id: String, cliente: String, total: double, direccionEnvio: String, peso: double)</text><text fill="#000000" font-family="sans-serif" font-size="14" lengthAdjust="spacing" textLength="186" x="13" y="587.9797">+getDireccionEnvio(): String</text><text fill="#000000" font-family="sans-serif" font-size="14" lengthAdjust="spacing" textLength="124" x="13" y="607.0476">+getPeso(): double</text><text fill="#000000" font-family="sans-serif" font-size="14" lengthAdjust="spacing" textLength="116" x="13" y="626.1155">+getTipo(): String</text></g><!--class PedidoDigital--><g id="elem_PedidoDigital"><rect codeLine="23" fill="#F1F1F1" height="124.2717" id="PedidoDigital" rx="2.5" ry="2.5" style="stroke:#181818;stroke-width:0.5;" width="469" x="1240.5" y="490.88"/><ellipse cx="1425.75" cy="506.88" fill="#ADD1B2" rx="11" ry="11" style="stroke:#181818;stroke-width:1.0;"/><path d="M1425.2188,513.8019 Q1423.4688,513.8019 1422.3281,513.0675 Q1421.2031,512.3175 1420.6406,510.9738 Q1420.0938,509.6144 1420.0938,507.8175 Q1420.0938,505.7863 1420.75,504.3331 Q1421.4063,502.88 1422.6875,502.0988 Q1423.9688,501.3175 1425.8438,501.3175 Q1426.7344,501.3175 1427.4063,501.505 Q1428.0781,501.6769 1428.7656,502.0206 L1427.9531,504.0363 Q1427.3281,503.7238 1426.7813,503.5988 Q1426.25,503.4738 1425.7656,503.4738 Q1424.5938,503.4738 1423.8906,504.005 Q1423.1875,504.5363 1422.8906,505.4894 Q1422.5938,506.4425 1422.5938,507.7081 Q1422.5938,509.7238 1423.3125,510.6925 Q1424.0313,511.6456 1425.625,511.6456 Q1426.2188,511.6456 1426.8438,511.4894 Q1427.4688,511.3331 1428.2969,510.9581 L1428.2969,513.1769 Q1427.5625,513.4894 1426.7656,513.6456 Q1425.9844,513.8019 1425.2188,513.8019 Z " fill="#000000"/><text fill="#000000" font-family="sans-serif" font-size="14" lengthAdjust="spacing" textLength="90" x="1446.25" y="512.312">PedidoDigital</text><line style="stroke:#181818;stroke-width:0.5;" x1="1241.5" x2="1708.5" y1="522.88" y2="522.88"/><text fill="#000000" font-family="sans-serif" font-size="14" lengthAdjust="spacing" textLength="91" x="1246.5" y="541.8459">-email: String</text><line style="stroke:#181818;stroke-width:0.5;" x1="1241.5" x2="1708.5" y1="549.9479" y2="549.9479"/><text fill="#000000" font-family="sans-serif" font-size="14" lengthAdjust="spacing" textLength="457" x="1246.5" y="568.9139">+PedidoDigital(id: String, cliente: String, total: double, email: String)</text><text fill="#000000" font-family="sans-serif" font-size="14" lengthAdjust="spacing" textLength="124" x="1246.5" y="587.9818">+getEmail(): String</text><text fill="#000000" font-family="sans-serif" font-size="14" lengthAdjust="spacing" textLength="116" x="1246.5" y="607.0497">+getTipo(): String</text></g><!--class PedidoSuscripcion--><g id="elem_PedidoSuscripcion"><rect codeLine="30" fill="#F1F1F1" height="124.2717" id="PedidoSuscripcion" rx="2.5" ry="2.5" style="stroke:#181818;stroke-width:0.5;" width="546" x="660" y="490.88"/><ellipse cx="866.75" cy="506.88" fill="#ADD1B2" rx="11" ry="11" style="stroke:#181818;stroke-width:1.0;"/><path d="M866.2188,513.8019 Q864.4688,513.8019 863.3281,513.0675 Q862.2031,512.3175 861.6406,510.9738 Q861.0938,509.6144 861.0938,507.8175 Q861.0938,505.7863 861.75,504.3331 Q862.4063,502.88 863.6875,502.0988 Q864.9688,501.3175 866.8438,501.3175 Q867.7344,501.3175 868.4063,501.505 Q869.0781,501.6769 869.7656,502.0206 L868.9531,504.0363 Q868.3281,503.7238 867.7813,503.5988 Q867.25,503.4738 866.7656,503.4738 Q865.5938,503.4738 864.8906,504.005 Q864.1875,504.5363 863.8906,505.4894 Q863.5938,506.4425 863.5938,507.7081 Q863.5938,509.7238 864.3125,510.6925 Q865.0313,511.6456 866.625,511.6456 Q867.2188,511.6456 867.8438,511.4894 Q868.4688,511.3331 869.2969,510.9581 L869.2969,513.1769 Q868.5625,513.4894 867.7656,513.6456 Q866.9844,513.8019 866.2188,513.8019 Z " fill="#000000"/><text fill="#000000" font-family="sans-serif" font-size="14" lengthAdjust="spacing" textLength="124" x="887.25" y="512.312">PedidoSuscripcion</text><line style="stroke:#181818;stroke-width:0.5;" x1="661" x2="1205" y1="522.88" y2="522.88"/><text fill="#000000" font-family="sans-serif" font-size="14" lengthAdjust="spacing" textLength="134" x="666" y="541.8459">-duracionMeses: int</text><line style="stroke:#181818;stroke-width:0.5;" x1="661" x2="1205" y1="549.9479" y2="549.9479"/><text fill="#000000" font-family="sans-serif" font-size="14" lengthAdjust="spacing" textLength="534" x="666" y="568.9139">+PedidoSuscripcion(id: String, cliente: String, total: double, duracionMeses: int)</text><text fill="#000000" font-family="sans-serif" font-size="14" lengthAdjust="spacing" textLength="168" x="666" y="587.9818">+getDuracionMeses(): int</text><text fill="#000000" font-family="sans-serif" font-size="14" lengthAdjust="spacing" textLength="116" x="666" y="607.0497">+getTipo(): String</text></g><!--class ProcesadorEnvios--><g id="elem_ProcesadorEnvios"><rect codeLine="37" fill="#F1F1F1" height="124.2717" id="ProcesadorEnvios" rx="2.5" ry="2.5" style="stroke:#181818;stroke-width:0.5;" width="414" x="679" y="7"/><ellipse cx="822.75" cy="23" fill="#ADD1B2" rx="11" ry="11" style="stroke:#181818;stroke-width:1.0;"/><path d="M822.2188,29.9219 Q820.4688,29.9219 819.3281,29.1875 Q818.2031,28.4375 817.6406,27.0938 Q817.0938,25.7344 817.0938,23.9375 Q817.0938,21.9063 817.75,20.4531 Q818.4063,19 819.6875,18.2188 Q820.9688,17.4375 822.8438,17.4375 Q823.7344,17.4375 824.4063,17.625 Q825.0781,17.7969 825.7656,18.1406 L824.9531,20.1563 Q824.3281,19.8438 823.7813,19.7188 Q823.25,19.5938 822.7656,19.5938 Q821.5938,19.5938 820.8906,20.125 Q820.1875,20.6563 819.8906,21.6094 Q819.5938,22.5625 819.5938,23.8281 Q819.5938,25.8438 820.3125,26.8125 Q821.0313,27.7656 822.625,27.7656 Q823.2188,27.7656 823.8438,27.6094 Q824.4688,27.4531 825.2969,27.0781 L825.2969,29.2969 Q824.5625,29.6094 823.7656,29.7656 Q822.9844,29.9219 822.2188,29.9219 Z " fill="#000000"/><text fill="#000000" font-family="sans-serif" font-size="14" lengthAdjust="spacing" textLength="118" x="843.25" y="28.432">ProcesadorEnvios</text><line style="stroke:#181818;stroke-width:0.5;" x1="680" x2="1092" y1="39" y2="39"/><line style="stroke:#181818;stroke-width:0.5;" x1="680" x2="1092" y1="47" y2="47"/><text fill="#000000" font-family="sans-serif" font-size="14" lengthAdjust="spacing" textLength="212" x="685" y="65.9659">+procesar(pedido: Pedido): void</text><text fill="#000000" font-family="sans-serif" font-size="14" lengthAdjust="spacing" textLength="286" x="685" y="85.0339">-procesarEnvioFisico(pf: PedidoFisico): void</text><text fill="#000000" font-family="sans-serif" font-size="14" lengthAdjust="spacing" textLength="304" x="685" y="104.1018">-procesarEnvioDigital(pd: PedidoDigital): void</text><text fill="#000000" font-family="sans-serif" font-size="14" lengthAdjust="spacing" textLength="402" x="685" y="123.1697">-procesarActivacionSuscripcion(ps: PedidoSuscripcion): void</text></g><g id="elem_GMN14"><path d="M1128.5,37.57 L1128.5,65.13 L1093.46,69.13 L1128.5,73.13 L1128.5,100.688 A0,0 0 0 0 1128.5,100.688 L1335.5,100.688 A0,0 0 0 0 1335.5,100.688 L1335.5,47.57 L1325.5,37.57 L1128.5,37.57 A0,0 0 0 0 1128.5,37.57 " fill="#FEFFDD" style="stroke:#181818;stroke-width:0.5;"/><path d="M1325.5,37.57 L1325.5,47.57 L1335.5,47.57 L1325.5,37.57 " fill="#FEFFDD" style="stroke:#181818;stroke-width:0.5;"/><text fill="#000000" font-family="sans-serif" font-size="13" lengthAdjust="spacing" textLength="186" x="1134.5" y="56.467">Discriminaci&#243;n por tipo usando</text><text fill="#000000" font-family="sans-serif" font-size="13" lengthAdjust="spacing" textLength="171" x="1134.5" y="74.173">instanceof y casting expl&#237;cito</text><text fill="#000000" font-family="sans-serif" font-size="13" lengthAdjust="spacing" textLength="91" x="1134.5" y="91.879">(dise&#241;o "malo")</text></g><!--reverse link Pedido to PedidoFisico--><g id="link_Pedido_PedidoFisico"><path codeLine="44" d="M854.7286,407.1775 C845.9286,410.9975 853.66,407.46 845,410.81 C802.06,427.42 715.86,451.68 625.3,475.42 " fill="none" id="Pedido-backto-PedidoFisico" style="stroke:#181818;stroke-width:1.0;"/><polygon fill="none" points="871.24,400.01,852.3394,401.6737,857.1177,412.6813,871.24,400.01" style="stroke:#181818;stroke-width:1.0;"/></g><!--reverse link Pedido to PedidoDigital--><g id="link_Pedido_PedidoDigital"><path codeLine="45" d="M1218.6787,411.2922 C1272.0687,440.6022 1314.16,463.71 1362.75,490.39 " fill="none" id="Pedido-backto-PedidoDigital" style="stroke:#181818;stroke-width:1.0;"/><polygon fill="none" points="1202.9,402.63,1215.7913,416.5517,1221.5661,406.0326,1202.9,402.63" style="stroke:#181818;stroke-width:1.0;"/></g><!--reverse link Pedido to PedidoSuscripcion--><g id="link_Pedido_PedidoSuscripcion"><path codeLine="46" d="M986.8053,427.6113 C975.1853,454.4813 970.09,466.26 959.65,490.39 " fill="none" id="Pedido-backto-PedidoSuscripcion" style="stroke:#181818;stroke-width:1.0;"/><polygon fill="none" points="993.95,411.09,981.2982,425.2297,992.3124,429.9929,993.95,411.09" style="stroke:#181818;stroke-width:1.0;"/></g><!--link ProcesadorEnvios to Pedido--><g id="link_ProcesadorEnvios_Pedido"><path codeLine="47" d="M924.69,131.48 C939.72,155.3 954.1294,178.1449 970.8794,204.7049 " fill="none" id="ProcesadorEnvios-to-Pedido" style="stroke:#181818;stroke-width:1.0;stroke-dasharray:7.0,7.0;"/><polygon fill="#181818" points="974.08,209.78,972.6625,200.0337,971.4129,205.5508,965.8958,204.3011,974.08,209.78" style="stroke:#181818;stroke-width:1.0;"/><text fill="#000000" font-family="sans-serif" font-size="13" lengthAdjust="spacing" textLength="112" x="953.46" y="176.167">discrimina por tipo</text></g><!--link ProcesadorEnvios to PedidoFisico--><g id="link_ProcesadorEnvios_PedidoFisico"><path codeLine="48" d="M744.25,131.67 C701.35,153.46 655.45,180.15 617,210.27 C519.75,286.45 432.6794,392.1495 376.7894,466.6895 " fill="none" id="ProcesadorEnvios-to-PedidoFisico" style="stroke:#181818;stroke-width:1.0;stroke-dasharray:7.0,7.0;"/><polygon fill="#181818" points="373.19,471.49,381.7894,466.6889,376.1895,467.4896,375.3888,461.8897,373.19,471.49" style="stroke:#181818;stroke-width:1.0;"/><text fill="#000000" font-family="sans-serif" font-size="13" lengthAdjust="spacing" textLength="99" x="618" y="315.937">instanceof + cast</text></g><!--link ProcesadorEnvios to PedidoDigital--><g id="link_ProcesadorEnvios_PedidoDigital"><path codeLine="49" d="M1081.1,131.59 C1129.31,152.09 1178.88,178.12 1220,210.27 C1320.02,288.46 1397.5324,410.0283 1439.7524,485.2183 " fill="none" id="ProcesadorEnvios-to-PedidoDigital" style="stroke:#181818;stroke-width:1.0;stroke-dasharray:7.0,7.0;"/><polygon fill="#181818" points="1442.69,490.45,1441.7713,480.6441,1440.242,486.0903,1434.7958,484.5609,1442.69,490.45" style="stroke:#181818;stroke-width:1.0;"/><text fill="#000000" font-family="sans-serif" font-size="13" lengthAdjust="spacing" textLength="99" x="1395.22" y="315.937">instanceof + cast</text></g><!--link ProcesadorEnvios to PedidoSuscripcion--><g id="link_ProcesadorEnvios_PedidoSuscripcion"><path codeLine="50" d="M808.36,131.58 C786.17,153.74 764.81,180.67 753,210.27 C719.97,293.05 714.01,330.66 753,410.81 C768.46,442.6 790.1644,465.7046 818.1144,487.0846 " fill="none" id="ProcesadorEnvios-to-PedidoSuscripcion" style="stroke:#181818;stroke-width:1.0;stroke-dasharray:7.0,7.0;"/><polygon fill="#181818" points="822.88,490.73,818.1618,482.0848,818.9087,487.6922,813.3013,488.439,822.88,490.73" style="stroke:#181818;stroke-width:1.0;"/><text fill="#000000" font-family="sans-serif" font-size="13" lengthAdjust="spacing" textLength="99" x="754" y="315.937">instanceof + cast</text></g><!--SRC=[bLJ1Rjim3BthAuYU4ZGfUZQA0SNI0ZqKA93-W2An6L574YGvwDRsatOO-WdviKcEd4YEvo4-adoFV7oKtIifmotVWAYvSxVUMrer7X-4LalwXN3D65yvRxdm-n9uGabImpk3yCs1P0NBW5Bh510reVBOYthjULs1rCsgnZPscPWcHuPP7pmhSTC4NAD_a9DfqQADVj_3XrBFaIWcYX7UEt6VRGqPdM4_6SibtvCZSHGkoQ8GfDMTsfBkoJNezA3QFSaPccV_Q3GhUcIRMHJbGwju2i2JJVnN_eBM5EOwwCSDfxf7NbIU9R9WozJSnVYWdwF3BXidB9cuXgDXJJ0w11xHeQk0b2-cpY3dsND2cvkH9-EunwvZ6gmMwBZKjlNG9GcNOFO9Ep7jo5KQFL1iDSdkzb9HYqttPbwguW1749rxHbQbdyEOM-5fsshC5sXSTRhMZY3eJ3-Hcu_vl9Xh896w3sGoQdQoigkhRzslAdX5iN93YeFH5dpO-nWYlVJeblDS2TGlOVc2Ep-6wXx8cR3yL8UWJ6cFO6dzmqE8zfc27Ok3Ea6xBtMG28tZIkfGaR7-R5d3kG6-cNhtMv2F5PEm8jpzqN2nuRM-c39K4c9dzXS0]--></g></svg>