<?plantuml 1.2026.2?><svg xmlns="http://www.w3.org/2000/svg" xmlns:xlink="http://www.w3.org/1999/xlink" contentStyleType="text/css" data-diagram-type="CLASS" height="431px" preserveAspectRatio="none" style="width:2159px;height:431px;background:#FFFFFF;" version="1.1" viewBox="0 0 2159 431" width="2159px" zoomAndPan="magnify"><defs/><g><!--class EvaluadorBecas--><g class="entity" data-qualified-name="EvaluadorBecas" data-source-line="3" id="ent0002"><rect fill="#F1F1F1" height="162.4075" rx="2.5" ry="2.5" style="stroke:#181818;stroke-width:0.5;" width="360.2766" x="1564.56" y="153.07"/><ellipse cx="1691.1265" cy="169.07" fill="#B4A7E5" rx="11" ry="11" style="stroke:#181818;stroke-width:1;"/><path d="M1687.1578,175.57 L1687.1578,173.8669 L1689.5171,173.6013 L1689.5171,165.3981 L1687.1578,165.1325 L1687.1578,163.4294 L1694.2984,163.4294 L1694.2984,165.1325 L1691.8765,165.3981 L1691.8765,173.6013 L1694.2984,173.8669 L1694.2984,175.57 L1687.1578,175.57 Z " fill="#000000"/><text fill="#000000" font-family="sans-serif" font-size="14" font-style="italic" lengthAdjust="spacing" textLength="98.6436" x="1711.6265" y="174.502">EvaluadorBecas</text><line style="stroke:#181818;stroke-width:0.5;" x1="1565.56" x2="1923.8366" y1="185.07" y2="185.07"/><line style="stroke:#181818;stroke-width:0.5;" x1="1565.56" x2="1923.8366" y1="193.07" y2="193.07"/><text fill="#000000" font-family="sans-serif" font-size="14" lengthAdjust="spacing" textLength="174.3133" x="1570.56" y="212.0359">+evaluar(alumno: Alumno)</text><text fill="#000000" font-family="sans-serif" font-size="14" lengthAdjust="spacing" textLength="287.4609" x="1570.56" y="231.1039">+evaluar(alumnoErasmus: AlumnoErasmus)</text><text fill="#000000" font-family="sans-serif" font-size="14" lengthAdjust="spacing" textLength="260.245" x="1570.56" y="250.1718">+evaluar(alumnoVirtual: AlumnoVirtual)</text><text fill="#000000" font-family="sans-serif" font-size="14" lengthAdjust="spacing" textLength="340.5207" x="1570.56" y="269.2397">+evaluar(alumnoInvestigador: AlumnoInvestigador)</text><text fill="#000000" font-family="sans-serif" font-size="14" lengthAdjust="spacing" textLength="312.8288" x="1570.56" y="288.3076">+evaluar(alumnoDeportista: AlumnoDeportista)</text><text fill="#000000" font-family="sans-serif" font-size="14" lengthAdjust="spacing" textLength="348.2766" x="1570.56" y="307.3755">+evaluar(alumnoDiscapacidad: AlumnoDiscapacidad)</text></g><!--class Alumno--><g class="entity" data-qualified-name="Alumno" data-source-line="12" id="ent0003"><rect fill="#F1F1F1" height="67.0679" rx="2.5" ry="2.5" style="stroke:#181818;stroke-width:0.5;" width="288.6389" x="908.37" y="7"/><ellipse cx="1022.7286" cy="23" fill="#ADD1B2" rx="11" ry="11" style="stroke:#181818;stroke-width:1;"/><path d="M1022.1973,29.9219 Q1020.4473,29.9219 1019.3067,29.1875 Q1018.1817,28.4375 1017.6192,27.0938 Q1017.0723,25.7344 1017.0723,23.9375 Q1017.0723,21.9063 1017.7286,20.4531 Q1018.3848,19 1019.6661,18.2188 Q1020.9473,17.4375 1022.8223,17.4375 Q1023.7129,17.4375 1024.3848,17.625 Q1025.0567,17.7969 1025.7442,18.1406 L1024.9317,20.1563 Q1024.3067,19.8438 1023.7598,19.7188 Q1023.2286,19.5938 1022.7442,19.5938 Q1021.5723,19.5938 1020.8692,20.125 Q1020.1661,20.6563 1019.8692,21.6094 Q1019.5723,22.5625 1019.5723,23.8281 Q1019.5723,25.8438 1020.2911,26.8125 Q1021.0098,27.7656 1022.6036,27.7656 Q1023.1973,27.7656 1023.8223,27.6094 Q1024.4473,27.4531 1025.2754,27.0781 L1025.2754,29.2969 Q1024.5411,29.6094 1023.7442,29.7656 Q1022.9629,29.9219 1022.1973,29.9219 Z " fill="#000000"/><text fill="#000000" font-family="sans-serif" font-size="14" lengthAdjust="spacing" textLength="51.4218" x="1043.2286" y="28.432">Alumno</text><line style="stroke:#181818;stroke-width:0.5;" x1="909.37" x2="1196.0089" y1="39" y2="39"/><line style="stroke:#181818;stroke-width:0.5;" x1="909.37" x2="1196.0089" y1="47" y2="47"/><text fill="#000000" font-family="sans-serif" font-size="14" lengthAdjust="spacing" textLength="276.6389" x="914.37" y="65.9659">+solicitarBeca(evaluador: EvaluadorBecas)</text></g><!--class AlumnoErasmus--><g class="entity" data-qualified-name="AlumnoErasmus" data-source-line="15" id="ent0004"><rect fill="#F1F1F1" height="48" rx="2.5" ry="2.5" style="stroke:#181818;stroke-width:0.5;" width="139.9956" x="633.7" y="210.28"/><ellipse cx="648.7" cy="226.28" fill="#ADD1B2" rx="11" ry="11" style="stroke:#181818;stroke-width:1;"/><path d="M648.1688,233.2019 Q646.4188,233.2019 645.2781,232.4675 Q644.1531,231.7175 643.5906,230.3738 Q643.0438,229.0144 643.0438,227.2175 Q643.0438,225.1863 643.7,223.7331 Q644.3563,222.28 645.6375,221.4988 Q646.9188,220.7175 648.7938,220.7175 Q649.6844,220.7175 650.3563,220.905 Q651.0281,221.0769 651.7156,221.4206 L650.9031,223.4363 Q650.2781,223.1238 649.7313,222.9988 Q649.2,222.8738 648.7156,222.8738 Q647.5438,222.8738 646.8406,223.405 Q646.1375,223.9363 645.8406,224.8894 Q645.5438,225.8425 645.5438,227.1081 Q645.5438,229.1238 646.2625,230.0925 Q646.9813,231.0456 648.575,231.0456 Q649.1688,231.0456 649.7938,230.8894 Q650.4188,230.7331 651.2469,230.3581 L651.2469,232.5769 Q650.5125,232.8894 649.7156,233.0456 Q648.9344,233.2019 648.1688,233.2019 Z " fill="#000000"/><text fill="#000000" font-family="sans-serif" font-size="14" lengthAdjust="spacing" textLength="107.9956" x="662.7" y="231.712">AlumnoErasmus</text><line style="stroke:#181818;stroke-width:0.5;" x1="634.7" x2="772.6956" y1="242.28" y2="242.28"/><line style="stroke:#181818;stroke-width:0.5;" x1="634.7" x2="772.6956" y1="250.28" y2="250.28"/></g><!--class AlumnoVirtual--><g class="entity" data-qualified-name="AlumnoVirtual" data-source-line="16" id="ent0005"><rect fill="#F1F1F1" height="48" rx="2.5" ry="2.5" style="stroke:#181818;stroke-width:0.5;" width="126.3876" x="808.5" y="210.28"/><ellipse cx="823.5" cy="226.28" fill="#ADD1B2" rx="11" ry="11" style="stroke:#181818;stroke-width:1;"/><path d="M822.9688,233.2019 Q821.2188,233.2019 820.0781,232.4675 Q818.9531,231.7175 818.3906,230.3738 Q817.8438,229.0144 817.8438,227.2175 Q817.8438,225.1863 818.5,223.7331 Q819.1563,222.28 820.4375,221.4988 Q821.7188,220.7175 823.5938,220.7175 Q824.4844,220.7175 825.1563,220.905 Q825.8281,221.0769 826.5156,221.4206 L825.7031,223.4363 Q825.0781,223.1238 824.5313,222.9988 Q824,222.8738 823.5156,222.8738 Q822.3438,222.8738 821.6406,223.405 Q820.9375,223.9363 820.6406,224.8894 Q820.3438,225.8425 820.3438,227.1081 Q820.3438,229.1238 821.0625,230.0925 Q821.7813,231.0456 823.375,231.0456 Q823.9688,231.0456 824.5938,230.8894 Q825.2188,230.7331 826.0469,230.3581 L826.0469,232.5769 Q825.3125,232.8894 824.5156,233.0456 Q823.7344,233.2019 822.9688,233.2019 Z " fill="#000000"/><text fill="#000000" font-family="sans-serif" font-size="14" lengthAdjust="spacing" textLength="94.3876" x="837.5" y="231.712">AlumnoVirtual</text><line style="stroke:#181818;stroke-width:0.5;" x1="809.5" x2="933.8876" y1="242.28" y2="242.28"/><line style="stroke:#181818;stroke-width:0.5;" x1="809.5" x2="933.8876" y1="250.28" y2="250.28"/></g><!--class AlumnoInvestigador--><g class="entity" data-qualified-name="AlumnoInvestigador" data-source-line="17" id="ent0006"><rect fill="#F1F1F1" height="48" rx="2.5" ry="2.5" style="stroke:#181818;stroke-width:0.5;" width="166.5255" x="969.43" y="210.28"/><ellipse cx="984.43" cy="226.28" fill="#ADD1B2" rx="11" ry="11" style="stroke:#181818;stroke-width:1;"/><path d="M983.8988,233.2019 Q982.1488,233.2019 981.0081,232.4675 Q979.8831,231.7175 979.3206,230.3738 Q978.7738,229.0144 978.7738,227.2175 Q978.7738,225.1863 979.43,223.7331 Q980.0863,222.28 981.3675,221.4988 Q982.6488,220.7175 984.5238,220.7175 Q985.4144,220.7175 986.0863,220.905 Q986.7581,221.0769 987.4456,221.4206 L986.6331,223.4363 Q986.0081,223.1238 985.4613,222.9988 Q984.93,222.8738 984.4456,222.8738 Q983.2738,222.8738 982.5706,223.405 Q981.8675,223.9363 981.5706,224.8894 Q981.2738,225.8425 981.2738,227.1081 Q981.2738,229.1238 981.9925,230.0925 Q982.7113,231.0456 984.305,231.0456 Q984.8988,231.0456 985.5238,230.8894 Q986.1488,230.7331 986.9769,230.3581 L986.9769,232.5769 Q986.2425,232.8894 985.4456,233.0456 Q984.6644,233.2019 983.8988,233.2019 Z " fill="#000000"/><text fill="#000000" font-family="sans-serif" font-size="14" lengthAdjust="spacing" textLength="134.5255" x="998.43" y="231.712">AlumnoInvestigador</text><line style="stroke:#181818;stroke-width:0.5;" x1="970.43" x2="1134.9555" y1="242.28" y2="242.28"/><line style="stroke:#181818;stroke-width:0.5;" x1="970.43" x2="1134.9555" y1="250.28" y2="250.28"/></g><!--class AlumnoDeportista--><g class="entity" data-qualified-name="AlumnoDeportista" data-source-line="18" id="ent0007"><rect fill="#F1F1F1" height="48" rx="2.5" ry="2.5" style="stroke:#181818;stroke-width:0.5;" width="152.6796" x="1171.35" y="210.28"/><ellipse cx="1186.35" cy="226.28" fill="#ADD1B2" rx="11" ry="11" style="stroke:#181818;stroke-width:1;"/><path d="M1185.8188,233.2019 Q1184.0688,233.2019 1182.9281,232.4675 Q1181.8031,231.7175 1181.2406,230.3738 Q1180.6938,229.0144 1180.6938,227.2175 Q1180.6938,225.1863 1181.35,223.7331 Q1182.0063,222.28 1183.2875,221.4988 Q1184.5688,220.7175 1186.4438,220.7175 Q1187.3344,220.7175 1188.0063,220.905 Q1188.6781,221.0769 1189.3656,221.4206 L1188.5531,223.4363 Q1187.9281,223.1238 1187.3813,222.9988 Q1186.85,222.8738 1186.3656,222.8738 Q1185.1938,222.8738 1184.4906,223.405 Q1183.7875,223.9363 1183.4906,224.8894 Q1183.1938,225.8425 1183.1938,227.1081 Q1183.1938,229.1238 1183.9125,230.0925 Q1184.6313,231.0456 1186.225,231.0456 Q1186.8188,231.0456 1187.4438,230.8894 Q1188.0688,230.7331 1188.8969,230.3581 L1188.8969,232.5769 Q1188.1625,232.8894 1187.3656,233.0456 Q1186.5844,233.2019 1185.8188,233.2019 Z " fill="#000000"/><text fill="#000000" font-family="sans-serif" font-size="14" lengthAdjust="spacing" textLength="120.6796" x="1200.35" y="231.712">AlumnoDeportista</text><line style="stroke:#181818;stroke-width:0.5;" x1="1172.35" x2="1323.0296" y1="242.28" y2="242.28"/><line style="stroke:#181818;stroke-width:0.5;" x1="1172.35" x2="1323.0296" y1="250.28" y2="250.28"/></g><!--class AlumnoDiscapacidad--><g class="entity" data-qualified-name="AlumnoDiscapacidad" data-source-line="19" id="ent0008"><rect fill="#F1F1F1" height="48" rx="2.5" ry="2.5" style="stroke:#181818;stroke-width:0.5;" width="170.4035" x="1359.49" y="210.28"/><ellipse cx="1374.49" cy="226.28" fill="#ADD1B2" rx="11" ry="11" style="stroke:#181818;stroke-width:1;"/><path d="M1373.9588,233.2019 Q1372.2088,233.2019 1371.0681,232.4675 Q1369.9431,231.7175 1369.3806,230.3738 Q1368.8338,229.0144 1368.8338,227.2175 Q1368.8338,225.1863 1369.49,223.7331 Q1370.1463,222.28 1371.4275,221.4988 Q1372.7088,220.7175 1374.5838,220.7175 Q1375.4744,220.7175 1376.1463,220.905 Q1376.8181,221.0769 1377.5056,221.4206 L1376.6931,223.4363 Q1376.0681,223.1238 1375.5213,222.9988 Q1374.99,222.8738 1374.5056,222.8738 Q1373.3338,222.8738 1372.6306,223.405 Q1371.9275,223.9363 1371.6306,224.8894 Q1371.3338,225.8425 1371.3338,227.1081 Q1371.3338,229.1238 1372.0525,230.0925 Q1372.7713,231.0456 1374.365,231.0456 Q1374.9588,231.0456 1375.5838,230.8894 Q1376.2088,230.7331 1377.0369,230.3581 L1377.0369,232.5769 Q1376.3025,232.8894 1375.5056,233.0456 Q1374.7244,233.2019 1373.9588,233.2019 Z " fill="#000000"/><text fill="#000000" font-family="sans-serif" font-size="14" lengthAdjust="spacing" textLength="138.4035" x="1388.49" y="231.712">AlumnoDiscapacidad</text><line style="stroke:#181818;stroke-width:0.5;" x1="1360.49" x2="1528.8935" y1="242.28" y2="242.28"/><line style="stroke:#181818;stroke-width:0.5;" x1="1360.49" x2="1528.8935" y1="250.28" y2="250.28"/></g><!--class AlumnoHonorario--><g class="entity" data-qualified-name="AlumnoHonorario" data-source-line="21" id="ent0009"><rect fill="#F1F1F1" height="67.0679" rx="2.5" ry="2.5" style="stroke:#181818;stroke-width:0.5;" width="288.6389" x="11.37" y="200.74"/><ellipse cx="91.9957" cy="216.74" fill="#ADD1B2" rx="11" ry="11" style="stroke:#181818;stroke-width:1;"/><path d="M91.4644,223.6619 Q89.7144,223.6619 88.5738,222.9275 Q87.4488,222.1775 86.8863,220.8338 Q86.3394,219.4744 86.3394,217.6775 Q86.3394,215.6463 86.9957,214.1931 Q87.6519,212.74 88.9332,211.9588 Q90.2144,211.1775 92.0894,211.1775 Q92.9801,211.1775 93.6519,211.365 Q94.3238,211.5369 95.0113,211.8806 L94.1988,213.8963 Q93.5738,213.5838 93.0269,213.4588 Q92.4957,213.3338 92.0113,213.3338 Q90.8394,213.3338 90.1363,213.865 Q89.4332,214.3963 89.1363,215.3494 Q88.8394,216.3025 88.8394,217.5681 Q88.8394,219.5838 89.5582,220.5525 Q90.2769,221.5056 91.8707,221.5056 Q92.4644,221.5056 93.0894,221.3494 Q93.7144,221.1931 94.5426,220.8181 L94.5426,223.0369 Q93.8082,223.3494 93.0113,223.5056 Q92.2301,223.6619 91.4644,223.6619 Z " fill="#000000"/><text fill="#000000" font-family="sans-serif" font-size="14" lengthAdjust="spacing" textLength="118.8876" x="112.4957" y="222.172">AlumnoHonorario</text><line style="stroke:#181818;stroke-width:0.5;" x1="12.37" x2="299.0089" y1="232.74" y2="232.74"/><line style="stroke:#181818;stroke-width:0.5;" x1="12.37" x2="299.0089" y1="240.74" y2="240.74"/><text fill="#000000" font-family="sans-serif" font-size="14" lengthAdjust="spacing" textLength="276.6389" x="17.37" y="259.7059">+solicitarBeca(evaluador: EvaluadorBecas)</text></g><g class="entity" data-qualified-name="GMN10" data-source-line="25" id="ent0011"><path d="M335.04,220.42 L335.04,230.28 L300.26,234.28 L335.04,238.28 L335.04,248.126 A0,0 0 0 0 335.04,248.126 L598.3472,248.126 A0,0 0 0 0 598.3472,248.126 L598.3472,230.42 L588.3472,220.42 L335.04,220.42 A0,0 0 0 0 335.04,220.42" fill="#FEFFDD" style="stroke:#181818;stroke-width:0.5;"/><path d="M588.3472,220.42 L588.3472,230.42 L598.3472,230.42 L588.3472,220.42" fill="#FEFFDD" style="stroke:#181818;stroke-width:0.5;"/><text fill="#000000" font-family="sans-serif" font-size="13" lengthAdjust="spacing" textLength="242.3072" x="341.04" y="239.317">throw UnsupportedOperationException</text></g><!--class EvaluadorAcademico--><g class="entity" data-qualified-name="EvaluadorAcademico" data-source-line="28" id="ent0013"><rect fill="#F1F1F1" height="48" rx="2.5" ry="2.5" style="stroke:#181818;stroke-width:0.5;" width="169.6475" x="1328.87" y="376.48"/><ellipse cx="1343.87" cy="392.48" fill="#ADD1B2" rx="11" ry="11" style="stroke:#181818;stroke-width:1;"/><path d="M1343.3388,399.4019 Q1341.5888,399.4019 1340.4481,398.6675 Q1339.3231,397.9175 1338.7606,396.5738 Q1338.2138,395.2144 1338.2138,393.4175 Q1338.2138,391.3863 1338.87,389.9331 Q1339.5263,388.48 1340.8075,387.6988 Q1342.0888,386.9175 1343.9638,386.9175 Q1344.8544,386.9175 1345.5263,387.105 Q1346.1981,387.2769 1346.8856,387.6206 L1346.0731,389.6363 Q1345.4481,389.3238 1344.9013,389.1988 Q1344.37,389.0738 1343.8856,389.0738 Q1342.7138,389.0738 1342.0106,389.605 Q1341.3075,390.1363 1341.0106,391.0894 Q1340.7138,392.0425 1340.7138,393.3081 Q1340.7138,395.3238 1341.4325,396.2925 Q1342.1513,397.2456 1343.745,397.2456 Q1344.3388,397.2456 1344.9638,397.0894 Q1345.5888,396.9331 1346.4169,396.5581 L1346.4169,398.7769 Q1345.6825,399.0894 1344.8856,399.2456 Q1344.1044,399.4019 1343.3388,399.4019 Z " fill="#000000"/><text fill="#000000" font-family="sans-serif" font-size="14" lengthAdjust="spacing" textLength="137.6475" x="1357.87" y="397.912">EvaluadorAcademico</text><line style="stroke:#181818;stroke-width:0.5;" x1="1329.87" x2="1497.5175" y1="408.48" y2="408.48"/><line style="stroke:#181818;stroke-width:0.5;" x1="1329.87" x2="1497.5175" y1="416.48" y2="416.48"/></g><!--class EvaluadorSocioeconomico--><g class="entity" data-qualified-name="EvaluadorSocioeconomico" data-source-line="29" id="ent0014"><rect fill="#F1F1F1" height="48" rx="2.5" ry="2.5" style="stroke:#181818;stroke-width:0.5;" width="204.7873" x="1533.3" y="376.48"/><ellipse cx="1548.3" cy="392.48" fill="#ADD1B2" rx="11" ry="11" style="stroke:#181818;stroke-width:1;"/><path d="M1547.7688,399.4019 Q1546.0188,399.4019 1544.8781,398.6675 Q1543.7531,397.9175 1543.1906,396.5738 Q1542.6438,395.2144 1542.6438,393.4175 Q1542.6438,391.3863 1543.3,389.9331 Q1543.9563,388.48 1545.2375,387.6988 Q1546.5188,386.9175 1548.3938,386.9175 Q1549.2844,386.9175 1549.9563,387.105 Q1550.6281,387.2769 1551.3156,387.6206 L1550.5031,389.6363 Q1549.8781,389.3238 1549.3313,389.1988 Q1548.8,389.0738 1548.3156,389.0738 Q1547.1438,389.0738 1546.4406,389.605 Q1545.7375,390.1363 1545.4406,391.0894 Q1545.1438,392.0425 1545.1438,393.3081 Q1545.1438,395.3238 1545.8625,396.2925 Q1546.5813,397.2456 1548.175,397.2456 Q1548.7688,397.2456 1549.3938,397.0894 Q1550.0188,396.9331 1550.8469,396.5581 L1550.8469,398.7769 Q1550.1125,399.0894 1549.3156,399.2456 Q1548.5344,399.4019 1547.7688,399.4019 Z " fill="#000000"/><text fill="#000000" font-family="sans-serif" font-size="14" lengthAdjust="spacing" textLength="172.7873" x="1562.3" y="397.912">EvaluadorSocioeconomico</text><line style="stroke:#181818;stroke-width:0.5;" x1="1534.3" x2="1737.0873" y1="408.48" y2="408.48"/><line style="stroke:#181818;stroke-width:0.5;" x1="1534.3" x2="1737.0873" y1="416.48" y2="416.48"/></g><!--class EvaluadorDeportes--><g class="entity" data-qualified-name="EvaluadorDeportes" data-source-line="30" id="ent0015"><rect fill="#F1F1F1" height="48" rx="2.5" ry="2.5" style="stroke:#181818;stroke-width:0.5;" width="158.3635" x="1773.51" y="376.48"/><ellipse cx="1788.51" cy="392.48" fill="#ADD1B2" rx="11" ry="11" style="stroke:#181818;stroke-width:1;"/><path d="M1787.9788,399.4019 Q1786.2288,399.4019 1785.0881,398.6675 Q1783.9631,397.9175 1783.4006,396.5738 Q1782.8538,395.2144 1782.8538,393.4175 Q1782.8538,391.3863 1783.51,389.9331 Q1784.1663,388.48 1785.4475,387.6988 Q1786.7288,386.9175 1788.6038,386.9175 Q1789.4944,386.9175 1790.1663,387.105 Q1790.8381,387.2769 1791.5256,387.6206 L1790.7131,389.6363 Q1790.0881,389.3238 1789.5413,389.1988 Q1789.01,389.0738 1788.5256,389.0738 Q1787.3538,389.0738 1786.6506,389.605 Q1785.9475,390.1363 1785.6506,391.0894 Q1785.3538,392.0425 1785.3538,393.3081 Q1785.3538,395.3238 1786.0725,396.2925 Q1786.7913,397.2456 1788.385,397.2456 Q1788.9788,397.2456 1789.6038,397.0894 Q1790.2288,396.9331 1791.0569,396.5581 L1791.0569,398.7769 Q1790.3225,399.0894 1789.5256,399.2456 Q1788.7444,399.4019 1787.9788,399.4019 Z " fill="#000000"/><text fill="#000000" font-family="sans-serif" font-size="14" lengthAdjust="spacing" textLength="126.3635" x="1802.51" y="397.912">EvaluadorDeportes</text><line style="stroke:#181818;stroke-width:0.5;" x1="1774.51" x2="1930.8735" y1="408.48" y2="408.48"/><line style="stroke:#181818;stroke-width:0.5;" x1="1774.51" x2="1930.8735" y1="416.48" y2="416.48"/></g><!--class EvaluadorInternacional--><g class="entity" data-qualified-name="EvaluadorInternacional" data-source-line="31" id="ent0016"><rect fill="#F1F1F1" height="48" rx="2.5" ry="2.5" style="stroke:#181818;stroke-width:0.5;" width="185.2854" x="1967.05" y="376.48"/><ellipse cx="1982.05" cy="392.48" fill="#ADD1B2" rx="11" ry="11" style="stroke:#181818;stroke-width:1;"/><path d="M1981.5188,399.4019 Q1979.7688,399.4019 1978.6281,398.6675 Q1977.5031,397.9175 1976.9406,396.5738 Q1976.3938,395.2144 1976.3938,393.4175 Q1976.3938,391.3863 1977.05,389.9331 Q1977.7063,388.48 1978.9875,387.6988 Q1980.2688,386.9175 1982.1438,386.9175 Q1983.0344,386.9175 1983.7063,387.105 Q1984.3781,387.2769 1985.0656,387.6206 L1984.2531,389.6363 Q1983.6281,389.3238 1983.0813,389.1988 Q1982.55,389.0738 1982.0656,389.0738 Q1980.8938,389.0738 1980.1906,389.605 Q1979.4875,390.1363 1979.1906,391.0894 Q1978.8938,392.0425 1978.8938,393.3081 Q1978.8938,395.3238 1979.6125,396.2925 Q1980.3313,397.2456 1981.925,397.2456 Q1982.5188,397.2456 1983.1438,397.0894 Q1983.7688,396.9331 1984.5969,396.5581 L1984.5969,398.7769 Q1983.8625,399.0894 1983.0656,399.2456 Q1982.2844,399.4019 1981.5188,399.4019 Z " fill="#000000"/><text fill="#000000" font-family="sans-serif" font-size="14" lengthAdjust="spacing" textLength="153.2854" x="1996.05" y="397.912">EvaluadorInternacional</text><line style="stroke:#181818;stroke-width:0.5;" x1="1968.05" x2="2151.3354" y1="408.48" y2="408.48"/><line style="stroke:#181818;stroke-width:0.5;" x1="1968.05" x2="2151.3354" y1="416.48" y2="416.48"/></g><!--class Universidad--><g class="entity" data-qualified-name="Universidad" data-source-line="33" id="ent0017"><rect fill="#F1F1F1" height="67.0679" rx="2.5" ry="2.5" style="stroke:#181818;stroke-width:0.5;" width="297.3889" x="7" y="7"/><ellipse cx="112.1046" cy="23" fill="#ADD1B2" rx="11" ry="11" style="stroke:#181818;stroke-width:1;"/><path d="M111.5733,29.9219 Q109.8233,29.9219 108.6827,29.1875 Q107.5577,28.4375 106.9952,27.0938 Q106.4483,25.7344 106.4483,23.9375 Q106.4483,21.9063 107.1046,20.4531 Q107.7608,19 109.0421,18.2188 Q110.3233,17.4375 112.1983,17.4375 Q113.089,17.4375 113.7608,17.625 Q114.4327,17.7969 115.1202,18.1406 L114.3077,20.1563 Q113.6827,19.8438 113.1358,19.7188 Q112.6046,19.5938 112.1202,19.5938 Q110.9483,19.5938 110.2452,20.125 Q109.5421,20.6563 109.2452,21.6094 Q108.9483,22.5625 108.9483,23.8281 Q108.9483,25.8438 109.6671,26.8125 Q110.3858,27.7656 111.9796,27.7656 Q112.5733,27.7656 113.1983,27.6094 Q113.8233,27.4531 114.6515,27.0781 L114.6515,29.2969 Q113.9171,29.6094 113.1202,29.7656 Q112.339,29.9219 111.5733,29.9219 Z " fill="#000000"/><text fill="#000000" font-family="sans-serif" font-size="14" lengthAdjust="spacing" textLength="78.6797" x="132.6046" y="28.432">Universidad</text><line style="stroke:#181818;stroke-width:0.5;" x1="8" x2="303.3889" y1="39" y2="39"/><line style="stroke:#181818;stroke-width:0.5;" x1="8" x2="303.3889" y1="47" y2="47"/><text fill="#000000" font-family="sans-serif" font-size="14" lengthAdjust="spacing" textLength="285.3889" x="13" y="65.9659">+procesarSolicitudBeca(alumno, evaluador)</text></g><g class="entity" data-qualified-name="GMN18" data-source-line="37" id="ent0019"><path d="M339.33,26.69 L339.33,36.54 L304.58,40.54 L339.33,44.54 L339.33,54.396 A0,0 0 0 0 339.33,54.396 L618.0683,54.396 A0,0 0 0 0 618.0683,54.396 L618.0683,36.69 L608.0683,26.69 L339.33,26.69 A0,0 0 0 0 339.33,26.69" fill="#FEFFDD" style="stroke:#181818;stroke-width:0.5;"/><path d="M608.0683,26.69 L608.0683,36.69 L618.0683,36.69 L608.0683,26.69" fill="#FEFFDD" style="stroke:#181818;stroke-width:0.5;"/><text fill="#000000" font-family="sans-serif" font-size="13" lengthAdjust="spacing" textLength="257.7383" x="345.33" y="45.587">if (!(alumno instanceof AlumnoHonorario))</text></g><!--reverse link Alumno to AlumnoErasmus--><g class="link" data-entity-1="ent0003" data-entity-2="ent0004" data-link-type="extension" data-source-line="40" id="lnk21"><path codeLine="40" d="M936.6567,80.9086 C885.8767,100.0486 841.15,120.48 790.69,153.07 C765.85,169.13 741.43,192.5 724.81,209.87" fill="none" id="Alumno-backto-AlumnoErasmus" style="stroke:#181818;stroke-width:1;"/><polygon fill="none" points="953.5,74.56,934.5405,75.2941,938.7729,86.523,953.5,74.56" style="stroke:#181818;stroke-width:1;"/></g><!--reverse link Alumno to AlumnoVirtual--><g class="link" data-entity-1="ent0003" data-entity-2="ent0005" data-link-type="extension" data-source-line="41" id="lnk22"><path codeLine="41" d="M1009.2241,87.5893 C972.8341,126.1393 925.87,175.88 893.86,209.8" fill="none" id="Alumno-backto-AlumnoVirtual" style="stroke:#181818;stroke-width:1;"/><polygon fill="none" points="1021.58,74.5,1004.861,83.4707,1013.5872,91.708,1021.58,74.5" style="stroke:#181818;stroke-width:1;"/></g><!--reverse link Alumno to AlumnoInvestigador--><g class="link" data-entity-1="ent0003" data-entity-2="ent0006" data-link-type="extension" data-source-line="42" id="lnk23"><path codeLine="42" d="M1052.69,92.5 C1052.69,131.05 1052.69,175.88 1052.69,209.8" fill="none" id="Alumno-backto-AlumnoInvestigador" style="stroke:#181818;stroke-width:1;"/><polygon fill="none" points="1052.69,74.5,1046.69,92.5,1058.69,92.5,1052.69,74.5" style="stroke:#181818;stroke-width:1;"/></g><!--reverse link Alumno to AlumnoDeportista--><g class="link" data-entity-1="ent0003" data-entity-2="ent0007" data-link-type="extension" data-source-line="43" id="lnk24"><path codeLine="43" d="M1099.0539,87.1211 C1138.2539,125.6711 1189.32,175.88 1223.81,209.8" fill="none" id="Alumno-backto-AlumnoDeportista" style="stroke:#181818;stroke-width:1;"/><polygon fill="none" points="1086.22,74.5,1094.8469,91.399,1103.2609,82.8431,1086.22,74.5" style="stroke:#181818;stroke-width:1;"/></g><!--reverse link Alumno to AlumnoDiscapacidad--><g class="link" data-entity-1="ent0003" data-entity-2="ent0008" data-link-type="extension" data-source-line="44" id="lnk25"><path codeLine="44" d="M1177.0892,80.4007 C1233.0192,99.6607 1284.47,120.69 1341.69,153.07 C1370.1,169.15 1399.14,192.51 1419.11,209.88" fill="none" id="Alumno-backto-AlumnoDiscapacidad" style="stroke:#181818;stroke-width:1;"/><polygon fill="none" points="1160.07,74.54,1175.1356,86.0738,1179.0427,74.7276,1160.07,74.54" style="stroke:#181818;stroke-width:1;"/></g><!--reverse link Alumno to AlumnoHonorario--><g class="link" data-entity-1="ent0003" data-entity-2="ent0009" data-link-type="extension" data-source-line="45" id="lnk26"><path codeLine="45" d="M890.198,51.7034 C739.788,63.8034 516.81,90.35 317.69,153.07 C280.73,164.72 241.72,183.79 211.25,200.42" fill="none" id="Alumno-backto-AlumnoHonorario" style="stroke:#181818;stroke-width:1;"/><polygon fill="none" points="908.14,50.26,889.7168,45.7227,890.6791,57.6841,908.14,50.26" style="stroke:#181818;stroke-width:1;"/></g><!--reverse link EvaluadorBecas to EvaluadorAcademico--><g class="link" data-entity-1="ent0002" data-entity-2="ent0013" data-link-type="extension" data-source-line="47" id="lnk28"><path codeLine="47" d="M1565.9756,323.9303 C1521.6756,345.9103 1493.21,360.03 1461.06,375.98" fill="none" id="EvaluadorBecas-backto-EvaluadorAcademico" style="stroke:#181818;stroke-width:1;stroke-dasharray:7,7;"/><polygon fill="none" points="1582.1,315.93,1563.3089,318.5555,1568.6424,329.3051,1582.1,315.93" style="stroke:#181818;stroke-width:1;"/></g><!--reverse link EvaluadorBecas to EvaluadorSocioeconomico--><g class="link" data-entity-1="ent0002" data-entity-2="ent0014" data-link-type="extension" data-source-line="48" id="lnk30"><path codeLine="48" d="M1681.1999,330.9299 C1666.5599,352.9999 1661.77,360.2 1651.17,376.16" fill="none" id="EvaluadorBecas-backto-EvaluadorSocioeconomico" style="stroke:#181818;stroke-width:1;stroke-dasharray:7,7;"/><polygon fill="none" points="1691.15,315.93,1676.2,327.6132,1686.1999,334.2466,1691.15,315.93" style="stroke:#181818;stroke-width:1;"/></g><!--reverse link EvaluadorBecas to EvaluadorDeportes--><g class="link" data-entity-1="ent0002" data-entity-2="ent0015" data-link-type="extension" data-source-line="49" id="lnk32"><path codeLine="49" d="M1807.6385,330.9706 C1822.1485,353.0406 1826.86,360.2 1837.36,376.16" fill="none" id="EvaluadorBecas-backto-EvaluadorDeportes" style="stroke:#181818;stroke-width:1;stroke-dasharray:7,7;"/><polygon fill="none" points="1797.75,315.93,1802.6249,334.2667,1812.652,327.6744,1797.75,315.93" style="stroke:#181818;stroke-width:1;"/></g><!--reverse link EvaluadorBecas to EvaluadorInternacional--><g class="link" data-entity-1="ent0002" data-entity-2="ent0016" data-link-type="extension" data-source-line="50" id="lnk34"><path codeLine="50" d="M1915.3911,324.2513 C1957.5511,346.2313 1984.02,360.03 2014.62,375.98" fill="none" id="EvaluadorBecas-backto-EvaluadorInternacional" style="stroke:#181818;stroke-width:1;stroke-dasharray:7,7;"/><polygon fill="none" points="1899.43,315.93,1912.6173,329.5716,1918.1648,318.9309,1899.43,315.93" style="stroke:#181818;stroke-width:1;"/></g><!--link Alumno to EvaluadorBecas--><g class="link" data-entity-1="ent0003" data-entity-2="ent0002" data-link-type="dependency" data-source-line="52" id="lnk35"><path codeLine="52" d="M1197.32,67.58 C1296.93,87.1 1431.71,116.67 1547.69,153.07 C1553.16,154.79 1552.9941,154.6742 1558.5441,156.5442" fill="none" id="Alumno-to-EvaluadorBecas" style="stroke:#181818;stroke-width:1;stroke-dasharray:7,7;"/><polygon fill="#181818" points="1564.23,158.46,1556.9783,151.7957,1559.4917,156.8635,1554.4239,159.3769,1564.23,158.46" style="stroke:#181818;stroke-width:1;"/></g><!--link Universidad to AlumnoHonorario--><g class="link" data-entity-1="ent0017" data-entity-2="ent0009" data-link-type="dependency" data-source-line="53" id="lnk36"><path codeLine="53" d="M155.69,74.5 C155.69,109.73 155.69,159.24 155.69,194.43" fill="none" id="Universidad-to-AlumnoHonorario" style="stroke:#181818;stroke-width:1;stroke-dasharray:7,7;"/><polygon fill="#181818" points="155.69,200.43,159.69,191.43,155.69,195.43,151.69,191.43,155.69,200.43" style="stroke:#181818;stroke-width:1;"/><text fill="#000000" font-family="sans-serif" font-size="13" lengthAdjust="spacing" textLength="63.5441" x="156.69" y="118.967">instanceof</text></g><?plantuml-src dPF1JiCm38RlUOfmsmHCd2U4DCGaTk8mZRj9lSsYYwia7OYDToVjqZPTCuJeeLtzssxy-Pzz9rs0WPrKELWxSyxGM-bmeLWlwGlbdH2a7PerA9JpFUGbP6mUKO6L1o7zTIsn3fkHl-yqJ-MiVewJwjo0tPMsIGglwTnNCgw4lCaDh-dSXTwZTRIfJjSKnB5qrHCMR1nP1qrD5xbGGLP10OeooDgQA3OMtqBKB8FOKhASao87DRmHDYYdPrIh1d5z82GFiXyFD0RnUEY1s4qtbA8XQh6dFhDc0uR-DOvcXzBGPkiahyyR-dPkQ_X3hhGjY-fucBqKQC0Hw_cdmgBw8L1dikhJ7Alzoan1XZjI74tKYajMnEYzp9SoJaJGfhH5PNpjaR0Ee4F6IjCUZJsX2ZmAmmej-4_MNCgivd8opOri-GnvHCryArhBqLKeawJzfhJ28RNnE28IZ7P_lBtjcoQX1DiabDWu2RcpJagCp9EGksMBnDxgQr9EZWzdtX6NzlXxShlIltJkxpYTt4mqcGoas0cLVFvlcKOx53y0?></g></svg>