<?plantuml 1.2026.2?><svg xmlns="http://www.w3.org/2000/svg" xmlns:xlink="http://www.w3.org/1999/xlink" contentStyleType="text/css" data-diagram-type="CLASS" height="507px" preserveAspectRatio="none" style="width:1059px;height:507px;background:#FFFFFF;" version="1.1" viewBox="0 0 1059 507" width="1059px" zoomAndPan="magnify"><defs/><g><!--class Pedido--><g class="entity" data-qualified-name="Pedido" data-source-line="3" id="ent0002"><rect fill="#F1F1F1" height="124.2717" rx="2.5" ry="2.5" style="stroke:#181818;stroke-width:0.5;" width="263.019" x="522.27" y="7"/><ellipse cx="628.2146" cy="23" fill="#A9DCDF" rx="11" ry="11" style="stroke:#181818;stroke-width:1;"/><path d="M623.3865,28.75 L626.7302,16.5625 L629.8708,16.5625 L633.2458,28.75 L630.7771,28.75 L630.0427,25.7344 L626.5271,25.7344 L625.7771,28.75 L623.3865,28.75 Z M627.7927,20.7031 L627.0427,23.7031 L629.5583,23.7031 L628.8396,20.7031 Q628.699,20.125 628.574,19.5781 Q628.449,19.0156 628.3083,18.4375 Q628.199,19.0156 628.0583,19.5781 Q627.9177,20.125 627.7927,20.7031 Z " fill="#000000"/><text fill="#000000" font-family="sans-serif" font-size="14" font-style="italic" lengthAdjust="spacing" textLength="42.6299" x="648.7146" y="28.432">Pedido</text><line style="stroke:#181818;stroke-width:0.5;" x1="523.27" x2="784.289" y1="39" y2="39"/><text fill="#000000" font-family="sans-serif" font-size="14" lengthAdjust="spacing" textLength="63.5178" x="528.27" y="57.9659">-id: String</text><text fill="#000000" font-family="sans-serif" font-size="14" lengthAdjust="spacing" textLength="94.7376" x="528.27" y="77.0339">-cliente: String</text><text fill="#000000" font-family="sans-serif" font-size="14" lengthAdjust="spacing" textLength="87.7937" x="528.27" y="96.1018">-total: double</text><line style="stroke:#181818;stroke-width:0.5;" x1="523.27" x2="784.289" y1="104.2038" y2="104.2038"/><text fill="#000000" font-family="sans-serif" font-size="14" font-style="italic" lengthAdjust="spacing" textLength="251.019" x="528.27" y="123.1697">+aceptar(procesador: ProcesadorEnvios)</text></g><!--class PedidoFisico--><g class="entity" data-qualified-name="PedidoFisico" data-source-line="10" id="ent0003"><rect fill="#F1F1F1" height="105.2038" rx="2.5" ry="2.5" style="stroke:#181818;stroke-width:0.5;" width="277.565" x="7" y="192.27"/><ellipse cx="100.5057" cy="208.27" fill="#ADD1B2" rx="11" ry="11" style="stroke:#181818;stroke-width:1;"/><path d="M99.9744,215.1919 Q98.2244,215.1919 97.0838,214.4575 Q95.9588,213.7075 95.3963,212.3637 Q94.8494,211.0044 94.8494,209.2075 Q94.8494,207.1762 95.5057,205.7231 Q96.1619,204.27 97.4432,203.4887 Q98.7244,202.7075 100.5994,202.7075 Q101.49,202.7075 102.1619,202.895 Q102.8338,203.0669 103.5213,203.4106 L102.7088,205.4262 Q102.0838,205.1137 101.5369,204.9887 Q101.0057,204.8637 100.5213,204.8637 Q99.3494,204.8637 98.6463,205.395 Q97.9432,205.9262 97.6463,206.8794 Q97.3494,207.8325 97.3494,209.0981 Q97.3494,211.1137 98.0682,212.0825 Q98.7869,213.0356 100.3807,213.0356 Q100.9744,213.0356 101.5994,212.8794 Q102.2244,212.7231 103.0525,212.3481 L103.0525,214.5669 Q102.3182,214.8794 101.5213,215.0356 Q100.74,215.1919 99.9744,215.1919 Z " fill="#000000"/><text fill="#000000" font-family="sans-serif" font-size="14" lengthAdjust="spacing" textLength="82.0537" x="121.0057" y="213.702">PedidoFisico</text><line style="stroke:#181818;stroke-width:0.5;" x1="8" x2="283.565" y1="224.27" y2="224.27"/><text fill="#000000" font-family="sans-serif" font-size="14" lengthAdjust="spacing" textLength="146.9994" x="13" y="243.2359">-direccionEnvio: String</text><text fill="#000000" font-family="sans-serif" font-size="14" lengthAdjust="spacing" textLength="89.4317" x="13" y="262.3039">-peso: double</text><line style="stroke:#181818;stroke-width:0.5;" x1="8" x2="283.565" y1="270.4058" y2="270.4058"/><text fill="#000000" font-family="sans-serif" font-size="14" lengthAdjust="spacing" textLength="265.565" x="13" y="289.3718">+aceptar(procesador: ProcesadorEnvios)</text></g><!--class PedidoDigital--><g class="entity" data-qualified-name="PedidoDigital" data-source-line="16" id="ent0004"><rect fill="#F1F1F1" height="86.1358" rx="2.5" ry="2.5" style="stroke:#181818;stroke-width:0.5;" width="277.565" x="320" y="201.81"/><ellipse cx="410.4117" cy="217.81" fill="#ADD1B2" rx="11" ry="11" style="stroke:#181818;stroke-width:1;"/><path d="M409.8804,224.7319 Q408.1304,224.7319 406.9898,223.9975 Q405.8648,223.2475 405.3023,221.9038 Q404.7554,220.5444 404.7554,218.7475 Q404.7554,216.7163 405.4117,215.2631 Q406.0679,213.81 407.3492,213.0288 Q408.6304,212.2475 410.5054,212.2475 Q411.3961,212.2475 412.0679,212.435 Q412.7398,212.6069 413.4273,212.9506 L412.6148,214.9663 Q411.9898,214.6538 411.4429,214.5288 Q410.9117,214.4038 410.4273,214.4038 Q409.2554,214.4038 408.5523,214.935 Q407.8492,215.4663 407.5523,216.4194 Q407.2554,217.3725 407.2554,218.6381 Q407.2554,220.6538 407.9742,221.6225 Q408.6929,222.5756 410.2867,222.5756 Q410.8804,222.5756 411.5054,222.4194 Q412.1304,222.2631 412.9586,221.8881 L412.9586,224.1069 Q412.2242,224.4194 411.4273,224.5756 Q410.6461,224.7319 409.8804,224.7319 Z " fill="#000000"/><text fill="#000000" font-family="sans-serif" font-size="14" lengthAdjust="spacing" textLength="88.2417" x="430.9117" y="223.242">PedidoDigital</text><line style="stroke:#181818;stroke-width:0.5;" x1="321" x2="596.565" y1="233.81" y2="233.81"/><text fill="#000000" font-family="sans-serif" font-size="14" lengthAdjust="spacing" textLength="87.3597" x="326" y="252.7759">-email: String</text><line style="stroke:#181818;stroke-width:0.5;" x1="321" x2="596.565" y1="260.8779" y2="260.8779"/><text fill="#000000" font-family="sans-serif" font-size="14" lengthAdjust="spacing" textLength="265.565" x="326" y="279.8439">+aceptar(procesador: ProcesadorEnvios)</text></g><!--class PedidoSuscripcion--><g class="entity" data-qualified-name="PedidoSuscripcion" data-source-line="21" id="ent0005"><rect fill="#F1F1F1" height="86.1358" rx="2.5" ry="2.5" style="stroke:#181818;stroke-width:0.5;" width="277.565" x="633" y="201.81"/><ellipse cx="707.0877" cy="217.81" fill="#ADD1B2" rx="11" ry="11" style="stroke:#181818;stroke-width:1;"/><path d="M706.5565,224.7319 Q704.8065,224.7319 703.6659,223.9975 Q702.5409,223.2475 701.9784,221.9038 Q701.4315,220.5444 701.4315,218.7475 Q701.4315,216.7163 702.0877,215.2631 Q702.744,213.81 704.0252,213.0288 Q705.3065,212.2475 707.1815,212.2475 Q708.0721,212.2475 708.744,212.435 Q709.4159,212.6069 710.1034,212.9506 L709.2909,214.9663 Q708.6659,214.6538 708.119,214.5288 Q707.5877,214.4038 707.1034,214.4038 Q705.9315,214.4038 705.2284,214.935 Q704.5252,215.4663 704.2284,216.4194 Q703.9315,217.3725 703.9315,218.6381 Q703.9315,220.6538 704.6502,221.6225 Q705.369,222.5756 706.9627,222.5756 Q707.5565,222.5756 708.1815,222.4194 Q708.8065,222.2631 709.6346,221.8881 L709.6346,224.1069 Q708.9002,224.4194 708.1034,224.5756 Q707.3221,224.7319 706.5565,224.7319 Z " fill="#000000"/><text fill="#000000" font-family="sans-serif" font-size="14" lengthAdjust="spacing" textLength="120.8895" x="727.5877" y="223.242">PedidoSuscripcion</text><line style="stroke:#181818;stroke-width:0.5;" x1="634" x2="909.565" y1="233.81" y2="233.81"/><text fill="#000000" font-family="sans-serif" font-size="14" lengthAdjust="spacing" textLength="129.4715" x="639" y="252.7759">-duracionMeses: int</text><line style="stroke:#181818;stroke-width:0.5;" x1="634" x2="909.565" y1="260.8779" y2="260.8779"/><text fill="#000000" font-family="sans-serif" font-size="14" lengthAdjust="spacing" textLength="265.565" x="639" y="279.8439">+aceptar(procesador: ProcesadorEnvios)</text></g><!--class ProcesadorEnvios--><g class="entity" data-qualified-name="ProcesadorEnvios" data-source-line="26" id="ent0006"><rect fill="#F1F1F1" height="124.2717" rx="2.5" ry="2.5" style="stroke:#181818;stroke-width:0.5;" width="477.5124" x="376.03" y="376.48"/><ellipse cx="551.9884" cy="392.48" fill="#ADD1B2" rx="11" ry="11" style="stroke:#181818;stroke-width:1;"/><path d="M551.4572,399.4019 Q549.7072,399.4019 548.5666,398.6675 Q547.4416,397.9175 546.8791,396.5738 Q546.3322,395.2144 546.3322,393.4175 Q546.3322,391.3863 546.9884,389.9331 Q547.6447,388.48 548.9259,387.6988 Q550.2072,386.9175 552.0822,386.9175 Q552.9728,386.9175 553.6447,387.105 Q554.3166,387.2769 555.0041,387.6206 L554.1916,389.6363 Q553.5666,389.3238 553.0197,389.1988 Q552.4884,389.0738 552.0041,389.0738 Q550.8322,389.0738 550.1291,389.605 Q549.4259,390.1363 549.1291,391.0894 Q548.8322,392.0425 548.8322,393.3081 Q548.8322,395.3238 549.5509,396.2925 Q550.2697,397.2456 551.8634,397.2456 Q552.4572,397.2456 553.0822,397.0894 Q553.7072,396.9331 554.5353,396.5581 L554.5353,398.7769 Q553.8009,399.0894 553.0041,399.2456 Q552.2228,399.4019 551.4572,399.4019 Z " fill="#000000"/><text fill="#000000" font-family="sans-serif" font-size="14" lengthAdjust="spacing" textLength="117.0956" x="572.4884" y="397.912">ProcesadorEnvios</text><line style="stroke:#181818;stroke-width:0.5;" x1="377.03" x2="852.5424" y1="408.48" y2="408.48"/><line style="stroke:#181818;stroke-width:0.5;" x1="377.03" x2="852.5424" y1="416.48" y2="416.48"/><text fill="#000000" font-family="sans-serif" font-size="14" lengthAdjust="spacing" textLength="173.0954" x="382.03" y="435.4459">+procesar(pedido: Pedido)</text><text fill="#000000" font-family="sans-serif" font-size="14" lengthAdjust="spacing" textLength="317.8829" x="382.03" y="454.5139">+procesarEnvioFisico(pedidoFisico: PedidoFisico)</text><text fill="#000000" font-family="sans-serif" font-size="14" lengthAdjust="spacing" textLength="336.4468" x="382.03" y="473.5818">+procesarEnvioDigital(pedidoDigital: PedidoDigital)</text><text fill="#000000" font-family="sans-serif" font-size="14" lengthAdjust="spacing" textLength="465.5124" x="382.03" y="492.6497">+procesarActivacionSuscripcion(pedidoSuscripcion: PedidoSuscripcion)</text></g><!--reverse link Pedido to PedidoFisico--><g class="link" data-entity-1="ent0002" data-entity-2="ent0003" data-link-type="extension" data-source-line="33" id="lnk7"><path codeLine="33" d="M504.9382,121.044 C432.1782,145.924 358.89,170.99 284.99,196.27" fill="none" id="Pedido-backto-PedidoFisico" style="stroke:#181818;stroke-width:1;"/><polygon fill="none" points="521.97,115.22,502.9969,115.3667,506.8795,126.7212,521.97,115.22" style="stroke:#181818;stroke-width:1;"/></g><!--reverse link Pedido to PedidoDigital--><g class="link" data-entity-1="ent0002" data-entity-2="ent0004" data-link-type="extension" data-source-line="34" id="lnk8"><path codeLine="34" d="M571.3183,143.6117 C545.3483,166.7417 529.87,180.54 506.3,201.54" fill="none" id="Pedido-backto-PedidoDigital" style="stroke:#181818;stroke-width:1;"/><polygon fill="none" points="584.76,131.64,567.3278,139.1312,575.3089,148.0923,584.76,131.64" style="stroke:#181818;stroke-width:1;"/></g><!--reverse link Pedido to PedidoSuscripcion--><g class="link" data-entity-1="ent0002" data-entity-2="ent0005" data-link-type="extension" data-source-line="35" id="lnk9"><path codeLine="35" d="M705.4933,146.2803 C721.2233,169.4403 728.65,180.37 742.95,201.42" fill="none" id="Pedido-backto-PedidoSuscripcion" style="stroke:#181818;stroke-width:1;"/><polygon fill="none" points="695.38,131.39,700.5299,149.6514,710.4567,142.9092,695.38,131.39" style="stroke:#181818;stroke-width:1;"/></g><!--link ProcesadorEnvios to Pedido--><g class="link" data-entity-1="ent0006" data-entity-2="ent0002" data-link-type="dependency" data-source-line="37" id="lnk10"><path codeLine="37" d="M840.95,376.16 C875.65,356.67 906.83,331.07 927.78,297.48 C952.52,257.8 953.24,231.49 927.78,192.27 C895.88,143.13 844.7987,115.4676 791.1687,97.7976" fill="none" id="ProcesadorEnvios-to-Pedido" style="stroke:#181818;stroke-width:1;stroke-dasharray:7,7;"/><polygon fill="#181818" points="785.47,95.92,792.7663,102.5355,790.2189,97.4847,795.2697,94.9373,785.47,95.92" style="stroke:#181818;stroke-width:1;"/><text fill="#000000" font-family="sans-serif" font-size="13" lengthAdjust="spacing" textLength="103.9351" x="947.61" y="250.277">primer despacho</text></g><!--link PedidoFisico to ProcesadorEnvios--><g class="link" data-entity-1="ent0003" data-entity-2="ent0006" data-link-type="dependency" data-source-line="38" id="lnk11"><path codeLine="38" d="M273.01,297.89 C332.01,322.01 397.0062,348.5795 458.6462,373.7795" fill="none" id="PedidoFisico-to-ProcesadorEnvios" style="stroke:#181818;stroke-width:1;"/><polygon fill="#181818" points="464.2,376.05,457.383,368.9417,459.5718,374.1579,454.3556,376.3467,464.2,376.05" style="stroke:#181818;stroke-width:1;"/><text fill="#000000" font-family="sans-serif" font-size="13" lengthAdjust="spacing" textLength="115.8431" x="381.28" y="342.377">segundo despacho</text></g><!--link PedidoDigital to ProcesadorEnvios--><g class="link" data-entity-1="ent0004" data-entity-2="ent0006" data-link-type="dependency" data-source-line="39" id="lnk12"><path codeLine="39" d="M489.01,288.1 C502.38,306.33 518.51,327.73 533.78,346.48 C541.8,356.33 546.5797,362.0352 555.2097,371.9452" fill="none" id="PedidoDigital-to-ProcesadorEnvios" style="stroke:#181818;stroke-width:1;"/><polygon fill="#181818" points="559.15,376.47,556.256,367.0559,555.8664,372.6993,550.223,372.3097,559.15,376.47" style="stroke:#181818;stroke-width:1;"/><text fill="#000000" font-family="sans-serif" font-size="13" lengthAdjust="spacing" textLength="115.8431" x="534.78" y="342.377">segundo despacho</text></g><!--link PedidoSuscripcion to ProcesadorEnvios--><g class="link" data-entity-1="ent0005" data-entity-2="ent0006" data-link-type="dependency" data-source-line="40" id="lnk13"><path codeLine="40" d="M736.94,288.43 C715.8,314.25 692.2719,342.9883 668.8219,371.6183" fill="none" id="PedidoSuscripcion-to-ProcesadorEnvios" style="stroke:#181818;stroke-width:1;"/><polygon fill="#181818" points="665.02,376.26,673.8173,371.832,668.1882,372.3919,667.6284,366.7628,665.02,376.26" style="stroke:#181818;stroke-width:1;"/><text fill="#000000" font-family="sans-serif" font-size="13" lengthAdjust="spacing" textLength="115.8431" x="703.68" y="342.377">segundo despacho</text></g><?plantuml-src dLFDReCm3Bxp53wkggXsZgPAbRP9Eqogn1E4n6BM845nw65TttqPX1PI3XkSY9tlnn-6Fycqqia6L2sP3zuxAZkFRygQWhuG7hDCbkoTL7wu0aVKf2sSCmXF3gG5505bgbXGDQ7nc5IzzR8Me6rNrjZNjd0UcIyW5RPUkeVMMOKijNK2ZjVt5tCYovliacLJ3w_4f6vED3bKYgpfhoVwBR9Dv5TfFbD5OPAhA3QIwfdMIkAYO-Me_VL_cwWBwOJ2EpAo039-fKBIYW9RYFX0r7iGqSicQVUe8UruSpY8sOTOHCMy8YoUn3pC57XGdaxzu9DG8iEa8kwJwsUE2_hqdUSpVmkDQ62XCo4DZ6b-kzr-_0z4i4qDEj38hLGVeqnSpZpVtySlWB7gJ40de76x_eUQhivVaJy0?></g></svg>