<?xml version="1.0" encoding="us-ascii" standalone="no"?><svg xmlns="http://www.w3.org/2000/svg" xmlns:xlink="http://www.w3.org/1999/xlink" contentStyleType="text/css" height="641px" preserveAspectRatio="none" style="width:1716px;height:641px;background:#FFFFFF;" version="1.1" viewBox="0 0 1716 641" width="1716px" zoomAndPan="magnify"><defs/><g><!--class Pedido--><g id="elem_Pedido"><rect codeLine="3" fill="#F1F1F1" height="200.5433" id="Pedido" rx="2.5" ry="2.5" style="stroke:#181818;stroke-width:0.5;" width="331" x="873.5" y="210.27"/><ellipse cx="1013.25" cy="226.27" fill="#A9DCDF" rx="11" ry="11" style="stroke:#181818;stroke-width:1.0;"/><path d="M1008.4219,232.02 L1011.7656,219.8325 L1014.9063,219.8325 L1018.2813,232.02 L1015.8125,232.02 L1015.0781,229.0044 L1011.5625,229.0044 L1010.8125,232.02 L1008.4219,232.02 Z M1012.8281,223.9731 L1012.0781,226.9731 L1014.5938,226.9731 L1013.875,223.9731 Q1013.7344,223.395 1013.6094,222.8481 Q1013.4844,222.2856 1013.3438,221.7075 Q1013.2344,222.2856 1013.0938,222.8481 Q1012.9531,223.395 1012.8281,223.9731 Z " fill="#000000"/><text fill="#000000" font-family="sans-serif" font-size="14" font-style="italic" lengthAdjust="spacing" textLength="43" x="1033.75" y="231.702">Pedido</text><line style="stroke:#181818;stroke-width:0.5;" x1="874.5" x2="1203.5" y1="242.27" y2="242.27"/><text fill="#000000" font-family="sans-serif" font-size="14" lengthAdjust="spacing" textLength="67" x="879.5" y="261.2359">-id: String</text><text fill="#000000" font-family="sans-serif" font-size="14" lengthAdjust="spacing" textLength="99" x="879.5" y="280.3039">-cliente: String</text><text fill="#000000" font-family="sans-serif" font-size="14" lengthAdjust="spacing" textLength="90" x="879.5" y="299.3718">-total: double</text><line style="stroke:#181818;stroke-width:0.5;" x1="874.5" x2="1203.5" y1="307.4738" y2="307.4738"/><text fill="#000000" font-family="sans-serif" font-size="14" lengthAdjust="spacing" textLength="319" x="879.5" y="326.4397">+Pedido(id: String, cliente: String, total: double)</text><text fill="#000000" font-family="sans-serif" font-size="14" lengthAdjust="spacing" textLength="101" x="879.5" y="345.5076">+getId(): String</text><text fill="#000000" font-family="sans-serif" font-size="14" lengthAdjust="spacing" textLength="134" x="879.5" y="364.5755">+getCliente(): String</text><text fill="#000000" font-family="sans-serif" font-size="14" lengthAdjust="spacing" textLength="126" x="879.5" y="383.6434">+getTotal(): double</text><text fill="#000000" font-family="sans-serif" font-size="14" font-style="italic" lengthAdjust="spacing" textLength="289" x="879.5" y="402.7114">+aceptar(procesador: ProcesadorEnvios): void</text></g><!--class PedidoFisico--><g id="elem_PedidoFisico"><rect codeLine="14" fill="#F1F1F1" height="162.4075" id="PedidoFisico" rx="2.5" ry="2.5" style="stroke:#181818;stroke-width:0.5;" width="618" x="7" y="471.81"/><ellipse cx="270.25" cy="487.81" fill="#ADD1B2" rx="11" ry="11" style="stroke:#181818;stroke-width:1.0;"/><path d="M269.7188,494.7319 Q267.9688,494.7319 266.8281,493.9975 Q265.7031,493.2475 265.1406,491.9038 Q264.5938,490.5444 264.5938,488.7475 Q264.5938,486.7163 265.25,485.2631 Q265.9063,483.81 267.1875,483.0288 Q268.4688,482.2475 270.3438,482.2475 Q271.2344,482.2475 271.9063,482.435 Q272.5781,482.6069 273.2656,482.9506 L272.4531,484.9663 Q271.8281,484.6538 271.2813,484.5288 Q270.75,484.4038 270.2656,484.4038 Q269.0938,484.4038 268.3906,484.935 Q267.6875,485.4663 267.3906,486.4194 Q267.0938,487.3725 267.0938,488.6381 Q267.0938,490.6538 267.8125,491.6225 Q268.5313,492.5756 270.125,492.5756 Q270.7188,492.5756 271.3438,492.4194 Q271.9688,492.2631 272.7969,491.8881 L272.7969,494.1069 Q272.0625,494.4194 271.2656,494.5756 Q270.4844,494.7319 269.7188,494.7319 Z " fill="#000000"/><text fill="#000000" font-family="sans-serif" font-size="14" lengthAdjust="spacing" textLength="83" x="290.75" y="493.242">PedidoFisico</text><line style="stroke:#181818;stroke-width:0.5;" x1="8" x2="624" y1="503.81" y2="503.81"/><text fill="#000000" font-family="sans-serif" font-size="14" lengthAdjust="spacing" textLength="152" x="13" y="522.7759">-direccionEnvio: String</text><text fill="#000000" font-family="sans-serif" font-size="14" lengthAdjust="spacing" textLength="92" x="13" y="541.8439">-peso: double</text><line style="stroke:#181818;stroke-width:0.5;" x1="8" x2="624" y1="549.9458" y2="549.9458"/><text fill="#000000" font-family="sans-serif" font-size="14" lengthAdjust="spacing" textLength="606" x="13" y="568.9118">+PedidoFisico(id: String, cliente: String, total: double, direccionEnvio: String, peso: double)</text><text fill="#000000" font-family="sans-serif" font-size="14" lengthAdjust="spacing" textLength="186" x="13" y="587.9797">+getDireccionEnvio(): String</text><text fill="#000000" font-family="sans-serif" font-size="14" lengthAdjust="spacing" textLength="124" x="13" y="607.0476">+getPeso(): double</text><text fill="#000000" font-family="sans-serif" font-size="14" lengthAdjust="spacing" textLength="305" x="13" y="626.1155">+aceptar(procesador: ProcesadorEnvios): void</text></g><!--class PedidoDigital--><g id="elem_PedidoDigital"><rect codeLine="23" fill="#F1F1F1" height="124.2717" id="PedidoDigital" rx="2.5" ry="2.5" style="stroke:#181818;stroke-width:0.5;" width="469" x="1240.5" y="490.88"/><ellipse cx="1425.75" cy="506.88" fill="#ADD1B2" rx="11" ry="11" style="stroke:#181818;stroke-width:1.0;"/><path d="M1425.2188,513.8019 Q1423.4688,513.8019 1422.3281,513.0675 Q1421.2031,512.3175 1420.6406,510.9738 Q1420.0938,509.6144 1420.0938,507.8175 Q1420.0938,505.7863 1420.75,504.3331 Q1421.4063,502.88 1422.6875,502.0988 Q1423.9688,501.3175 1425.8438,501.3175 Q1426.7344,501.3175 1427.4063,501.505 Q1428.0781,501.6769 1428.7656,502.0206 L1427.9531,504.0363 Q1427.3281,503.7238 1426.7813,503.5988 Q1426.25,503.4738 1425.7656,503.4738 Q1424.5938,503.4738 1423.8906,504.005 Q1423.1875,504.5363 1422.8906,505.4894 Q1422.5938,506.4425 1422.5938,507.7081 Q1422.5938,509.7238 1423.3125,510.6925 Q1424.0313,511.6456 1425.625,511.6456 Q1426.2188,511.6456 1426.8438,511.4894 Q1427.4688,511.3331 1428.2969,510.9581 L1428.2969,513.1769 Q1427.5625,513.4894 1426.7656,513.6456 Q1425.9844,513.8019 1425.2188,513.8019 Z " fill="#000000"/><text fill="#000000" font-family="sans-serif" font-size="14" lengthAdjust="spacing" textLength="90" x="1446.25" y="512.312">PedidoDigital</text><line style="stroke:#181818;stroke-width:0.5;" x1="1241.5" x2="1708.5" y1="522.88" y2="522.88"/><text fill="#000000" font-family="sans-serif" font-size="14" lengthAdjust="spacing" textLength="91" x="1246.5" y="541.8459">-email: String</text><line style="stroke:#181818;stroke-width:0.5;" x1="1241.5" x2="1708.5" y1="549.9479" y2="549.9479"/><text fill="#000000" font-family="sans-serif" font-size="14" lengthAdjust="spacing" textLength="457" x="1246.5" y="568.9139">+PedidoDigital(id: String, cliente: String, total: double, email: String)</text><text fill="#000000" font-family="sans-serif" font-size="14" lengthAdjust="spacing" textLength="124" x="1246.5" y="587.9818">+getEmail(): String</text><text fill="#000000" font-family="sans-serif" font-size="14" lengthAdjust="spacing" textLength="305" x="1246.5" y="607.0497">+aceptar(procesador: ProcesadorEnvios): void</text></g><!--class PedidoSuscripcion--><g id="elem_PedidoSuscripcion"><rect codeLine="30" fill="#F1F1F1" height="124.2717" id="PedidoSuscripcion" rx="2.5" ry="2.5" style="stroke:#181818;stroke-width:0.5;" width="546" x="660" y="490.88"/><ellipse cx="866.75" cy="506.88" fill="#ADD1B2" rx="11" ry="11" style="stroke:#181818;stroke-width:1.0;"/><path d="M866.2188,513.8019 Q864.4688,513.8019 863.3281,513.0675 Q862.2031,512.3175 861.6406,510.9738 Q861.0938,509.6144 861.0938,507.8175 Q861.0938,505.7863 861.75,504.3331 Q862.4063,502.88 863.6875,502.0988 Q864.9688,501.3175 866.8438,501.3175 Q867.7344,501.3175 868.4063,501.505 Q869.0781,501.6769 869.7656,502.0206 L868.9531,504.0363 Q868.3281,503.7238 867.7813,503.5988 Q867.25,503.4738 866.7656,503.4738 Q865.5938,503.4738 864.8906,504.005 Q864.1875,504.5363 863.8906,505.4894 Q863.5938,506.4425 863.5938,507.7081 Q863.5938,509.7238 864.3125,510.6925 Q865.0313,511.6456 866.625,511.6456 Q867.2188,511.6456 867.8438,511.4894 Q868.4688,511.3331 869.2969,510.9581 L869.2969,513.1769 Q868.5625,513.4894 867.7656,513.6456 Q866.9844,513.8019 866.2188,513.8019 Z " fill="#000000"/><text fill="#000000" font-family="sans-serif" font-size="14" lengthAdjust="spacing" textLength="124" x="887.25" y="512.312">PedidoSuscripcion</text><line style="stroke:#181818;stroke-width:0.5;" x1="661" x2="1205" y1="522.88" y2="522.88"/><text fill="#000000" font-family="sans-serif" font-size="14" lengthAdjust="spacing" textLength="134" x="666" y="541.8459">-duracionMeses: int</text><line style="stroke:#181818;stroke-width:0.5;" x1="661" x2="1205" y1="549.9479" y2="549.9479"/><text fill="#000000" font-family="sans-serif" font-size="14" lengthAdjust="spacing" textLength="534" x="666" y="568.9139">+PedidoSuscripcion(id: String, cliente: String, total: double, duracionMeses: int)</text><text fill="#000000" font-family="sans-serif" font-size="14" lengthAdjust="spacing" textLength="168" x="666" y="587.9818">+getDuracionMeses(): int</text><text fill="#000000" font-family="sans-serif" font-size="14" lengthAdjust="spacing" textLength="305" x="666" y="607.0497">+aceptar(procesador: ProcesadorEnvios): void</text></g><!--class ProcesadorEnvios--><g id="elem_ProcesadorEnvios"><rect codeLine="37" fill="#F1F1F1" height="124.2717" id="ProcesadorEnvios" rx="2.5" ry="2.5" style="stroke:#181818;stroke-width:0.5;" width="417" x="672.5" y="7"/><ellipse cx="817.75" cy="23" fill="#ADD1B2" rx="11" ry="11" style="stroke:#181818;stroke-width:1.0;"/><path d="M817.2188,29.9219 Q815.4688,29.9219 814.3281,29.1875 Q813.2031,28.4375 812.6406,27.0938 Q812.0938,25.7344 812.0938,23.9375 Q812.0938,21.9063 812.75,20.4531 Q813.4063,19 814.6875,18.2188 Q815.9688,17.4375 817.8438,17.4375 Q818.7344,17.4375 819.4063,17.625 Q820.0781,17.7969 820.7656,18.1406 L819.9531,20.1563 Q819.3281,19.8438 818.7813,19.7188 Q818.25,19.5938 817.7656,19.5938 Q816.5938,19.5938 815.8906,20.125 Q815.1875,20.6563 814.8906,21.6094 Q814.5938,22.5625 814.5938,23.8281 Q814.5938,25.8438 815.3125,26.8125 Q816.0313,27.7656 817.625,27.7656 Q818.2188,27.7656 818.8438,27.6094 Q819.4688,27.4531 820.2969,27.0781 L820.2969,29.2969 Q819.5625,29.6094 818.7656,29.7656 Q817.9844,29.9219 817.2188,29.9219 Z " fill="#000000"/><text fill="#000000" font-family="sans-serif" font-size="14" lengthAdjust="spacing" textLength="118" x="838.25" y="28.432">ProcesadorEnvios</text><line style="stroke:#181818;stroke-width:0.5;" x1="673.5" x2="1088.5" y1="39" y2="39"/><line style="stroke:#181818;stroke-width:0.5;" x1="673.5" x2="1088.5" y1="47" y2="47"/><text fill="#000000" font-family="sans-serif" font-size="14" lengthAdjust="spacing" textLength="212" x="678.5" y="65.9659">+procesar(pedido: Pedido): void</text><text fill="#000000" font-family="sans-serif" font-size="14" lengthAdjust="spacing" textLength="289" x="678.5" y="85.0339">+procesarEnvioFisico(pf: PedidoFisico): void</text><text fill="#000000" font-family="sans-serif" font-size="14" lengthAdjust="spacing" textLength="307" x="678.5" y="104.1018">+procesarEnvioDigital(pd: PedidoDigital): void</text><text fill="#000000" font-family="sans-serif" font-size="14" lengthAdjust="spacing" textLength="405" x="678.5" y="123.1697">+procesarActivacionSuscripcion(ps: PedidoSuscripcion): void</text></g><g id="elem_GMN14"><path d="M1124.5,28.72 L1124.5,65.13 L1089.9,69.13 L1124.5,73.13 L1124.5,109.5441 A0,0 0 0 0 1124.5,109.5441 L1315.5,109.5441 A0,0 0 0 0 1315.5,109.5441 L1315.5,38.72 L1305.5,28.72 L1124.5,28.72 A0,0 0 0 0 1124.5,28.72 " fill="#FEFFDD" style="stroke:#181818;stroke-width:0.5;"/><path d="M1305.5,28.72 L1305.5,38.72 L1315.5,38.72 L1305.5,28.72 " fill="#FEFFDD" style="stroke:#181818;stroke-width:0.5;"/><text fill="#000000" font-family="sans-serif" font-size="13" lengthAdjust="spacing" textLength="147" x="1130.5" y="47.617">Doble despacho manual:</text><text fill="#000000" font-family="sans-serif" font-size="13" lengthAdjust="spacing" textLength="133" x="1130.5" y="65.323">1. pedido.aceptar(this)</text><text fill="#000000" font-family="sans-serif" font-size="13" lengthAdjust="spacing" textLength="170" x="1130.5" y="83.029">2. procesador.visitar(pedido)</text><text fill="#000000" font-family="sans-serif" font-size="13" lengthAdjust="spacing" textLength="164" x="1130.5" y="100.7351">Elimina instanceof y casting</text></g><!--reverse link Pedido to PedidoFisico--><g id="link_Pedido_PedidoFisico"><path codeLine="44" d="M856.7386,407.1875 C847.9386,411.0075 855.66,407.47 847,410.81 C803.73,427.52 716.71,451.91 625.42,475.74 " fill="none" id="Pedido-backto-PedidoFisico" style="stroke:#181818;stroke-width:1.0;"/><polygon fill="none" points="873.25,400.02,854.3494,401.6837,859.1277,412.6913,873.25,400.02" style="stroke:#181818;stroke-width:1.0;"/></g><!--reverse link Pedido to PedidoDigital--><g id="link_Pedido_PedidoDigital"><path codeLine="45" d="M1220.5323,411.662 C1273.5023,440.872 1315.08,463.81 1363.26,490.38 " fill="none" id="Pedido-backto-PedidoDigital" style="stroke:#181818;stroke-width:1.0;"/><polygon fill="none" points="1204.77,402.97,1217.6349,416.9161,1223.4296,406.4079,1204.77,402.97" style="stroke:#181818;stroke-width:1.0;"/></g><!--reverse link Pedido to PedidoSuscripcion--><g id="link_Pedido_PedidoSuscripcion"><path codeLine="46" d="M987.8567,427.5595 C976.0067,454.4295 970.8,466.26 960.16,490.39 " fill="none" id="Pedido-backto-PedidoSuscripcion" style="stroke:#181818;stroke-width:1.0;"/><polygon fill="none" points="995.12,411.09,982.3669,425.1384,993.3466,429.9806,995.12,411.09" style="stroke:#181818;stroke-width:1.0;"/></g><!--link ProcesadorEnvios to Pedido--><g id="link_ProcesadorEnvios_Pedido"><path codeLine="48" d="M921.48,131.48 C937.21,155.3 952.3249,178.2124 969.8549,204.7724 " fill="none" id="ProcesadorEnvios-to-Pedido" style="stroke:#181818;stroke-width:1.0;stroke-dasharray:7.0,7.0;"/><polygon fill="#181818" points="973.16,209.78,971.5408,200.0652,970.4057,205.607,964.8639,204.472,973.16,209.78" style="stroke:#181818;stroke-width:1.0;"/><text fill="#000000" font-family="sans-serif" font-size="13" lengthAdjust="spacing" textLength="101" x="951.54" y="176.167">primer despacho</text></g><!--link PedidoFisico to ProcesadorEnvios--><g id="link_PedidoFisico_ProcesadorEnvios"><path codeLine="49" d="M364.78,471.49 C413.66,396.15 494.86,284.42 588,210.27 C627.04,179.19 668.6832,155.4092 713.5532,134.2492 " fill="none" id="PedidoFisico-to-ProcesadorEnvios" style="stroke:#181818;stroke-width:1.0;"/><polygon fill="#181818" points="718.98,131.69,709.1336,131.9109,714.4576,133.8227,712.5459,139.1467,718.98,131.69" style="stroke:#181818;stroke-width:1.0;"/><text fill="#000000" font-family="sans-serif" font-size="13" lengthAdjust="spacing" textLength="114" x="589" y="315.937">segundo despacho</text></g><!--link PedidoDigital to ProcesadorEnvios--><g id="link_PedidoDigital_ProcesadorEnvios"><path codeLine="50" d="M1443.33,490.65 C1401.71,415.37 1322.03,288.18 1222,210.27 C1180.59,178.02 1136.2634,154.3698 1087.6034,133.9698 " fill="none" id="PedidoDigital-to-ProcesadorEnvios" style="stroke:#181818;stroke-width:1.0;"/><polygon fill="#181818" points="1082.07,131.65,1088.8236,138.8186,1086.6812,133.5832,1091.9166,131.4408,1082.07,131.65" style="stroke:#181818;stroke-width:1.0;"/><text fill="#000000" font-family="sans-serif" font-size="13" lengthAdjust="spacing" textLength="114" x="1396.24" y="315.937">segundo despacho</text></g><!--link PedidoSuscripcion to ProcesadorEnvios--><g id="link_PedidoSuscripcion_ProcesadorEnvios"><path codeLine="51" d="M812.59,490.4 C783.55,469.34 756.25,442.84 740,410.81 C699.67,331.33 705.76,292.56 740,210.27 C752.46,180.32 770.42,157.5919 793.68,135.6019 " fill="none" id="PedidoSuscripcion-to-ProcesadorEnvios" style="stroke:#181818;stroke-width:1.0;"/><polygon fill="#181818" points="798.04,131.48,788.752,134.7562,794.4067,134.915,794.248,140.5696,798.04,131.48" style="stroke:#181818;stroke-width:1.0;"/><text fill="#000000" font-family="sans-serif" font-size="13" lengthAdjust="spacing" textLength="114" x="741" y="315.937">segundo despacho</text></g><!--SRC=[fLJBRjim4BphA_Re89RGvaWK0OBQ1N8eOC3v0PhSo8jAf41I1fh7lvUIAOkKrA1kV39sERCxmn7jBr8DDxm6KN5h7vmpT6WTFWgjzlI2y2NB-C4wmuKx7u4TIf8QNZFmlnn8CjXxb2f3GLI4ok6awhJZ5GEfsqE5VUqsCAr6XlKKl4vnDm5OedkKgvjaH5_zVeOljPuwegwHhF0wY7i7Bh1ntAmQemLQBhLXiBlytweJQUlX9qqoUy-os8mVP4cCbaWoA0HfrOCcHZHezQ8FPv8ht5Z_PT0wcH5vjacEBvcqyy2PHvymPaCb-Oqlpc3DgPgCJKvU9JzXYtHkk_fCtYTax5ih33MTTUCbjpusll0JBLe6f5oY9u9STwKpslW2usOdS9pwV-ec1uAuMmWidguNmuAeWI0zr6D3UfjdbiJv0yHmuuraQGQMCG_2qQbN7rlRM3OtFD8P7gjlRtcUxBNG2DCNEX6rPvnwLXJtmvl8_BPKem69jk7YE8m9xqEUtyyjPs2nR9L7Jq33jtCTAexglo8pfHs2eVBeG3_F8FuYDjg7ymA0cglMXzOtlXPmZaWn1D0ToNQHlIjWp69nyWwuIvww_hQYcXJt4RQEAu5-y6yGtBhkYqKbeLig-mC0]--></g></svg>