<?xml version="1.0" encoding="us-ascii" standalone="no"?><svg xmlns="http://www.w3.org/2000/svg" xmlns:xlink="http://www.w3.org/1999/xlink" contentStyleType="text/css" height="583px" preserveAspectRatio="none" style="width:1744px;height:583px;background:#FFFFFF;" version="1.1" viewBox="0 0 1744 583" width="1744px" zoomAndPan="magnify"><defs/><g><!--class Pedido--><g id="elem_Pedido"><rect codeLine="2" fill="#F1F1F1" height="162.4075" id="Pedido" rx="2.5" ry="2.5" style="stroke:#181818;stroke-width:0.5;" width="336" x="716.03" y="7"/><ellipse cx="858.28" cy="23" fill="#A9DCDF" rx="11" ry="11" style="stroke:#181818;stroke-width:1.0;"/><path d="M858.3894,18.3438 L857.2331,23.4219 L859.5613,23.4219 L858.3894,18.3438 Z M856.905,16.1094 L859.8894,16.1094 L863.2488,28.5 L860.7956,28.5 L860.03,25.4375 L856.7488,25.4375 L855.9988,28.5 L853.5613,28.5 L856.905,16.1094 Z " fill="#000000"/><text fill="#000000" font-family="sans-serif" font-size="14" font-style="italic" lengthAdjust="spacing" textLength="43" x="878.78" y="28.432">Pedido</text><line style="stroke:#181818;stroke-width:0.5;" x1="717.03" x2="1051.03" y1="39" y2="39"/><rect fill="none" height="6" style="stroke:#C82930;stroke-width:1.0;" width="6" x="724.03" y="51.034"/><text fill="#000000" font-family="sans-serif" font-size="14" lengthAdjust="spacing" textLength="62" x="736.03" y="57.9659">id: String</text><rect fill="none" height="6" style="stroke:#C82930;stroke-width:1.0;" width="6" x="724.03" y="70.1019"/><text fill="#000000" font-family="sans-serif" font-size="14" lengthAdjust="spacing" textLength="94" x="736.03" y="77.0339">cliente: String</text><rect fill="none" height="6" style="stroke:#C82930;stroke-width:1.0;" width="6" x="724.03" y="89.1698"/><text fill="#000000" font-family="sans-serif" font-size="14" lengthAdjust="spacing" textLength="85" x="736.03" y="96.1018">total: double</text><line style="stroke:#181818;stroke-width:0.5;" x1="717.03" x2="1051.03" y1="104.2038" y2="104.2038"/><ellipse cx="727.03" cy="119.2377" fill="#84BE84" rx="3" ry="3" style="stroke:#038048;stroke-width:1.0;"/><text fill="#000000" font-family="sans-serif" font-size="14" lengthAdjust="spacing" textLength="261" x="736.03" y="123.1697">aceptar(procesador: ProcesadorEnvios)</text><ellipse cx="727.03" cy="138.3056" fill="#84BE84" rx="3" ry="3" style="stroke:#038048;stroke-width:1.0;"/><text fill="#000000" font-family="sans-serif" font-size="14" lengthAdjust="spacing" textLength="291" x="736.03" y="142.2376">aceptar(facturador: ProcesadorFacturacion)</text><ellipse cx="727.03" cy="157.3735" fill="#84BE84" rx="3" ry="3" style="stroke:#038048;stroke-width:1.0;"/><text fill="#000000" font-family="sans-serif" font-size="14" lengthAdjust="spacing" textLength="310" x="736.03" y="161.3055">aceptar(notificador: ProcesadorNotificaciones)</text></g><!--class PedidoFisico--><g id="elem_PedidoFisico"><rect codeLine="11" fill="#F1F1F1" height="143.3396" id="PedidoFisico" rx="2.5" ry="2.5" style="stroke:#181818;stroke-width:0.5;" width="336" x="167.03" y="230"/><ellipse cx="289.28" cy="246" fill="#ADD1B2" rx="11" ry="11" style="stroke:#181818;stroke-width:1.0;"/><path d="M292.2488,251.6406 Q291.6706,251.9375 291.03,252.0781 Q290.3894,252.2344 289.6863,252.2344 Q287.1863,252.2344 285.8581,250.5938 Q284.5456,248.9375 284.5456,245.8125 Q284.5456,242.6875 285.8581,241.0313 Q287.1863,239.375 289.6863,239.375 Q290.3894,239.375 291.03,239.5313 Q291.6863,239.6875 292.2488,239.9844 L292.2488,242.7031 Q291.6238,242.125 291.03,241.8594 Q290.4363,241.5781 289.8113,241.5781 Q288.4675,241.5781 287.78,242.6563 Q287.0925,243.7188 287.0925,245.8125 Q287.0925,247.9063 287.78,248.9844 Q288.4675,250.0469 289.8113,250.0469 Q290.4363,250.0469 291.03,249.7813 Q291.6238,249.5 292.2488,248.9219 L292.2488,251.6406 Z " fill="#000000"/><text fill="#000000" font-family="sans-serif" font-size="14" lengthAdjust="spacing" textLength="83" x="309.78" y="251.432">PedidoFisico</text><line style="stroke:#181818;stroke-width:0.5;" x1="168.03" x2="502.03" y1="262" y2="262"/><rect fill="none" height="6" style="stroke:#C82930;stroke-width:1.0;" width="6" x="175.03" y="274.034"/><text fill="#000000" font-family="sans-serif" font-size="14" lengthAdjust="spacing" textLength="147" x="187.03" y="280.9659">direccionEnvio: String</text><rect fill="none" height="6" style="stroke:#C82930;stroke-width:1.0;" width="6" x="175.03" y="293.1019"/><text fill="#000000" font-family="sans-serif" font-size="14" lengthAdjust="spacing" textLength="87" x="187.03" y="300.0339">peso: double</text><line style="stroke:#181818;stroke-width:0.5;" x1="168.03" x2="502.03" y1="308.1358" y2="308.1358"/><ellipse cx="178.03" cy="323.1698" fill="#84BE84" rx="3" ry="3" style="stroke:#038048;stroke-width:1.0;"/><text fill="#000000" font-family="sans-serif" font-size="14" lengthAdjust="spacing" textLength="261" x="187.03" y="327.1018">aceptar(procesador: ProcesadorEnvios)</text><ellipse cx="178.03" cy="342.2377" fill="#84BE84" rx="3" ry="3" style="stroke:#038048;stroke-width:1.0;"/><text fill="#000000" font-family="sans-serif" font-size="14" lengthAdjust="spacing" textLength="291" x="187.03" y="346.1697">aceptar(facturador: ProcesadorFacturacion)</text><ellipse cx="178.03" cy="361.3056" fill="#84BE84" rx="3" ry="3" style="stroke:#038048;stroke-width:1.0;"/><text fill="#000000" font-family="sans-serif" font-size="14" lengthAdjust="spacing" textLength="310" x="187.03" y="365.2376">aceptar(notificador: ProcesadorNotificaciones)</text></g><!--class PedidoDigital--><g id="elem_PedidoDigital"><rect codeLine="19" fill="#F1F1F1" height="124.2717" id="PedidoDigital" rx="2.5" ry="2.5" style="stroke:#181818;stroke-width:0.5;" width="336" x="1143.03" y="239.5"/><ellipse cx="1261.78" cy="255.5" fill="#ADD1B2" rx="11" ry="11" style="stroke:#181818;stroke-width:1.0;"/><path d="M1264.7488,261.1406 Q1264.1706,261.4375 1263.53,261.5781 Q1262.8894,261.7344 1262.1863,261.7344 Q1259.6863,261.7344 1258.3581,260.0938 Q1257.0456,258.4375 1257.0456,255.3125 Q1257.0456,252.1875 1258.3581,250.5313 Q1259.6863,248.875 1262.1863,248.875 Q1262.8894,248.875 1263.53,249.0313 Q1264.1863,249.1875 1264.7488,249.4844 L1264.7488,252.2031 Q1264.1238,251.625 1263.53,251.3594 Q1262.9363,251.0781 1262.3113,251.0781 Q1260.9675,251.0781 1260.28,252.1563 Q1259.5925,253.2188 1259.5925,255.3125 Q1259.5925,257.4063 1260.28,258.4844 Q1260.9675,259.5469 1262.3113,259.5469 Q1262.9363,259.5469 1263.53,259.2813 Q1264.1238,259 1264.7488,258.4219 L1264.7488,261.1406 Z " fill="#000000"/><text fill="#000000" font-family="sans-serif" font-size="14" lengthAdjust="spacing" textLength="90" x="1282.28" y="260.932">PedidoDigital</text><line style="stroke:#181818;stroke-width:0.5;" x1="1144.03" x2="1478.03" y1="271.5" y2="271.5"/><rect fill="none" height="6" style="stroke:#C82930;stroke-width:1.0;" width="6" x="1151.03" y="283.534"/><text fill="#000000" font-family="sans-serif" font-size="14" lengthAdjust="spacing" textLength="86" x="1163.03" y="290.4659">email: String</text><line style="stroke:#181818;stroke-width:0.5;" x1="1144.03" x2="1478.03" y1="298.5679" y2="298.5679"/><ellipse cx="1154.03" cy="313.6019" fill="#84BE84" rx="3" ry="3" style="stroke:#038048;stroke-width:1.0;"/><text fill="#000000" font-family="sans-serif" font-size="14" lengthAdjust="spacing" textLength="261" x="1163.03" y="317.5339">aceptar(procesador: ProcesadorEnvios)</text><ellipse cx="1154.03" cy="332.6698" fill="#84BE84" rx="3" ry="3" style="stroke:#038048;stroke-width:1.0;"/><text fill="#000000" font-family="sans-serif" font-size="14" lengthAdjust="spacing" textLength="291" x="1163.03" y="336.6018">aceptar(facturador: ProcesadorFacturacion)</text><ellipse cx="1154.03" cy="351.7377" fill="#84BE84" rx="3" ry="3" style="stroke:#038048;stroke-width:1.0;"/><text fill="#000000" font-family="sans-serif" font-size="14" lengthAdjust="spacing" textLength="310" x="1163.03" y="355.6697">aceptar(notificador: ProcesadorNotificaciones)</text></g><!--class PedidoSuscripcion--><g id="elem_PedidoSuscripcion"><rect codeLine="26" fill="#F1F1F1" height="124.2717" id="PedidoSuscripcion" rx="2.5" ry="2.5" style="stroke:#181818;stroke-width:0.5;" width="336" x="538.03" y="239.5"/><ellipse cx="639.78" cy="255.5" fill="#ADD1B2" rx="11" ry="11" style="stroke:#181818;stroke-width:1.0;"/><path d="M642.7488,261.1406 Q642.1706,261.4375 641.53,261.5781 Q640.8894,261.7344 640.1863,261.7344 Q637.6863,261.7344 636.3581,260.0938 Q635.0456,258.4375 635.0456,255.3125 Q635.0456,252.1875 636.3581,250.5313 Q637.6863,248.875 640.1863,248.875 Q640.8894,248.875 641.53,249.0313 Q642.1863,249.1875 642.7488,249.4844 L642.7488,252.2031 Q642.1238,251.625 641.53,251.3594 Q640.9363,251.0781 640.3113,251.0781 Q638.9675,251.0781 638.28,252.1563 Q637.5925,253.2188 637.5925,255.3125 Q637.5925,257.4063 638.28,258.4844 Q638.9675,259.5469 640.3113,259.5469 Q640.9363,259.5469 641.53,259.2813 Q642.1238,259 642.7488,258.4219 L642.7488,261.1406 Z " fill="#000000"/><text fill="#000000" font-family="sans-serif" font-size="14" lengthAdjust="spacing" textLength="124" x="660.28" y="260.932">PedidoSuscripcion</text><line style="stroke:#181818;stroke-width:0.5;" x1="539.03" x2="873.03" y1="271.5" y2="271.5"/><rect fill="none" height="6" style="stroke:#C82930;stroke-width:1.0;" width="6" x="546.03" y="283.534"/><text fill="#000000" font-family="sans-serif" font-size="14" lengthAdjust="spacing" textLength="129" x="558.03" y="290.4659">duracionMeses: int</text><line style="stroke:#181818;stroke-width:0.5;" x1="539.03" x2="873.03" y1="298.5679" y2="298.5679"/><ellipse cx="549.03" cy="313.6019" fill="#84BE84" rx="3" ry="3" style="stroke:#038048;stroke-width:1.0;"/><text fill="#000000" font-family="sans-serif" font-size="14" lengthAdjust="spacing" textLength="261" x="558.03" y="317.5339">aceptar(procesador: ProcesadorEnvios)</text><ellipse cx="549.03" cy="332.6698" fill="#84BE84" rx="3" ry="3" style="stroke:#038048;stroke-width:1.0;"/><text fill="#000000" font-family="sans-serif" font-size="14" lengthAdjust="spacing" textLength="291" x="558.03" y="336.6018">aceptar(facturador: ProcesadorFacturacion)</text><ellipse cx="549.03" cy="351.7377" fill="#84BE84" rx="3" ry="3" style="stroke:#038048;stroke-width:1.0;"/><text fill="#000000" font-family="sans-serif" font-size="14" lengthAdjust="spacing" textLength="310" x="558.03" y="355.6697">aceptar(notificador: ProcesadorNotificaciones)</text></g><!--class ProcesadorEnvios--><g id="elem_ProcesadorEnvios"><rect codeLine="33" fill="#F1F1F1" height="124.2717" id="ProcesadorEnvios" rx="2.5" ry="2.5" style="stroke:#181818;stroke-width:0.5;" width="380" x="139.03" y="452"/><ellipse cx="265.78" cy="468" fill="#ADD1B2" rx="11" ry="11" style="stroke:#181818;stroke-width:1.0;"/><path d="M268.7488,473.6406 Q268.1706,473.9375 267.53,474.0781 Q266.8894,474.2344 266.1863,474.2344 Q263.6863,474.2344 262.3581,472.5938 Q261.0456,470.9375 261.0456,467.8125 Q261.0456,464.6875 262.3581,463.0313 Q263.6863,461.375 266.1863,461.375 Q266.8894,461.375 267.53,461.5313 Q268.1863,461.6875 268.7488,461.9844 L268.7488,464.7031 Q268.1238,464.125 267.53,463.8594 Q266.9363,463.5781 266.3113,463.5781 Q264.9675,463.5781 264.28,464.6563 Q263.5925,465.7188 263.5925,467.8125 Q263.5925,469.9063 264.28,470.9844 Q264.9675,472.0469 266.3113,472.0469 Q266.9363,472.0469 267.53,471.7813 Q268.1238,471.5 268.7488,470.9219 L268.7488,473.6406 Z " fill="#000000"/><text fill="#000000" font-family="sans-serif" font-size="14" lengthAdjust="spacing" textLength="118" x="286.28" y="473.432">ProcesadorEnvios</text><line style="stroke:#181818;stroke-width:0.5;" x1="140.03" x2="518.03" y1="484" y2="484"/><line style="stroke:#181818;stroke-width:0.5;" x1="140.03" x2="518.03" y1="492" y2="492"/><ellipse cx="150.03" cy="507.034" fill="#84BE84" rx="3" ry="3" style="stroke:#038048;stroke-width:1.0;"/><text fill="#000000" font-family="sans-serif" font-size="14" lengthAdjust="spacing" textLength="168" x="159.03" y="510.9659">procesar(pedido: Pedido)</text><ellipse cx="150.03" cy="526.1019" fill="#84BE84" rx="3" ry="3" style="stroke:#038048;stroke-width:1.0;"/><text fill="#000000" font-family="sans-serif" font-size="14" lengthAdjust="spacing" textLength="240" x="159.03" y="530.0339">procesarEnvioFisico(p: PedidoFisico)</text><ellipse cx="150.03" cy="545.1698" fill="#84BE84" rx="3" ry="3" style="stroke:#038048;stroke-width:1.0;"/><text fill="#000000" font-family="sans-serif" font-size="14" lengthAdjust="spacing" textLength="254" x="159.03" y="549.1018">procesarEnvioDigital(p: PedidoDigital)</text><ellipse cx="150.03" cy="564.2377" fill="#84BE84" rx="3" ry="3" style="stroke:#038048;stroke-width:1.0;"/><text fill="#000000" font-family="sans-serif" font-size="14" lengthAdjust="spacing" textLength="354" x="159.03" y="568.1697">procesarActivacionSuscripcion(p: PedidoSuscripcion)</text></g><!--class ProcesadorFacturacion--><g id="elem_ProcesadorFacturacion"><rect codeLine="40" fill="#F1F1F1" height="124.2717" id="ProcesadorFacturacion" rx="2.5" ry="2.5" style="stroke:#181818;stroke-width:0.5;" width="307" x="1217.53" y="452"/><ellipse cx="1290.28" cy="468" fill="#ADD1B2" rx="11" ry="11" style="stroke:#181818;stroke-width:1.0;"/><path d="M1293.2488,473.6406 Q1292.6706,473.9375 1292.03,474.0781 Q1291.3894,474.2344 1290.6863,474.2344 Q1288.1863,474.2344 1286.8581,472.5938 Q1285.5456,470.9375 1285.5456,467.8125 Q1285.5456,464.6875 1286.8581,463.0313 Q1288.1863,461.375 1290.6863,461.375 Q1291.3894,461.375 1292.03,461.5313 Q1292.6863,461.6875 1293.2488,461.9844 L1293.2488,464.7031 Q1292.6238,464.125 1292.03,463.8594 Q1291.4363,463.5781 1290.8113,463.5781 Q1289.4675,463.5781 1288.78,464.6563 Q1288.0925,465.7188 1288.0925,467.8125 Q1288.0925,469.9063 1288.78,470.9844 Q1289.4675,472.0469 1290.8113,472.0469 Q1291.4363,472.0469 1292.03,471.7813 Q1292.6238,471.5 1293.2488,470.9219 L1293.2488,473.6406 Z " fill="#000000"/><text fill="#000000" font-family="sans-serif" font-size="14" lengthAdjust="spacing" textLength="153" x="1310.78" y="473.432">ProcesadorFacturacion</text><line style="stroke:#181818;stroke-width:0.5;" x1="1218.53" x2="1523.53" y1="484" y2="484"/><line style="stroke:#181818;stroke-width:0.5;" x1="1218.53" x2="1523.53" y1="492" y2="492"/><ellipse cx="1228.53" cy="507.034" fill="#84BE84" rx="3" ry="3" style="stroke:#038048;stroke-width:1.0;"/><text fill="#000000" font-family="sans-serif" font-size="14" lengthAdjust="spacing" textLength="163" x="1237.53" y="510.9659">facturar(pedido: Pedido)</text><ellipse cx="1228.53" cy="526.1019" fill="#84BE84" rx="3" ry="3" style="stroke:#038048;stroke-width:1.0;"/><text fill="#000000" font-family="sans-serif" font-size="14" lengthAdjust="spacing" textLength="199" x="1237.53" y="530.0339">facturarFisico(p: PedidoFisico)</text><ellipse cx="1228.53" cy="545.1698" fill="#84BE84" rx="3" ry="3" style="stroke:#038048;stroke-width:1.0;"/><text fill="#000000" font-family="sans-serif" font-size="14" lengthAdjust="spacing" textLength="213" x="1237.53" y="549.1018">facturarDigital(p: PedidoDigital)</text><ellipse cx="1228.53" cy="564.2377" fill="#84BE84" rx="3" ry="3" style="stroke:#038048;stroke-width:1.0;"/><text fill="#000000" font-family="sans-serif" font-size="14" lengthAdjust="spacing" textLength="281" x="1237.53" y="568.1697">facturarSuscripcion(p: PedidoSuscripcion)</text></g><!--class ProcesadorNotificaciones--><g id="elem_ProcesadorNotificaciones"><rect codeLine="47" fill="#F1F1F1" height="124.2717" id="ProcesadorNotificaciones" rx="2.5" ry="2.5" style="stroke:#181818;stroke-width:0.5;" width="377" x="581.53" y="452"/><ellipse cx="680.78" cy="468" fill="#ADD1B2" rx="11" ry="11" style="stroke:#181818;stroke-width:1.0;"/><path d="M683.7488,473.6406 Q683.1706,473.9375 682.53,474.0781 Q681.8894,474.2344 681.1863,474.2344 Q678.6863,474.2344 677.3581,472.5938 Q676.0456,470.9375 676.0456,467.8125 Q676.0456,464.6875 677.3581,463.0313 Q678.6863,461.375 681.1863,461.375 Q681.8894,461.375 682.53,461.5313 Q683.1863,461.6875 683.7488,461.9844 L683.7488,464.7031 Q683.1238,464.125 682.53,463.8594 Q681.9363,463.5781 681.3113,463.5781 Q679.9675,463.5781 679.28,464.6563 Q678.5925,465.7188 678.5925,467.8125 Q678.5925,469.9063 679.28,470.9844 Q679.9675,472.0469 681.3113,472.0469 Q681.9363,472.0469 682.53,471.7813 Q683.1238,471.5 683.7488,470.9219 L683.7488,473.6406 Z " fill="#000000"/><text fill="#000000" font-family="sans-serif" font-size="14" lengthAdjust="spacing" textLength="170" x="701.28" y="473.432">ProcesadorNotificaciones</text><line style="stroke:#181818;stroke-width:0.5;" x1="582.53" x2="957.53" y1="484" y2="484"/><line style="stroke:#181818;stroke-width:0.5;" x1="582.53" x2="957.53" y1="492" y2="492"/><ellipse cx="592.53" cy="507.034" fill="#84BE84" rx="3" ry="3" style="stroke:#038048;stroke-width:1.0;"/><text fill="#000000" font-family="sans-serif" font-size="14" lengthAdjust="spacing" textLength="165" x="601.53" y="510.9659">notificar(pedido: Pedido)</text><ellipse cx="592.53" cy="526.1019" fill="#84BE84" rx="3" ry="3" style="stroke:#038048;stroke-width:1.0;"/><text fill="#000000" font-family="sans-serif" font-size="14" lengthAdjust="spacing" textLength="237" x="601.53" y="530.0339">notificarEnvioFisico(p: PedidoFisico)</text><ellipse cx="592.53" cy="545.1698" fill="#84BE84" rx="3" ry="3" style="stroke:#038048;stroke-width:1.0;"/><text fill="#000000" font-family="sans-serif" font-size="14" lengthAdjust="spacing" textLength="278" x="601.53" y="549.1018">notificarDescargaDigital(p: PedidoDigital)</text><ellipse cx="592.53" cy="564.2377" fill="#84BE84" rx="3" ry="3" style="stroke:#038048;stroke-width:1.0;"/><text fill="#000000" font-family="sans-serif" font-size="14" lengthAdjust="spacing" textLength="351" x="601.53" y="568.1697">notificarActivacionSuscripcion(p: PedidoSuscripcion)</text></g><!--reverse link Pedido to PedidoFisico--><g id="link_Pedido_PedidoFisico"><path codeLine="54" d="M699.1631,160.2203 C631.6931,186.2103 570.88,209.64 503.38,235.64 " fill="none" id="Pedido-backto-PedidoFisico" style="stroke:#181818;stroke-width:1.0;"/><polygon fill="none" points="715.96,153.75,697.0064,154.6213,701.3199,165.8193,715.96,153.75" style="stroke:#181818;stroke-width:1.0;"/></g><!--reverse link Pedido to PedidoDigital--><g id="link_Pedido_PedidoDigital"><path codeLine="55" d="M1061.899,177.1009 C1108.989,200.4309 1143.53,217.53 1187.83,239.48 " fill="none" id="Pedido-backto-PedidoDigital" style="stroke:#181818;stroke-width:1.0;"/><polygon fill="none" points="1045.77,169.11,1059.2354,182.4772,1064.5627,171.7245,1045.77,169.11" style="stroke:#181818;stroke-width:1.0;"/></g><!--reverse link Pedido to PedidoSuscripcion--><g id="link_Pedido_PedidoSuscripcion"><path codeLine="56" d="M804.8981,183.0306 C785.3181,206.2906 775.87,217.52 757.46,239.4 " fill="none" id="Pedido-backto-PedidoSuscripcion" style="stroke:#181818;stroke-width:1.0;"/><polygon fill="none" points="816.49,169.26,800.3079,179.1666,809.4883,186.8945,816.49,169.26" style="stroke:#181818;stroke-width:1.0;"/></g><!--link PedidoFisico to ProcesadorEnvios--><g id="link_PedidoFisico_ProcesadorEnvios"><path codeLine="58" d="M252.51,373 C245.48,382.37 239.4,392.42 235.03,403 C227.85,420.42 229.4116,432.2172 240.2016,447.0572 " fill="none" id="PedidoFisico-to-ProcesadorEnvios" style="stroke:#181818;stroke-width:1.0;"/><polygon fill="#181818" points="243.73,451.91,241.6726,442.2784,240.7896,447.866,235.2021,446.983,243.73,451.91" style="stroke:#181818;stroke-width:1.0;"/><text fill="#000000" font-family="sans-serif" font-size="13" lengthAdjust="spacing" textLength="114" x="236.03" y="417.897">segundo despacho</text></g><!--link PedidoDigital to ProcesadorEnvios--><g id="link_PedidoDigital_ProcesadorEnvios"><path codeLine="59" d="M1142.82,350.82 C1113.65,358.63 1083.54,366.33 1055.03,373 C986.71,388.99 968.47,387.49 900.03,403 C867.34,410.41 859.99,415.86 827.03,422 C711.38,443.54 679.7,430.5 564.03,452 C549.43,454.72 540.2456,456.5314 525.1656,459.9014 " fill="none" id="PedidoDigital-to-ProcesadorEnvios" style="stroke:#181818;stroke-width:1.0;"/><polygon fill="#181818" points="519.31,461.21,528.9657,463.1509,524.1896,460.1195,527.221,455.3434,519.31,461.21" style="stroke:#181818;stroke-width:1.0;"/><text fill="#000000" font-family="sans-serif" font-size="13" lengthAdjust="spacing" textLength="114" x="901.03" y="417.897">segundo despacho</text></g><!--link PedidoSuscripcion to ProcesadorEnvios--><g id="link_PedidoSuscripcion_ProcesadorEnvios"><path codeLine="60" d="M550.36,363.56 C540.49,366.89 530.65,370.07 521.03,373 C464.31,390.27 438.52,367.49 391.03,403 C374.44,415.41 364.4477,428.3322 354.9177,446.4122 " fill="none" id="PedidoSuscripcion-to-ProcesadorEnvios" style="stroke:#181818;stroke-width:1.0;"/><polygon fill="#181818" points="352.12,451.72,359.8551,445.6235,354.4515,447.2968,352.7781,441.8932,352.12,451.72" style="stroke:#181818;stroke-width:1.0;"/><text fill="#000000" font-family="sans-serif" font-size="13" lengthAdjust="spacing" textLength="114" x="392.03" y="417.897">segundo despacho</text></g><!--link PedidoFisico to ProcesadorFacturacion--><g id="link_PedidoFisico_ProcesadorFacturacion"><path codeLine="62" d="M503.16,368.76 C509.15,370.31 515.12,371.73 521.03,373 C738.28,419.57 807.64,337.78 1020.03,403 C1035.85,407.86 1036.84,415.45 1052.03,422 C1104.4,444.56 1158.1793,461.7089 1211.5493,476.1889 " fill="none" id="PedidoFisico-to-ProcesadorFacturacion" style="stroke:#181818;stroke-width:1.0;"/><polygon fill="#181818" points="1217.34,477.76,1209.7014,471.5429,1212.5145,476.4508,1207.6066,479.2638,1217.34,477.76" style="stroke:#181818;stroke-width:1.0;"/><text fill="#000000" font-family="sans-serif" font-size="13" lengthAdjust="spacing" textLength="114" x="1053.03" y="417.897">segundo despacho</text></g><!--link PedidoDigital to ProcesadorFacturacion--><g id="link_PedidoDigital_ProcesadorFacturacion"><path codeLine="63" d="M1453.56,363.67 C1467.22,374.85 1479.23,387.88 1488.03,403 C1498.34,420.71 1497.0209,432.787 1484.2909,447.467 " fill="none" id="PedidoDigital-to-ProcesadorFacturacion" style="stroke:#181818;stroke-width:1.0;"/><polygon fill="#181818" points="1480.36,452,1489.2783,447.8211,1483.6357,448.2225,1483.2343,442.5799,1480.36,452" style="stroke:#181818;stroke-width:1.0;"/><text fill="#000000" font-family="sans-serif" font-size="13" lengthAdjust="spacing" textLength="114" x="1494.03" y="417.897">segundo despacho</text></g><!--link PedidoSuscripcion to ProcesadorFacturacion--><g id="link_PedidoSuscripcion_ProcesadorFacturacion"><path codeLine="64" d="M865.27,363.52 C877.27,367.06 889.29,370.28 901.03,373 C1020.81,400.76 1059.41,364.06 1176.03,403 C1191.72,408.24 1193.7,413.75 1208.03,422 C1225.03,431.79 1237.8599,439.0896 1255.5399,449.0296 " fill="none" id="PedidoSuscripcion-to-ProcesadorFacturacion" style="stroke:#181818;stroke-width:1.0;"/><polygon fill="#181818" points="1260.77,451.97,1254.8852,444.0726,1256.4116,449.5196,1250.9646,451.0461,1260.77,451.97" style="stroke:#181818;stroke-width:1.0;"/><text fill="#000000" font-family="sans-serif" font-size="13" lengthAdjust="spacing" textLength="114" x="1209.03" y="417.897">segundo despacho</text></g><!--link PedidoFisico to ProcesadorNotificaciones--><g id="link_PedidoFisico_ProcesadorNotificaciones"><path codeLine="66" d="M474.35,373.01 C506.97,389.28 541.65,406.39 574.03,422 C594.4,431.81 610.5955,439.5072 631.7755,449.4172 " fill="none" id="PedidoFisico-to-ProcesadorNotificaciones" style="stroke:#181818;stroke-width:1.0;"/><polygon fill="#181818" points="637.21,451.96,630.7534,444.5228,632.6812,449.841,627.363,451.7688,637.21,451.96" style="stroke:#181818;stroke-width:1.0;"/><text fill="#000000" font-family="sans-serif" font-size="13" lengthAdjust="spacing" textLength="114" x="575.03" y="417.897">segundo despacho</text></g><!--link PedidoDigital to ProcesadorNotificaciones--><g id="link_PedidoDigital_ProcesadorNotificaciones"><path codeLine="67" d="M1340.13,363.67 C1345.47,384.22 1345.69,405.96 1332.03,422 C1325.8,429.32 1125.3943,460.4843 964.5343,484.4943 " fill="none" id="PedidoDigital-to-ProcesadorNotificaciones" style="stroke:#181818;stroke-width:1.0;"/><polygon fill="#181818" points="958.6,485.38,968.0919,488.0076,963.5452,484.6419,966.9109,480.0952,958.6,485.38" style="stroke:#181818;stroke-width:1.0;"/><text fill="#000000" font-family="sans-serif" font-size="13" lengthAdjust="spacing" textLength="114" x="1341.03" y="417.897">segundo despacho</text></g><!--link PedidoSuscripcion to ProcesadorNotificaciones--><g id="link_PedidoSuscripcion_ProcesadorNotificaciones"><path codeLine="68" d="M696.62,363.54 C695.75,382.65 696.98,403.56 703.03,422 C706.4,432.25 708.2739,437.1849 714.0739,446.6449 " fill="none" id="PedidoSuscripcion-to-ProcesadorNotificaciones" style="stroke:#181818;stroke-width:1.0;"/><polygon fill="#181818" points="717.21,451.76,715.9159,441.9965,714.5966,447.4974,709.0957,446.178,717.21,451.76" style="stroke:#181818;stroke-width:1.0;"/><text fill="#000000" font-family="sans-serif" font-size="13" lengthAdjust="spacing" textLength="114" x="704.03" y="417.897">segundo despacho</text></g><!--link ProcesadorEnvios to Pedido--><g id="link_ProcesadorEnvios_Pedido"><path codeLine="70" d="M138.94,454.86 C102.45,434.81 68.85,408.19 47.03,373 C13.54,318.98 6,278.53 47.03,230 C130.95,130.77 490.5347,101.5778 709.8447,92.8778 " fill="none" id="ProcesadorEnvios-to-Pedido" style="stroke:#181818;stroke-width:1.0;"/><polygon fill="#181818" points="715.84,92.64,706.6885,88.9999,710.8439,92.8382,707.0056,96.9936,715.84,92.64" style="stroke:#181818;stroke-width:1.0;"/><text fill="#000000" font-family="sans-serif" font-size="13" lengthAdjust="spacing" textLength="101" x="48.03" y="306.897">primer despacho</text></g><!--link ProcesadorFacturacion to Pedido--><g id="link_ProcesadorFacturacion_Pedido"><path codeLine="71" d="M1524.72,487.71 C1560.77,474.22 1595.05,453.58 1617.03,422 C1674.54,339.42 1580.36,286.42 1497.03,230 C1364.68,140.38 1189.2449,107.6983 1058.1549,95.6683 " fill="none" id="ProcesadorFacturacion-to-Pedido" style="stroke:#181818;stroke-width:1.0;"/><polygon fill="#181818" points="1052.18,95.12,1060.7768,99.9257,1057.1591,95.5769,1061.5079,91.9592,1052.18,95.12" style="stroke:#181818;stroke-width:1.0;"/><text fill="#000000" font-family="sans-serif" font-size="13" lengthAdjust="spacing" textLength="101" x="1635.03" y="306.897">primer despacho</text></g><!--link ProcesadorNotificaciones to Pedido--><g id="link_ProcesadorNotificaciones_Pedido"><path codeLine="72" d="M824.34,451.65 C856.45,415.21 891.07,375.58 892.03,373 C916.56,307.52 912.4255,233.4034 903.0055,175.0034 " fill="none" id="ProcesadorNotificaciones-to-Pedido" style="stroke:#181818;stroke-width:1.0;"/><polygon fill="#181818" points="902.05,169.08,899.5342,178.6021,902.8462,174.0162,907.4321,177.3282,902.05,169.08" style="stroke:#181818;stroke-width:1.0;"/><text fill="#000000" font-family="sans-serif" font-size="13" lengthAdjust="spacing" textLength="101" x="910.03" y="306.897">primer despacho</text></g><!--SRC=[pLJ1Ri8m3BttAt84eVv0D4sQnBXjGk8BGc8wIoM9afJBjdzVsYObBQMqEt51OBzdlsURiADrXd57UCci9NiGA1JvpWZ9KL1oS0PbKV_Y9O9qa8QSSgoaHAZgM88FR1W7xPXPQQCuM2QKeMJVVN-N5rHsdG9FldDbXi1T6-MeP0yjbSCJyY7yCuHhFFZwlrcMcjcXHHui2JJ0QroZ9VMYmQgdjxB50lt8MozmPbWc5fvJyg6otA2kis45eVO7MB2Ke7JFg7tGkf6-2UAyoiOQ3HRNQQx1joUtqhHtWhUuiCyhC0Hwo3VkyD98J6PvfIJ1KGF9I5eNONAZBc9kma24J6gFe7yfxc-b5HqNEAgwIpuQVWVSWlMV1PiqqQ4NRY2yeIy_UTwJC988xKOoIT5OCJnaUVvwUv-KM2WgwMi8i9hnhzWjFXdBMEc_TYvpIcLwX0kbpgBUr_k0FYLwS8SBTSzbtvV-k49sivUcGdjCb6Y3Pp19mz6fpAGCr4oo_W00]--></g></svg>