<?plantuml 1.2026.2?><svg xmlns="http://www.w3.org/2000/svg" xmlns:xlink="http://www.w3.org/1999/xlink" contentStyleType="text/css" data-diagram-type="CLASS" height="411px" preserveAspectRatio="none" style="width:1540px;height:411px;background:#FFFFFF;" version="1.1" viewBox="0 0 1540 411" width="1540px" zoomAndPan="magnify"><defs/><g><!--class EvaluadorBecas--><g class="entity" data-qualified-name="EvaluadorBecas" data-source-line="3" id="ent0002"><rect fill="#F1F1F1" height="162.4075" rx="2.5" ry="2.5" style="stroke:#181818;stroke-width:0.5;" width="360.2766" x="241.69" y="134.07"/><ellipse cx="368.2565" cy="150.07" fill="#B4A7E5" rx="11" ry="11" style="stroke:#181818;stroke-width:1;"/><path d="M364.2878,156.57 L364.2878,154.8669 L366.6471,154.6013 L366.6471,146.3981 L364.2878,146.1325 L364.2878,144.4294 L371.4284,144.4294 L371.4284,146.1325 L369.0065,146.3981 L369.0065,154.6013 L371.4284,154.8669 L371.4284,156.57 L364.2878,156.57 Z " fill="#000000"/><text fill="#000000" font-family="sans-serif" font-size="14" font-style="italic" lengthAdjust="spacing" textLength="98.6436" x="388.7565" y="155.502">EvaluadorBecas</text><line style="stroke:#181818;stroke-width:0.5;" x1="242.69" x2="600.9666" y1="166.07" y2="166.07"/><line style="stroke:#181818;stroke-width:0.5;" x1="242.69" x2="600.9666" y1="174.07" y2="174.07"/><text fill="#000000" font-family="sans-serif" font-size="14" lengthAdjust="spacing" textLength="174.3133" x="247.69" y="193.0359">+evaluar(alumno: Alumno)</text><text fill="#000000" font-family="sans-serif" font-size="14" lengthAdjust="spacing" textLength="287.4609" x="247.69" y="212.1039">+evaluar(alumnoErasmus: AlumnoErasmus)</text><text fill="#000000" font-family="sans-serif" font-size="14" lengthAdjust="spacing" textLength="260.245" x="247.69" y="231.1718">+evaluar(alumnoVirtual: AlumnoVirtual)</text><text fill="#000000" font-family="sans-serif" font-size="14" lengthAdjust="spacing" textLength="340.5207" x="247.69" y="250.2397">+evaluar(alumnoInvestigador: AlumnoInvestigador)</text><text fill="#000000" font-family="sans-serif" font-size="14" lengthAdjust="spacing" textLength="312.8288" x="247.69" y="269.3076">+evaluar(alumnoDeportista: AlumnoDeportista)</text><text fill="#000000" font-family="sans-serif" font-size="14" lengthAdjust="spacing" textLength="348.2766" x="247.69" y="288.3755">+evaluar(alumnoDiscapacidad: AlumnoDiscapacidad)</text></g><!--class Alumno--><g class="entity" data-qualified-name="Alumno" data-source-line="12" id="ent0003"><rect fill="#F1F1F1" height="67.0679" rx="2.5" ry="2.5" style="stroke:#181818;stroke-width:0.5;" width="288.6389" x="820.5" y="7"/><ellipse cx="934.8586" cy="23" fill="#ADD1B2" rx="11" ry="11" style="stroke:#181818;stroke-width:1;"/><path d="M934.3273,29.9219 Q932.5773,29.9219 931.4367,29.1875 Q930.3117,28.4375 929.7492,27.0938 Q929.2023,25.7344 929.2023,23.9375 Q929.2023,21.9063 929.8586,20.4531 Q930.5148,19 931.7961,18.2188 Q933.0773,17.4375 934.9523,17.4375 Q935.8429,17.4375 936.5148,17.625 Q937.1867,17.7969 937.8742,18.1406 L937.0617,20.1563 Q936.4367,19.8438 935.8898,19.7188 Q935.3586,19.5938 934.8742,19.5938 Q933.7023,19.5938 932.9992,20.125 Q932.2961,20.6563 931.9992,21.6094 Q931.7023,22.5625 931.7023,23.8281 Q931.7023,25.8438 932.4211,26.8125 Q933.1398,27.7656 934.7336,27.7656 Q935.3273,27.7656 935.9523,27.6094 Q936.5773,27.4531 937.4054,27.0781 L937.4054,29.2969 Q936.6711,29.6094 935.8742,29.7656 Q935.0929,29.9219 934.3273,29.9219 Z " fill="#000000"/><text fill="#000000" font-family="sans-serif" font-size="14" lengthAdjust="spacing" textLength="51.4218" x="955.3586" y="28.432">Alumno</text><line style="stroke:#181818;stroke-width:0.5;" x1="821.5" x2="1108.1389" y1="39" y2="39"/><line style="stroke:#181818;stroke-width:0.5;" x1="821.5" x2="1108.1389" y1="47" y2="47"/><text fill="#000000" font-family="sans-serif" font-size="14" lengthAdjust="spacing" textLength="276.6389" x="826.5" y="65.9659">+solicitarBeca(evaluador: EvaluadorBecas)</text></g><!--class AlumnoErasmus--><g class="entity" data-qualified-name="AlumnoErasmus" data-source-line="15" id="ent0004"><rect fill="#F1F1F1" height="48" rx="2.5" ry="2.5" style="stroke:#181818;stroke-width:0.5;" width="139.9956" x="636.83" y="191.28"/><ellipse cx="651.83" cy="207.28" fill="#ADD1B2" rx="11" ry="11" style="stroke:#181818;stroke-width:1;"/><path d="M651.2988,214.2019 Q649.5488,214.2019 648.4081,213.4675 Q647.2831,212.7175 646.7206,211.3738 Q646.1738,210.0144 646.1738,208.2175 Q646.1738,206.1863 646.83,204.7331 Q647.4863,203.28 648.7675,202.4988 Q650.0488,201.7175 651.9238,201.7175 Q652.8144,201.7175 653.4863,201.905 Q654.1581,202.0769 654.8456,202.4206 L654.0331,204.4363 Q653.4081,204.1238 652.8613,203.9988 Q652.33,203.8738 651.8456,203.8738 Q650.6738,203.8738 649.9706,204.405 Q649.2675,204.9363 648.9706,205.8894 Q648.6738,206.8425 648.6738,208.1081 Q648.6738,210.1238 649.3925,211.0925 Q650.1113,212.0456 651.705,212.0456 Q652.2988,212.0456 652.9238,211.8894 Q653.5488,211.7331 654.3769,211.3581 L654.3769,213.5769 Q653.6425,213.8894 652.8456,214.0456 Q652.0644,214.2019 651.2988,214.2019 Z " fill="#000000"/><text fill="#000000" font-family="sans-serif" font-size="14" lengthAdjust="spacing" textLength="107.9956" x="665.83" y="212.712">AlumnoErasmus</text><line style="stroke:#181818;stroke-width:0.5;" x1="637.83" x2="775.8256" y1="223.28" y2="223.28"/><line style="stroke:#181818;stroke-width:0.5;" x1="637.83" x2="775.8256" y1="231.28" y2="231.28"/></g><!--class AlumnoVirtual--><g class="entity" data-qualified-name="AlumnoVirtual" data-source-line="16" id="ent0005"><rect fill="#F1F1F1" height="48" rx="2.5" ry="2.5" style="stroke:#181818;stroke-width:0.5;" width="126.3876" x="811.63" y="191.28"/><ellipse cx="826.63" cy="207.28" fill="#ADD1B2" rx="11" ry="11" style="stroke:#181818;stroke-width:1;"/><path d="M826.0988,214.2019 Q824.3488,214.2019 823.2081,213.4675 Q822.0831,212.7175 821.5206,211.3738 Q820.9738,210.0144 820.9738,208.2175 Q820.9738,206.1863 821.63,204.7331 Q822.2863,203.28 823.5675,202.4988 Q824.8488,201.7175 826.7238,201.7175 Q827.6144,201.7175 828.2863,201.905 Q828.9581,202.0769 829.6456,202.4206 L828.8331,204.4363 Q828.2081,204.1238 827.6613,203.9988 Q827.13,203.8738 826.6456,203.8738 Q825.4738,203.8738 824.7706,204.405 Q824.0675,204.9363 823.7706,205.8894 Q823.4738,206.8425 823.4738,208.1081 Q823.4738,210.1238 824.1925,211.0925 Q824.9113,212.0456 826.505,212.0456 Q827.0988,212.0456 827.7238,211.8894 Q828.3488,211.7331 829.1769,211.3581 L829.1769,213.5769 Q828.4425,213.8894 827.6456,214.0456 Q826.8644,214.2019 826.0988,214.2019 Z " fill="#000000"/><text fill="#000000" font-family="sans-serif" font-size="14" lengthAdjust="spacing" textLength="94.3876" x="840.63" y="212.712">AlumnoVirtual</text><line style="stroke:#181818;stroke-width:0.5;" x1="812.63" x2="937.0176" y1="223.28" y2="223.28"/><line style="stroke:#181818;stroke-width:0.5;" x1="812.63" x2="937.0176" y1="231.28" y2="231.28"/></g><!--class AlumnoInvestigador--><g class="entity" data-qualified-name="AlumnoInvestigador" data-source-line="17" id="ent0006"><rect fill="#F1F1F1" height="48" rx="2.5" ry="2.5" style="stroke:#181818;stroke-width:0.5;" width="166.5255" x="972.56" y="191.28"/><ellipse cx="987.56" cy="207.28" fill="#ADD1B2" rx="11" ry="11" style="stroke:#181818;stroke-width:1;"/><path d="M987.0288,214.2019 Q985.2788,214.2019 984.1381,213.4675 Q983.0131,212.7175 982.4506,211.3738 Q981.9038,210.0144 981.9038,208.2175 Q981.9038,206.1863 982.56,204.7331 Q983.2163,203.28 984.4975,202.4988 Q985.7788,201.7175 987.6538,201.7175 Q988.5444,201.7175 989.2163,201.905 Q989.8881,202.0769 990.5756,202.4206 L989.7631,204.4363 Q989.1381,204.1238 988.5913,203.9988 Q988.06,203.8738 987.5756,203.8738 Q986.4038,203.8738 985.7006,204.405 Q984.9975,204.9363 984.7006,205.8894 Q984.4038,206.8425 984.4038,208.1081 Q984.4038,210.1238 985.1225,211.0925 Q985.8413,212.0456 987.435,212.0456 Q988.0288,212.0456 988.6538,211.8894 Q989.2788,211.7331 990.1069,211.3581 L990.1069,213.5769 Q989.3725,213.8894 988.5756,214.0456 Q987.7944,214.2019 987.0288,214.2019 Z " fill="#000000"/><text fill="#000000" font-family="sans-serif" font-size="14" lengthAdjust="spacing" textLength="134.5255" x="1001.56" y="212.712">AlumnoInvestigador</text><line style="stroke:#181818;stroke-width:0.5;" x1="973.56" x2="1138.0855" y1="223.28" y2="223.28"/><line style="stroke:#181818;stroke-width:0.5;" x1="973.56" x2="1138.0855" y1="231.28" y2="231.28"/></g><!--class AlumnoDeportista--><g class="entity" data-qualified-name="AlumnoDeportista" data-source-line="18" id="ent0007"><rect fill="#F1F1F1" height="48" rx="2.5" ry="2.5" style="stroke:#181818;stroke-width:0.5;" width="152.6796" x="1174.48" y="191.28"/><ellipse cx="1189.48" cy="207.28" fill="#ADD1B2" rx="11" ry="11" style="stroke:#181818;stroke-width:1;"/><path d="M1188.9488,214.2019 Q1187.1988,214.2019 1186.0581,213.4675 Q1184.9331,212.7175 1184.3706,211.3738 Q1183.8238,210.0144 1183.8238,208.2175 Q1183.8238,206.1863 1184.48,204.7331 Q1185.1363,203.28 1186.4175,202.4988 Q1187.6988,201.7175 1189.5738,201.7175 Q1190.4644,201.7175 1191.1363,201.905 Q1191.8081,202.0769 1192.4956,202.4206 L1191.6831,204.4363 Q1191.0581,204.1238 1190.5113,203.9988 Q1189.98,203.8738 1189.4956,203.8738 Q1188.3238,203.8738 1187.6206,204.405 Q1186.9175,204.9363 1186.6206,205.8894 Q1186.3238,206.8425 1186.3238,208.1081 Q1186.3238,210.1238 1187.0425,211.0925 Q1187.7613,212.0456 1189.355,212.0456 Q1189.9488,212.0456 1190.5738,211.8894 Q1191.1988,211.7331 1192.0269,211.3581 L1192.0269,213.5769 Q1191.2925,213.8894 1190.4956,214.0456 Q1189.7144,214.2019 1188.9488,214.2019 Z " fill="#000000"/><text fill="#000000" font-family="sans-serif" font-size="14" lengthAdjust="spacing" textLength="120.6796" x="1203.48" y="212.712">AlumnoDeportista</text><line style="stroke:#181818;stroke-width:0.5;" x1="1175.48" x2="1326.1596" y1="223.28" y2="223.28"/><line style="stroke:#181818;stroke-width:0.5;" x1="1175.48" x2="1326.1596" y1="231.28" y2="231.28"/></g><!--class AlumnoDiscapacidad--><g class="entity" data-qualified-name="AlumnoDiscapacidad" data-source-line="19" id="ent0008"><rect fill="#F1F1F1" height="48" rx="2.5" ry="2.5" style="stroke:#181818;stroke-width:0.5;" width="170.4035" x="1362.62" y="191.28"/><ellipse cx="1377.62" cy="207.28" fill="#ADD1B2" rx="11" ry="11" style="stroke:#181818;stroke-width:1;"/><path d="M1377.0888,214.2019 Q1375.3388,214.2019 1374.1981,213.4675 Q1373.0731,212.7175 1372.5106,211.3738 Q1371.9638,210.0144 1371.9638,208.2175 Q1371.9638,206.1863 1372.62,204.7331 Q1373.2763,203.28 1374.5575,202.4988 Q1375.8388,201.7175 1377.7138,201.7175 Q1378.6044,201.7175 1379.2763,201.905 Q1379.9481,202.0769 1380.6356,202.4206 L1379.8231,204.4363 Q1379.1981,204.1238 1378.6513,203.9988 Q1378.12,203.8738 1377.6356,203.8738 Q1376.4638,203.8738 1375.7606,204.405 Q1375.0575,204.9363 1374.7606,205.8894 Q1374.4638,206.8425 1374.4638,208.1081 Q1374.4638,210.1238 1375.1825,211.0925 Q1375.9013,212.0456 1377.495,212.0456 Q1378.0888,212.0456 1378.7138,211.8894 Q1379.3388,211.7331 1380.1669,211.3581 L1380.1669,213.5769 Q1379.4325,213.8894 1378.6356,214.0456 Q1377.8544,214.2019 1377.0888,214.2019 Z " fill="#000000"/><text fill="#000000" font-family="sans-serif" font-size="14" lengthAdjust="spacing" textLength="138.4035" x="1391.62" y="212.712">AlumnoDiscapacidad</text><line style="stroke:#181818;stroke-width:0.5;" x1="1363.62" x2="1532.0235" y1="223.28" y2="223.28"/><line style="stroke:#181818;stroke-width:0.5;" x1="1363.62" x2="1532.0235" y1="231.28" y2="231.28"/></g><!--class EvaluadorAcademico--><g class="entity" data-qualified-name="EvaluadorAcademico" data-source-line="21" id="ent0009"><rect fill="#F1F1F1" height="48" rx="2.5" ry="2.5" style="stroke:#181818;stroke-width:0.5;" width="169.6475" x="7" y="356.48"/><ellipse cx="22" cy="372.48" fill="#ADD1B2" rx="11" ry="11" style="stroke:#181818;stroke-width:1;"/><path d="M21.4688,379.4019 Q19.7188,379.4019 18.5781,378.6675 Q17.4531,377.9175 16.8906,376.5738 Q16.3438,375.2144 16.3438,373.4175 Q16.3438,371.3863 17,369.9331 Q17.6563,368.48 18.9375,367.6988 Q20.2188,366.9175 22.0938,366.9175 Q22.9844,366.9175 23.6563,367.105 Q24.3281,367.2769 25.0156,367.6206 L24.2031,369.6363 Q23.5781,369.3238 23.0313,369.1988 Q22.5,369.0738 22.0156,369.0738 Q20.8438,369.0738 20.1406,369.605 Q19.4375,370.1363 19.1406,371.0894 Q18.8438,372.0425 18.8438,373.3081 Q18.8438,375.3238 19.5625,376.2925 Q20.2813,377.2456 21.875,377.2456 Q22.4688,377.2456 23.0938,377.0894 Q23.7188,376.9331 24.5469,376.5581 L24.5469,378.7769 Q23.8125,379.0894 23.0156,379.2456 Q22.2344,379.4019 21.4688,379.4019 Z " fill="#000000"/><text fill="#000000" font-family="sans-serif" font-size="14" lengthAdjust="spacing" textLength="137.6475" x="36" y="377.912">EvaluadorAcademico</text><line style="stroke:#181818;stroke-width:0.5;" x1="8" x2="175.6475" y1="388.48" y2="388.48"/><line style="stroke:#181818;stroke-width:0.5;" x1="8" x2="175.6475" y1="396.48" y2="396.48"/></g><!--class EvaluadorSocioeconomico--><g class="entity" data-qualified-name="EvaluadorSocioeconomico" data-source-line="22" id="ent0010"><rect fill="#F1F1F1" height="48" rx="2.5" ry="2.5" style="stroke:#181818;stroke-width:0.5;" width="204.7873" x="211.43" y="356.48"/><ellipse cx="226.43" cy="372.48" fill="#ADD1B2" rx="11" ry="11" style="stroke:#181818;stroke-width:1;"/><path d="M225.8988,379.4019 Q224.1488,379.4019 223.0081,378.6675 Q221.8831,377.9175 221.3206,376.5738 Q220.7738,375.2144 220.7738,373.4175 Q220.7738,371.3863 221.43,369.9331 Q222.0863,368.48 223.3675,367.6988 Q224.6488,366.9175 226.5238,366.9175 Q227.4144,366.9175 228.0863,367.105 Q228.7581,367.2769 229.4456,367.6206 L228.6331,369.6363 Q228.0081,369.3238 227.4613,369.1988 Q226.93,369.0738 226.4456,369.0738 Q225.2738,369.0738 224.5706,369.605 Q223.8675,370.1363 223.5706,371.0894 Q223.2738,372.0425 223.2738,373.3081 Q223.2738,375.3238 223.9925,376.2925 Q224.7113,377.2456 226.305,377.2456 Q226.8988,377.2456 227.5238,377.0894 Q228.1488,376.9331 228.9769,376.5581 L228.9769,378.7769 Q228.2425,379.0894 227.4456,379.2456 Q226.6644,379.4019 225.8988,379.4019 Z " fill="#000000"/><text fill="#000000" font-family="sans-serif" font-size="14" lengthAdjust="spacing" textLength="172.7873" x="240.43" y="377.912">EvaluadorSocioeconomico</text><line style="stroke:#181818;stroke-width:0.5;" x1="212.43" x2="415.2173" y1="388.48" y2="388.48"/><line style="stroke:#181818;stroke-width:0.5;" x1="212.43" x2="415.2173" y1="396.48" y2="396.48"/></g><!--class EvaluadorDeportes--><g class="entity" data-qualified-name="EvaluadorDeportes" data-source-line="23" id="ent0011"><rect fill="#F1F1F1" height="48" rx="2.5" ry="2.5" style="stroke:#181818;stroke-width:0.5;" width="158.3635" x="451.64" y="356.48"/><ellipse cx="466.64" cy="372.48" fill="#ADD1B2" rx="11" ry="11" style="stroke:#181818;stroke-width:1;"/><path d="M466.1088,379.4019 Q464.3588,379.4019 463.2181,378.6675 Q462.0931,377.9175 461.5306,376.5738 Q460.9838,375.2144 460.9838,373.4175 Q460.9838,371.3863 461.64,369.9331 Q462.2963,368.48 463.5775,367.6988 Q464.8588,366.9175 466.7338,366.9175 Q467.6244,366.9175 468.2963,367.105 Q468.9681,367.2769 469.6556,367.6206 L468.8431,369.6363 Q468.2181,369.3238 467.6713,369.1988 Q467.14,369.0738 466.6556,369.0738 Q465.4838,369.0738 464.7806,369.605 Q464.0775,370.1363 463.7806,371.0894 Q463.4838,372.0425 463.4838,373.3081 Q463.4838,375.3238 464.2025,376.2925 Q464.9213,377.2456 466.515,377.2456 Q467.1088,377.2456 467.7338,377.0894 Q468.3588,376.9331 469.1869,376.5581 L469.1869,378.7769 Q468.4525,379.0894 467.6556,379.2456 Q466.8744,379.4019 466.1088,379.4019 Z " fill="#000000"/><text fill="#000000" font-family="sans-serif" font-size="14" lengthAdjust="spacing" textLength="126.3635" x="480.64" y="377.912">EvaluadorDeportes</text><line style="stroke:#181818;stroke-width:0.5;" x1="452.64" x2="609.0035" y1="388.48" y2="388.48"/><line style="stroke:#181818;stroke-width:0.5;" x1="452.64" x2="609.0035" y1="396.48" y2="396.48"/></g><!--class EvaluadorInternacional--><g class="entity" data-qualified-name="EvaluadorInternacional" data-source-line="24" id="ent0012"><rect fill="#F1F1F1" height="48" rx="2.5" ry="2.5" style="stroke:#181818;stroke-width:0.5;" width="185.2854" x="645.18" y="356.48"/><ellipse cx="660.18" cy="372.48" fill="#ADD1B2" rx="11" ry="11" style="stroke:#181818;stroke-width:1;"/><path d="M659.6488,379.4019 Q657.8988,379.4019 656.7581,378.6675 Q655.6331,377.9175 655.0706,376.5738 Q654.5238,375.2144 654.5238,373.4175 Q654.5238,371.3863 655.18,369.9331 Q655.8363,368.48 657.1175,367.6988 Q658.3988,366.9175 660.2738,366.9175 Q661.1644,366.9175 661.8363,367.105 Q662.5081,367.2769 663.1956,367.6206 L662.3831,369.6363 Q661.7581,369.3238 661.2113,369.1988 Q660.68,369.0738 660.1956,369.0738 Q659.0238,369.0738 658.3206,369.605 Q657.6175,370.1363 657.3206,371.0894 Q657.0238,372.0425 657.0238,373.3081 Q657.0238,375.3238 657.7425,376.2925 Q658.4613,377.2456 660.055,377.2456 Q660.6488,377.2456 661.2738,377.0894 Q661.8988,376.9331 662.7269,376.5581 L662.7269,378.7769 Q661.9925,379.0894 661.1956,379.2456 Q660.4144,379.4019 659.6488,379.4019 Z " fill="#000000"/><text fill="#000000" font-family="sans-serif" font-size="14" lengthAdjust="spacing" textLength="153.2854" x="674.18" y="377.912">EvaluadorInternacional</text><line style="stroke:#181818;stroke-width:0.5;" x1="646.18" x2="829.4654" y1="388.48" y2="388.48"/><line style="stroke:#181818;stroke-width:0.5;" x1="646.18" x2="829.4654" y1="396.48" y2="396.48"/></g><!--reverse link Alumno to AlumnoErasmus--><g class="link" data-entity-1="ent0003" data-entity-2="ent0004" data-link-type="extension" data-source-line="26" id="lnk13"><path codeLine="26" d="M878.6281,82.6644 C846.7581,98.8844 825.27,111.6 793.82,134.07 C770.09,151.03 745.92,173.85 729.1,190.82" fill="none" id="Alumno-backto-AlumnoErasmus" style="stroke:#181818;stroke-width:1;"/><polygon fill="none" points="894.67,74.5,875.9066,77.3171,881.3496,88.0117,894.67,74.5" style="stroke:#181818;stroke-width:1;"/></g><!--reverse link Alumno to AlumnoVirtual--><g class="link" data-entity-1="ent0003" data-entity-2="ent0005" data-link-type="extension" data-source-line="27" id="lnk14"><path codeLine="27" d="M939.365,90.4044 C921.625,124.4644 902.65,160.86 887,190.91" fill="none" id="Alumno-backto-AlumnoVirtual" style="stroke:#181818;stroke-width:1;"/><polygon fill="none" points="947.68,74.44,934.0436,87.6327,944.6865,93.176,947.68,74.44" style="stroke:#181818;stroke-width:1;"/></g><!--reverse link Alumno to AlumnoInvestigador--><g class="link" data-entity-1="ent0003" data-entity-2="ent0006" data-link-type="extension" data-source-line="28" id="lnk15"><path codeLine="28" d="M990.5421,90.364 C1008.4921,124.424 1027.68,160.86 1043.51,190.91" fill="none" id="Alumno-backto-AlumnoInvestigador" style="stroke:#181818;stroke-width:1;"/><polygon fill="none" points="982.15,74.44,985.2341,93.1613,995.8501,87.5666,982.15,74.44" style="stroke:#181818;stroke-width:1;"/></g><!--reverse link Alumno to AlumnoDeportista--><g class="link" data-entity-1="ent0003" data-entity-2="ent0007" data-link-type="extension" data-source-line="29" id="lnk16"><path codeLine="29" d="M1061.2364,81.9348 C1096.6864,97.9348 1121.8,111.24 1156.82,134.07 C1182.52,150.83 1208.84,173.89 1227.07,190.98" fill="none" id="Alumno-backto-AlumnoDeportista" style="stroke:#181818;stroke-width:1;"/><polygon fill="none" points="1044.83,74.53,1058.7681,87.4036,1063.7046,76.4661,1044.83,74.53" style="stroke:#181818;stroke-width:1;"/></g><!--reverse link Alumno to AlumnoDiscapacidad--><g class="link" data-entity-1="ent0003" data-entity-2="ent0008" data-link-type="extension" data-source-line="30" id="lnk17"><path codeLine="30" d="M1127.271,65.3136 C1200.331,79.2536 1271.16,98.47 1344.82,134.07 C1374.82,148.57 1404.33,172.86 1424.02,190.92" fill="none" id="Alumno-backto-AlumnoDiscapacidad" style="stroke:#181818;stroke-width:1;"/><polygon fill="none" points="1109.59,61.94,1126.1465,71.2073,1128.3956,59.4199,1109.59,61.94" style="stroke:#181818;stroke-width:1;"/></g><!--reverse link EvaluadorBecas to EvaluadorAcademico--><g class="link" data-entity-1="ent0002" data-entity-2="ent0009" data-link-type="extension" data-source-line="32" id="lnk19"><path codeLine="32" d="M242.6244,304.8976 C198.7744,326.5776 170.89,340.38 139.07,356.12" fill="none" id="EvaluadorBecas-backto-EvaluadorAcademico" style="stroke:#181818;stroke-width:1;stroke-dasharray:7,7;"/><polygon fill="none" points="258.76,296.92,239.9652,299.5191,245.2836,310.2762,258.76,296.92" style="stroke:#181818;stroke-width:1;"/></g><!--reverse link EvaluadorBecas to EvaluadorSocioeconomico--><g class="link" data-entity-1="ent0002" data-entity-2="ent0010" data-link-type="extension" data-source-line="33" id="lnk21"><path codeLine="33" d="M358.525,311.9298 C344.175,333.6098 339.7,340.38 329.28,356.12" fill="none" id="EvaluadorBecas-backto-EvaluadorSocioeconomico" style="stroke:#181818;stroke-width:1;stroke-dasharray:7,7;"/><polygon fill="none" points="368.46,296.92,353.5217,308.6182,363.5283,315.2415,368.46,296.92" style="stroke:#181818;stroke-width:1;"/></g><!--reverse link EvaluadorBecas to EvaluadorDeportes--><g class="link" data-entity-1="ent0002" data-entity-2="ent0011" data-link-type="extension" data-source-line="34" id="lnk23"><path codeLine="34" d="M485.6873,311.8884 C500.1673,333.5684 504.71,340.38 515.22,356.12" fill="none" id="EvaluadorBecas-backto-EvaluadorDeportes" style="stroke:#181818;stroke-width:1;stroke-dasharray:7,7;"/><polygon fill="none" points="475.69,296.92,480.6979,315.2209,490.6768,308.556,475.69,296.92" style="stroke:#181818;stroke-width:1;"/></g><!--reverse link EvaluadorBecas to EvaluadorInternacional--><g class="link" data-entity-1="ent0002" data-entity-2="ent0012" data-link-type="extension" data-source-line="35" id="lnk25"><path codeLine="35" d="M593.964,305.1779 C635.954,326.8579 662.11,340.38 692.59,356.12" fill="none" id="EvaluadorBecas-backto-EvaluadorInternacional" style="stroke:#181818;stroke-width:1;stroke-dasharray:7,7;"/><polygon fill="none" points="577.97,296.92,591.2113,310.5092,596.7166,299.8466,577.97,296.92" style="stroke:#181818;stroke-width:1;"/></g><!--link Alumno to EvaluadorBecas--><g class="link" data-entity-1="ent0003" data-entity-2="ent0002" data-link-type="dependency" data-source-line="37" id="lnk26"><path codeLine="37" d="M826.42,74.52 C762.93,90.7 687,111.55 619.82,134.07 C614.02,136.02 613.7967,136.0496 607.8867,138.1396" fill="none" id="Alumno-to-EvaluadorBecas" style="stroke:#181818;stroke-width:1;stroke-dasharray:7,7;"/><polygon fill="#181818" points="602.23,140.14,612.0487,140.9105,606.9439,138.473,609.3814,133.3682,602.23,140.14" style="stroke:#181818;stroke-width:1;"/></g><?plantuml-src ZP8nRyCW48LtVWLZeYfMvgYgvAePF4VgVi7NwbGRBC0PckI_rtR1nl6vAWCMzzu3xZFkYtG35cgfAd0kzzxIkVLOAADFz8roBmHfZ_O35ChZ1QeMIcDVKO6JLo6xyIHnADjDDzVQ76G-VBUiUhJWwjP5KrZotdUoleKgUiEIznRwWixJPt-x64XhVEeD6sCzEGynCrLM4kGKDA2eX7BC9BMjk0ini0pYICcPYXHv6E1jCA8yF53jDqZpWP2yodazq5ZKqwONujJTKagQ6CIWZhVB5PHOap99T1HFHf71xj6ODSVlqUWuhUXVcExEDZfq90AyvzjkDmV1A045ewGm67d2mOa9424O3Ft8skpsyl07nHgLlyqZe7ziF0V6UcD7MRQGVW00?></g></svg>