<?plantuml 1.2026.2?><svg xmlns="http://www.w3.org/2000/svg" xmlns:xlink="http://www.w3.org/1999/xlink" contentStyleType="text/css" data-diagram-type="CLASS" height="445px" preserveAspectRatio="none" style="width:2696px;height:445px;background:#FFFFFF;" version="1.1" viewBox="0 0 2696 445" width="2696px" zoomAndPan="magnify"><defs/><g><!--class EvaluadorBecas--><g class="entity" data-qualified-name="EvaluadorBecas" data-source-line="2" id="ent0002"><rect fill="#F1F1F1" height="67.0679" rx="2.5" ry="2.5" style="stroke:#181818;stroke-width:0.5;" width="183.7934" x="1019.7" y="7"/><ellipse cx="1058.6174" cy="23" fill="#A9DCDF" rx="11" ry="11" style="stroke:#181818;stroke-width:1;"/><path d="M1053.7893,28.75 L1057.133,16.5625 L1060.2737,16.5625 L1063.6487,28.75 L1061.1799,28.75 L1060.4455,25.7344 L1056.9299,25.7344 L1056.1799,28.75 L1053.7893,28.75 Z M1058.1955,20.7031 L1057.4455,23.7031 L1059.9612,23.7031 L1059.2424,20.7031 Q1059.1018,20.125 1058.9768,19.5781 Q1058.8518,19.0156 1058.7112,18.4375 Q1058.6018,19.0156 1058.4612,19.5781 Q1058.3205,20.125 1058.1955,20.7031 Z " fill="#000000"/><text fill="#000000" font-family="sans-serif" font-size="14" font-style="italic" lengthAdjust="spacing" textLength="98.6436" x="1077.9324" y="28.432">EvaluadorBecas</text><line style="stroke:#181818;stroke-width:0.5;" x1="1020.7" x2="1202.4934" y1="39" y2="39"/><line style="stroke:#181818;stroke-width:0.5;" x1="1020.7" x2="1202.4934" y1="47" y2="47"/><g data-visibility-modifier="PUBLIC_METHOD"><ellipse cx="1030.7" cy="62.034" fill="#84BE84" rx="3" ry="3" style="stroke:#038048;stroke-width:1;"/></g><text fill="#000000" font-family="sans-serif" font-size="14" font-style="italic" lengthAdjust="spacing" textLength="157.7934" x="1039.7" y="65.9659">evaluar(alumno: Alumno)</text></g><!--class EvaluadorAcademico--><g class="entity" data-qualified-name="EvaluadorAcademico" data-source-line="6" id="ent0003"><rect fill="#F1F1F1" height="67.0679" rx="2.5" ry="2.5" style="stroke:#181818;stroke-width:0.5;" width="192.3053" x="947.44" y="135.07"/><ellipse cx="972.636" cy="151.07" fill="#ADD1B2" rx="11" ry="11" style="stroke:#181818;stroke-width:1;"/><path d="M972.1048,157.9919 Q970.3548,157.9919 969.2142,157.2575 Q968.0892,156.5075 967.5267,155.1638 Q966.9798,153.8044 966.9798,152.0075 Q966.9798,149.9763 967.636,148.5231 Q968.2923,147.07 969.5735,146.2888 Q970.8548,145.5075 972.7298,145.5075 Q973.6204,145.5075 974.2923,145.695 Q974.9642,145.8669 975.6517,146.2106 L974.8392,148.2263 Q974.2142,147.9138 973.6673,147.7888 Q973.136,147.6638 972.6517,147.6638 Q971.4798,147.6638 970.7767,148.195 Q970.0735,148.7263 969.7767,149.6794 Q969.4798,150.6325 969.4798,151.8981 Q969.4798,153.9138 970.1985,154.8825 Q970.9173,155.8356 972.511,155.8356 Q973.1048,155.8356 973.7298,155.6794 Q974.3548,155.5231 975.1829,155.1481 L975.1829,157.3669 Q974.4485,157.6794 973.6517,157.8356 Q972.8704,157.9919 972.1048,157.9919 Z " fill="#000000"/><text fill="#000000" font-family="sans-serif" font-size="14" lengthAdjust="spacing" textLength="137.6475" x="988.9018" y="156.502">EvaluadorAcademico</text><line style="stroke:#181818;stroke-width:0.5;" x1="948.44" x2="1138.7453" y1="167.07" y2="167.07"/><line style="stroke:#181818;stroke-width:0.5;" x1="948.44" x2="1138.7453" y1="175.07" y2="175.07"/><g data-visibility-modifier="PUBLIC_METHOD"><ellipse cx="958.44" cy="190.104" fill="#84BE84" rx="3" ry="3" style="stroke:#038048;stroke-width:1;"/></g><text fill="#000000" font-family="sans-serif" font-size="14" lengthAdjust="spacing" textLength="166.3053" x="967.44" y="194.0359">evaluar(alumno: Alumno)</text></g><!--class EvaluadorSocioeconomico--><g class="entity" data-qualified-name="EvaluadorSocioeconomico" data-source-line="9" id="ent0004"><rect fill="#F1F1F1" height="67.0679" rx="2.5" ry="2.5" style="stroke:#181818;stroke-width:0.5;" width="204.7873" x="1175.2" y="135.07"/><ellipse cx="1190.2" cy="151.07" fill="#ADD1B2" rx="11" ry="11" style="stroke:#181818;stroke-width:1;"/><path d="M1189.6688,157.9919 Q1187.9188,157.9919 1186.7781,157.2575 Q1185.6531,156.5075 1185.0906,155.1638 Q1184.5438,153.8044 1184.5438,152.0075 Q1184.5438,149.9763 1185.2,148.5231 Q1185.8563,147.07 1187.1375,146.2888 Q1188.4188,145.5075 1190.2938,145.5075 Q1191.1844,145.5075 1191.8563,145.695 Q1192.5281,145.8669 1193.2156,146.2106 L1192.4031,148.2263 Q1191.7781,147.9138 1191.2313,147.7888 Q1190.7,147.6638 1190.2156,147.6638 Q1189.0438,147.6638 1188.3406,148.195 Q1187.6375,148.7263 1187.3406,149.6794 Q1187.0438,150.6325 1187.0438,151.8981 Q1187.0438,153.9138 1187.7625,154.8825 Q1188.4813,155.8356 1190.075,155.8356 Q1190.6688,155.8356 1191.2938,155.6794 Q1191.9188,155.5231 1192.7469,155.1481 L1192.7469,157.3669 Q1192.0125,157.6794 1191.2156,157.8356 Q1190.4344,157.9919 1189.6688,157.9919 Z " fill="#000000"/><text fill="#000000" font-family="sans-serif" font-size="14" lengthAdjust="spacing" textLength="172.7873" x="1204.2" y="156.502">EvaluadorSocioeconomico</text><line style="stroke:#181818;stroke-width:0.5;" x1="1176.2" x2="1378.9873" y1="167.07" y2="167.07"/><line style="stroke:#181818;stroke-width:0.5;" x1="1176.2" x2="1378.9873" y1="175.07" y2="175.07"/><g data-visibility-modifier="PUBLIC_METHOD"><ellipse cx="1186.2" cy="190.104" fill="#84BE84" rx="3" ry="3" style="stroke:#038048;stroke-width:1;"/></g><text fill="#000000" font-family="sans-serif" font-size="14" lengthAdjust="spacing" textLength="166.3053" x="1195.2" y="194.0359">evaluar(alumno: Alumno)</text></g><!--class EvaluadorDeportes--><g class="entity" data-qualified-name="EvaluadorDeportes" data-source-line="12" id="ent0005"><rect fill="#F1F1F1" height="67.0679" rx="2.5" ry="2.5" style="stroke:#181818;stroke-width:0.5;" width="192.3053" x="720.44" y="135.07"/><ellipse cx="750.7138" cy="151.07" fill="#ADD1B2" rx="11" ry="11" style="stroke:#181818;stroke-width:1;"/><path d="M750.1826,157.9919 Q748.4326,157.9919 747.2919,157.2575 Q746.1669,156.5075 745.6044,155.1638 Q745.0576,153.8044 745.0576,152.0075 Q745.0576,149.9763 745.7138,148.5231 Q746.3701,147.07 747.6513,146.2888 Q748.9326,145.5075 750.8076,145.5075 Q751.6982,145.5075 752.3701,145.695 Q753.0419,145.8669 753.7294,146.2106 L752.9169,148.2263 Q752.2919,147.9138 751.7451,147.7888 Q751.2138,147.6638 750.7294,147.6638 Q749.5576,147.6638 748.8544,148.195 Q748.1513,148.7263 747.8544,149.6794 Q747.5576,150.6325 747.5576,151.8981 Q747.5576,153.9138 748.2763,154.8825 Q748.9951,155.8356 750.5888,155.8356 Q751.1826,155.8356 751.8076,155.6794 Q752.4326,155.5231 753.2607,155.1481 L753.2607,157.3669 Q752.5263,157.6794 751.7294,157.8356 Q750.9482,157.9919 750.1826,157.9919 Z " fill="#000000"/><text fill="#000000" font-family="sans-serif" font-size="14" lengthAdjust="spacing" textLength="126.3635" x="768.108" y="156.502">EvaluadorDeportes</text><line style="stroke:#181818;stroke-width:0.5;" x1="721.44" x2="911.7453" y1="167.07" y2="167.07"/><line style="stroke:#181818;stroke-width:0.5;" x1="721.44" x2="911.7453" y1="175.07" y2="175.07"/><g data-visibility-modifier="PUBLIC_METHOD"><ellipse cx="731.44" cy="190.104" fill="#84BE84" rx="3" ry="3" style="stroke:#038048;stroke-width:1;"/></g><text fill="#000000" font-family="sans-serif" font-size="14" lengthAdjust="spacing" textLength="166.3053" x="740.44" y="194.0359">evaluar(alumno: Alumno)</text></g><!--class EvaluadorInternacional--><g class="entity" data-qualified-name="EvaluadorInternacional" data-source-line="15" id="ent0006"><rect fill="#F1F1F1" height="67.0679" rx="2.5" ry="2.5" style="stroke:#181818;stroke-width:0.5;" width="192.3053" x="2120.44" y="135.07"/><ellipse cx="2138.599" cy="151.07" fill="#ADD1B2" rx="11" ry="11" style="stroke:#181818;stroke-width:1;"/><path d="M2138.0677,157.9919 Q2136.3177,157.9919 2135.1771,157.2575 Q2134.0521,156.5075 2133.4896,155.1638 Q2132.9427,153.8044 2132.9427,152.0075 Q2132.9427,149.9763 2133.599,148.5231 Q2134.2552,147.07 2135.5365,146.2888 Q2136.8177,145.5075 2138.6927,145.5075 Q2139.5833,145.5075 2140.2552,145.695 Q2140.9271,145.8669 2141.6146,146.2106 L2140.8021,148.2263 Q2140.1771,147.9138 2139.6302,147.7888 Q2139.099,147.6638 2138.6146,147.6638 Q2137.4427,147.6638 2136.7396,148.195 Q2136.0365,148.7263 2135.7396,149.6794 Q2135.4427,150.6325 2135.4427,151.8981 Q2135.4427,153.9138 2136.1615,154.8825 Q2136.8802,155.8356 2138.474,155.8356 Q2139.0677,155.8356 2139.6927,155.6794 Q2140.3177,155.5231 2141.1458,155.1481 L2141.1458,157.3669 Q2140.4115,157.6794 2139.6146,157.8356 Q2138.8333,157.9919 2138.0677,157.9919 Z " fill="#000000"/><text fill="#000000" font-family="sans-serif" font-size="14" lengthAdjust="spacing" textLength="153.2854" x="2153.301" y="156.502">EvaluadorInternacional</text><line style="stroke:#181818;stroke-width:0.5;" x1="2121.44" x2="2311.7453" y1="167.07" y2="167.07"/><line style="stroke:#181818;stroke-width:0.5;" x1="2121.44" x2="2311.7453" y1="175.07" y2="175.07"/><g data-visibility-modifier="PUBLIC_METHOD"><ellipse cx="2131.44" cy="190.104" fill="#84BE84" rx="3" ry="3" style="stroke:#038048;stroke-width:1;"/></g><text fill="#000000" font-family="sans-serif" font-size="14" lengthAdjust="spacing" textLength="166.3053" x="2140.44" y="194.0359">evaluar(alumno: Alumno)</text></g><!--class Alumno--><g class="entity" data-qualified-name="Alumno" data-source-line="24" id="ent0011"><rect fill="#F1F1F1" height="48" rx="2.5" ry="2.5" style="stroke:#181818;stroke-width:0.5;" width="83.4218" x="1170.88" y="281.14"/><ellipse cx="1185.88" cy="297.14" fill="#ADD1B2" rx="11" ry="11" style="stroke:#181818;stroke-width:1;"/><path d="M1185.3487,304.0619 Q1183.5987,304.0619 1182.4581,303.3275 Q1181.3331,302.5775 1180.7706,301.2338 Q1180.2237,299.8744 1180.2237,298.0775 Q1180.2237,296.0463 1180.88,294.5931 Q1181.5362,293.14 1182.8175,292.3588 Q1184.0987,291.5775 1185.9737,291.5775 Q1186.8644,291.5775 1187.5362,291.765 Q1188.2081,291.9369 1188.8956,292.2806 L1188.0831,294.2963 Q1187.4581,293.9838 1186.9112,293.8588 Q1186.38,293.7338 1185.8956,293.7338 Q1184.7237,293.7338 1184.0206,294.265 Q1183.3175,294.7963 1183.0206,295.7494 Q1182.7237,296.7025 1182.7237,297.9681 Q1182.7237,299.9838 1183.4425,300.9525 Q1184.1612,301.9056 1185.755,301.9056 Q1186.3487,301.9056 1186.9737,301.7494 Q1187.5987,301.5931 1188.4269,301.2181 L1188.4269,303.4369 Q1187.6925,303.7494 1186.8956,303.9056 Q1186.1144,304.0619 1185.3487,304.0619 Z " fill="#000000"/><text fill="#000000" font-family="sans-serif" font-size="14" lengthAdjust="spacing" textLength="51.4218" x="1199.88" y="302.572">Alumno</text><line style="stroke:#181818;stroke-width:0.5;" x1="1171.88" x2="1253.3018" y1="313.14" y2="313.14"/><line style="stroke:#181818;stroke-width:0.5;" x1="1171.88" x2="1253.3018" y1="321.14" y2="321.14"/></g><!--class AlumnoErasmus--><g class="entity" data-qualified-name="AlumnoErasmus" data-source-line="24" id="ent0012"><rect fill="#F1F1F1" height="48" rx="2.5" ry="2.5" style="stroke:#181818;stroke-width:0.5;" width="139.9956" x="325.59" y="390.14"/><ellipse cx="340.59" cy="406.14" fill="#ADD1B2" rx="11" ry="11" style="stroke:#181818;stroke-width:1;"/><path d="M340.0588,413.0619 Q338.3088,413.0619 337.1681,412.3275 Q336.0431,411.5775 335.4806,410.2338 Q334.9338,408.8744 334.9338,407.0775 Q334.9338,405.0463 335.59,403.5931 Q336.2463,402.14 337.5275,401.3588 Q338.8088,400.5775 340.6838,400.5775 Q341.5744,400.5775 342.2463,400.765 Q342.9181,400.9369 343.6056,401.2806 L342.7931,403.2963 Q342.1681,402.9838 341.6213,402.8588 Q341.09,402.7338 340.6056,402.7338 Q339.4338,402.7338 338.7306,403.265 Q338.0275,403.7963 337.7306,404.7494 Q337.4338,405.7025 337.4338,406.9681 Q337.4338,408.9838 338.1525,409.9525 Q338.8713,410.9056 340.465,410.9056 Q341.0588,410.9056 341.6838,410.7494 Q342.3088,410.5931 343.1369,410.2181 L343.1369,412.4369 Q342.4025,412.7494 341.6056,412.9056 Q340.8244,413.0619 340.0588,413.0619 Z " fill="#000000"/><text fill="#000000" font-family="sans-serif" font-size="14" lengthAdjust="spacing" textLength="107.9956" x="354.59" y="411.572">AlumnoErasmus</text><line style="stroke:#181818;stroke-width:0.5;" x1="326.59" x2="464.5856" y1="422.14" y2="422.14"/><line style="stroke:#181818;stroke-width:0.5;" x1="326.59" x2="464.5856" y1="430.14" y2="430.14"/></g><!--class AlumnoVirtual--><g class="entity" data-qualified-name="AlumnoVirtual" data-source-line="25" id="ent0014"><rect fill="#F1F1F1" height="48" rx="2.5" ry="2.5" style="stroke:#181818;stroke-width:0.5;" width="126.3876" x="602.4" y="390.14"/><ellipse cx="617.4" cy="406.14" fill="#ADD1B2" rx="11" ry="11" style="stroke:#181818;stroke-width:1;"/><path d="M616.8688,413.0619 Q615.1188,413.0619 613.9781,412.3275 Q612.8531,411.5775 612.2906,410.2338 Q611.7438,408.8744 611.7438,407.0775 Q611.7438,405.0463 612.4,403.5931 Q613.0563,402.14 614.3375,401.3588 Q615.6188,400.5775 617.4938,400.5775 Q618.3844,400.5775 619.0563,400.765 Q619.7281,400.9369 620.4156,401.2806 L619.6031,403.2963 Q618.9781,402.9838 618.4313,402.8588 Q617.9,402.7338 617.4156,402.7338 Q616.2438,402.7338 615.5406,403.265 Q614.8375,403.7963 614.5406,404.7494 Q614.2438,405.7025 614.2438,406.9681 Q614.2438,408.9838 614.9625,409.9525 Q615.6813,410.9056 617.275,410.9056 Q617.8688,410.9056 618.4938,410.7494 Q619.1188,410.5931 619.9469,410.2181 L619.9469,412.4369 Q619.2125,412.7494 618.4156,412.9056 Q617.6344,413.0619 616.8688,413.0619 Z " fill="#000000"/><text fill="#000000" font-family="sans-serif" font-size="14" lengthAdjust="spacing" textLength="94.3876" x="631.4" y="411.572">AlumnoVirtual</text><line style="stroke:#181818;stroke-width:0.5;" x1="603.4" x2="727.7876" y1="422.14" y2="422.14"/><line style="stroke:#181818;stroke-width:0.5;" x1="603.4" x2="727.7876" y1="430.14" y2="430.14"/></g><!--class AlumnoInvestigador--><g class="entity" data-qualified-name="AlumnoInvestigador" data-source-line="26" id="ent0016"><rect fill="#F1F1F1" height="48" rx="2.5" ry="2.5" style="stroke:#181818;stroke-width:0.5;" width="166.5255" x="1129.33" y="390.14"/><ellipse cx="1144.33" cy="406.14" fill="#ADD1B2" rx="11" ry="11" style="stroke:#181818;stroke-width:1;"/><path d="M1143.7988,413.0619 Q1142.0488,413.0619 1140.9081,412.3275 Q1139.7831,411.5775 1139.2206,410.2338 Q1138.6738,408.8744 1138.6738,407.0775 Q1138.6738,405.0463 1139.33,403.5931 Q1139.9863,402.14 1141.2675,401.3588 Q1142.5488,400.5775 1144.4238,400.5775 Q1145.3144,400.5775 1145.9863,400.765 Q1146.6581,400.9369 1147.3456,401.2806 L1146.5331,403.2963 Q1145.9081,402.9838 1145.3613,402.8588 Q1144.83,402.7338 1144.3456,402.7338 Q1143.1738,402.7338 1142.4706,403.265 Q1141.7675,403.7963 1141.4706,404.7494 Q1141.1738,405.7025 1141.1738,406.9681 Q1141.1738,408.9838 1141.8925,409.9525 Q1142.6113,410.9056 1144.205,410.9056 Q1144.7988,410.9056 1145.4238,410.7494 Q1146.0488,410.5931 1146.8769,410.2181 L1146.8769,412.4369 Q1146.1425,412.7494 1145.3456,412.9056 Q1144.5644,413.0619 1143.7988,413.0619 Z " fill="#000000"/><text fill="#000000" font-family="sans-serif" font-size="14" lengthAdjust="spacing" textLength="134.5255" x="1158.33" y="411.572">AlumnoInvestigador</text><line style="stroke:#181818;stroke-width:0.5;" x1="1130.33" x2="1294.8555" y1="422.14" y2="422.14"/><line style="stroke:#181818;stroke-width:0.5;" x1="1130.33" x2="1294.8555" y1="430.14" y2="430.14"/></g><!--class AlumnoDeportista--><g class="entity" data-qualified-name="AlumnoDeportista" data-source-line="27" id="ent0018"><rect fill="#F1F1F1" height="48" rx="2.5" ry="2.5" style="stroke:#181818;stroke-width:0.5;" width="152.6796" x="2058.25" y="390.14"/><ellipse cx="2073.25" cy="406.14" fill="#ADD1B2" rx="11" ry="11" style="stroke:#181818;stroke-width:1;"/><path d="M2072.7188,413.0619 Q2070.9688,413.0619 2069.8281,412.3275 Q2068.7031,411.5775 2068.1406,410.2338 Q2067.5938,408.8744 2067.5938,407.0775 Q2067.5938,405.0463 2068.25,403.5931 Q2068.9063,402.14 2070.1875,401.3588 Q2071.4688,400.5775 2073.3438,400.5775 Q2074.2344,400.5775 2074.9063,400.765 Q2075.5781,400.9369 2076.2656,401.2806 L2075.4531,403.2963 Q2074.8281,402.9838 2074.2813,402.8588 Q2073.75,402.7338 2073.2656,402.7338 Q2072.0938,402.7338 2071.3906,403.265 Q2070.6875,403.7963 2070.3906,404.7494 Q2070.0938,405.7025 2070.0938,406.9681 Q2070.0938,408.9838 2070.8125,409.9525 Q2071.5313,410.9056 2073.125,410.9056 Q2073.7188,410.9056 2074.3438,410.7494 Q2074.9688,410.5931 2075.7969,410.2181 L2075.7969,412.4369 Q2075.0625,412.7494 2074.2656,412.9056 Q2073.4844,413.0619 2072.7188,413.0619 Z " fill="#000000"/><text fill="#000000" font-family="sans-serif" font-size="14" lengthAdjust="spacing" textLength="120.6796" x="2087.25" y="411.572">AlumnoDeportista</text><line style="stroke:#181818;stroke-width:0.5;" x1="2059.25" x2="2209.9296" y1="422.14" y2="422.14"/><line style="stroke:#181818;stroke-width:0.5;" x1="2059.25" x2="2209.9296" y1="430.14" y2="430.14"/></g><!--class AlumnoDiscapacidad--><g class="entity" data-qualified-name="AlumnoDiscapacidad" data-source-line="28" id="ent0020"><rect fill="#F1F1F1" height="48" rx="2.5" ry="2.5" style="stroke:#181818;stroke-width:0.5;" width="170.4035" x="1374.39" y="390.14"/><ellipse cx="1389.39" cy="406.14" fill="#ADD1B2" rx="11" ry="11" style="stroke:#181818;stroke-width:1;"/><path d="M1388.8587,413.0619 Q1387.1087,413.0619 1385.9681,412.3275 Q1384.8431,411.5775 1384.2806,410.2338 Q1383.7337,408.8744 1383.7337,407.0775 Q1383.7337,405.0463 1384.39,403.5931 Q1385.0462,402.14 1386.3275,401.3588 Q1387.6087,400.5775 1389.4837,400.5775 Q1390.3744,400.5775 1391.0462,400.765 Q1391.7181,400.9369 1392.4056,401.2806 L1391.5931,403.2963 Q1390.9681,402.9838 1390.4212,402.8588 Q1389.89,402.7338 1389.4056,402.7338 Q1388.2337,402.7338 1387.5306,403.265 Q1386.8275,403.7963 1386.5306,404.7494 Q1386.2337,405.7025 1386.2337,406.9681 Q1386.2337,408.9838 1386.9525,409.9525 Q1387.6712,410.9056 1389.265,410.9056 Q1389.8587,410.9056 1390.4837,410.7494 Q1391.1087,410.5931 1391.9369,410.2181 L1391.9369,412.4369 Q1391.2025,412.7494 1390.4056,412.9056 Q1389.6244,413.0619 1388.8587,413.0619 Z " fill="#000000"/><text fill="#000000" font-family="sans-serif" font-size="14" lengthAdjust="spacing" textLength="138.4035" x="1403.39" y="411.572">AlumnoDiscapacidad</text><line style="stroke:#181818;stroke-width:0.5;" x1="1375.39" x2="1543.7935" y1="422.14" y2="422.14"/><line style="stroke:#181818;stroke-width:0.5;" x1="1375.39" x2="1543.7935" y1="430.14" y2="430.14"/></g><!--reverse link EvaluadorBecas to EvaluadorAcademico--><g class="link" data-entity-1="ent0002" data-entity-2="ent0003" data-link-type="extension" data-source-line="19" id="lnk7"><path codeLine="19" d="M1085.3586,90.1744 C1075.2886,108.8544 1071.25,116.33 1061.19,134.98" fill="none" id="EvaluadorBecas-backto-EvaluadorAcademico" style="stroke:#181818;stroke-width:1;"/><polygon fill="none" points="1093.9,74.33,1080.0772,87.3273,1090.6401,93.0215,1093.9,74.33" style="stroke:#181818;stroke-width:1;"/></g><!--reverse link EvaluadorBecas to EvaluadorSocioeconomico--><g class="link" data-entity-1="ent0002" data-entity-2="ent0004" data-link-type="extension" data-source-line="20" id="lnk8"><path codeLine="20" d="M1169.1037,85.2178 C1193.6037,103.8278 1209.83,116.14 1234.34,134.76" fill="none" id="EvaluadorBecas-backto-EvaluadorSocioeconomico" style="stroke:#181818;stroke-width:1;"/><polygon fill="none" points="1154.77,74.33,1165.4745,89.9957,1172.733,80.4399,1154.77,74.33" style="stroke:#181818;stroke-width:1;"/></g><!--reverse link EvaluadorBecas to EvaluadorDeportes--><g class="link" data-entity-1="ent0002" data-entity-2="ent0005" data-link-type="extension" data-source-line="21" id="lnk9"><path codeLine="21" d="M1017.9181,81.5735 C974.5581,100.1035 937.15,116.09 893.78,134.62" fill="none" id="EvaluadorBecas-backto-EvaluadorDeportes" style="stroke:#181818;stroke-width:1;"/><polygon fill="none" points="1034.47,74.5,1015.5603,76.0562,1020.2759,87.0908,1034.47,74.5" style="stroke:#181818;stroke-width:1;"/></g><!--reverse link EvaluadorBecas to EvaluadorInternacional--><g class="link" data-entity-1="ent0002" data-entity-2="ent0006" data-link-type="extension" data-source-line="22" id="lnk10"><path codeLine="22" d="M1221.784,54.1105 C1428.624,77.7105 1909.64,132.59 2120.23,156.61" fill="none" id="EvaluadorBecas-backto-EvaluadorInternacional" style="stroke:#181818;stroke-width:1;"/><polygon fill="none" points="1203.9,52.07,1221.1038,60.0718,1222.4641,48.1492,1203.9,52.07" style="stroke:#181818;stroke-width:1;"/></g><!--reverse link Alumno to AlumnoErasmus--><g class="link" data-entity-1="ent0011" data-entity-2="ent0012" data-link-type="extension" data-source-line="24" id="lnk13"><path codeLine="24" d="M1153.517,327.1881 C1144.677,330.0181 1152.47,327.2 1143.59,329.14 C1021.52,355.83 708.73,375.81 584.59,390.14 C545.35,394.67 501.56,399.98 466.02,404.36" fill="none" id="Alumno-backto-AlumnoErasmus" style="stroke:#181818;stroke-width:1;"/><polygon fill="none" points="1170.66,321.7,1151.6877,321.4738,1155.3464,332.9024,1170.66,321.7" style="stroke:#181818;stroke-width:1;"/></g><!--reverse link Alumno to AlumnoVirtual--><g class="link" data-entity-1="ent0011" data-entity-2="ent0014" data-link-type="extension" data-source-line="25" id="lnk15"><path codeLine="25" d="M1153.434,326.7908 C1144.594,329.6508 1152.41,326.91 1143.59,329.14 C1103.98,339.17 849.9,382.24 729.15,402.51" fill="none" id="Alumno-backto-AlumnoVirtual" style="stroke:#181818;stroke-width:1;"/><polygon fill="none" points="1170.56,321.25,1151.5871,321.0821,1155.2809,332.4994,1170.56,321.25" style="stroke:#181818;stroke-width:1;"/></g><!--reverse link Alumno to AlumnoInvestigador--><g class="link" data-entity-1="ent0011" data-entity-2="ent0016" data-link-type="extension" data-source-line="26" id="lnk17"><path codeLine="26" d="M1212.59,347.62 C1212.59,365.46 1212.59,371.89 1212.59,389.71" fill="none" id="Alumno-backto-AlumnoInvestigador" style="stroke:#181818;stroke-width:1;"/><polygon fill="none" points="1212.59,329.62,1206.59,347.62,1218.59,347.62,1212.59,329.62" style="stroke:#181818;stroke-width:1;"/></g><!--reverse link Alumno to AlumnoDeportista--><g class="link" data-entity-1="ent0011" data-entity-2="ent0018" data-link-type="extension" data-source-line="27" id="lnk19"><path codeLine="27" d="M1271.653,327.2581 C1280.493,330.0881 1272.7,327.25 1281.59,329.14 C1563.57,389.23 1907.33,406.48 2057.83,411.31" fill="none" id="Alumno-backto-AlumnoDeportista" style="stroke:#181818;stroke-width:1;"/><polygon fill="none" points="1254.51,321.77,1269.8236,332.9724,1273.4823,321.5438,1254.51,321.77" style="stroke:#181818;stroke-width:1;"/></g><!--reverse link Alumno to AlumnoDiscapacidad--><g class="link" data-entity-1="ent0011" data-entity-2="ent0020" data-link-type="extension" data-source-line="28" id="lnk21"><path codeLine="28" d="M1260.422,339.3369 C1276.032,349.6869 1280.24,351.52 1298.59,360.14 C1322.83,371.53 1350.18,381.52 1375.36,389.67" fill="none" id="Alumno-backto-AlumnoDiscapacidad" style="stroke:#181818;stroke-width:1;"/><polygon fill="none" points="1245.42,329.39,1257.1064,344.3375,1263.7376,334.3362,1245.42,329.39" style="stroke:#181818;stroke-width:1;"/></g><!--link EvaluadorAcademico to Alumno--><g class="link" data-entity-1="ent0003" data-entity-2="ent0011" data-link-type="dependency" data-source-line="30" id="lnk22"><path codeLine="30" d="M1084.93,202.52 C1115.42,226.79 1151.4667,255.4719 1178.6367,277.1119" fill="none" id="EvaluadorAcademico-to-Alumno" style="stroke:#181818;stroke-width:1;stroke-dasharray:7,7;"/><polygon fill="#181818" points="1183.33,280.85,1178.7821,272.1141,1179.4189,277.735,1173.798,278.3718,1183.33,280.85" style="stroke:#181818;stroke-width:1;"/><text fill="#000000" font-family="sans-serif" font-size="13" lengthAdjust="spacing" textLength="24.245" x="1144.23" y="247.037">else</text></g><!--link EvaluadorAcademico to AlumnoErasmus--><g class="link" data-entity-1="ent0003" data-entity-2="ent0012" data-link-type="dependency" data-source-line="31" id="lnk23"><path codeLine="31" d="M947.11,198.73 C941.55,199.99 936.01,201.14 930.59,202.14 C789.02,228.28 380.52,171.19 287.59,281.14 C255.77,318.79 305.9396,360.1239 348.4596,386.6539" fill="none" id="EvaluadorAcademico-to-AlumnoErasmus" style="stroke:#181818;stroke-width:1;stroke-dasharray:7,7;"/><polygon fill="#181818" points="353.55,389.83,348.0318,381.6722,349.308,387.1832,343.797,388.4594,353.55,389.83" style="stroke:#181818;stroke-width:1;"/><text fill="#000000" font-family="sans-serif" font-size="13" lengthAdjust="spacing" textLength="63.5441" x="288.59" y="310.537">instanceof</text></g><!--link EvaluadorAcademico to AlumnoVirtual--><g class="link" data-entity-1="ent0003" data-entity-2="ent0014" data-link-type="dependency" data-source-line="32" id="lnk24"><path codeLine="32" d="M947.24,197.85 C941.62,199.34 936.04,200.78 930.59,202.14 C766.18,243.16 664.28,149.49 557.59,281.14 C526.65,319.33 576.1494,360.3141 618.3694,386.6541" fill="none" id="EvaluadorAcademico-to-AlumnoVirtual" style="stroke:#181818;stroke-width:1;stroke-dasharray:7,7;"/><polygon fill="#181818" points="623.46,389.83,617.9414,381.6725,619.2179,387.1834,613.7069,388.4599,623.46,389.83" style="stroke:#181818;stroke-width:1;"/><text fill="#000000" font-family="sans-serif" font-size="13" lengthAdjust="spacing" textLength="63.5441" x="558.59" y="310.537">instanceof</text></g><!--link EvaluadorAcademico to AlumnoInvestigador--><g class="link" data-entity-1="ent0003" data-entity-2="ent0016" data-link-type="dependency" data-source-line="33" id="lnk25"><path codeLine="33" d="M1006.35,202.43 C972.96,235.9 933.4,288.53 962.59,329.14 C1000.21,381.47 1066.092,400.8617 1123.132,408.4217" fill="none" id="EvaluadorAcademico-to-AlumnoInvestigador" style="stroke:#181818;stroke-width:1;stroke-dasharray:7,7;"/><polygon fill="#181818" points="1129.08,409.21,1120.6836,404.0622,1124.1233,408.5531,1119.6325,411.9928,1129.08,409.21" style="stroke:#181818;stroke-width:1;"/><text fill="#000000" font-family="sans-serif" font-size="13" lengthAdjust="spacing" textLength="63.5441" x="963.59" y="310.537">instanceof</text></g><!--link EvaluadorAcademico to AlumnoDeportista--><g class="link" data-entity-1="ent0003" data-entity-2="ent0018" data-link-type="dependency" data-source-line="34" id="lnk26"><path codeLine="34" d="M1139.94,198.86 C1145.88,200.11 1151.8,201.23 1157.59,202.14 C1252.92,217.16 1937.49,192.76 2025.59,232.14 C2089.72,260.81 2117.4295,342.053 2128.0595,384.103" fill="none" id="EvaluadorAcademico-to-AlumnoDeportista" style="stroke:#181818;stroke-width:1;stroke-dasharray:7,7;"/><polygon fill="#181818" points="2129.53,389.92,2131.2022,380.2141,2128.3046,385.0725,2123.4462,382.1748,2129.53,389.92" style="stroke:#181818;stroke-width:1;"/><text fill="#000000" font-family="sans-serif" font-size="13" lengthAdjust="spacing" textLength="63.5441" x="2109.79" y="310.537">instanceof</text></g><!--link EvaluadorAcademico to AlumnoDiscapacidad--><g class="link" data-entity-1="ent0003" data-entity-2="ent0020" data-link-type="dependency" data-source-line="35" id="lnk27"><path codeLine="35" d="M1140.09,198.04 C1146,199.5 1151.86,200.88 1157.59,202.14 C1242.38,220.75 1273.6,192.04 1350.59,232.14 C1412.4,264.34 1440.9097,342.6573 1452.3197,383.8873" fill="none" id="EvaluadorAcademico-to-AlumnoDiscapacidad" style="stroke:#181818;stroke-width:1;stroke-dasharray:7,7;"/><polygon fill="#181818" points="1453.92,389.67,1455.3747,379.9292,1452.5864,384.8511,1447.6645,382.0629,1453.92,389.67" style="stroke:#181818;stroke-width:1;"/><text fill="#000000" font-family="sans-serif" font-size="13" lengthAdjust="spacing" textLength="63.5441" x="1432.58" y="310.537">instanceof</text></g><!--link EvaluadorSocioeconomico to Alumno--><g class="link" data-entity-1="ent0004" data-entity-2="ent0011" data-link-type="dependency" data-source-line="37" id="lnk28"><path codeLine="37" d="M1228.91,202.35 C1219.86,210.9 1211.66,220.91 1206.59,232.14 C1199.72,247.34 1200.2492,260.3364 1203.6492,274.9364" fill="none" id="EvaluadorSocioeconomico-to-Alumno" style="stroke:#181818;stroke-width:1;stroke-dasharray:7,7;"/><polygon fill="#181818" points="1205.01,280.78,1206.8645,271.1073,1203.876,275.9103,1199.073,272.9218,1205.01,280.78" style="stroke:#181818;stroke-width:1;"/><text fill="#000000" font-family="sans-serif" font-size="13" lengthAdjust="spacing" textLength="24.245" x="1207.59" y="247.037">else</text></g><!--link EvaluadorSocioeconomico to AlumnoErasmus--><g class="link" data-entity-1="ent0004" data-entity-2="ent0012" data-link-type="dependency" data-source-line="38" id="lnk29"><path codeLine="38" d="M1174.73,198.56 C1168.95,199.85 1163.21,201.06 1157.59,202.14 C1007.77,230.96 603.99,198.73 475.59,281.14 C436.02,306.54 415.0468,353.4746 404.5568,384.0546" fill="none" id="EvaluadorSocioeconomico-to-AlumnoErasmus" style="stroke:#181818;stroke-width:1;stroke-dasharray:7,7;"/><polygon fill="#181818" points="402.61,389.73,409.3138,382.5148,404.2324,385.0005,401.7467,379.9191,402.61,389.73" style="stroke:#181818;stroke-width:1;"/><text fill="#000000" font-family="sans-serif" font-size="13" lengthAdjust="spacing" textLength="63.5441" x="476.59" y="310.537">instanceof</text></g><!--link EvaluadorSocioeconomico to AlumnoVirtual--><g class="link" data-entity-1="ent0004" data-entity-2="ent0014" data-link-type="dependency" data-source-line="39" id="lnk30"><path codeLine="39" d="M1208.26,202.46 C1168.78,219.75 1117.89,239.68 1070.59,251.14 C941.22,282.49 889.73,217.91 772.59,281.14 C726.9,305.8 696.2846,353.6465 679.8446,384.4565" fill="none" id="EvaluadorSocioeconomico-to-AlumnoVirtual" style="stroke:#181818;stroke-width:1;stroke-dasharray:7,7;"/><polygon fill="#181818" points="677.02,389.75,684.7859,383.6927,679.3738,385.3387,677.7279,379.9266,677.02,389.75" style="stroke:#181818;stroke-width:1;"/><text fill="#000000" font-family="sans-serif" font-size="13" lengthAdjust="spacing" textLength="63.5441" x="773.59" y="310.537">instanceof</text></g><!--link EvaluadorSocioeconomico to AlumnoInvestigador--><g class="link" data-entity-1="ent0004" data-entity-2="ent0016" data-link-type="dependency" data-source-line="40" id="lnk31"><path codeLine="40" d="M1380.23,192.29 C1471.61,217.35 1583.55,263.09 1532.59,329.14 C1517.92,348.16 1391.7163,376.9677 1301.8963,395.4977" fill="none" id="EvaluadorSocioeconomico-to-AlumnoInvestigador" style="stroke:#181818;stroke-width:1;stroke-dasharray:7,7;"/><polygon fill="#181818" points="1296.02,396.71,1305.6426,398.8091,1300.9169,395.6998,1304.0262,390.9741,1296.02,396.71" style="stroke:#181818;stroke-width:1;"/><text fill="#000000" font-family="sans-serif" font-size="13" lengthAdjust="spacing" textLength="63.5441" x="1546.35" y="310.537">instanceof</text></g><!--link EvaluadorSocioeconomico to AlumnoDeportista--><g class="link" data-entity-1="ent0004" data-entity-2="ent0018" data-link-type="dependency" data-source-line="41" id="lnk32"><path codeLine="41" d="M1380.1,171.58 C1648.62,177.83 2356.38,201.78 2422.59,281.14 C2486.28,357.48 2322.4106,391.0517 2217.0706,404.6517" fill="none" id="EvaluadorSocioeconomico-to-AlumnoDeportista" style="stroke:#181818;stroke-width:1;stroke-dasharray:7,7;"/><polygon fill="#181818" points="2211.12,405.42,2220.5581,408.2347,2216.0788,404.7798,2219.5337,400.3005,2211.12,405.42" style="stroke:#181818;stroke-width:1;"/><text fill="#000000" font-family="sans-serif" font-size="13" lengthAdjust="spacing" textLength="63.5441" x="2437.47" y="310.537">instanceof</text></g><!--link EvaluadorSocioeconomico to AlumnoDiscapacidad--><g class="link" data-entity-1="ent0004" data-entity-2="ent0020" data-link-type="dependency" data-source-line="42" id="lnk33"><path codeLine="42" d="M1380.44,176.48 C1517.95,188.07 1750.51,216.83 1802.59,281.14 C1876.08,371.88 1675.2147,399.9122 1551.2747,408.7722" fill="none" id="EvaluadorSocioeconomico-to-AlumnoDiscapacidad" style="stroke:#181818;stroke-width:1;stroke-dasharray:7,7;"/><polygon fill="#181818" points="1545.29,409.2,1554.5523,412.5481,1550.2773,408.8435,1553.9819,404.5684,1545.29,409.2" style="stroke:#181818;stroke-width:1;"/><text fill="#000000" font-family="sans-serif" font-size="13" lengthAdjust="spacing" textLength="63.5441" x="1818.98" y="310.537">instanceof</text></g><!--link EvaluadorDeportes to Alumno--><g class="link" data-entity-1="ent0005" data-entity-2="ent0011" data-link-type="dependency" data-source-line="44" id="lnk34"><path codeLine="44" d="M913.21,202.43 C995.41,230.36 1103.8389,267.1899 1164.7089,287.8699" fill="none" id="EvaluadorDeportes-to-Alumno" style="stroke:#181818;stroke-width:1;stroke-dasharray:7,7;"/><polygon fill="#181818" points="1170.39,289.8,1163.1551,283.1175,1165.6558,288.1916,1160.5816,290.6922,1170.39,289.8" style="stroke:#181818;stroke-width:1;"/><text fill="#000000" font-family="sans-serif" font-size="13" lengthAdjust="spacing" textLength="24.245" x="1051.06" y="247.037">else</text></g><!--link EvaluadorDeportes to AlumnoErasmus--><g class="link" data-entity-1="ent0005" data-entity-2="ent0012" data-link-type="dependency" data-source-line="45" id="lnk35"><path codeLine="45" d="M720.08,170.33 C595.12,173.27 371.47,185.37 186.59,232.14 C131.94,245.97 100.82,234.2 69.59,281.14 C6,376.71 205.6323,402.7167 319.3623,409.9967" fill="none" id="EvaluadorDeportes-to-AlumnoErasmus" style="stroke:#181818;stroke-width:1;stroke-dasharray:7,7;"/><polygon fill="#181818" points="325.35,410.38,316.6239,405.8132,320.3602,410.0606,316.1129,413.7969,325.35,410.38" style="stroke:#181818;stroke-width:1;"/><text fill="#000000" font-family="sans-serif" font-size="13" lengthAdjust="spacing" textLength="63.5441" x="70.59" y="310.537">instanceof</text></g><!--link EvaluadorDeportes to AlumnoVirtual--><g class="link" data-entity-1="ent0005" data-entity-2="ent0014" data-link-type="dependency" data-source-line="46" id="lnk36"><path codeLine="46" d="M720.26,171.15 C554.03,176.07 224.18,196.53 152.59,281.14 C138.81,297.43 138.78,312.88 152.59,329.14 C167.1,346.22 461.971,386.5797 596.071,404.1697" fill="none" id="EvaluadorDeportes-to-AlumnoVirtual" style="stroke:#181818;stroke-width:1;stroke-dasharray:7,7;"/><polygon fill="#181818" points="602.02,404.95,593.6167,399.8135,597.0625,404.2997,592.5762,407.7455,602.02,404.95" style="stroke:#181818;stroke-width:1;"/><text fill="#000000" font-family="sans-serif" font-size="13" lengthAdjust="spacing" textLength="63.5441" x="153.59" y="310.537">instanceof</text></g><!--link EvaluadorDeportes to AlumnoInvestigador--><g class="link" data-entity-1="ent0005" data-entity-2="ent0016" data-link-type="dependency" data-source-line="47" id="lnk37"><path codeLine="47" d="M820.95,202.52 C827.46,238.6 843.12,295.78 879.59,329.14 C915.72,362.19 1036.6456,386.4604 1122.9256,400.2904" fill="none" id="EvaluadorDeportes-to-AlumnoInvestigador" style="stroke:#181818;stroke-width:1;stroke-dasharray:7,7;"/><polygon fill="#181818" points="1128.85,401.24,1120.5965,395.866,1123.913,400.4486,1119.3304,403.7651,1128.85,401.24" style="stroke:#181818;stroke-width:1;"/><text fill="#000000" font-family="sans-serif" font-size="13" lengthAdjust="spacing" textLength="63.5441" x="880.59" y="310.537">instanceof</text></g><!--link EvaluadorDeportes to AlumnoDeportista--><g class="link" data-entity-1="ent0005" data-entity-2="ent0018" data-link-type="dependency" data-source-line="48" id="lnk38"><path codeLine="48" d="M913.06,198.8 C918.63,200.04 924.17,201.17 929.59,202.14 C1351.45,277.62 1480.18,157.78 1890.59,281.14 C1971.77,305.54 2051.7091,355.3905 2096.8291,386.2805" fill="none" id="EvaluadorDeportes-to-AlumnoDeportista" style="stroke:#181818;stroke-width:1;stroke-dasharray:7,7;"/><polygon fill="#181818" points="2101.78,389.67,2096.6133,381.2852,2097.6542,386.8454,2092.094,387.8864,2101.78,389.67" style="stroke:#181818;stroke-width:1;"/><text fill="#000000" font-family="sans-serif" font-size="13" lengthAdjust="spacing" textLength="63.5441" x="2001.88" y="310.537">instanceof</text></g><!--link EvaluadorDeportes to AlumnoDiscapacidad--><g class="link" data-entity-1="ent0005" data-entity-2="ent0020" data-link-type="dependency" data-source-line="49" id="lnk39"><path codeLine="49" d="M913.07,198.76 C918.63,200.01 924.17,201.15 929.59,202.14 C1011.4,217.05 1237.7,180.14 1302.59,232.14 C1337.81,260.36 1305.53,293.03 1332.59,329.14 C1352.09,355.16 1376.9029,372.6963 1402.8929,386.8763" fill="none" id="EvaluadorDeportes-to-AlumnoDiscapacidad" style="stroke:#181818;stroke-width:1;stroke-dasharray:7,7;"/><polygon fill="#181818" points="1408.16,389.75,1402.1752,381.9281,1403.7708,387.3553,1398.3436,388.9509,1408.16,389.75" style="stroke:#181818;stroke-width:1;"/><text fill="#000000" font-family="sans-serif" font-size="13" lengthAdjust="spacing" textLength="63.5441" x="1333.59" y="310.537">instanceof</text></g><!--link EvaluadorInternacional to Alumno--><g class="link" data-entity-1="ent0006" data-entity-2="ent0011" data-link-type="dependency" data-source-line="51" id="lnk40"><path codeLine="51" d="M2120.28,174.64 C1949.53,184.98 1583.3,213.6 1281.59,281.14 C1272.72,283.13 1269.0924,283.9748 1260.2524,286.8148" fill="none" id="EvaluadorInternacional-to-Alumno" style="stroke:#181818;stroke-width:1;stroke-dasharray:7,7;"/><polygon fill="#181818" points="1254.54,288.65,1264.3321,289.7055,1259.3004,287.1207,1261.8852,282.0889,1254.54,288.65" style="stroke:#181818;stroke-width:1;"/><text fill="#000000" font-family="sans-serif" font-size="13" lengthAdjust="spacing" textLength="24.245" x="1536.66" y="247.037">else</text></g><!--link EvaluadorInternacional to AlumnoErasmus--><g class="link" data-entity-1="ent0006" data-entity-2="ent0012" data-link-type="dependency" data-source-line="52" id="lnk41"><path codeLine="52" d="M2120.15,170.96 C1900.38,174.78 1368.03,188.4 1194.59,232.14 C1144.27,244.83 1132.39,253.29 1088.59,281.14 C1060.65,298.91 1061.89,315.77 1031.59,329.14 C1018.7,334.83 634.6936,383.2755 471.8836,403.6355" fill="none" id="EvaluadorInternacional-to-AlumnoErasmus" style="stroke:#181818;stroke-width:1;stroke-dasharray:7,7;"/><polygon fill="#181818" points="465.93,404.38,475.3568,407.2323,470.8914,403.7596,474.3641,399.2941,465.93,404.38" style="stroke:#181818;stroke-width:1;"/><text fill="#000000" font-family="sans-serif" font-size="13" lengthAdjust="spacing" textLength="63.5441" x="1089.59" y="310.537">instanceof</text></g><!--link EvaluadorInternacional to AlumnoVirtual--><g class="link" data-entity-1="ent0006" data-entity-2="ent0014" data-link-type="dependency" data-source-line="53" id="lnk42"><path codeLine="53" d="M2120,186.32 C2020.7,204.75 1862.3,237.66 1729.59,281.14 C1678.52,297.88 1670.7,315.94 1618.59,329.14 C1449.13,372.06 920.0029,400.8982 735.1429,409.8982" fill="none" id="EvaluadorInternacional-to-AlumnoVirtual" style="stroke:#181818;stroke-width:1;stroke-dasharray:7,7;"/><polygon fill="#181818" points="729.15,410.19,738.3339,413.7476,734.1441,409.9469,737.9448,405.7571,729.15,410.19" style="stroke:#181818;stroke-width:1;"/><text fill="#000000" font-family="sans-serif" font-size="13" lengthAdjust="spacing" textLength="63.5441" x="1730.59" y="310.537">instanceof</text></g><!--link EvaluadorInternacional to AlumnoInvestigador--><g class="link" data-entity-1="ent0006" data-entity-2="ent0016" data-link-type="dependency" data-source-line="54" id="lnk43"><path codeLine="54" d="M2233.14,202.59 C2237.03,211.91 2240.61,222.22 2242.59,232.14 C2251.56,277.09 2245.15,302.87 2207.59,329.14 C2129.91,383.47 1450.76,379.26 1356.59,390.14 C1336.98,392.41 1321.8675,394.5001 1302.1075,397.6001" fill="none" id="EvaluadorInternacional-to-AlumnoInvestigador" style="stroke:#181818;stroke-width:1;stroke-dasharray:7,7;"/><polygon fill="#181818" points="1296.18,398.53,1305.6912,401.0868,1301.1196,397.7551,1304.4513,393.1835,1296.18,398.53" style="stroke:#181818;stroke-width:1;"/><text fill="#000000" font-family="sans-serif" font-size="13" lengthAdjust="spacing" textLength="63.5441" x="2245.31" y="310.537">instanceof</text></g><!--link EvaluadorInternacional to AlumnoDeportista--><g class="link" data-entity-1="ent0006" data-entity-2="ent0018" data-link-type="dependency" data-source-line="55" id="lnk44"><path codeLine="55" d="M2313.04,172.13 C2449.72,179.88 2676.49,210.44 2612.59,329.14 C2575.2,398.6 2342.7693,411.301 2217.4093,413.161" fill="none" id="EvaluadorInternacional-to-AlumnoDeportista" style="stroke:#181818;stroke-width:1;stroke-dasharray:7,7;"/><polygon fill="#181818" points="2211.41,413.25,2220.4684,417.116,2216.4094,413.1758,2220.3497,409.1169,2211.41,413.25" style="stroke:#181818;stroke-width:1;"/><text fill="#000000" font-family="sans-serif" font-size="13" lengthAdjust="spacing" textLength="63.5441" x="2624.67" y="310.537">instanceof</text></g><!--link EvaluadorInternacional to AlumnoDiscapacidad--><g class="link" data-entity-1="ent0006" data-entity-2="ent0020" data-link-type="dependency" data-source-line="56" id="lnk45"><path codeLine="56" d="M2273.75,202.58 C2300.54,221.63 2329.41,248.34 2342.59,281.14 C2350.55,300.93 2352.71,310.36 2342.59,329.14 C2330.73,351.17 2319.32,352.19 2295.59,360.14 C2225.82,383.51 1749.9161,402.8341 1551.0861,409.9941" fill="none" id="EvaluadorInternacional-to-AlumnoDiscapacidad" style="stroke:#181818;stroke-width:1;stroke-dasharray:7,7;"/><polygon fill="#181818" points="1545.09,410.21,1554.2281,413.8835,1550.0868,410.0301,1553.9402,405.8887,1545.09,410.21" style="stroke:#181818;stroke-width:1;"/><text fill="#000000" font-family="sans-serif" font-size="13" lengthAdjust="spacing" textLength="63.5441" x="2350.39" y="310.537">instanceof</text></g><?plantuml-src dPJ1JiCm38RlUOeSGMXxW0aX3R73pfEuczIWI6qonUakO-zEM0fhI-osNDfA_h_Q_jG6tYW6C56R6eZqxWHr2vKFpsY0z5df1ts6BdFHU2s7ktHjdD_exVL-hovAZVYjWGeRQtn-1m-Ek8CtrgFnply3Vi6Z3n5f8RPt4OE3rDX1FSMgaQB7pzMgiBOS6sufPt-MabE37PJAy-PCVju5eAQbGkNLXjWcw6zbxqv8qNvyDoYKysIM8fIAbWmSqq0LL3rfj-zYlNxgedgZiIQKGztyAMjTwkWC-dUPwFPQGFJtNO3TF2o1Udw6cE9-1i4OcvIriPZiZiLc26JPIOiyEKFbxz4WI2naP7q5G1PN06OeAr2JiahC34t3er1mnGLbOHmbM-Ee6UeuTD8V2x8Ilm00?></g></svg>